<svg xmlns="http://www.w3.org/2000/svg" width="215" height="64" viewBox="0 0 215 64" fill="none">
    <path
        d="M206.211 63.6821H8.84069C4.49853 63.6821 0.945862 60.1295 0.945862 55.7873V8.41832C0.945862 4.07616 4.49853 0.523491 8.84069 0.523491H206.211C210.554 0.523491 214.106 4.07616 214.106 8.41832V55.7873C214.106 60.1295 210.554 63.6821 206.211 63.6821Z"
        fill="black" />
    <path
        d="M75.8178 16.6972C75.8178 18.0203 75.4262 19.0735 74.6415 19.8598C73.7494 20.7946 72.5888 21.262 71.1614 21.262C69.7925 21.262 68.6304 20.7883 67.6751 19.8393C66.7167 18.8919 66.2398 17.7156 66.2398 16.3135C66.2398 14.9098 66.7167 13.735 67.6751 12.7861C68.6304 11.8387 69.7925 11.3634 71.1614 11.3634C71.8388 11.3634 72.4894 11.4961 73.1051 11.7613C73.7225 12.0266 74.2167 12.3787 74.5878 12.8192L73.7541 13.6529C73.1273 12.9045 72.2636 12.5287 71.1614 12.5287C70.1635 12.5287 69.3014 12.8792 68.5735 13.5803C67.8456 14.2829 67.4825 15.1924 67.4825 16.3135C67.4825 17.433 67.8456 18.344 68.5735 19.0451C69.3014 19.7477 70.1635 20.0967 71.1614 20.0967C72.2194 20.0967 73.1004 19.7446 73.8078 19.0388C74.2657 18.5793 74.5294 17.9414 74.6004 17.1203H71.1614V15.9819H75.7515C75.7957 16.2298 75.8178 16.4682 75.8178 16.6972Z"
        fill="white" />
    <path
        d="M83.0958 12.7404H78.782V15.7436H82.6726V16.8821H78.782V19.8853H83.0958V21.0505H77.5646V11.5767H83.0958V12.7404Z"
        fill="white" />
    <path d="M88.2291 21.05H87.0117V12.74H84.3653V11.5763H90.8754V12.74H88.2291V21.05Z" fill="white" />
    <path d="M95.5858 11.5763H96.8031V21.05H95.5858V11.5763Z" fill="white" />
    <path d="M102.202 21.05H100.985V12.74H98.3385V11.5763H104.849V12.74H102.202V21.05Z" fill="white" />
    <path
        d="M111.125 19.0325C111.826 19.743 112.683 20.0967 113.699 20.0967C114.714 20.0967 115.571 19.743 116.272 19.0325C116.973 18.3219 117.325 17.4156 117.325 16.3135C117.325 15.2114 116.973 14.3035 116.272 13.5945C115.571 12.884 114.714 12.5287 113.699 12.5287C112.683 12.5287 111.826 12.884 111.125 13.5945C110.425 14.3035 110.073 15.2114 110.073 16.3135C110.073 17.4156 110.425 18.3219 111.125 19.0325ZM117.172 19.8251C116.241 20.7835 115.083 21.262 113.699 21.262C112.314 21.262 111.156 20.7835 110.226 19.8251C109.295 18.8683 108.831 17.6982 108.831 16.3135C108.831 14.9287 109.295 13.7571 110.226 12.8003C111.156 11.8434 112.314 11.3634 113.699 11.3634C115.075 11.3634 116.23 11.845 117.166 12.8066C118.101 13.7682 118.568 14.9366 118.568 16.3135C118.568 17.6982 118.102 18.8683 117.172 19.8251Z"
        fill="white" />
    <path
        d="M120.276 21.05V11.5763H121.757L126.362 18.9453H126.415L126.362 17.12V11.5763H127.581V21.05H126.31L121.492 13.3226H121.44L121.492 15.1495V21.05H120.276Z"
        fill="white" />
    <path
        d="M169.794 47.8925H172.74V28.1539H169.794V47.8925ZM196.332 35.2639L192.954 43.8219H192.853L189.348 35.2639H186.174L191.431 47.2246L188.435 53.8784H191.506L199.608 35.2639H196.332ZM179.623 45.6504C178.657 45.6504 177.311 45.1688 177.311 43.9735C177.311 42.4514 178.987 41.8672 180.435 41.8672C181.729 41.8672 182.34 42.1466 183.127 42.5272C182.898 44.3556 181.324 45.6504 179.623 45.6504ZM179.978 34.8329C177.845 34.8329 175.635 35.7724 174.722 37.855L177.337 38.9461C177.896 37.855 178.936 37.4982 180.029 37.4982C181.553 37.4982 183.102 38.4124 183.127 40.0387V40.2408C182.593 39.9361 181.452 39.4798 180.054 39.4798C177.236 39.4798 174.365 41.0287 174.365 43.923C174.365 46.5646 176.677 48.2667 179.266 48.2667C181.248 48.2667 182.34 47.3778 183.026 46.3356H183.127V47.8593H185.971V40.2914C185.971 36.7876 183.356 34.8329 179.978 34.8329ZM161.77 37.6671H157.579V30.9013H161.77C163.972 30.9013 165.223 32.725 165.223 34.2834C165.223 35.8134 163.972 37.6671 161.77 37.6671ZM161.694 28.1539H154.634V47.8925H157.579V40.4145H161.694C164.959 40.4145 168.169 38.0492 168.169 34.2834C168.169 30.5176 164.959 28.1539 161.694 28.1539ZM123.197 45.6535C121.162 45.6535 119.458 43.9498 119.458 41.6098C119.458 39.2445 121.162 37.514 123.197 37.514C125.207 37.514 126.783 39.2445 126.783 41.6098C126.783 43.9498 125.207 45.6535 123.197 45.6535ZM126.581 36.3692H126.478C125.817 35.5813 124.546 34.8692 122.943 34.8692C119.584 34.8692 116.507 37.8187 116.507 41.6098C116.507 45.3741 119.584 48.2999 122.943 48.2999C124.546 48.2999 125.817 47.5878 126.478 46.773H126.581V47.7409C126.581 50.3099 125.207 51.6836 122.993 51.6836C121.187 51.6836 120.068 50.3857 119.61 49.2915L117.041 50.3604C117.778 52.1415 119.738 54.3284 122.993 54.3284C126.453 54.3284 129.379 52.2931 129.379 47.3336V35.275H126.581V36.3692ZM131.414 47.8925H134.365V28.1523H131.414V47.8925ZM138.714 41.3808C138.638 38.7866 140.724 37.4634 142.224 37.4634C143.395 37.4634 144.387 38.0477 144.717 38.8877L138.714 41.3808ZM147.872 39.1419C147.313 37.6419 145.607 34.8692 142.123 34.8692C138.663 34.8692 135.789 37.5898 135.789 41.5845C135.789 45.3488 138.638 48.2999 142.453 48.2999C145.532 48.2999 147.313 46.4177 148.05 45.3235L145.761 43.7967C144.998 44.9162 143.954 45.6535 142.453 45.6535C140.953 45.6535 139.884 44.9667 139.197 43.6198L148.176 39.9045L147.872 39.1419ZM76.3319 36.9297V39.7782H83.1483C82.9446 41.3808 82.4109 42.5509 81.5977 43.364C80.6045 44.3572 79.0524 45.4514 76.3319 45.4514C72.1334 45.4514 68.8523 42.0677 68.8523 37.8708C68.8523 33.6723 72.1334 30.2902 76.3319 30.2902C78.5961 30.2902 80.2493 31.1807 81.4698 32.3255L83.4798 30.3155C81.7746 28.6875 79.5119 27.4402 76.3319 27.4402C70.5828 27.4402 65.7496 32.1218 65.7496 37.8708C65.7496 43.6198 70.5828 48.2999 76.3319 48.2999C79.4345 48.2999 81.7746 47.2814 83.6062 45.3741C85.4899 43.4919 86.0741 40.8472 86.0741 38.7092C86.0741 38.0477 86.0236 37.4382 85.9209 36.9297H76.3319ZM93.8252 45.6535C91.7899 45.6535 90.0341 43.9751 90.0341 41.5845C90.0341 39.1671 91.7899 37.514 93.8252 37.514C95.8589 37.514 97.6147 39.1671 97.6147 41.5845C97.6147 43.9751 95.8589 45.6535 93.8252 45.6535ZM93.8252 34.8692C90.1099 34.8692 87.083 37.6924 87.083 41.5845C87.083 45.4514 90.1099 48.2999 93.8252 48.2999C97.539 48.2999 100.566 45.4514 100.566 41.5845C100.566 37.6924 97.539 34.8692 93.8252 34.8692ZM108.53 45.6535C106.495 45.6535 104.739 43.9751 104.739 41.5845C104.739 39.1671 106.495 37.514 108.53 37.514C110.565 37.514 112.32 39.1671 112.32 41.5845C112.32 43.9751 110.565 45.6535 108.53 45.6535ZM108.53 34.8692C104.816 34.8692 101.79 37.6924 101.79 41.5845C101.79 45.4514 104.816 48.2999 108.53 48.2999C112.244 48.2999 115.271 45.4514 115.271 41.5845C115.271 37.6924 112.244 34.8692 108.53 34.8692Z"
        fill="white" />
    <path
        d="M33.6576 31.1936L16.8463 49.0359C16.8479 49.0391 16.8479 49.0438 16.8495 49.047C17.3658 50.9843 19.1342 52.4102 21.2343 52.4102C22.0743 52.4102 22.8622 52.1828 23.538 51.7849L23.5917 51.7533L42.514 40.8348L33.6576 31.1936Z"
        fill="#EA4335" />
    <path
        d="M50.6645 28.1555L50.6487 28.1444L42.4792 23.4091L33.2754 31.5992L42.5123 40.833L50.6377 36.1451C52.0619 35.3745 53.0298 33.8729 53.0298 32.1424C53.0298 30.4213 52.0761 28.9276 50.6645 28.1555Z"
        fill="#FBBC04" />
    <path
        d="M16.846 15.1718C16.7449 15.5444 16.6913 15.936 16.6913 16.3402V47.869C16.6913 48.2732 16.7449 48.6648 16.8476 49.0359L34.2351 31.6499L16.846 15.1718Z"
        fill="#4285F4" />
    <path
        d="M33.7817 32.1045L42.4818 23.406L23.5816 12.4479C22.8947 12.0358 22.0926 11.799 21.2352 11.799C19.1352 11.799 17.3636 13.228 16.8473 15.1669C16.8473 15.1685 16.8457 15.1701 16.8457 15.1717L33.7817 32.1045Z"
        fill="#34A853" />
</svg>