<svg xmlns="http://www.w3.org/2000/svg" width="189" height="64" viewBox="0 0 189 64" fill="none">
    <path
        d="M13.3341 62.3006C12.853 62.3006 12.3836 62.2944 11.9063 62.2837C10.9175 62.2708 9.93102 62.1847 8.95496 62.0262C8.04482 61.8694 7.16315 61.5778 6.33902 61.161C5.52244 60.7477 4.77766 60.2057 4.1332 59.5559C3.47941 58.9137 2.9351 58.1688 2.52184 57.3508C2.10403 56.5275 1.81488 55.6451 1.66446 54.7342C1.50203 53.7554 1.41414 52.7657 1.40156 51.7736C1.39155 51.4406 1.37845 50.3318 1.37845 50.3318V13.8568C1.37845 13.8568 1.39241 12.7651 1.40164 12.4443C1.41368 11.4538 1.50106 10.4657 1.66301 9.48839C1.81371 8.57499 2.10308 7.68997 2.52112 6.86399C2.93286 6.04658 3.47414 5.30117 4.12399 4.65667C4.77311 4.00604 5.52028 3.46127 6.33824 3.04222C7.16048 2.62677 8.04049 2.33724 8.94878 2.18335C9.92805 2.02319 10.9179 1.9366 11.9102 1.92431L13.3349 1.90503H175.603L177.045 1.92508C178.028 1.93677 179.009 2.02258 179.979 2.18181C180.897 2.33763 181.786 2.62917 182.618 3.04684C184.256 3.89135 185.59 5.22744 186.431 6.86784C186.842 7.68813 187.127 8.56592 187.276 9.47143C187.44 10.4567 187.532 11.4526 187.55 12.4513C187.555 12.8984 187.555 13.3788 187.555 13.8568C187.567 14.4489 187.567 15.0125 187.567 15.5807V48.6264C187.567 49.2 187.567 49.7598 187.555 50.3241C187.555 50.8376 187.555 51.308 187.549 51.7921C187.53 52.7729 187.44 53.751 187.279 54.7187C187.132 55.6362 186.844 56.5255 186.426 57.3556C186.01 58.1647 185.469 58.9031 184.823 59.5435C184.178 60.1969 183.432 60.7421 182.613 61.1581C181.784 61.578 180.896 61.8707 179.979 62.0262C179.003 62.1856 178.017 62.2717 177.028 62.2837C176.565 62.2944 176.081 62.3006 175.611 62.3006L173.899 62.3037L13.3341 62.3006Z"
        fill="black" />
    <path
        d="M39.1093 32.5776C39.1263 31.2597 39.4764 29.9675 40.127 28.8213C40.7775 27.675 41.7075 26.7119 42.8303 26.0217C42.117 25.003 41.176 24.1646 40.0821 23.5732C38.9881 22.9818 37.7713 22.6536 36.5284 22.6147C33.8769 22.3364 31.3064 24.2013 29.9553 24.2013C28.578 24.2013 26.4977 22.6424 24.2576 22.6885C22.8086 22.7353 21.3964 23.1566 20.1587 23.9115C18.921 24.6663 17.8999 25.7289 17.195 26.9957C14.1412 32.2827 16.419 40.0529 19.3442 44.3266C20.8078 46.4193 22.5183 48.7568 24.7564 48.674C26.9465 48.5831 27.7645 47.2774 30.4081 47.2774C33.0273 47.2774 33.7947 48.6739 36.0782 48.6212C38.4283 48.5831 39.909 46.5193 41.3212 44.4068C42.3727 42.9156 43.1819 41.2676 43.7187 39.5238C42.3534 38.9463 41.1882 37.9797 40.3686 36.7445C39.5489 35.5093 39.1109 34.0601 39.1093 32.5776Z"
        fill="white" />
    <path
        d="M34.7962 19.8041C36.0775 18.2658 36.7088 16.2887 36.556 14.2925C34.5983 14.4981 32.79 15.4337 31.4913 16.913C30.8563 17.6356 30.37 18.4763 30.0601 19.387C29.7503 20.2977 29.6229 21.2605 29.6854 22.2205C30.6646 22.2306 31.6333 22.0183 32.5186 21.5998C33.4038 21.1812 34.1826 20.5672 34.7962 19.8041Z"
        fill="white" />
    <path
        d="M66.794 43.376H59.3201L57.5252 48.6757H54.3596L61.4387 29.0681H64.7277L71.8069 48.6757H68.5872L66.794 43.376ZM60.0941 40.9305H66.0184L63.0979 32.3294H63.0162L60.0941 40.9305Z"
        fill="white" />
    <path
        d="M87.0955 41.5288C87.0955 45.9712 84.7177 48.8253 81.1296 48.8253C80.2207 48.8729 79.3167 48.6635 78.5212 48.2212C77.7258 47.7789 77.0709 47.1215 76.6317 46.3243H76.5638V53.4049H73.6295V34.3802H76.4698V36.7579H76.5238C76.9832 35.9646 77.6491 35.3106 78.4506 34.8655C79.2521 34.4205 80.1593 34.2011 81.0756 34.2307C84.7038 34.2307 87.0955 37.0987 87.0955 41.5288ZM84.0794 41.5288C84.0794 38.6345 82.5837 36.7317 80.3016 36.7317C78.0596 36.7317 76.5515 38.6746 76.5515 41.5288C76.5515 44.4092 78.0596 46.3382 80.3016 46.3382C82.5837 46.3382 84.0794 44.4493 84.0794 41.5288Z"
        fill="white" />
    <path
        d="M102.83 41.5288C102.83 45.9712 100.452 48.8253 96.8637 48.8253C95.9548 48.8729 95.0508 48.6635 94.2554 48.2212C93.4599 47.7788 92.8051 47.1214 92.3658 46.3242H92.2979V53.4049H89.3636V34.3802H92.2039V36.7579H92.2578C92.7172 35.9646 93.3831 35.3106 94.1847 34.8655C94.9862 34.4205 95.8934 34.2011 96.8097 34.2307C100.438 34.2307 102.83 37.0987 102.83 41.5288ZM99.8135 41.5288C99.8135 38.6345 98.3178 36.7317 96.0357 36.7317C93.7937 36.7317 92.2856 38.6746 92.2856 41.5288C92.2856 44.4092 93.7937 46.3381 96.0357 46.3381C98.3178 46.3381 99.8135 44.4492 99.8135 41.5288H99.8135Z"
        fill="white" />
    <path
        d="M113.229 43.2126C113.446 45.157 115.335 46.4337 117.916 46.4337C120.389 46.4337 122.169 45.157 122.169 43.4037C122.169 41.8818 121.096 40.9705 118.555 40.346L116.013 39.7339C112.413 38.8642 110.741 37.1804 110.741 34.448C110.741 31.0649 113.69 28.7412 117.876 28.7412C122.019 28.7412 124.86 31.0649 124.955 34.448H121.993C121.816 32.4913 120.198 31.3101 117.834 31.3101C115.471 31.3101 113.853 32.5052 113.853 34.2445C113.853 35.6307 114.886 36.4464 117.413 37.0708L119.574 37.6013C123.597 38.5527 125.268 40.1687 125.268 43.0367C125.268 46.705 122.346 49.0025 117.699 49.0025C113.35 49.0025 110.414 46.759 110.225 43.2125L113.229 43.2126Z"
        fill="white" />
    <path
        d="M131.601 30.9973V34.3804H134.32V36.7041H131.601V44.5851C131.601 45.8094 132.145 46.3799 133.34 46.3799C133.663 46.3743 133.985 46.3516 134.306 46.312V48.6219C133.768 48.7223 133.222 48.7677 132.676 48.7576C129.782 48.7576 128.653 47.6705 128.653 44.898V36.7041H126.574V34.3804H128.653V30.9973H131.601Z"
        fill="white" />
    <path
        d="M135.894 41.5289C135.894 37.031 138.543 34.2046 142.674 34.2046C146.819 34.2046 149.455 37.0309 149.455 41.5289C149.455 46.0392 146.833 48.8532 142.674 48.8532C138.517 48.8532 135.894 46.0391 135.894 41.5289ZM146.466 41.5289C146.466 38.4434 145.052 36.6224 142.674 36.6224C140.296 36.6224 138.884 38.4573 138.884 41.5289C138.884 44.6267 140.296 46.4339 142.674 46.4339C145.052 46.4339 146.466 44.6267 146.466 41.5289H146.466Z"
        fill="white" />
    <path
        d="M151.875 34.3804H154.673V36.8135H154.741C154.931 36.0536 155.376 35.382 156.002 34.9117C156.628 34.4413 157.397 34.2009 158.18 34.2308C158.518 34.2296 158.855 34.2663 159.185 34.3402V37.0849C158.758 36.9545 158.313 36.8946 157.867 36.9076C157.441 36.8903 157.016 36.9655 156.621 37.1279C156.227 37.2904 155.872 37.5363 155.581 37.8488C155.291 38.1612 155.072 38.5328 154.938 38.9381C154.805 39.3434 154.761 39.7727 154.809 40.1966V48.6759H151.875L151.875 34.3804Z"
        fill="white" />
    <path
        d="M172.714 44.4771C172.32 47.0723 169.792 48.8532 166.559 48.8532C162.4 48.8532 159.819 46.0669 159.819 41.5968C159.819 37.1127 162.414 34.2046 166.436 34.2046C170.391 34.2046 172.878 36.9215 172.878 41.256V42.2613H162.781V42.4387C162.735 42.9648 162.8 43.4948 162.974 43.9935C163.148 44.4922 163.426 44.9482 163.79 45.3311C164.154 45.7141 164.595 46.0153 165.084 46.2148C165.573 46.4142 166.099 46.5073 166.627 46.4878C167.32 46.5528 168.016 46.3922 168.611 46.0299C169.206 45.6677 169.668 45.1231 169.928 44.4771L172.714 44.4771ZM162.795 40.2105H169.942C169.968 39.7375 169.897 39.2641 169.731 38.8201C169.566 38.376 169.311 37.971 168.982 37.6303C168.652 37.2896 168.256 37.0206 167.818 36.8403C167.38 36.66 166.909 36.5721 166.436 36.5823C165.958 36.5794 165.484 36.6713 165.042 36.8524C164.6 37.0336 164.198 37.3006 163.859 37.6379C163.521 37.9752 163.253 38.3762 163.07 38.8178C162.887 39.2593 162.794 39.7327 162.795 40.2105V40.2105Z"
        fill="white" />
    <path
        d="M59.7264 14.3095C60.3416 14.2654 60.9589 14.3583 61.5338 14.5816C62.1087 14.8049 62.6269 15.1531 63.051 15.6009C63.4751 16.0487 63.7945 16.5851 63.9862 17.1713C64.1779 17.7576 64.2371 18.379 64.1595 18.9909C64.1595 22.0008 62.5328 23.731 59.7264 23.731H56.3233V14.3095H59.7264ZM57.7866 22.3986H59.5629C60.0025 22.4249 60.4424 22.3528 60.8507 22.1876C61.2589 22.0224 61.6252 21.7683 61.9228 21.4437C62.2204 21.1191 62.4419 20.7323 62.5712 20.3113C62.7004 19.8903 62.7342 19.4458 62.67 19.0101C62.7295 18.5762 62.6923 18.1344 62.5611 17.7165C62.4299 17.2986 62.2078 16.9149 61.9109 16.5929C61.6139 16.2709 61.2494 16.0186 60.8435 15.854C60.4376 15.6894 60.0003 15.6167 59.5629 15.6409H57.7866V22.3986Z"
        fill="white" />
    <path
        d="M65.8125 20.1727C65.7678 19.7055 65.8213 19.234 65.9695 18.7887C66.1176 18.3433 66.3573 17.9338 66.673 17.5864C66.9887 17.2391 67.3735 16.9616 67.8027 16.7717C68.232 16.5817 68.6962 16.4836 69.1655 16.4836C69.6349 16.4836 70.0991 16.5817 70.5284 16.7717C70.9576 16.9616 71.3424 17.2391 71.6581 17.5864C71.9738 17.9338 72.2134 18.3433 72.3616 18.7887C72.5098 19.234 72.5632 19.7055 72.5185 20.1727C72.5641 20.6404 72.5113 21.1125 72.3635 21.5586C72.2157 22.0047 71.9762 22.415 71.6604 22.763C71.3447 23.111 70.9596 23.3891 70.5299 23.5794C70.1002 23.7698 69.6355 23.8681 69.1655 23.8681C68.6956 23.8681 68.2309 23.7698 67.8012 23.5794C67.3715 23.3891 66.9864 23.111 66.6706 22.763C66.3548 22.415 66.1154 22.0047 65.9676 21.5586C65.8198 21.1125 65.767 20.6404 65.8125 20.1727ZM71.0752 20.1727C71.0752 18.6315 70.3829 17.7303 69.1678 17.7303C67.9482 17.7303 67.262 18.6315 67.262 20.1727C67.262 21.7263 67.9482 22.6206 69.1678 22.6206C70.3829 22.6206 71.0753 21.7201 71.0753 20.1727H71.0752Z"
        fill="white" />
    <path
        d="M81.4326 23.7306H79.977L78.5075 18.4941H78.3965L76.9331 23.7306H75.4914L73.5316 16.6206H74.9548L76.2285 22.0459H76.3333L77.7951 16.6206H79.1412L80.603 22.0459H80.714L81.9815 16.6206H83.3847L81.4326 23.7306Z"
        fill="white" />
    <path
        d="M85.0331 16.6208H86.3838V17.7503H86.4887C86.6666 17.3446 86.9666 17.0046 87.3469 16.7775C87.7272 16.5504 88.1689 16.4477 88.6104 16.4836C88.9564 16.4576 89.3038 16.5097 89.6268 16.6362C89.9499 16.7627 90.2403 16.9602 90.4767 17.2142C90.713 17.4681 90.8892 17.772 90.9921 18.1033C91.0951 18.4346 91.1222 18.7848 91.0714 19.128V23.7307H89.6682V19.4804C89.6682 18.3378 89.1717 17.7696 88.134 17.7696C87.8991 17.7586 87.6646 17.7986 87.4466 17.8868C87.2286 17.9749 87.0323 18.1092 86.871 18.2803C86.7098 18.4514 86.5874 18.6554 86.5124 18.8783C86.4374 19.1011 86.4114 19.3375 86.4363 19.5713V23.7308H85.0331L85.0331 16.6208Z"
        fill="white" />
    <path d="M93.3073 13.8452H94.7105V23.7307H93.3073V13.8452Z" fill="white" />
    <path
        d="M96.661 20.1726C96.6164 19.7053 96.6698 19.2339 96.8181 18.7885C96.9663 18.3431 97.2059 17.9336 97.5216 17.5862C97.8374 17.2389 98.2222 16.9613 98.6515 16.7714C99.0808 16.5815 99.545 16.4834 100.014 16.4834C100.484 16.4834 100.948 16.5815 101.377 16.7714C101.807 16.9613 102.191 17.2389 102.507 17.5862C102.823 17.9336 103.063 18.3431 103.211 18.7885C103.359 19.2339 103.412 19.7053 103.368 20.1726C103.413 20.6403 103.36 21.1124 103.213 21.5585C103.065 22.0046 102.825 22.4149 102.509 22.7629C102.194 23.1109 101.808 23.389 101.379 23.5793C100.949 23.7696 100.484 23.8679 100.014 23.8679C99.5445 23.8679 99.0797 23.7696 98.65 23.5793C98.2203 23.389 97.8352 23.1109 97.5194 22.7629C97.2036 22.4149 96.9641 22.0046 96.8162 21.5585C96.6684 21.1124 96.6155 20.6403 96.661 20.1726ZM101.924 20.1726C101.924 18.6314 101.231 17.7301 100.016 17.7301C98.7966 17.7301 98.1105 18.6314 98.1105 20.1726C98.1105 21.7261 98.7967 22.6205 100.016 22.6205C101.231 22.6205 101.924 21.72 101.924 20.1726H101.924Z"
        fill="white" />
    <path
        d="M104.845 21.7199C104.845 20.4401 105.798 19.7022 107.489 19.5974L109.415 19.4864V18.8727C109.415 18.1217 108.919 17.6977 107.96 17.6977C107.176 17.6977 106.634 17.9853 106.478 18.4879H105.119C105.263 17.2667 106.412 16.4834 108.024 16.4834C109.807 16.4834 110.812 17.3708 110.812 18.8727V23.7306H109.462V22.7314H109.351C109.125 23.0898 108.809 23.382 108.434 23.5782C108.058 23.7743 107.638 23.8673 107.215 23.8478C106.916 23.8788 106.615 23.847 106.329 23.7543C106.044 23.6616 105.781 23.5101 105.558 23.3096C105.335 23.1092 105.156 22.8641 105.033 22.5903C104.91 22.3165 104.846 22.02 104.845 21.7199ZM109.415 21.1124V20.5179L107.679 20.629C106.7 20.6945 106.256 21.0275 106.256 21.6543C106.256 22.2943 106.811 22.6666 107.574 22.6666C107.798 22.6893 108.024 22.6667 108.239 22.6002C108.453 22.5338 108.653 22.4248 108.824 22.2798C108.996 22.1348 109.137 21.9567 109.238 21.7561C109.34 21.5556 109.4 21.3366 109.415 21.1124Z"
        fill="white" />
    <path
        d="M112.657 20.1727C112.657 17.926 113.812 16.5028 115.608 16.5028C116.052 16.4823 116.493 16.5888 116.879 16.8097C117.265 17.0305 117.581 17.3568 117.788 17.7502H117.893V13.8452H119.296V23.7307H117.952V22.6074H117.841C117.617 22.9982 117.291 23.3203 116.897 23.539C116.504 23.7577 116.058 23.8645 115.608 23.8479C113.799 23.848 112.657 22.4247 112.657 20.1727ZM114.106 20.1727C114.106 21.6807 114.817 22.5882 116.006 22.5882C117.188 22.5882 117.919 21.6676 117.919 20.1789C117.919 18.697 117.181 17.7634 116.006 17.7634C114.825 17.7634 114.106 18.677 114.106 20.1727H114.106Z"
        fill="white" />
    <path
        d="M125.102 20.1727C125.057 19.7055 125.111 19.234 125.259 18.7887C125.407 18.3433 125.646 17.9338 125.962 17.5864C126.278 17.2391 126.663 16.9616 127.092 16.7717C127.521 16.5817 127.985 16.4836 128.455 16.4836C128.924 16.4836 129.388 16.5817 129.818 16.7717C130.247 16.9616 130.632 17.2391 130.947 17.5864C131.263 17.9338 131.503 18.3433 131.651 18.7887C131.799 19.234 131.852 19.7055 131.808 20.1727C131.853 20.6404 131.8 21.1125 131.653 21.5586C131.505 22.0047 131.265 22.415 130.95 22.763C130.634 23.111 130.249 23.3891 129.819 23.5794C129.389 23.7698 128.925 23.8681 128.455 23.8681C127.985 23.8681 127.52 23.7698 127.09 23.5794C126.661 23.3891 126.276 23.111 125.96 22.763C125.644 22.415 125.405 22.0047 125.257 21.5586C125.109 21.1125 125.056 20.6404 125.102 20.1727ZM130.364 20.1727C130.364 18.6315 129.672 17.7303 128.457 17.7303C127.237 17.7303 126.551 18.6315 126.551 20.1727C126.551 21.7263 127.237 22.6206 128.457 22.6206C129.672 22.6206 130.364 21.7201 130.364 20.1727Z"
        fill="white" />
    <path
        d="M133.69 16.6208H135.041V17.7503H135.146C135.324 17.3446 135.624 17.0046 136.004 16.7775C136.385 16.5504 136.826 16.4477 137.268 16.4836C137.614 16.4576 137.961 16.5097 138.284 16.6362C138.607 16.7627 138.898 16.9602 139.134 17.2142C139.37 17.4681 139.547 17.772 139.65 18.1033C139.753 18.4346 139.78 18.7848 139.729 19.128V23.7307H138.326V19.4804C138.326 18.3378 137.829 17.7696 136.791 17.7696C136.557 17.7586 136.322 17.7986 136.104 17.8868C135.886 17.9749 135.69 18.1092 135.528 18.2803C135.367 18.4514 135.245 18.6554 135.17 18.8783C135.095 19.1011 135.069 19.3375 135.094 19.5713V23.7308H133.69V16.6208Z"
        fill="white" />
    <path
        d="M147.658 14.8506V16.6531H149.198V17.8351H147.658V21.491C147.658 22.2358 147.964 22.5619 148.663 22.5619C148.842 22.5614 149.02 22.5506 149.198 22.5296V23.6984C148.946 23.7434 148.691 23.7674 148.435 23.7701C146.874 23.7701 146.253 23.2211 146.253 21.8503V17.835H145.124V16.6531H146.253V14.8506H147.658Z"
        fill="white" />
    <path
        d="M151.115 13.8452H152.505V17.7633H152.616C152.803 17.3539 153.111 17.0119 153.499 16.784C153.887 16.5561 154.336 16.4533 154.784 16.4897C155.129 16.471 155.473 16.5284 155.792 16.658C156.111 16.7875 156.398 16.9859 156.632 17.2391C156.866 17.4923 157.041 17.7939 157.145 18.1226C157.249 18.4512 157.279 18.7987 157.233 19.1403V23.7307H155.828V19.4865C155.828 18.3508 155.3 17.7757 154.308 17.7757C154.067 17.7559 153.824 17.789 153.597 17.8728C153.37 17.9566 153.164 18.0889 152.994 18.2606C152.823 18.4323 152.692 18.6392 152.61 18.8668C152.528 19.0944 152.496 19.3372 152.518 19.5782V23.7307H151.115L151.115 13.8452Z"
        fill="white" />
    <path
        d="M165.415 21.811C165.224 22.4608 164.811 23.0229 164.248 23.3989C163.685 23.7749 163.007 23.941 162.334 23.868C161.865 23.8803 161.4 23.7906 160.97 23.605C160.539 23.4195 160.155 23.1425 159.842 22.7933C159.53 22.4441 159.297 22.0311 159.16 21.583C159.023 21.1349 158.985 20.6623 159.05 20.1981C158.987 19.7325 159.026 19.2589 159.162 18.8094C159.299 18.3599 159.53 17.945 159.841 17.5928C160.152 17.2406 160.535 16.9592 160.964 16.7679C161.393 16.5765 161.858 16.4795 162.328 16.4835C164.306 16.4835 165.5 17.8351 165.5 20.0678V20.5574H160.479V20.636C160.457 20.8969 160.49 21.1596 160.575 21.4071C160.661 21.6546 160.797 21.8815 160.975 22.0733C161.153 22.265 161.37 22.4175 161.61 22.5207C161.851 22.624 162.111 22.6758 162.372 22.6729C162.708 22.7132 163.048 22.6528 163.349 22.4993C163.651 22.3458 163.899 22.1062 164.064 21.8109L165.415 21.811ZM160.479 19.5196H164.07C164.088 19.281 164.055 19.0413 163.975 18.816C163.894 18.5906 163.768 18.3846 163.603 18.2111C163.438 18.0377 163.239 17.9006 163.018 17.8088C162.797 17.7169 162.559 17.6723 162.32 17.6778C162.077 17.6747 161.836 17.7203 161.612 17.8118C161.387 17.9033 161.183 18.0388 161.011 18.2105C160.839 18.3822 160.704 18.5864 160.613 18.8113C160.521 19.0361 160.476 19.277 160.479 19.5196H160.479Z"
        fill="white" />
</svg>