<svg xmlns="http://www.w3.org/2000/svg" width="25" height="25" viewBox="0 0 25 25" fill="none">
    <mask id="mask0_2802_48198" style="mask-type:alpha" maskUnits="userSpaceOnUse" x="0" y="0" width="25" height="25">
        <rect x="0.378784" y="0.5" width="24" height="24" fill="#D9D9D9" />
    </mask>
    <g mask="url(#mask0_2802_48198)">
        <path
            d="M20.3407 21.7034C18.2331 21.7034 16.1508 21.2443 14.0937 20.326C12.0367 19.4077 10.1629 18.1042 8.47227 16.4156C6.78169 14.727 5.47724 12.8536 4.55894 10.7952C3.64066 8.73683 3.18152 6.65316 3.18152 4.54417C3.18152 4.18781 3.29974 3.89083 3.53617 3.65325C3.7726 3.41567 4.06815 3.29688 4.42282 3.29688H8.46684C8.79184 3.29688 9.06992 3.39298 9.30107 3.5852C9.53223 3.77742 9.67644 4.02371 9.73369 4.32407L10.3777 7.69852C10.427 8.02497 10.4196 8.30178 10.3557 8.52895C10.2917 8.75613 10.1692 8.95432 9.98804 9.12352L7.52717 11.5257C7.84455 12.0985 8.22046 12.6565 8.65489 13.1996C9.08931 13.7427 9.57354 14.273 10.1076 14.7904C10.6043 15.2871 11.1161 15.7424 11.6429 16.1561C12.1697 16.5699 12.7219 16.9442 13.2994 17.2789L15.6913 14.905C15.8851 14.7152 16.1228 14.5788 16.4043 14.4958C16.6859 14.4128 16.9732 14.396 17.2663 14.4452L20.5549 15.1273C20.8719 15.2179 21.1224 15.3716 21.3062 15.5885C21.4901 15.8053 21.5821 16.0639 21.5821 16.3643V20.4561C21.5821 20.8125 21.4631 21.1095 21.2253 21.347C20.9874 21.5846 20.6926 21.7034 20.3407 21.7034ZM6.43967 9.4045L8.08369 7.8083L7.67064 5.5719H5.48749C5.56286 6.22733 5.67247 6.87432 5.81632 7.51285C5.96017 8.15138 6.16795 8.78193 6.43967 9.4045ZM15.4136 18.3844C16.0397 18.6558 16.6793 18.8728 17.3323 19.0355C17.9854 19.1982 18.6436 19.3085 19.307 19.3664V17.1964L17.0766 16.7333L15.4136 18.3844Z"
            fill="#111927" />
    </g>
</svg>