<svg xmlns="http://www.w3.org/2000/svg" width="32" height="33" viewBox="0 0 32 33" fill="none">
    <mask id="mask0_1379_5852" style="mask-type:alpha" maskUnits="userSpaceOnUse" x="0" y="0" width="32" height="33">
        <rect y="0.523682" width="32" height="32" fill="#D9D9D9" />
    </mask>
    <g mask="url(#mask0_1379_5852)">
        <path
            d="M16 7.52583L5.4529 11.7447V25.7374H7.88043V18.4708C7.88043 17.6312 8.17609 16.9157 8.7674 16.3244C9.35869 15.7331 10.0741 15.4374 10.9138 15.4374H21.0862C21.9259 15.4374 22.6413 15.7331 23.2326 16.3244C23.8239 16.9157 24.1196 17.6312 24.1196 18.4708V25.7374H26.5471V11.7447L16 7.52583ZM2.41956 25.7374V11.7367C2.41956 11.1067 2.59036 10.5381 2.93196 10.0308C3.27359 9.5234 3.7354 9.15558 4.3174 8.92729L14.8645 4.71639C15.2234 4.56713 15.6019 4.49249 16 4.49249C16.3981 4.49249 16.7766 4.56713 17.1355 4.71639L27.6826 8.92729C28.2646 9.15558 28.7264 9.5234 29.068 10.0308C29.4096 10.5381 29.5804 11.1067 29.5804 11.7367V25.7374C29.5804 26.577 29.2848 27.2925 28.6935 27.8838C28.1022 28.4751 27.3867 28.7708 26.5471 28.7708H21.2138V18.3432H10.7862V28.7708H5.4529C4.61327 28.7708 3.89782 28.4751 3.30653 27.8838C2.7152 27.2925 2.41956 26.577 2.41956 25.7374ZM12.1196 28.7708V26.1041H14.7862V28.7708H12.1196ZM14.6667 24.7708V22.1041H17.3333V24.7708H14.6667ZM17.2138 28.7708V26.1041H19.8804V28.7708H17.2138Z"
            fill="#111927" />
    </g>
</svg>