<svg xmlns="http://www.w3.org/2000/svg" width="25" height="25" viewBox="0 0 25 25" fill="none">
    <mask id="mask0_2805_3430" style="mask-type:alpha" maskUnits="userSpaceOnUse" x="0" y="0" width="25" height="25">
        <rect x="0.5" y="0.0236816" width="24" height="24" fill="#D9D9D9" />
    </mask>
    <g mask="url(#mask0_2805_3430)">
        <path
            d="M16.3462 13.1612H5.43425C5.11503 13.1612 4.84564 13.0514 4.62607 12.8318C4.40651 12.6122 4.29672 12.3429 4.29672 12.0237C4.29672 11.7045 4.40651 11.4351 4.62607 11.2155C4.84564 10.9959 5.11503 10.8862 5.43425 10.8862H16.3462L11.6793 6.21931C11.4514 5.99141 11.3407 5.7242 11.347 5.41769C11.3533 5.11117 11.4705 4.84396 11.6984 4.61606C11.9263 4.40483 12.1935 4.29604 12.5 4.28969C12.8065 4.28335 13.0737 4.39414 13.3016 4.62204L19.9016 11.222C20.0136 11.334 20.0954 11.4583 20.147 11.5949C20.1986 11.7314 20.2244 11.8744 20.2244 12.0237C20.2244 12.1729 20.1986 12.3159 20.147 12.4525C20.0954 12.5891 20.0136 12.7133 19.9016 12.8253L13.2956 19.4313C13.0804 19.6465 12.8174 19.7541 12.5065 19.7541C12.1957 19.7541 11.9263 19.6465 11.6984 19.4313C11.4705 19.2034 11.3565 18.933 11.3565 18.6201C11.3565 18.3073 11.4705 18.0369 11.6984 17.809L16.3462 13.1612Z"
            fill="#EF6C00" />
    </g>
</svg>