<svg xmlns="http://www.w3.org/2000/svg" width="32" height="33" viewBox="0 0 32 33" fill="none">
    <mask id="mask0_1379_5835" style="mask-type:alpha" maskUnits="userSpaceOnUse" x="0" y="0" width="32" height="33">
        <rect y="0.523682" width="32" height="32" fill="#D9D9D9" />
    </mask>
    <g mask="url(#mask0_1379_5835)">
        <path
            d="M9.21377 12.4041V4.52367C9.21377 4.11203 9.353 3.76696 9.63147 3.48847C9.90996 3.21 10.255 3.07077 10.6667 3.07077C11.0783 3.07077 11.4234 3.21 11.7019 3.48847C11.9803 3.76696 12.1196 4.11203 12.1196 4.52367V12.4041H13.4529V4.52367C13.4529 4.11203 13.594 3.76696 13.8761 3.48847C14.1582 3.21 14.5041 3.07077 14.9138 3.07077C15.3234 3.07077 15.668 3.21 15.9475 3.48847C16.2269 3.76696 16.3667 4.11203 16.3667 4.52367V12.4041C16.3667 13.7187 15.9515 14.869 15.121 15.8549C14.2906 16.8408 13.2901 17.4894 12.1196 17.8005V28.5237C12.1196 28.9353 11.9803 29.2804 11.7019 29.5589C11.4234 29.8373 11.0783 29.9766 10.6667 29.9766C10.255 29.9766 9.90996 29.8373 9.63147 29.5589C9.353 29.2804 9.21377 28.9353 9.21377 28.5237V17.8005C8.04323 17.4894 7.04274 16.8408 6.2123 15.8549C5.38188 14.869 4.96667 13.7187 4.96667 12.4041V4.52367C4.96667 4.11203 5.10772 3.76696 5.38983 3.48847C5.67197 3.21 6.01787 3.07077 6.42753 3.07077C6.8372 3.07077 7.18177 3.21 7.46123 3.48847C7.7407 3.76696 7.88043 4.11203 7.88043 4.52367V12.4041H9.21377ZM22.9138 19.3099H20.4304C20.0048 19.3099 19.6457 19.1635 19.3529 18.8708C19.0601 18.578 18.9138 18.2188 18.9138 17.7932V9.857C18.9138 8.28551 19.4979 6.7616 20.6663 5.28527C21.8347 3.80894 23.0353 3.07077 24.2681 3.07077C24.716 3.07077 25.0865 3.24758 25.3797 3.6012C25.673 3.95482 25.8196 4.36931 25.8196 4.84467V28.5237C25.8196 28.9353 25.6803 29.2804 25.4019 29.5589C25.1234 29.8373 24.7783 29.9766 24.3667 29.9766C23.955 29.9766 23.61 29.8373 23.3315 29.5589C23.053 29.2804 22.9138 28.9353 22.9138 28.5237V19.3099Z"
            fill="#111927" />
    </g>
</svg>