<svg xmlns="http://www.w3.org/2000/svg" width="33" height="33" viewBox="0 0 33 33" fill="none">
    <mask id="mask0_1379_5827" style="mask-type:alpha" maskUnits="userSpaceOnUse" x="0" y="0" width="33" height="33">
        <rect x="0.5" y="0.523682" width="32" height="32" fill="#D9D9D9" />
    </mask>
    <g mask="url(#mask0_1379_5827)">
        <path
            d="M16.5 30.3179C16.5 27.2947 17.367 24.6748 19.1011 22.4581C20.8352 20.2414 23.0872 18.8162 25.8573 18.1824C26.2901 18.0766 26.7201 18.0443 27.1471 18.0856C27.5742 18.1269 27.9433 18.3084 28.2544 18.6302C28.537 18.9403 28.6963 19.306 28.7323 19.7273C28.7683 20.1485 28.7307 20.5613 28.6196 20.9657C27.992 23.7367 26.567 25.9882 24.3446 27.7201C22.1221 29.4519 19.5073 30.3179 16.5 30.3179ZM20.0138 26.8374C21.2804 26.3708 22.3916 25.6597 23.3471 24.7041C24.3027 23.7485 25.0138 22.6374 25.4804 21.3708C24.2138 21.8374 23.1027 22.5485 22.1471 23.5041C21.1916 24.4597 20.4804 25.5708 20.0138 26.8374ZM16.5 30.3432C16.5 27.3201 15.633 24.7001 13.8989 22.4835C12.1649 20.2668 9.91281 18.8415 7.14275 18.2077C6.7099 18.1019 6.27996 18.071 5.85291 18.115C5.42585 18.1589 5.05676 18.3418 4.74565 18.6635C4.46305 18.9737 4.30375 19.338 4.26775 19.7566C4.23177 20.1752 4.26934 20.5867 4.38045 20.9911C5.00798 23.7621 6.43298 26.0135 8.65545 27.7454C10.8779 29.4773 13.4928 30.3432 16.5 30.3432ZM12.9862 26.8374C11.7196 26.3708 10.6085 25.6597 9.65291 24.7041C8.69736 23.7485 7.98625 22.6374 7.51958 21.3708C8.78625 21.8374 9.89736 22.5485 10.8529 23.5041C11.8085 24.4597 12.5196 25.5708 12.9862 26.8374ZM16.499 12.2686C16.8562 12.2686 17.1572 12.1478 17.4022 11.9062C17.6471 11.6645 17.7696 11.3651 17.7696 11.008C17.7696 10.6508 17.6471 10.3497 17.4022 10.1048C17.1572 9.8599 16.8562 9.73744 16.499 9.73744C16.1419 9.73744 15.8425 9.8599 15.6008 10.1048C15.3592 10.3497 15.2384 10.6508 15.2384 11.008C15.2384 11.3651 15.3592 11.6645 15.6008 11.9062C15.8425 12.1478 16.1419 12.2686 16.499 12.2686ZM16.5 20.6831C15.6008 20.6831 14.7881 20.4362 14.0618 19.9425C13.3356 19.4488 12.8116 18.7971 12.4899 17.9874C12.3788 17.9874 12.2763 17.993 12.1825 18.0041C12.0887 18.0152 11.9832 18.0208 11.8659 18.0208C10.6687 18.0208 9.64418 17.5949 8.79231 16.7433C7.94045 15.8917 7.51451 14.8674 7.51451 13.6705C7.51451 13.1871 7.59627 12.7194 7.75978 12.2675C7.92331 11.8156 8.16595 11.3954 8.48768 11.007C8.18817 10.6186 7.95665 10.1991 7.79311 9.74847C7.6296 9.29787 7.54785 8.82994 7.54785 8.34467C7.54785 7.14745 7.96831 6.1229 8.80925 5.27104C9.6502 4.41917 10.6697 3.99324 11.8678 3.99324C11.983 3.99324 12.0877 3.99879 12.1819 4.0099C12.2761 4.02101 12.3788 4.02657 12.4899 4.02657C12.8116 3.2169 13.3355 2.5652 14.0616 2.07147C14.7878 1.57776 15.6003 1.3309 16.4993 1.3309C17.3983 1.3309 18.2125 1.57776 18.9417 2.07147C19.6709 2.5652 20.195 3.2169 20.5139 4.02657C20.6279 4.02657 20.7319 4.02101 20.8261 4.0099C20.9203 3.99879 21.023 3.99324 21.1341 3.99324C22.3316 3.99324 23.3507 4.41906 24.1913 5.2707C25.0319 6.12235 25.4522 7.14663 25.4522 8.34354C25.4522 8.82691 25.376 9.29457 25.2236 9.7465C25.0712 10.1984 24.8367 10.6186 24.5203 11.007C24.8145 11.3954 25.0434 11.8149 25.2069 12.2655C25.3704 12.7161 25.4522 13.1841 25.4522 13.6693C25.4522 14.8666 25.0319 15.8911 24.1913 16.743C23.3507 17.5948 22.3316 18.0208 21.1341 18.0208C21.023 18.0208 20.9205 18.0152 20.8267 18.0041C20.7329 17.993 20.6274 17.9874 20.5101 17.9874C20.1937 18.7971 19.6716 19.4488 18.9437 19.9425C18.2158 20.4362 17.4012 20.6831 16.5 20.6831ZM21.0304 15.1708C21.4592 15.1708 21.826 15.0184 22.1307 14.7137C22.4353 14.4091 22.5877 14.0423 22.5877 13.6135C22.5877 13.3024 22.5043 13.0262 22.3377 12.7849C22.171 12.5436 21.9524 12.3563 21.6818 12.2229L20.4981 11.6563C20.453 11.9007 20.386 12.1396 20.2971 12.3729C20.2082 12.6063 20.1069 12.8256 19.9931 13.0309C19.8794 13.2362 19.7434 13.4278 19.5851 13.6055C19.4269 13.7833 19.2563 13.9526 19.0732 14.1135L20.1558 14.8961C20.2722 14.985 20.4027 15.053 20.5471 15.1001C20.6916 15.1472 20.8527 15.1708 21.0304 15.1708ZM20.4971 10.3577L21.6816 9.79107C21.9523 9.65773 22.1668 9.46668 22.325 9.2179C22.4832 8.96913 22.5623 8.69774 22.5623 8.40374C22.5623 7.97402 22.4139 7.60651 22.117 7.3012C21.8202 6.99589 21.458 6.84324 21.0306 6.84324C20.8507 6.84324 20.6932 6.86597 20.5583 6.91144C20.4233 6.9569 20.2883 7.02511 20.1533 7.11607L19.0399 7.90047C19.223 8.05603 19.3978 8.22269 19.5645 8.40047C19.7312 8.57825 19.8727 8.76979 19.9891 8.9751C20.1056 9.18042 20.2082 9.39974 20.2971 9.63307C20.386 9.8664 20.4527 10.108 20.4971 10.3577ZM15.1174 7.21787C15.3449 7.12898 15.5707 7.06098 15.7946 7.01387C16.0185 6.96678 16.2537 6.94324 16.5 6.94324C16.7445 6.94324 16.9804 6.96678 17.208 7.01387C17.4355 7.06098 17.6604 7.12898 17.8826 7.21787L18.0572 5.73527C18.1017 5.32463 17.9605 4.97354 17.6337 4.682C17.3069 4.39045 16.9293 4.24467 16.5011 4.24467C16.0728 4.24467 15.6963 4.39108 15.3714 4.6839C15.0465 4.97673 14.9063 5.32585 14.9507 5.73127L15.1174 7.21787ZM16.5004 17.7693C16.9277 17.7693 17.3051 17.6236 17.6326 17.332C17.9601 17.0404 18.1017 16.6894 18.0572 16.2787L17.8826 14.7961C17.6604 14.885 17.4355 14.953 17.208 15.0001C16.9804 15.0472 16.7445 15.0708 16.5 15.0708C16.2556 15.0708 16.0209 15.0472 15.796 15.0001C15.5711 14.953 15.3449 14.885 15.1174 14.7961L14.9507 16.2827C14.9063 16.6882 15.0466 17.0373 15.3718 17.3301C15.6969 17.6229 16.0731 17.7693 16.5004 17.7693ZM12.5109 10.3577C12.5553 10.108 12.6233 9.8664 12.7149 9.63307C12.8064 9.39974 12.9077 9.18042 13.0188 8.9751C13.13 8.76979 13.2641 8.57825 13.4214 8.40047C13.5786 8.22269 13.7471 8.05603 13.9268 7.90047L12.8522 7.11787C12.7358 7.02367 12.6043 6.95435 12.4578 6.9099C12.3113 6.86546 12.1479 6.84324 11.9675 6.84324C11.5393 6.84324 11.173 6.99546 10.8687 7.2999C10.5645 7.60435 10.4123 7.97135 10.4123 8.4009C10.4123 8.69482 10.4957 8.96533 10.6623 9.21244C10.829 9.45953 11.051 9.6524 11.3283 9.79107L12.5109 10.3577ZM11.9694 15.1295C12.1493 15.1295 12.3068 15.1128 12.4417 15.0795C12.5767 15.0461 12.7135 14.9739 12.8522 14.8628L13.9601 14.1135C13.7771 13.9526 13.6035 13.7846 13.4395 13.6095C13.2755 13.4344 13.1366 13.2442 13.0228 13.0389C12.9091 12.8336 12.8064 12.6142 12.7149 12.3809C12.6233 12.1476 12.5553 11.906 12.5109 11.6563L11.3283 12.2229C11.051 12.3616 10.8346 12.5546 10.679 12.802C10.5235 13.0493 10.4457 13.3192 10.4457 13.6115C10.4679 14.0388 10.6206 14.3986 10.9036 14.6909C11.1867 14.9833 11.542 15.1295 11.9694 15.1295Z"
            fill="#111927" />
    </g>
</svg>