<svg xmlns="http://www.w3.org/2000/svg" width="32" height="33" viewBox="0 0 32 33" fill="none">
    <mask id="mask0_1379_5818" style="mask-type:alpha" maskUnits="userSpaceOnUse" x="0" y="0" width="32" height="33">
        <rect y="0.523682" width="32" height="32" fill="#D9D9D9" />
    </mask>
    <g mask="url(#mask0_1379_5818)">
        <path
            d="M6.76377 28.8903C5.92415 28.8903 5.20869 28.5947 4.6174 28.0034C4.02609 27.4121 3.73043 26.6966 3.73043 25.857V15.3447C3.21399 14.8355 2.82619 14.201 2.56703 13.4411C2.30786 12.6812 2.3116 11.8626 2.57827 10.9853L3.97827 6.45195C4.17198 5.82101 4.52052 5.29674 5.0239 4.87911C5.5273 4.46147 6.10822 4.25265 6.76667 4.25265H25.3C25.9584 4.25265 26.5351 4.45458 27.0301 4.85845C27.525 5.26231 27.8778 5.79348 28.0884 6.45195L29.4884 10.9853C29.7551 11.8519 29.7575 12.6528 29.4957 13.3878C29.2338 14.1228 28.8473 14.7618 28.3362 15.3048V25.857C28.3362 26.6966 28.0406 27.4121 27.4493 28.0034C26.858 28.5947 26.1425 28.8903 25.3029 28.8903H6.76377ZM18.9667 13.7613C19.5348 13.7613 19.9664 13.5677 20.2616 13.1805C20.5568 12.7934 20.671 12.3575 20.6043 11.8729L19.879 7.28601H17.4623V12.1237C17.4623 12.5691 17.6086 12.9534 17.9011 13.2766C18.1936 13.5998 18.5488 13.7613 18.9667 13.7613ZM12.9667 13.7613C13.4459 13.7613 13.8386 13.5998 14.1449 13.2766C14.4512 12.9534 14.6043 12.5691 14.6043 12.1237V7.28601H12.1877L11.4623 11.8729C11.3788 12.3691 11.4861 12.8078 11.7844 13.1892C12.0827 13.5706 12.4768 13.7613 12.9667 13.7613ZM7.03333 13.7613C7.41207 13.7613 7.74214 13.6222 8.02353 13.344C8.30496 13.0657 8.47634 12.7203 8.53767 12.3077L9.25507 7.28601H6.8384L5.529 11.6809C5.40098 12.1094 5.46522 12.5633 5.72173 13.0425C5.97827 13.5217 6.41547 13.7613 7.03333 13.7613ZM25.0333 13.7613C25.6512 13.7613 26.0926 13.5217 26.3576 13.0425C26.6226 12.5633 26.6826 12.1094 26.5377 11.6809L25.1616 7.28601H22.8116L23.529 12.3077C23.5903 12.7203 23.7617 13.0657 24.0431 13.344C24.3245 13.6222 24.6546 13.7613 25.0333 13.7613ZM6.76377 25.857H25.3029V16.736C25.213 16.7698 25.1541 16.788 25.1261 16.7907C25.0981 16.7934 25.0672 16.7947 25.0333 16.7947C24.4705 16.7947 23.956 16.7013 23.4899 16.5146C23.0237 16.3279 22.5604 16.023 22.1 15.5998C21.6894 15.9785 21.2285 16.2723 20.7174 16.4813C20.2063 16.6902 19.6672 16.7947 19.1 16.7947C18.5106 16.7947 17.9548 16.6902 17.4326 16.4813C16.9104 16.2723 16.444 15.9785 16.0333 15.5998C15.6449 15.9785 15.2007 16.2723 14.7007 16.4813C14.2007 16.6902 13.6672 16.7947 13.1 16.7947C12.4715 16.7947 11.8948 16.6902 11.3699 16.4813C10.845 16.2723 10.3773 15.9785 9.96667 15.5998C9.47874 16.0452 9.00036 16.3557 8.53154 16.5313C8.06269 16.7069 7.56329 16.7947 7.03333 16.7947C6.99951 16.7947 6.96015 16.7934 6.91524 16.7907C6.8703 16.788 6.81981 16.7698 6.76377 16.736V25.857Z"
            fill="#111927" />
    </g>
</svg>