<svg xmlns="http://www.w3.org/2000/svg" width="33" height="33" viewBox="0 0 33 33" fill="none">
    <mask id="mask0_1379_5810" style="mask-type:alpha" maskUnits="userSpaceOnUse" x="0" y="0" width="33" height="33">
        <rect x="0.5" y="0.523682" width="32" height="32" fill="#D9D9D9" />
    </mask>
    <g mask="url(#mask0_1379_5810)">
        <path
            d="M7.16667 5.49035H25.8333C26.2589 5.49035 26.6181 5.63673 26.9109 5.92948C27.2036 6.22224 27.35 6.58142 27.35 7.00702C27.35 7.43262 27.2036 7.79179 26.9109 8.08455C26.6181 8.3773 26.2589 8.52368 25.8333 8.52368H7.16667C6.74107 8.52368 6.38189 8.3773 6.08914 8.08455C5.79638 7.79179 5.65 7.43262 5.65 7.00702C5.65 6.58142 5.79638 6.22224 6.08914 5.92948C6.38189 5.63673 6.74107 5.49035 7.16667 5.49035ZM7.16667 27.557C6.74107 27.557 6.38189 27.4106 6.08914 27.1179C5.79638 26.8251 5.65 26.466 5.65 26.0403V19.557H5.47247C4.99709 19.557 4.61279 19.3773 4.31957 19.0179C4.02632 18.6585 3.92946 18.2437 4.02897 17.7737L5.41014 11.0592C5.48742 10.7056 5.66424 10.4168 5.94057 10.1929C6.2169 9.96897 6.53188 9.85702 6.8855 9.85702H26.1145C26.4681 9.85702 26.7831 9.96897 27.0594 10.1929C27.3358 10.4168 27.5126 10.7056 27.5899 11.0592L28.971 17.7737C29.0705 18.2437 28.9737 18.6585 28.6804 19.0179C28.3872 19.3773 28.0029 19.557 27.5275 19.557H27.35V26.0403C27.35 26.466 27.2036 26.8251 26.9109 27.1179C26.6181 27.4106 26.2589 27.557 25.8333 27.557C25.4077 27.557 25.0486 27.4106 24.7558 27.1179C24.463 26.8251 24.3167 26.466 24.3167 26.0403V19.557H19.35V26.0403C19.35 26.466 19.2036 26.8251 18.9109 27.1179C18.6181 27.4106 18.2589 27.557 17.8333 27.557H7.16667ZM8.68334 24.5237H16.3167V19.557H8.68334V24.5237ZM7.39277 16.5237H25.6072L24.871 12.8903H8.129L7.39277 16.5237Z"
            fill="#111927" />
    </g>
</svg>