<svg xmlns="http://www.w3.org/2000/svg" width="33" height="33" viewBox="0 0 33 33" fill="none">
    <mask id="mask0_1379_5844" style="mask-type:alpha" maskUnits="userSpaceOnUse" x="0" y="0" width="33" height="33">
        <rect x="0.5" y="0.523682" width="32" height="32" fill="#D9D9D9" />
    </mask>
    <g mask="url(#mask0_1379_5844)">
        <path
            d="M23.1667 30.128C22.7708 30.128 22.439 29.9941 22.1712 29.7263C21.9035 29.4586 21.7696 29.1268 21.7696 28.7309C21.7696 28.3351 21.9035 28.0033 22.1712 27.7355C22.439 27.4677 22.7708 27.3338 23.1667 27.3338H27.0471V24.7229H23.1667C22.7708 24.7229 22.439 24.5891 22.1712 24.3213C21.9035 24.0535 21.7696 23.7217 21.7696 23.3258C21.7696 22.93 21.9035 22.5982 22.1712 22.3304C22.439 22.0626 22.7708 21.9287 23.1667 21.9287H27.0471V19.3099H23.1667C22.7708 19.3099 22.439 19.1768 22.1712 18.9105C21.9035 18.6442 21.7696 18.3143 21.7696 17.9206C21.7696 17.527 21.9035 17.1958 22.1712 16.9269C22.439 16.6581 22.7708 16.5237 23.1667 16.5237H27.0471V13.9048H23.1667C22.7708 13.9048 22.439 13.771 22.1712 13.5032C21.9035 13.2354 21.7696 12.9036 21.7696 12.5077C21.7696 12.1141 21.9035 11.7842 22.1712 11.518C22.439 11.2517 22.7708 11.1186 23.1667 11.1186H27.0471V8.49978H23.1667C22.7708 8.49978 22.439 8.36589 22.1712 8.09811C21.9035 7.83033 21.7696 7.49852 21.7696 7.10268C21.7696 6.70908 21.9035 6.37916 22.1712 6.11291C22.439 5.84667 22.7708 5.71354 23.1667 5.71354H28.3804C29.2201 5.71354 29.9355 6.00919 30.5268 6.60048C31.1181 7.19179 31.4138 7.90725 31.4138 8.74688V27.0947C31.4138 27.9343 31.1181 28.6498 30.5268 29.2411C29.9355 29.8324 29.2201 30.128 28.3804 30.128L23.1667 30.128ZM9.00944 27.0947H13.0768L16.8427 16.3635L12.9326 13.9527H9.1616L5.24347 16.3635L9.00944 27.0947ZM6.14274 28.0744L2.38477 17.3766C2.15193 16.7128 2.15036 16.0477 2.38007 15.3813C2.60978 14.7149 3.02634 14.1937 3.62974 13.8179L8.24494 10.9432V4.43601C8.24494 4.01039 8.39132 3.6512 8.68407 3.35845C8.97683 3.06569 9.336 2.91931 9.7616 2.91931H12.3326C12.7582 2.91931 13.1174 3.06569 13.4101 3.35845C13.7029 3.6512 13.8493 4.01039 13.8493 4.43601V10.9432L18.4565 13.8179C19.0599 14.199 19.4765 14.7202 19.7062 15.3813C19.9359 16.0424 19.9343 16.7048 19.7014 17.3686L15.9435 28.0744C15.7444 28.6928 15.383 29.1896 14.8592 29.565C14.3353 29.9404 13.7412 30.128 13.0768 30.128H9.00944C8.34504 30.128 7.75091 29.9404 7.22707 29.565C6.70323 29.1896 6.34178 28.6928 6.14274 28.0744Z"
            fill="#111927" />
    </g>
</svg>