<svg xmlns="http://www.w3.org/2000/svg" width="25" height="25" viewBox="0 0 25 25" fill="none">
    <mask id="mask0_2802_49099" style="mask-type:alpha" maskUnits="userSpaceOnUse" x="0" y="0" width="25" height="25">
        <rect x="0.378784" y="0.5" width="24" height="24" fill="#D9D9D9" />
    </mask>
    <g mask="url(#mask0_2802_49099)">
        <path
            d="M4.45054 20.7034C3.82082 20.7034 3.28422 20.4817 2.84074 20.0382C2.39727 19.5947 2.17554 19.0581 2.17554 18.4284V6.5719C2.17554 5.94218 2.39729 5.40558 2.84079 4.9621C3.28425 4.51862 3.82085 4.29688 4.45056 4.29688H20.3071C20.9368 4.29688 21.4734 4.51862 21.9169 4.9621C22.3603 5.40558 22.5821 5.94218 22.5821 6.5719V18.4284C22.5821 19.0581 22.3603 19.5947 21.9169 20.0382C21.4734 20.4817 20.9368 20.7034 20.3071 20.7034H4.45054ZM20.307 8.75723L12.9815 13.3784C12.887 13.4364 12.7877 13.4799 12.6837 13.5088C12.5797 13.5378 12.4781 13.5523 12.3788 13.5523C12.2795 13.5523 12.1779 13.5378 12.0739 13.5088C11.9699 13.4799 11.8706 13.4364 11.7761 13.3784L4.45054 8.75723V18.4284H20.307V8.75723ZM12.3788 11.5719L20.307 6.5719H4.45054L12.3788 11.5719ZM4.45054 9.03113V7.43277V7.46055V6.5719V7.46157V7.4401V9.03113Z"
            fill="#111927" />
    </g>
</svg>