<svg width="589" height="513" viewBox="0 0 589 513" fill="none" xmlns="http://www.w3.org/2000/svg">
<circle opacity="0.1" cx="51.1445" cy="51.1445" r="51.1445" transform="matrix(1 0 0 -1 0.48584 102.289)" fill="#FF9800"/>
<circle opacity="0.1" cx="554.63" cy="478" r="34.2834" fill="#3375A9"/>
<g clip-path="url(#clip0_2802_41026)">
<g filter="url(#filter0_dd_2802_41026)">
<g clip-path="url(#clip1_2802_41026)">
<rect x="48.5854" y="1.12598" width="450.829" height="276.617" rx="17.1744" fill="white"/>
<mask id="path-6-inside-1_2802_41026" fill="white">
<path d="M48.5854 1.12598H499.415V45.8877H48.5854V1.12598Z"/>
</mask>
<path d="M48.5854 1.12598H499.415V45.8877H48.5854V1.12598Z" fill="#F8F9FA"/>
<path d="M499.415 45.0289H48.5854V46.7464H499.415V45.0289Z" fill="#111927" fill-opacity="0.12" mask="url(#path-6-inside-1_2802_41026)"/>
<mask id="path-8-inside-2_2802_41026" fill="white">
<path d="M48.5854 1.12598H140.469V45.8877H48.5854V1.12598Z"/>
</mask>
<path d="M48.5854 1.12598H140.469V45.8877H48.5854V1.12598Z" fill="white" fill-opacity="0.01"/>
<path d="M139.61 1.12598V45.8877H141.327V1.12598H139.61Z" fill="#111927" fill-opacity="0.12" mask="url(#path-8-inside-2_2802_41026)"/>
<mask id="path-10-inside-3_2802_41026" fill="white">
<path d="M140.469 1.18018H212.258V45.8337H140.469V1.18018Z"/>
</mask>
<path d="M140.469 1.18018H212.258V45.8337H140.469V1.18018Z" fill="white" fill-opacity="0.01"/>
<path d="M211.399 1.18018V45.8337H213.117V1.18018H211.399Z" fill="#111927" fill-opacity="0.12" mask="url(#path-10-inside-3_2802_41026)"/>
<path d="M171.587 26.5068L170.763 24.2501H167.311L166.496 26.5068H165.136L168.228 18.1497H169.825L172.947 26.5068H171.587ZM169 19.5409L167.712 23.0651H170.35L169.052 19.5409L169.021 19.4481L169 19.5409ZM174.621 26.5068V18.1497H175.94V25.2703H179.712V26.5068H174.621ZM181.944 26.5068V18.1497H183.263V25.2703H187.035V26.5068H181.944Z" fill="#111927"/>
<mask id="path-13-inside-4_2802_41026" fill="white">
<path d="M212.258 1.18018H284.047V45.8337H212.258V1.18018Z"/>
</mask>
<path d="M212.258 1.18018H284.047V45.8337H212.258V1.18018Z" fill="white" fill-opacity="0.01"/>
<path d="M283.188 1.18018V45.8337H284.906V1.18018H283.188Z" fill="#111927" fill-opacity="0.12" mask="url(#path-13-inside-4_2802_41026)"/>
<path d="M239.061 18.1497H240.483L237.721 26.5068H235.825L233.084 18.1497H234.506L236.773 25.2188L239.061 18.1497ZM242.206 26.5068V18.1497H243.525V26.5068H242.206ZM246.016 26.5068V18.1497H251.262V19.3863H247.335V21.5915H250.891V22.8281H247.335V25.2703H251.292V26.5068H246.016ZM261.764 18.1497H263.135L261.156 26.5068H259.353L257.993 19.6851L256.622 26.5068H254.809L252.83 18.1497H254.211L255.757 25.1054L257.127 18.1497H258.848L260.208 25.1054L261.764 18.1497Z" fill="#111927"/>
<mask id="path-16-inside-5_2802_41026" fill="white">
<path d="M284.047 1.18018H355.836V45.8337H284.047V1.18018Z"/>
</mask>
<path d="M284.047 1.18018H355.836V45.8337H284.047V1.18018Z" fill="white" fill-opacity="0.01"/>
<path d="M354.978 1.18018V45.8337H356.695V1.18018H354.978Z" fill="#111927" fill-opacity="0.12" mask="url(#path-16-inside-5_2802_41026)"/>
<path d="M313.445 26.5068L312.62 24.2501H309.168L308.354 26.5068H306.994L310.085 18.1497H311.683L314.805 26.5068H313.445ZM310.858 19.5409L309.57 23.0651H312.208L310.91 19.5409L310.879 19.4481L310.858 19.5409ZM318.932 18.1497C321.765 18.1497 323.538 19.7367 323.538 22.2819V22.2922C323.527 24.8787 321.755 26.5068 318.932 26.5068H316.479V18.1497H318.932ZM322.105 22.2922V22.2819C322.105 20.4374 321.013 19.3863 319.107 19.3863H317.798V25.2703H319.107C321.013 25.2703 322.095 24.1883 322.105 22.2922ZM327.975 18.1497C330.809 18.1497 332.581 19.7367 332.581 22.2819V22.2922C332.571 24.8787 330.798 26.5068 327.975 26.5068H325.522V18.1497H327.975ZM331.149 22.2922V22.2819C331.149 20.4374 330.057 19.3863 328.15 19.3863H326.841V25.2703H328.15C330.057 25.2703 331.139 24.1883 331.149 22.2922Z" fill="#111927"/>
<mask id="path-19-inside-6_2802_41026" fill="white">
<path d="M355.836 1.18018H427.626V45.8337H355.836V1.18018Z"/>
</mask>
<path d="M355.836 1.18018H427.626V45.8337H355.836V1.18018Z" fill="white" fill-opacity="0.01"/>
<path d="M426.767 1.18018V45.8337H428.484V1.18018H426.767Z" fill="#111927" fill-opacity="0.12" mask="url(#path-19-inside-6_2802_41026)"/>
<path d="M378.945 26.5068V18.1497H384.19V19.3863H380.264V21.5915H383.819V22.8281H380.264V25.2703H384.221V26.5068H378.945ZM388.891 18.1497C391.725 18.1497 393.497 19.7367 393.497 22.2819V22.2922C393.487 24.8787 391.714 26.5068 388.891 26.5068H386.438V18.1497H388.891ZM392.065 22.2922V22.2819C392.065 20.4374 390.972 19.3863 389.066 19.3863H387.757V25.2703H389.066C390.972 25.2703 392.054 24.1883 392.065 22.2922ZM395.482 26.5068V18.1497H396.801V26.5068H395.482ZM401.25 26.5068V19.3863H398.53V18.1497H405.279V19.3863H402.569V26.5068H401.25Z" fill="#111927"/>
<rect width="71.7892" height="44.6536" transform="translate(427.626 1.18018)" fill="white" fill-opacity="0.01"/>
<path d="M443.937 18.1497C446.77 18.1497 448.543 19.7367 448.543 22.2819V22.2922C448.533 24.8787 446.76 26.5068 443.937 26.5068H441.484V18.1497H443.937ZM447.111 22.2922V22.2819C447.111 20.4374 446.018 19.3863 444.112 19.3863H442.803V25.2703H444.112C446.018 25.2703 447.1 24.1883 447.111 22.2922ZM450.528 26.5068V18.1497H455.773V19.3863H451.847V21.5915H455.402V22.8281H451.847V25.2703H455.804V26.5068H450.528ZM458.021 26.5068V18.1497H459.34V25.2703H463.112V26.5068H458.021ZM465.344 26.5068V18.1497H470.589V19.3863H466.663V21.5915H470.218V22.8281H466.663V25.2703H470.62V26.5068H465.344ZM474.796 26.5068V19.3863H472.075V18.1497H478.825V19.3863H476.115V26.5068H474.796ZM480.553 26.5068V18.1497H485.798V19.3863H481.872V21.5915H485.427V22.8281H481.872V25.2703H485.829V26.5068H480.553Z" fill="#111927"/>
<mask id="path-23-inside-7_2802_41026" fill="white">
<path d="M48.5854 45.8877H499.415V92.2587H48.5854V45.8877Z"/>
</mask>
<path d="M499.415 91.4H48.5854V93.1174H499.415V91.4Z" fill="#111927" fill-opacity="0.12" mask="url(#path-23-inside-7_2802_41026)"/>
<mask id="path-25-inside-8_2802_41026" fill="white">
<path d="M48.5854 46.6924H140.469V91.4541H48.5854V46.6924Z"/>
</mask>
<path d="M48.5854 46.6924H140.469V91.4541H48.5854V46.6924Z" fill="white" fill-opacity="0.01"/>
<path d="M139.61 46.6924V91.4541H141.327V46.6924H139.61Z" fill="#111927" fill-opacity="0.12" mask="url(#path-25-inside-8_2802_41026)"/>
<g clip-path="url(#clip2_2802_41026)">
<path d="M66.5327 72.7175C65.2343 72.7175 63.972 72.3929 63.1064 71.8158L63.7075 70.5295C64.4408 71.0344 65.4507 71.335 66.4726 71.335C67.8671 71.335 68.6486 70.7699 68.6486 69.9043V69.8803C68.6486 69.1469 68.1196 68.7743 66.713 68.3535L65.8715 68.101C64.1403 67.5961 63.3829 66.7545 63.3829 65.2999V65.2758C63.3829 63.7129 64.6452 62.667 66.7491 62.667C67.9513 62.667 69.1535 62.9676 69.983 63.5086L69.394 64.7949C68.6726 64.314 67.7109 64.0375 66.7611 64.0375C65.5108 64.0375 64.9217 64.5425 64.9217 65.2398V65.2638C64.9217 66.1053 65.4267 66.4059 66.4365 66.7305C66.701 66.8146 67.0496 66.9108 67.3141 66.983C69.3699 67.56 70.1994 68.4256 70.1994 69.8562V69.8803C70.1994 71.6596 68.7928 72.7175 66.5327 72.7175ZM77.9544 65.7807V72.3809C76.8243 72.5853 75.562 72.7295 74.8647 72.7295C72.9652 72.7295 71.8231 71.9721 71.8231 70.1328V65.7807H73.3619C73.3619 67.1513 73.3739 68.4617 73.3739 69.8322C73.3739 70.9142 73.939 71.2147 74.9368 71.2147C75.3456 71.2147 75.8745 71.1667 76.4035 71.0705V65.7807H77.9544ZM82.7362 65.6245C85.0204 65.6245 86.5112 66.9349 86.5112 69.195V69.2071C86.5112 71.4311 85.0926 72.8017 82.7362 72.8017C82.3515 72.8017 81.9308 72.7656 81.51 72.6935V75.2301H79.9591V65.9731H80.2597C81.0892 65.7447 81.9789 65.6245 82.7362 65.6245ZM85.0204 69.2191V69.195C85.0204 67.9207 84.227 67.031 82.7843 67.031C82.3996 67.031 81.9909 67.0791 81.51 67.1873V71.2989C81.9308 71.3831 82.4117 71.4071 82.7723 71.4071C84.1549 71.4071 85.0204 70.5655 85.0204 69.2191ZM90.661 65.6245C92.9452 65.6245 94.4359 66.9349 94.4359 69.195V69.2071C94.4359 71.4311 93.0173 72.8017 90.661 72.8017C90.2763 72.8017 89.8555 72.7656 89.4347 72.6935V75.2301H87.8839V65.9731H88.1844C89.014 65.7447 89.9036 65.6245 90.661 65.6245ZM92.9452 69.2191V69.195C92.9452 67.9207 92.1517 67.031 90.7091 67.031C90.3244 67.031 89.9156 67.0791 89.4347 67.1873V71.2989C89.8555 71.3831 90.3364 71.4071 90.697 71.4071C92.0796 71.4071 92.9452 70.5655 92.9452 69.2191ZM95.8086 72.5732V62.8233H97.3595V72.5732H95.8086ZM100.147 64.8671C99.6424 64.8671 99.1856 64.5665 99.1856 63.9895C99.1856 63.4725 99.6064 63.1359 100.147 63.1359C100.664 63.1359 101.085 63.4725 101.085 63.9895C101.085 64.5665 100.64 64.8671 100.147 64.8671ZM99.3659 72.5732V65.7807H100.917V72.5732H99.3659ZM109.151 68.9546V69.6879H103.933C104.137 70.7459 104.883 71.359 106.049 71.359C106.867 71.359 107.636 71.1546 108.153 70.8541L108.802 72.0563C108.093 72.429 107.143 72.7175 105.941 72.7175C103.777 72.7175 102.346 71.2749 102.346 69.1349V69.1229C102.346 66.9709 103.753 65.5283 105.857 65.5283C107.84 65.5283 109.151 66.8988 109.151 68.9546ZM105.821 66.8868C104.775 66.8868 104.137 67.4398 103.945 68.3775H107.648C107.552 67.4518 106.867 66.8868 105.821 66.8868ZM110.446 72.5732V66.1053C111.408 65.8409 112.418 65.7807 113.115 65.7807H114.353V67.2114H113.308C112.971 67.2114 112.226 67.2354 111.985 67.3556V72.5732H110.446ZM117.872 72.7295C116.85 72.7295 115.924 72.5492 115.011 72.1404L115.419 70.9262C116.213 71.2628 117.03 71.4191 117.728 71.4191C118.677 71.4191 119.315 71.2749 119.315 70.6978C119.315 70.1808 119.086 70.0726 117.944 69.7721C117.74 69.724 117.535 69.6639 117.331 69.6158C115.852 69.2431 115.191 68.5819 115.191 67.4759C115.191 66.2737 116.201 65.5403 117.896 65.5403C118.918 65.5403 119.904 65.7447 120.589 66.1174L120.156 67.3316C119.519 67.031 118.774 66.8507 118.076 66.8507C117.271 66.8507 116.79 67.007 116.79 67.4759C116.79 67.9688 117.187 68.077 118.112 68.3174L118.605 68.4497C120.18 68.8584 120.829 69.5316 120.829 70.6136C120.829 72.0082 119.844 72.7295 117.872 72.7295Z" fill="#111927"/>
</g>
<mask id="path-30-inside-9_2802_41026" fill="white">
<path d="M140.469 46.7466H212.258V91.4002H140.469V46.7466Z"/>
</mask>
<path d="M140.469 46.7466H212.258V91.4002H140.469V46.7466Z" fill="white" fill-opacity="0.01"/>
<path d="M211.399 46.7466V91.4002H213.117V46.7466H211.399Z" fill="#111927" fill-opacity="0.12" mask="url(#path-30-inside-9_2802_41026)"/>
<g clip-path="url(#clip3_2802_41026)">
<path fill-rule="evenodd" clip-rule="evenodd" d="M175.505 61.3447C172.659 61.3447 170.352 63.6515 170.352 66.4971V71.6494C170.352 74.495 172.659 76.8017 175.505 76.8017H180.657C183.503 76.8017 185.809 74.495 185.809 71.6494V66.4971C185.809 63.6515 183.503 61.3447 180.657 61.3447H175.505ZM182.132 67.095C182.462 66.7545 182.454 66.2109 182.113 65.8807C181.773 65.5506 181.229 65.5589 180.899 65.8994L176.936 69.9866L175.262 68.2609C174.932 67.9204 174.389 67.9121 174.048 68.2422C173.708 68.5724 173.699 69.116 174.029 69.4565L176.319 71.818C176.481 71.9848 176.704 72.0789 176.936 72.0789C177.168 72.0789 177.391 71.9848 177.552 71.818L182.132 67.095Z" fill="#EF6C00"/>
</g>
<mask id="path-34-inside-10_2802_41026" fill="white">
<path d="M212.258 45.8877H284.047V92.2587H212.258V45.8877Z"/>
</mask>
<path d="M212.258 45.8877H284.047V92.2587H212.258V45.8877Z" fill="white" fill-opacity="0.01"/>
<path d="M283.188 45.8877V92.2587H284.906V45.8877H283.188Z" fill="#111927" fill-opacity="0.12" mask="url(#path-34-inside-10_2802_41026)"/>
<g clip-path="url(#clip4_2802_41026)">
<path fill-rule="evenodd" clip-rule="evenodd" d="M247.294 61.3447C244.448 61.3447 242.142 63.6515 242.142 66.4971V71.6494C242.142 74.495 244.448 76.8017 247.294 76.8017H252.446C255.292 76.8017 257.599 74.495 257.599 71.6494V66.4971C257.599 63.6515 255.292 61.3447 252.446 61.3447H247.294ZM253.921 67.095C254.252 66.7545 254.243 66.2109 253.903 65.8807C253.562 65.5506 253.019 65.5589 252.688 65.8994L248.725 69.9866L247.052 68.2609C246.721 67.9204 246.178 67.9121 245.837 68.2422C245.497 68.5724 245.489 69.116 245.819 69.4565L248.109 71.818C248.27 71.9848 248.493 72.0789 248.725 72.0789C248.957 72.0789 249.18 71.9848 249.342 71.818L253.921 67.095Z" fill="#EF6C00"/>
</g>
<mask id="path-38-inside-11_2802_41026" fill="white">
<path d="M284.047 45.8877H355.836V92.2587H284.047V45.8877Z"/>
</mask>
<path d="M284.047 45.8877H355.836V92.2587H284.047V45.8877Z" fill="white" fill-opacity="0.01"/>
<path d="M354.978 45.8877V92.2587H356.695V45.8877H354.978Z" fill="#111927" fill-opacity="0.12" mask="url(#path-38-inside-11_2802_41026)"/>
<g clip-path="url(#clip5_2802_41026)">
<path fill-rule="evenodd" clip-rule="evenodd" d="M319.083 61.3447C316.238 61.3447 313.931 63.6515 313.931 66.4971V71.6494C313.931 74.495 316.238 76.8017 319.083 76.8017H324.235C327.081 76.8017 329.388 74.495 329.388 71.6494V66.4971C329.388 63.6515 327.081 61.3447 324.235 61.3447H319.083ZM325.711 67.095C326.041 66.7545 326.032 66.2109 325.692 65.8807C325.351 65.5506 324.808 65.5589 324.478 65.8994L320.514 69.9866L318.841 68.2609C318.511 67.9204 317.967 67.9121 317.627 68.2422C317.286 68.5724 317.278 69.116 317.608 69.4565L319.898 71.818C320.06 71.9848 320.282 72.0789 320.514 72.0789C320.747 72.0789 320.969 71.9848 321.131 71.818L325.711 67.095Z" fill="#EF6C00"/>
</g>
<mask id="path-42-inside-12_2802_41026" fill="white">
<path d="M355.836 45.8877H427.626V92.2587H355.836V45.8877Z"/>
</mask>
<path d="M355.836 45.8877H427.626V92.2587H355.836V45.8877Z" fill="white" fill-opacity="0.01"/>
<path d="M426.767 45.8877V92.2587H428.484V45.8877H426.767Z" fill="#111927" fill-opacity="0.12" mask="url(#path-42-inside-12_2802_41026)"/>
<g clip-path="url(#clip6_2802_41026)">
<path fill-rule="evenodd" clip-rule="evenodd" d="M390.872 61.3447C388.027 61.3447 385.72 63.6515 385.72 66.4971V71.6494C385.72 74.495 388.027 76.8017 390.872 76.8017H396.025C398.87 76.8017 401.177 74.495 401.177 71.6494V66.4971C401.177 63.6515 398.87 61.3447 396.025 61.3447H390.872ZM397.5 67.095C397.83 66.7545 397.822 66.2109 397.481 65.8807C397.141 65.5506 396.597 65.5589 396.267 65.8994L392.303 69.9866L390.63 68.2609C390.3 67.9204 389.756 67.9121 389.416 68.2422C389.075 68.5724 389.067 69.116 389.397 69.4565L391.687 71.818C391.849 71.9848 392.071 72.0789 392.303 72.0789C392.536 72.0789 392.758 71.9848 392.92 71.818L397.5 67.095Z" fill="#EF6C00"/>
</g>
<rect width="71.7892" height="46.371" transform="translate(427.626 45.8877)" fill="white" fill-opacity="0.01"/>
<g clip-path="url(#clip7_2802_41026)">
<path fill-rule="evenodd" clip-rule="evenodd" d="M462.661 61.3447C459.816 61.3447 457.509 63.6515 457.509 66.4971V71.6494C457.509 74.495 459.816 76.8017 462.661 76.8017H467.814C470.659 76.8017 472.966 74.495 472.966 71.6494V66.4971C472.966 63.6515 470.659 61.3447 467.814 61.3447H462.661ZM469.289 67.095C469.619 66.7545 469.611 66.2109 469.27 65.8807C468.93 65.5506 468.386 65.5589 468.056 65.8994L464.093 69.9866L462.419 68.2609C462.089 67.9204 461.545 67.9121 461.205 68.2422C460.864 68.5724 460.856 69.116 461.186 69.4565L463.476 71.818C463.638 71.9848 463.86 72.0789 464.093 72.0789C464.325 72.0789 464.547 71.9848 464.709 71.818L469.289 67.095Z" fill="#EF6C00"/>
</g>
<mask id="path-48-inside-13_2802_41026" fill="white">
<path d="M48.5854 92.2588H499.415V138.63H48.5854V92.2588Z"/>
</mask>
<path d="M499.415 137.771H48.5854V139.489H499.415V137.771Z" fill="#111927" fill-opacity="0.12" mask="url(#path-48-inside-13_2802_41026)"/>
<mask id="path-50-inside-14_2802_41026" fill="white">
<path d="M48.5854 93.0635H140.469V137.825H48.5854V93.0635Z"/>
</mask>
<path d="M48.5854 93.0635H140.469V137.825H48.5854V93.0635Z" fill="white" fill-opacity="0.01"/>
<path d="M139.61 93.0635V137.825H141.327V93.0635H139.61Z" fill="#111927" fill-opacity="0.12" mask="url(#path-50-inside-14_2802_41026)"/>
<g clip-path="url(#clip8_2802_41026)">
<path d="M67.9633 119.101C64.9939 119.101 62.902 117.057 62.89 114.075V114.063C62.89 111.082 64.9818 109.038 67.9633 109.038H67.9753C69.2136 109.038 70.2595 109.387 71.1492 109.976L70.5481 111.286C69.7065 110.757 68.901 110.529 68.0475 110.529H68.0355C66.1961 110.529 64.5611 111.695 64.5611 114.063V114.075C64.5731 116.432 66.1841 117.598 68.0355 117.598H68.0475C68.889 117.598 69.7065 117.381 70.5481 116.852L71.1492 118.163C70.2836 118.728 69.2737 119.101 67.9753 119.101H67.9633ZM78.6705 112.152V118.752C77.5404 118.956 76.2781 119.101 75.5808 119.101C73.6813 119.101 72.5392 118.343 72.5392 116.504V112.152H74.0781C74.0781 113.522 74.0901 114.833 74.0901 116.203C74.0901 117.285 74.6551 117.586 75.653 117.586C76.0617 117.586 76.5907 117.538 77.1197 117.442V112.152H78.6705ZM82.8152 119.101C81.7934 119.101 80.8677 118.92 79.954 118.512L80.3627 117.297C81.1562 117.634 81.9737 117.79 82.671 117.79C83.6207 117.79 84.2579 117.646 84.2579 117.069C84.2579 116.552 84.0295 116.444 82.8874 116.143C82.683 116.095 82.4786 116.035 82.2742 115.987C80.7955 115.614 80.1343 114.953 80.1343 113.847C80.1343 112.645 81.1442 111.911 82.8393 111.911C83.8612 111.911 84.847 112.116 85.5322 112.488L85.0994 113.703C84.4623 113.402 83.7169 113.222 83.0196 113.222C82.2141 113.222 81.7332 113.378 81.7332 113.847C81.7332 114.34 82.13 114.448 83.0557 114.689L83.5486 114.821C85.1235 115.23 85.7727 115.903 85.7727 116.985C85.7727 118.379 84.7869 119.101 82.8152 119.101ZM89.8758 118.944C88.1326 118.944 87.5555 118.247 87.5555 116.78V113.546H86.3172V112.152H87.5555V109.699H89.0823V112.152H91.6551V113.546H89.0823V116.324C89.0823 117.249 89.5271 117.526 90.4288 117.526H91.6671V118.944H89.8758ZM96.1153 119.101C94.0234 119.101 92.4365 117.598 92.4245 115.53V115.518C92.4245 113.438 94.0234 111.899 96.1153 111.899H96.1273C98.2552 111.911 99.8421 113.438 99.8421 115.518V115.53C99.8421 117.598 98.2552 119.089 96.1273 119.101H96.1153ZM96.1273 117.67H96.1393C97.4257 117.67 98.2913 116.72 98.2913 115.53V115.518C98.2913 114.304 97.4257 113.354 96.1393 113.342H96.1273C94.8529 113.342 93.9874 114.304 93.9874 115.518V115.53C93.9874 116.72 94.8529 117.67 96.1273 117.67ZM108.207 111.959C109.962 111.959 111.104 112.681 111.104 114.556V118.944H109.553C109.553 117.574 109.541 116.215 109.541 114.845C109.541 114.003 109.253 113.462 108.135 113.462C107.75 113.462 107.233 113.607 106.86 113.835C106.908 114.087 106.945 114.364 106.945 114.664V118.944H105.394V114.845C105.394 113.835 104.829 113.462 103.951 113.462C103.59 113.462 103.17 113.522 102.725 113.619V118.944H101.174V112.296C102.328 112.08 103.434 111.959 104.023 111.959C104.829 111.959 105.538 112.128 106.067 112.537C106.668 112.188 107.413 111.959 108.207 111.959ZM119.341 115.326V116.059H114.124C114.328 117.117 115.073 117.73 116.24 117.73C117.057 117.73 117.827 117.526 118.343 117.225L118.993 118.427C118.283 118.8 117.334 119.089 116.131 119.089C113.967 119.089 112.537 117.646 112.537 115.506V115.494C112.537 113.342 113.943 111.899 116.047 111.899C118.031 111.899 119.341 113.27 119.341 115.326ZM116.011 113.258C114.965 113.258 114.328 113.811 114.136 114.749H117.839C117.742 113.823 117.057 113.258 116.011 113.258ZM120.637 118.944V112.476C121.599 112.212 122.609 112.152 123.306 112.152H124.544V113.582H123.498C123.162 113.582 122.416 113.607 122.176 113.727V118.944H120.637ZM128.063 119.101C127.041 119.101 126.115 118.92 125.201 118.512L125.61 117.297C126.403 117.634 127.221 117.79 127.918 117.79C128.868 117.79 129.505 117.646 129.505 117.069C129.505 116.552 129.277 116.444 128.135 116.143C127.93 116.095 127.726 116.035 127.522 115.987C126.043 115.614 125.382 114.953 125.382 113.847C125.382 112.645 126.391 111.911 128.087 111.911C129.108 111.911 130.094 112.116 130.78 112.488L130.347 113.703C129.71 113.402 128.964 113.222 128.267 113.222C127.461 113.222 126.981 113.378 126.981 113.847C126.981 114.34 127.377 114.448 128.303 114.689L128.796 114.821C130.371 115.23 131.02 115.903 131.02 116.985C131.02 118.379 130.034 119.101 128.063 119.101Z" fill="#111927"/>
</g>
<mask id="path-55-inside-15_2802_41026" fill="white">
<path d="M140.469 93.1177H212.258V137.771H140.469V93.1177Z"/>
</mask>
<path d="M140.469 93.1177H212.258V137.771H140.469V93.1177Z" fill="white" fill-opacity="0.01"/>
<path d="M211.399 93.1177V137.771H213.117V93.1177H211.399Z" fill="#111927" fill-opacity="0.12" mask="url(#path-55-inside-15_2802_41026)"/>
<g clip-path="url(#clip9_2802_41026)">
<rect x="171.211" y="108.575" width="13.7396" height="13.7396" rx="4.29361" stroke="#6C737F" stroke-width="1.71745"/>
</g>
<mask id="path-59-inside-16_2802_41026" fill="white">
<path d="M212.258 92.2588H284.047V138.63H212.258V92.2588Z"/>
</mask>
<path d="M212.258 92.2588H284.047V138.63H212.258V92.2588Z" fill="white" fill-opacity="0.01"/>
<path d="M283.188 92.2588V138.63H284.906V92.2588H283.188Z" fill="#111927" fill-opacity="0.12" mask="url(#path-59-inside-16_2802_41026)"/>
<g clip-path="url(#clip10_2802_41026)">
<path fill-rule="evenodd" clip-rule="evenodd" d="M247.294 107.716C244.448 107.716 242.142 110.023 242.142 112.868V118.02C242.142 120.866 244.448 123.173 247.294 123.173H252.446C255.292 123.173 257.599 120.866 257.599 118.02V112.868C257.599 110.023 255.292 107.716 252.446 107.716H247.294ZM253.921 113.466C254.252 113.126 254.243 112.582 253.903 112.252C253.562 111.922 253.019 111.93 252.688 112.27L248.725 116.358L247.052 114.632C246.721 114.292 246.178 114.283 245.837 114.613C245.497 114.943 245.489 115.487 245.819 115.828L248.109 118.189C248.27 118.356 248.493 118.45 248.725 118.45C248.957 118.45 249.18 118.356 249.342 118.189L253.921 113.466Z" fill="#EF6C00"/>
</g>
<mask id="path-63-inside-17_2802_41026" fill="white">
<path d="M284.047 92.2588H355.836V138.63H284.047V92.2588Z"/>
</mask>
<path d="M284.047 92.2588H355.836V138.63H284.047V92.2588Z" fill="white" fill-opacity="0.01"/>
<path d="M354.978 92.2588V138.63H356.695V92.2588H354.978Z" fill="#111927" fill-opacity="0.12" mask="url(#path-63-inside-17_2802_41026)"/>
<g clip-path="url(#clip11_2802_41026)">
<rect x="314.789" y="108.575" width="13.7396" height="13.7396" rx="4.29361" stroke="#6C737F" stroke-width="1.71745"/>
</g>
<mask id="path-67-inside-18_2802_41026" fill="white">
<path d="M355.836 92.2588H427.626V138.63H355.836V92.2588Z"/>
</mask>
<path d="M355.836 92.2588H427.626V138.63H355.836V92.2588Z" fill="white" fill-opacity="0.01"/>
<path d="M426.767 92.2588V138.63H428.484V92.2588H426.767Z" fill="#111927" fill-opacity="0.12" mask="url(#path-67-inside-18_2802_41026)"/>
<g clip-path="url(#clip12_2802_41026)">
<rect x="386.579" y="108.575" width="13.7396" height="13.7396" rx="4.29361" stroke="#6C737F" stroke-width="1.71745"/>
</g>
<rect width="71.7892" height="46.371" transform="translate(427.626 92.2588)" fill="white" fill-opacity="0.01"/>
<g clip-path="url(#clip13_2802_41026)">
<rect x="458.368" y="108.575" width="13.7396" height="13.7396" rx="4.29361" stroke="#6C737F" stroke-width="1.71745"/>
</g>
<mask id="path-73-inside-19_2802_41026" fill="white">
<path d="M48.5854 138.63H499.415V185.001H48.5854V138.63Z"/>
</mask>
<path d="M499.415 184.142H48.5854V185.86H499.415V184.142Z" fill="#111927" fill-opacity="0.12" mask="url(#path-73-inside-19_2802_41026)"/>
<mask id="path-75-inside-20_2802_41026" fill="white">
<path d="M48.5854 139.435H140.469V184.196H48.5854V139.435Z"/>
</mask>
<path d="M48.5854 139.435H140.469V184.196H48.5854V139.435Z" fill="white" fill-opacity="0.01"/>
<path d="M139.61 139.435V184.196H141.327V139.435H139.61Z" fill="#111927" fill-opacity="0.12" mask="url(#path-75-inside-20_2802_41026)"/>
<g clip-path="url(#clip14_2802_41026)">
<path d="M67.2781 160.122H71.5098V164.498C70.5841 165.111 69.1776 165.46 67.9633 165.46C64.9818 165.46 62.89 163.392 62.878 160.434V160.422C62.878 157.465 64.9818 155.409 67.9753 155.409C69.1776 155.409 70.2716 155.698 71.3896 156.347L70.7885 157.741C70.0431 157.213 69.0934 156.9 68.0355 156.9C66.1841 156.9 64.549 158.078 64.549 160.422V160.434C64.5611 162.779 66.1841 163.969 68.0355 163.969C68.7808 163.969 69.4541 163.789 70.0672 163.416V161.54H67.2781V160.122ZM73.0063 165.315V158.848C73.9681 158.583 74.9779 158.523 75.6752 158.523H76.9135V159.954H75.8676C75.531 159.954 74.7856 159.978 74.5451 160.098V165.315H73.0063ZM81.2989 165.472C79.2071 165.472 77.6202 163.969 77.6082 161.901V161.889C77.6082 159.809 79.2071 158.27 81.2989 158.27H81.311C83.4389 158.282 85.0258 159.809 85.0258 161.889V161.901C85.0258 163.969 83.4389 165.46 81.311 165.472H81.2989ZM81.311 164.041H81.323C82.6094 164.041 83.475 163.091 83.475 161.901V161.889C83.475 160.675 82.6094 159.725 81.323 159.713H81.311C80.0366 159.713 79.171 160.675 79.171 161.889V161.901C79.171 163.091 80.0366 164.041 81.311 164.041ZM92.5476 158.523V165.123C91.4175 165.327 90.1552 165.472 89.4579 165.472C87.5584 165.472 86.4163 164.714 86.4163 162.875V158.523H87.9552C87.9552 159.893 87.9672 161.204 87.9672 162.574C87.9672 163.656 88.5322 163.957 89.5301 163.957C89.9388 163.957 90.4678 163.909 90.9968 163.813V158.523H92.5476ZM97.3295 158.367C99.6137 158.367 101.104 159.677 101.104 161.937V161.949C101.104 164.173 99.6858 165.544 97.3295 165.544C96.9448 165.544 96.524 165.508 96.1032 165.436V167.972H94.5524V158.715H94.8529C95.6825 158.487 96.5721 158.367 97.3295 158.367ZM99.6137 161.961V161.937C99.6137 160.663 98.8202 159.773 97.3776 159.773C96.9929 159.773 96.5841 159.821 96.1032 159.93V164.041C96.524 164.125 97.0049 164.149 97.3656 164.149C98.7481 164.149 99.6137 163.308 99.6137 161.961ZM104.558 165.472C103.536 165.472 102.611 165.291 101.697 164.883L102.106 163.668C102.899 164.005 103.717 164.161 104.414 164.161C105.364 164.161 106.001 164.017 106.001 163.44C106.001 162.923 105.773 162.815 104.63 162.514C104.426 162.466 104.222 162.406 104.017 162.358C102.539 161.985 101.877 161.324 101.877 160.218C101.877 159.016 102.887 158.282 104.582 158.282C105.604 158.282 106.59 158.487 107.275 158.86L106.843 160.074C106.205 159.773 105.46 159.593 104.763 159.593C103.957 159.593 103.476 159.749 103.476 160.218C103.476 160.711 103.873 160.819 104.799 161.06L105.292 161.192C106.867 161.601 107.516 162.274 107.516 163.356C107.516 164.75 106.53 165.472 104.558 165.472Z" fill="#111927"/>
</g>
<mask id="path-80-inside-21_2802_41026" fill="white">
<path d="M140.469 139.489H212.258V184.142H140.469V139.489Z"/>
</mask>
<path d="M140.469 139.489H212.258V184.142H140.469V139.489Z" fill="white" fill-opacity="0.01"/>
<path d="M211.399 139.489V184.142H213.117V139.489H211.399Z" fill="#111927" fill-opacity="0.12" mask="url(#path-80-inside-21_2802_41026)"/>
<g clip-path="url(#clip15_2802_41026)">
<rect x="171.211" y="154.946" width="13.7396" height="13.7396" rx="4.29361" stroke="#6C737F" stroke-width="1.71745"/>
</g>
<mask id="path-84-inside-22_2802_41026" fill="white">
<path d="M212.258 138.63H284.047V185.001H212.258V138.63Z"/>
</mask>
<path d="M212.258 138.63H284.047V185.001H212.258V138.63Z" fill="white" fill-opacity="0.01"/>
<path d="M283.188 138.63V185.001H284.906V138.63H283.188Z" fill="#111927" fill-opacity="0.12" mask="url(#path-84-inside-22_2802_41026)"/>
<g clip-path="url(#clip16_2802_41026)">
<path fill-rule="evenodd" clip-rule="evenodd" d="M247.294 154.087C244.448 154.087 242.142 156.394 242.142 159.239V164.392C242.142 167.237 244.448 169.544 247.294 169.544H252.446C255.292 169.544 257.599 167.237 257.599 164.392V159.239C257.599 156.394 255.292 154.087 252.446 154.087H247.294ZM253.921 159.837C254.252 159.497 254.243 158.953 253.903 158.623C253.562 158.293 253.019 158.301 252.688 158.642L248.725 162.729L247.052 161.003C246.721 160.663 246.178 160.654 245.837 160.984C245.497 161.315 245.489 161.858 245.819 162.199L248.109 164.56C248.27 164.727 248.493 164.821 248.725 164.821C248.957 164.821 249.18 164.727 249.342 164.56L253.921 159.837Z" fill="#EF6C00"/>
</g>
<mask id="path-88-inside-23_2802_41026" fill="white">
<path d="M284.047 138.63H355.836V185.001H284.047V138.63Z"/>
</mask>
<path d="M284.047 138.63H355.836V185.001H284.047V138.63Z" fill="white" fill-opacity="0.01"/>
<path d="M354.978 138.63V185.001H356.695V138.63H354.978Z" fill="#111927" fill-opacity="0.12" mask="url(#path-88-inside-23_2802_41026)"/>
<g clip-path="url(#clip17_2802_41026)">
<rect x="314.789" y="154.946" width="13.7396" height="13.7396" rx="4.29361" stroke="#6C737F" stroke-width="1.71745"/>
</g>
<mask id="path-92-inside-24_2802_41026" fill="white">
<path d="M355.836 138.63H427.626V185.001H355.836V138.63Z"/>
</mask>
<path d="M355.836 138.63H427.626V185.001H355.836V138.63Z" fill="white" fill-opacity="0.01"/>
<path d="M426.767 138.63V185.001H428.484V138.63H426.767Z" fill="#111927" fill-opacity="0.12" mask="url(#path-92-inside-24_2802_41026)"/>
<g clip-path="url(#clip18_2802_41026)">
<rect x="386.579" y="154.946" width="13.7396" height="13.7396" rx="4.29361" stroke="#6C737F" stroke-width="1.71745"/>
</g>
<rect width="71.7892" height="46.371" transform="translate(427.626 138.63)" fill="white" fill-opacity="0.01"/>
<g clip-path="url(#clip19_2802_41026)">
<rect x="458.368" y="154.946" width="13.7396" height="13.7396" rx="4.29361" stroke="#6C737F" stroke-width="1.71745"/>
</g>
<mask id="path-98-inside-25_2802_41026" fill="white">
<path d="M48.5854 185H499.415V231.372H48.5854V185Z"/>
</mask>
<path d="M499.415 230.513H48.5854V232.23H499.415V230.513Z" fill="#111927" fill-opacity="0.12" mask="url(#path-98-inside-25_2802_41026)"/>
<mask id="path-100-inside-26_2802_41026" fill="white">
<path d="M48.5854 185.805H140.469V230.567H48.5854V185.805Z"/>
</mask>
<path d="M48.5854 185.805H140.469V230.567H48.5854V185.805Z" fill="white" fill-opacity="0.01"/>
<path d="M139.61 185.805V230.567H141.327V185.805H139.61Z" fill="#111927" fill-opacity="0.12" mask="url(#path-100-inside-26_2802_41026)"/>
<g clip-path="url(#clip20_2802_41026)">
<path d="M63.5272 211.686V201.936H65.066V211.686H63.5272ZM70.1168 211.686C68.3736 211.686 67.7965 210.989 67.7965 209.522V206.288H66.5582V204.894H67.7965V202.441H69.3233V204.894H71.8961V206.288H69.3233V209.065C69.3233 209.991 69.7681 210.267 70.6698 210.267H71.9081V211.686H70.1168ZM79.5181 208.067V208.801H74.3005C74.5049 209.859 75.2502 210.472 76.4164 210.472C77.2339 210.472 78.0033 210.267 78.5202 209.967L79.1694 211.169C78.4601 211.542 77.5104 211.83 76.3082 211.83C74.1442 211.83 72.7136 210.388 72.7136 208.248V208.236C72.7136 206.084 74.1201 204.641 76.224 204.641C78.2077 204.641 79.5181 206.012 79.5181 208.067ZM76.188 206C75.142 206 74.5049 206.553 74.3125 207.49H78.0153C77.9191 206.565 77.2339 206 76.188 206ZM87.9548 204.701C89.71 204.701 90.8521 205.423 90.8521 207.298V211.686H89.3013C89.3013 210.316 89.2892 208.957 89.2892 207.586C89.2892 206.745 89.0007 206.204 87.8827 206.204C87.4979 206.204 86.981 206.348 86.6083 206.577C86.6564 206.829 86.6925 207.106 86.6925 207.406V211.686H85.1416V207.586C85.1416 206.577 84.5766 206.204 83.699 206.204C83.3383 206.204 82.9175 206.264 82.4727 206.36V211.686H80.9218V205.038C82.076 204.821 83.182 204.701 83.7711 204.701C84.5766 204.701 85.2859 204.869 85.8148 205.278C86.416 204.93 87.1613 204.701 87.9548 204.701ZM95.0017 211.842C93.9798 211.842 93.0541 211.662 92.1405 211.253L92.5492 210.039C93.3427 210.376 94.1602 210.532 94.8574 210.532C95.8072 210.532 96.4444 210.388 96.4444 209.811C96.4444 209.294 96.2159 209.185 95.0738 208.885C94.8695 208.837 94.6651 208.777 94.4607 208.729C92.982 208.356 92.3208 207.695 92.3208 206.589C92.3208 205.386 93.3306 204.653 95.0258 204.653C96.0476 204.653 97.0335 204.857 97.7187 205.23L97.2859 206.444C96.6487 206.144 95.9034 205.964 95.2061 205.964C94.4006 205.964 93.9197 206.12 93.9197 206.589C93.9197 207.082 94.3165 207.19 95.2422 207.43L95.7351 207.562C97.31 207.971 97.9592 208.644 97.9592 209.726C97.9592 211.121 96.9733 211.842 95.0017 211.842Z" fill="#111927"/>
</g>
<mask id="path-105-inside-27_2802_41026" fill="white">
<path d="M140.469 185.859H212.258V230.513H140.469V185.859Z"/>
</mask>
<path d="M140.469 185.859H212.258V230.513H140.469V185.859Z" fill="white" fill-opacity="0.01"/>
<path d="M211.399 185.859V230.513H213.117V185.859H211.399Z" fill="#111927" fill-opacity="0.12" mask="url(#path-105-inside-27_2802_41026)"/>
<g clip-path="url(#clip21_2802_41026)">
<rect x="171.211" y="201.316" width="13.7396" height="13.7396" rx="4.29361" stroke="#6C737F" stroke-width="1.71745"/>
</g>
<mask id="path-109-inside-28_2802_41026" fill="white">
<path d="M212.258 185H284.047V231.372H212.258V185Z"/>
</mask>
<path d="M212.258 185H284.047V231.372H212.258V185Z" fill="white" fill-opacity="0.01"/>
<path d="M283.188 185V231.372H284.906V185H283.188Z" fill="#111927" fill-opacity="0.12" mask="url(#path-109-inside-28_2802_41026)"/>
<g clip-path="url(#clip22_2802_41026)">
<path fill-rule="evenodd" clip-rule="evenodd" d="M247.294 200.458C244.448 200.458 242.142 202.764 242.142 205.61V210.762C242.142 213.608 244.448 215.915 247.294 215.915H252.446C255.292 215.915 257.599 213.608 257.599 210.762V205.61C257.599 202.764 255.292 200.458 252.446 200.458H247.294ZM253.921 206.208C254.252 205.867 254.243 205.324 253.903 204.994C253.562 204.663 253.019 204.672 252.688 205.012L248.725 209.099L247.052 207.374C246.721 207.033 246.178 207.025 245.837 207.355C245.497 207.685 245.489 208.229 245.819 208.569L248.109 210.931C248.27 211.098 248.493 211.192 248.725 211.192C248.957 211.192 249.18 211.098 249.342 210.931L253.921 206.208Z" fill="#EF6C00"/>
</g>
<mask id="path-113-inside-29_2802_41026" fill="white">
<path d="M284.047 185H355.836V231.372H284.047V185Z"/>
</mask>
<path d="M284.047 185H355.836V231.372H284.047V185Z" fill="white" fill-opacity="0.01"/>
<path d="M354.978 185V231.372H356.695V185H354.978Z" fill="#111927" fill-opacity="0.12" mask="url(#path-113-inside-29_2802_41026)"/>
<g clip-path="url(#clip23_2802_41026)">
<rect x="314.789" y="201.316" width="13.7396" height="13.7396" rx="4.29361" stroke="#6C737F" stroke-width="1.71745"/>
</g>
<mask id="path-117-inside-30_2802_41026" fill="white">
<path d="M355.836 185H427.626V231.372H355.836V185Z"/>
</mask>
<path d="M355.836 185H427.626V231.372H355.836V185Z" fill="white" fill-opacity="0.01"/>
<path d="M426.767 185V231.372H428.484V185H426.767Z" fill="#111927" fill-opacity="0.12" mask="url(#path-117-inside-30_2802_41026)"/>
<g clip-path="url(#clip24_2802_41026)">
<rect x="386.579" y="201.316" width="13.7396" height="13.7396" rx="4.29361" stroke="#6C737F" stroke-width="1.71745"/>
</g>
<rect width="71.7892" height="46.371" transform="translate(427.626 185)" fill="white" fill-opacity="0.01"/>
<g clip-path="url(#clip25_2802_41026)">
<rect x="458.368" y="201.316" width="13.7396" height="13.7396" rx="4.29361" stroke="#6C737F" stroke-width="1.71745"/>
</g>
<mask id="path-123-inside-31_2802_41026" fill="white">
<path d="M48.5854 231.372H499.415V277.743H48.5854V231.372Z"/>
</mask>
<path d="M499.415 276.884H48.5854V278.601H499.415V276.884Z" fill="#111927" fill-opacity="0.12" mask="url(#path-123-inside-31_2802_41026)"/>
<mask id="path-125-inside-32_2802_41026" fill="white">
<path d="M48.5854 232.176H140.469V276.938H48.5854V232.176Z"/>
</mask>
<path d="M48.5854 232.176H140.469V276.938H48.5854V232.176Z" fill="white" fill-opacity="0.01"/>
<path d="M139.61 232.176V276.938H141.327V232.176H139.61Z" fill="#111927" fill-opacity="0.12" mask="url(#path-125-inside-32_2802_41026)"/>
<g clip-path="url(#clip26_2802_41026)">
<path d="M66.3884 248.307C69.6945 248.307 71.7623 250.159 71.7623 253.128V253.14C71.7503 256.158 69.6825 258.057 66.3884 258.057H63.5272V248.307H66.3884ZM70.0912 253.14V253.128C70.0912 250.976 68.8169 249.75 66.5928 249.75H65.066V256.614H66.5928C68.8169 256.614 70.0792 255.352 70.0912 253.14ZM76.2741 258.213C74.1822 258.213 72.5953 256.711 72.5833 254.643V254.631C72.5833 252.551 74.1822 251.012 76.2741 251.012H76.2861C78.414 251.024 80.0009 252.551 80.0009 254.631V254.643C80.0009 256.711 78.414 258.201 76.2861 258.213H76.2741ZM76.2861 256.783H76.2981C77.5845 256.783 78.4501 255.833 78.4501 254.643V254.631C78.4501 253.417 77.5845 252.467 76.2981 252.455H76.2861C75.0118 252.455 74.1462 253.417 74.1462 254.631V254.643C74.1462 255.833 75.0118 256.783 76.2861 256.783ZM84.4811 258.201C82.2571 258.201 80.8625 256.819 80.8505 254.607V254.595C80.8745 252.455 82.3292 251.024 84.4932 251.024C85.3347 251.024 86.1522 251.193 86.8134 251.517L86.2123 252.828C85.6834 252.575 85.1424 252.455 84.5052 252.455C83.2308 252.455 82.4254 253.284 82.4133 254.595V254.619C82.4254 255.929 83.2308 256.759 84.5172 256.759C85.1664 256.759 85.7675 256.639 86.2244 256.386L86.8255 257.696C86.1522 258.021 85.3347 258.201 84.4811 258.201ZM94.2147 251.265V257.865C93.0847 258.069 91.8223 258.213 91.1251 258.213C89.2256 258.213 88.0835 257.456 88.0835 255.617V251.265H89.6223C89.6223 252.635 89.6343 253.946 89.6343 255.316C89.6343 256.398 90.1994 256.699 91.1972 256.699C91.6059 256.699 92.1349 256.651 92.6639 256.554V251.265H94.2147ZM103.252 251.072C105.008 251.072 106.15 251.794 106.15 253.669V258.057H104.599C104.599 256.687 104.587 255.328 104.587 253.958C104.587 253.116 104.298 252.575 103.18 252.575C102.796 252.575 102.279 252.719 101.906 252.948C101.954 253.2 101.99 253.477 101.99 253.777V258.057H100.439V253.958C100.439 252.948 99.8742 252.575 98.9966 252.575C98.636 252.575 98.2152 252.635 97.7704 252.731V258.057H96.2195V251.409C97.3736 251.193 98.4797 251.072 99.0688 251.072C99.8742 251.072 100.584 251.241 101.113 251.649C101.714 251.301 102.459 251.072 103.252 251.072ZM114.387 254.438V255.172H109.169C109.374 256.23 110.119 256.843 111.285 256.843C112.103 256.843 112.872 256.639 113.389 256.338L114.038 257.54C113.329 257.913 112.379 258.201 111.177 258.201C109.013 258.201 107.582 256.759 107.582 254.619V254.607C107.582 252.455 108.989 251.012 111.093 251.012C113.076 251.012 114.387 252.383 114.387 254.438ZM111.057 252.371C110.011 252.371 109.374 252.924 109.181 253.861H112.884C112.788 252.936 112.103 252.371 111.057 252.371ZM115.849 258.057V251.409C116.967 251.217 118.242 251.072 118.927 251.072C120.586 251.072 121.969 251.661 121.969 253.657C121.969 255.124 121.981 256.59 121.981 258.057H120.43V253.958C120.43 252.936 119.853 252.575 118.855 252.575C118.458 252.575 117.917 252.623 117.388 252.719V258.057H115.849ZM126.823 258.057C125.079 258.057 124.502 257.36 124.502 255.893V252.659H123.264V251.265H124.502V248.812H126.029V251.265H128.602V252.659H126.029V255.436C126.029 256.362 126.474 256.639 127.376 256.639H128.614V258.057H126.823ZM132.195 258.213C131.173 258.213 130.248 258.033 129.334 257.624L129.743 256.41C130.536 256.747 131.354 256.903 132.051 256.903C133.001 256.903 133.638 256.759 133.638 256.182C133.638 255.665 133.409 255.557 132.267 255.256C132.063 255.208 131.859 255.148 131.654 255.1C130.175 254.727 129.514 254.066 129.514 252.96C129.514 251.758 130.524 251.024 132.219 251.024C133.241 251.024 134.227 251.229 134.912 251.601L134.479 252.815C133.842 252.515 133.097 252.335 132.4 252.335C131.594 252.335 131.113 252.491 131.113 252.96C131.113 253.453 131.51 253.561 132.436 253.801L132.928 253.934C134.503 254.342 135.153 255.016 135.153 256.098C135.153 257.492 134.167 258.213 132.195 258.213Z" fill="#111927"/>
</g>
<mask id="path-130-inside-33_2802_41026" fill="white">
<path d="M140.469 232.23H212.258V276.884H140.469V232.23Z"/>
</mask>
<path d="M140.469 232.23H212.258V276.884H140.469V232.23Z" fill="white" fill-opacity="0.01"/>
<path d="M211.399 232.23V276.884H213.117V232.23H211.399Z" fill="#111927" fill-opacity="0.12" mask="url(#path-130-inside-33_2802_41026)"/>
<g clip-path="url(#clip27_2802_41026)">
<rect x="171.211" y="247.687" width="13.7396" height="13.7396" rx="4.29361" stroke="#6C737F" stroke-width="1.71745"/>
</g>
<mask id="path-134-inside-34_2802_41026" fill="white">
<path d="M212.258 231.372H284.047V277.743H212.258V231.372Z"/>
</mask>
<path d="M212.258 231.372H284.047V277.743H212.258V231.372Z" fill="white" fill-opacity="0.01"/>
<path d="M283.188 231.372V277.743H284.906V231.372H283.188Z" fill="#111927" fill-opacity="0.12" mask="url(#path-134-inside-34_2802_41026)"/>
<g clip-path="url(#clip28_2802_41026)">
<path fill-rule="evenodd" clip-rule="evenodd" d="M247.294 246.829C244.448 246.829 242.142 249.135 242.142 251.981V257.133C242.142 259.979 244.448 262.286 247.294 262.286H252.446C255.292 262.286 257.599 259.979 257.599 257.133V251.981C257.599 249.135 255.292 246.829 252.446 246.829H247.294ZM253.921 252.579C254.252 252.238 254.243 251.695 253.903 251.365C253.562 251.034 253.019 251.043 252.688 251.383L248.725 255.471L247.052 253.745C246.721 253.404 246.178 253.396 245.837 253.726C245.497 254.056 245.489 254.6 245.819 254.94L248.109 257.302C248.27 257.469 248.493 257.563 248.725 257.563C248.957 257.563 249.18 257.469 249.342 257.302L253.921 252.579Z" fill="#EF6C00"/>
</g>
<mask id="path-138-inside-35_2802_41026" fill="white">
<path d="M284.047 231.372H355.836V277.743H284.047V231.372Z"/>
</mask>
<path d="M284.047 231.372H355.836V277.743H284.047V231.372Z" fill="white" fill-opacity="0.01"/>
<path d="M354.978 231.372V277.743H356.695V231.372H354.978Z" fill="#111927" fill-opacity="0.12" mask="url(#path-138-inside-35_2802_41026)"/>
<g clip-path="url(#clip29_2802_41026)">
<rect x="314.789" y="247.687" width="13.7396" height="13.7396" rx="4.29361" stroke="#6C737F" stroke-width="1.71745"/>
</g>
<mask id="path-142-inside-36_2802_41026" fill="white">
<path d="M355.836 231.372H427.626V277.743H355.836V231.372Z"/>
</mask>
<path d="M355.836 231.372H427.626V277.743H355.836V231.372Z" fill="white" fill-opacity="0.01"/>
<path d="M426.767 231.372V277.743H428.484V231.372H426.767Z" fill="#111927" fill-opacity="0.12" mask="url(#path-142-inside-36_2802_41026)"/>
<g clip-path="url(#clip30_2802_41026)">
<rect x="386.579" y="247.687" width="13.7396" height="13.7396" rx="4.29361" stroke="#6C737F" stroke-width="1.71745"/>
</g>
<rect width="71.7892" height="46.371" transform="translate(427.626 231.372)" fill="white" fill-opacity="0.01"/>
<g clip-path="url(#clip31_2802_41026)">
<rect x="458.368" y="247.687" width="13.7396" height="13.7396" rx="4.29361" stroke="#6C737F" stroke-width="1.71745"/>
</g>
</g>
<rect x="49.0148" y="1.55534" width="449.971" height="275.758" rx="16.7451" stroke="black" stroke-opacity="0.12" stroke-width="0.858723"/>
</g>
</g>
<g filter="url(#filter1_d_2802_41026)">
<rect x="275.919" y="164.905" width="284.162" height="321.579" rx="10.3332" fill="white"/>
<path d="M363.965 187.001H366.027L363.051 199.572H360.338L358.292 189.311L356.231 199.572H353.503L350.527 187.001H352.604L354.929 197.464L356.99 187.001H359.579L361.625 197.464L363.965 187.001ZM375.89 194.906V195.852H369.163C369.427 197.216 370.388 198.006 371.891 198.006C372.945 198.006 373.937 197.743 374.604 197.355L375.441 198.905C374.526 199.386 373.302 199.758 371.752 199.758C368.962 199.758 367.117 197.898 367.117 195.139V195.123C367.117 192.349 368.931 190.489 371.643 190.489C374.201 190.489 375.89 192.256 375.89 194.906ZM371.597 192.24C370.248 192.24 369.427 192.953 369.179 194.162H373.953C373.829 192.969 372.945 192.24 371.597 192.24ZM377.7 199.572V187.001H379.699V199.572H377.7ZM386.27 199.758C383.402 199.758 381.604 197.975 381.589 195.123V195.108C381.62 192.349 383.495 190.504 386.285 190.504C387.37 190.504 388.424 190.721 389.277 191.14L388.502 192.829C387.82 192.504 387.122 192.349 386.301 192.349C384.658 192.349 383.619 193.418 383.604 195.108V195.139C383.619 196.828 384.658 197.898 386.316 197.898C387.153 197.898 387.928 197.743 388.517 197.417L389.292 199.107C388.424 199.525 387.37 199.758 386.27 199.758ZM394.715 199.773C392.018 199.773 389.972 197.836 389.957 195.17V195.154C389.957 192.473 392.018 190.489 394.715 190.489H394.731C397.474 190.504 399.52 192.473 399.52 195.154V195.17C399.52 197.836 397.474 199.758 394.731 199.773H394.715ZM394.731 197.929H394.746C396.405 197.929 397.521 196.704 397.521 195.17V195.154C397.521 193.589 396.405 192.364 394.746 192.349H394.731C393.088 192.349 391.972 193.589 391.972 195.154V195.17C391.972 196.704 393.088 197.929 394.731 197.929ZM410.305 190.566C412.568 190.566 414.04 191.496 414.04 193.914V199.572H412.041C412.041 197.805 412.025 196.053 412.025 194.286C412.025 193.201 411.653 192.504 410.212 192.504C409.716 192.504 409.049 192.69 408.569 192.984C408.631 193.31 408.677 193.666 408.677 194.054V199.572H406.678V194.286C406.678 192.984 405.949 192.504 404.818 192.504C404.353 192.504 403.81 192.581 403.237 192.705V199.572H401.237V191C402.725 190.721 404.151 190.566 404.911 190.566C405.949 190.566 406.864 190.783 407.546 191.31C408.321 190.861 409.282 190.566 410.305 190.566ZM424.66 194.906V195.852H417.933C418.197 197.216 419.158 198.006 420.661 198.006C421.715 198.006 422.707 197.743 423.373 197.355L424.21 198.905C423.296 199.386 422.071 199.758 420.522 199.758C417.732 199.758 415.887 197.898 415.887 195.139V195.123C415.887 192.349 417.701 190.489 420.413 190.489C422.97 190.489 424.66 192.256 424.66 194.906ZM420.367 192.24C419.018 192.24 418.197 192.953 417.949 194.162H422.722C422.598 192.969 421.715 192.24 420.367 192.24ZM424.863 202.145L426.475 197.386H428.583L426.506 202.145H424.863ZM438.774 199.758C434.914 199.758 432.481 196.828 432.481 193.263V193.248C432.481 189.667 434.899 186.8 438.774 186.8H438.789C442.633 186.8 445.066 189.667 445.066 193.248V193.263C445.066 196.828 442.618 199.758 438.789 199.758H438.774ZM438.774 197.82H438.789C441.331 197.82 443.067 195.836 443.083 193.248V193.232C443.083 190.628 441.347 188.722 438.789 188.722H438.774C436.185 188.722 434.465 190.628 434.465 193.232V193.248C434.48 195.836 436.216 197.82 438.774 197.82ZM456.168 190.566C458.431 190.566 459.904 191.496 459.904 193.914V199.572H457.904C457.904 197.805 457.889 196.053 457.889 194.286C457.889 193.201 457.517 192.504 456.075 192.504C455.579 192.504 454.913 192.69 454.432 192.984C454.494 193.31 454.541 193.666 454.541 194.054V199.572H452.541V194.286C452.541 192.984 451.813 192.504 450.681 192.504C450.216 192.504 449.674 192.581 449.1 192.705V199.572H447.101V191C448.589 190.721 450.015 190.566 450.774 190.566C451.813 190.566 452.727 190.783 453.409 191.31C454.184 190.861 455.145 190.566 456.168 190.566ZM470.524 194.906V195.852H463.797C464.06 197.216 465.021 198.006 466.525 198.006C467.579 198.006 468.571 197.743 469.237 197.355L470.074 198.905C469.16 199.386 467.935 199.758 466.385 199.758C463.595 199.758 461.751 197.898 461.751 195.139V195.123C461.751 192.349 463.564 190.489 466.277 190.489C468.834 190.489 470.524 192.256 470.524 194.906ZM466.23 192.24C464.882 192.24 464.06 192.953 463.812 194.162H468.586C468.462 192.969 467.579 192.24 466.23 192.24ZM472.194 199.572V191.233C473.434 190.892 474.736 190.814 475.635 190.814H477.231V192.659H475.883C475.449 192.659 474.488 192.69 474.178 192.845V199.572H472.194ZM482.042 195.79V187.001H484.026V195.79H482.042ZM483.065 199.727C482.398 199.727 481.794 199.324 481.794 198.564C481.794 197.882 482.352 197.433 483.065 197.433C483.747 197.433 484.305 197.882 484.305 198.564C484.305 199.324 483.716 199.727 483.065 199.727Z" fill="#005394"/>
<path d="M306.475 215.921C305.833 215.921 305.222 216.031 304.643 216.251C304.074 216.472 303.568 216.793 303.128 217.216C302.696 217.638 302.351 218.157 302.094 218.773C301.837 219.379 301.708 220.077 301.708 220.867C301.708 221.657 301.837 222.359 302.094 222.975C302.351 223.581 302.696 224.095 303.128 224.518C303.568 224.94 304.074 225.262 304.643 225.482C305.222 225.703 305.833 225.813 306.475 225.813C307.109 225.813 307.697 225.739 308.239 225.592C308.781 225.436 309.314 225.202 309.837 224.89L310.292 225.758C309.704 226.116 309.098 226.373 308.473 226.529C307.849 226.695 307.183 226.777 306.475 226.777C305.575 226.777 304.762 226.626 304.037 226.323C303.32 226.01 302.71 225.588 302.204 225.055C301.708 224.522 301.323 223.898 301.047 223.181C300.781 222.456 300.648 221.684 300.648 220.867C300.648 220.049 300.781 219.282 301.047 218.566C301.323 217.84 301.708 217.211 302.204 216.678C302.71 216.146 303.32 215.728 304.037 215.425C304.762 215.112 305.575 214.956 306.475 214.956C307.183 214.956 307.849 215.039 308.473 215.204C309.098 215.36 309.704 215.618 310.292 215.976L309.837 216.844C309.314 216.531 308.781 216.302 308.239 216.155C307.697 215.999 307.109 215.921 306.475 215.921ZM311.885 226.64V215.108H312.863V226.64H311.885ZM320.05 226.46C319.582 226.672 319.072 226.777 318.521 226.777C317.97 226.777 317.455 226.672 316.978 226.46C316.509 226.258 316.101 225.978 315.752 225.62C315.402 225.253 315.127 224.83 314.925 224.352C314.732 223.875 314.636 223.36 314.636 222.809C314.636 222.258 314.732 221.744 314.925 221.266C315.127 220.789 315.402 220.371 315.752 220.013C316.101 219.645 316.509 219.356 316.978 219.145C317.455 218.933 317.97 218.828 318.521 218.828C319.072 218.828 319.582 218.933 320.05 219.145C320.528 219.356 320.941 219.645 321.29 220.013C321.639 220.371 321.91 220.789 322.103 221.266C322.305 221.744 322.406 222.258 322.406 222.809C322.406 223.36 322.305 223.875 322.103 224.352C321.91 224.83 321.639 225.253 321.29 225.62C320.941 225.978 320.528 226.258 320.05 226.46ZM317.364 225.579C317.713 225.735 318.098 225.813 318.521 225.813C318.943 225.813 319.329 225.735 319.678 225.579C320.027 225.413 320.326 225.198 320.574 224.931C320.822 224.656 321.015 224.339 321.152 223.98C321.29 223.613 321.359 223.223 321.359 222.809C321.359 222.396 321.29 222.006 321.152 221.638C321.015 221.271 320.822 220.954 320.574 220.688C320.326 220.412 320.027 220.196 319.678 220.04C319.329 219.875 318.943 219.792 318.521 219.792C318.098 219.792 317.713 219.875 317.364 220.04C317.014 220.196 316.716 220.412 316.468 220.688C316.22 220.954 316.027 221.271 315.889 221.638C315.752 222.006 315.683 222.396 315.683 222.809C315.683 223.223 315.752 223.613 315.889 223.98C316.027 224.339 316.22 224.656 316.468 224.931C316.716 225.198 317.014 225.413 317.364 225.579ZM324.007 224.408C323.805 223.921 323.704 223.388 323.704 222.809C323.704 222.231 323.805 221.703 324.007 221.225C324.209 220.738 324.485 220.316 324.834 219.957C325.183 219.599 325.587 219.324 326.046 219.131C326.515 218.929 327.02 218.828 327.562 218.828C328.122 218.828 328.613 218.887 329.036 219.007C329.458 219.117 329.895 219.296 330.345 219.544L329.89 220.44C329.495 220.201 329.123 220.036 328.774 219.944C328.434 219.843 328.03 219.792 327.562 219.792C327.148 219.792 326.767 219.87 326.418 220.026C326.078 220.182 325.784 220.394 325.536 220.66C325.288 220.926 325.096 221.243 324.958 221.611C324.82 221.978 324.751 222.378 324.751 222.809C324.751 223.241 324.82 223.641 324.958 224.008C325.096 224.375 325.288 224.692 325.536 224.959C325.784 225.225 326.078 225.436 326.418 225.592C326.767 225.739 327.148 225.813 327.562 225.813C328.03 225.813 328.434 225.767 328.774 225.675C329.123 225.574 329.495 225.404 329.89 225.165L330.345 226.061C329.895 226.309 329.458 226.488 329.036 226.598C328.613 226.718 328.122 226.777 327.562 226.777C327.02 226.777 326.515 226.676 326.046 226.474C325.587 226.281 325.183 226.01 324.834 225.661C324.485 225.303 324.209 224.885 324.007 224.408ZM331.932 226.64V215.108H332.911V222.396L336.562 218.979H337.967L333.861 222.768L338.311 226.64H336.837L332.911 223.223V226.64H331.932ZM342.161 225.813C342.739 225.813 343.235 225.749 343.649 225.62C344.071 225.491 344.489 225.303 344.902 225.055L345.371 225.951C344.893 226.226 344.411 226.433 343.924 226.571C343.447 226.708 342.859 226.777 342.161 226.777C341.6 226.777 341.086 226.676 340.618 226.474C340.149 226.272 339.74 225.997 339.391 225.648C339.042 225.289 338.767 224.871 338.565 224.394C338.372 223.907 338.275 223.379 338.275 222.809C338.275 222.222 338.376 221.689 338.578 221.211C338.781 220.724 339.056 220.306 339.405 219.957C339.763 219.599 340.177 219.324 340.645 219.131C341.114 218.929 341.619 218.828 342.161 218.828C342.712 218.828 343.212 218.924 343.662 219.117C344.112 219.301 344.498 219.572 344.82 219.93C345.15 220.279 345.408 220.706 345.591 221.211C345.775 221.707 345.871 222.323 345.881 223.057H339.322C339.332 223.36 339.405 223.696 339.543 224.063C339.681 224.421 339.874 224.729 340.122 224.986C340.379 225.243 340.677 225.446 341.017 225.592C341.366 225.739 341.747 225.813 342.161 225.813ZM342.161 219.792C341.757 219.792 341.389 219.856 341.058 219.985C340.737 220.114 340.461 220.293 340.232 220.522C340.002 220.743 339.814 221.009 339.667 221.321C339.52 221.625 339.428 221.886 339.391 222.107H344.765C344.737 221.85 344.65 221.569 344.503 221.266C344.365 220.954 344.181 220.688 343.952 220.467C343.731 220.247 343.47 220.081 343.166 219.971C342.863 219.852 342.528 219.792 342.161 219.792ZM348.055 222.837C348.055 223.765 348.326 224.495 348.867 225.028C349.409 225.551 350.25 225.813 351.389 225.813C351.637 225.813 351.898 225.795 352.174 225.758C352.459 225.712 352.716 225.666 352.946 225.62V219.985C352.661 219.912 352.381 219.861 352.105 219.833C351.83 219.806 351.591 219.792 351.389 219.792C350.81 219.792 350.314 219.866 349.901 220.013C349.487 220.15 349.143 220.352 348.867 220.619C348.592 220.885 348.385 221.207 348.247 221.583C348.119 221.951 348.055 222.369 348.055 222.837ZM352.946 215.108H353.924V226.392C353.474 226.52 353.028 226.617 352.587 226.681C352.156 226.745 351.765 226.777 351.416 226.777C350.681 226.777 350.034 226.672 349.474 226.46C348.923 226.258 348.463 225.983 348.096 225.634C347.728 225.276 347.453 224.858 347.269 224.38C347.095 223.893 347.007 223.379 347.007 222.837C347.007 222.295 347.095 221.781 347.269 221.294C347.453 220.807 347.728 220.38 348.096 220.013C348.463 219.645 348.923 219.356 349.474 219.145C350.034 218.933 350.681 218.828 351.416 218.828C351.839 218.828 352.349 218.878 352.946 218.979V215.108ZM361.142 218.979H362.121V226.64H361.142V218.979ZM361.115 216.017C361.262 215.87 361.436 215.797 361.638 215.797C361.84 215.797 362.015 215.87 362.162 216.017C362.309 216.164 362.382 216.339 362.382 216.541C362.382 216.743 362.309 216.917 362.162 217.064C362.015 217.211 361.84 217.285 361.638 217.285C361.436 217.285 361.262 217.211 361.115 217.064C360.968 216.917 360.894 216.743 360.894 216.541C360.894 216.339 360.968 216.164 361.115 216.017ZM364.789 219.186C365.413 219.066 365.983 218.979 366.497 218.924C367.011 218.86 367.494 218.828 367.944 218.828C368.412 218.828 368.844 218.874 369.239 218.965C369.643 219.057 369.987 219.227 370.272 219.475C370.566 219.723 370.786 220.058 370.933 220.481C371.09 220.894 371.168 221.418 371.168 222.052V226.64H370.189V222.465C370.189 221.905 370.134 221.455 370.024 221.115C369.923 220.766 369.776 220.499 369.583 220.316C369.399 220.123 369.165 219.99 368.881 219.916C368.596 219.833 368.265 219.792 367.889 219.792C367.227 219.792 366.52 219.866 365.767 220.013V226.64H364.789V219.186ZM381.054 226.777C380.613 226.777 380.186 226.736 379.772 226.653C379.368 226.571 379.005 226.437 378.684 226.254C378.372 226.07 378.114 225.822 377.912 225.51C377.719 225.198 377.623 224.816 377.623 224.366C377.623 223.457 377.977 222.805 378.684 222.41C379.391 222.015 380.328 221.817 381.494 221.817C381.715 221.817 381.972 221.831 382.266 221.859C382.569 221.886 382.826 221.914 383.038 221.941V221.859C383.038 221.115 382.863 220.587 382.514 220.274C382.165 219.953 381.628 219.792 380.902 219.792C380.7 219.792 380.489 219.81 380.268 219.847C380.057 219.884 379.841 219.93 379.621 219.985C379.409 220.04 379.207 220.109 379.014 220.192C378.822 220.274 378.551 220.412 378.202 220.605L378.243 219.503C378.73 219.255 379.207 219.08 379.676 218.979C380.144 218.878 380.576 218.828 380.971 218.828C381.99 218.828 382.753 219.062 383.258 219.53C383.763 219.99 384.016 220.724 384.016 221.735V226.212C383.547 226.405 383.065 226.548 382.569 226.64C382.073 226.731 381.568 226.777 381.054 226.777ZM383.038 222.933C382.909 222.906 382.67 222.874 382.321 222.837C381.981 222.8 381.66 222.782 381.357 222.782C381.008 222.782 380.668 222.805 380.337 222.851C380.016 222.897 379.726 222.975 379.469 223.085C379.221 223.195 379.024 223.351 378.877 223.553C378.739 223.746 378.67 224.008 378.67 224.339C378.67 224.633 378.73 224.871 378.849 225.055C378.969 225.239 379.129 225.39 379.331 225.51C379.533 225.62 379.777 225.698 380.062 225.744C380.355 225.79 380.663 225.813 380.985 225.813C381.361 225.813 381.738 225.781 382.114 225.716C382.491 225.652 382.799 225.574 383.038 225.482V222.933ZM385.443 218.979H387.068V216.21H388.047V218.979H391.215V219.93H388.047V223.664C388.047 224.068 388.074 224.398 388.129 224.656C388.193 224.913 388.29 225.115 388.419 225.262C388.547 225.409 388.722 225.519 388.942 225.592C389.163 225.657 389.438 225.689 389.769 225.689H391.312V226.64H389.865C389.461 226.64 389.089 226.594 388.749 226.502C388.419 226.419 388.125 226.277 387.867 226.075C387.61 225.873 387.413 225.606 387.275 225.276C387.137 224.945 387.068 224.536 387.068 224.049V219.93H385.443V218.979ZM398.852 218.442L396.827 219.021V218.111L399.831 217.257V226.64H398.852V218.442ZM404.511 226.75C403.941 226.75 403.413 226.667 402.926 226.502C402.439 226.336 401.948 226.065 401.452 225.689L402.017 224.848C402.449 225.198 402.848 225.441 403.216 225.579C403.583 225.716 404.01 225.785 404.497 225.785C404.837 225.785 405.154 225.749 405.447 225.675C405.751 225.592 406.012 225.478 406.233 225.331C406.453 225.175 406.623 224.991 406.743 224.78C406.871 224.559 406.935 224.302 406.935 224.008C406.935 223.677 406.876 223.402 406.756 223.181C406.637 222.952 406.467 222.763 406.247 222.617C406.026 222.47 405.755 222.364 405.434 222.3C405.112 222.226 404.745 222.189 404.332 222.189H404.001V221.239H404.29C405.154 221.239 405.774 221.092 406.15 220.798C406.527 220.504 406.715 220.1 406.715 219.585C406.715 219.347 406.665 219.135 406.563 218.952C406.462 218.768 406.315 218.607 406.123 218.469C405.939 218.332 405.714 218.226 405.447 218.153C405.19 218.07 404.906 218.029 404.593 218.029C404.116 218.029 403.702 218.097 403.353 218.235C403.004 218.373 402.609 218.616 402.168 218.965L401.631 218.125C402.118 217.748 402.596 217.477 403.064 217.312C403.532 217.147 404.051 217.064 404.621 217.064C405.053 217.064 405.457 217.119 405.833 217.229C406.21 217.34 406.541 217.5 406.825 217.712C407.11 217.923 407.335 218.185 407.5 218.497C407.675 218.8 407.762 219.14 407.762 219.517C407.762 219.829 407.707 220.118 407.597 220.385C407.496 220.651 407.358 220.885 407.183 221.087C407.018 221.28 406.862 221.418 406.715 221.501C406.577 221.583 406.444 221.643 406.315 221.68C406.481 221.707 406.646 221.767 406.811 221.859C406.977 221.941 407.151 222.088 407.335 222.3C407.528 222.502 407.679 222.75 407.79 223.044C407.909 223.328 407.969 223.65 407.969 224.008C407.969 224.449 407.872 224.844 407.679 225.193C407.496 225.542 407.243 225.831 406.922 226.061C406.609 226.291 406.247 226.46 405.833 226.571C405.42 226.69 404.979 226.75 404.511 226.75ZM415.133 215.108H416.153L408.52 228.706H407.459L415.133 215.108ZM417.783 218.442L415.758 219.021V218.111L418.761 217.257V226.64H417.783V218.442ZM423.924 218.029C423.437 218.029 423.019 218.097 422.67 218.235C422.321 218.373 421.93 218.616 421.499 218.965L420.934 218.125C421.43 217.748 421.912 217.477 422.38 217.312C422.849 217.147 423.368 217.064 423.937 217.064C424.351 217.064 424.736 217.119 425.095 217.229C425.462 217.34 425.783 217.5 426.059 217.712C426.335 217.923 426.555 218.194 426.72 218.525C426.886 218.846 426.968 219.213 426.968 219.627C426.968 220.141 426.849 220.651 426.61 221.156C426.381 221.652 426.041 222.162 425.591 222.685C425.15 223.2 424.608 223.732 423.965 224.284C423.322 224.826 422.734 225.294 422.201 225.689H427.23V226.64H420.589V225.758C421.489 225.096 422.27 224.49 422.932 223.939C423.593 223.388 424.144 222.869 424.585 222.382C425.035 221.886 425.37 221.418 425.591 220.977C425.82 220.536 425.935 220.109 425.935 219.696C425.935 219.402 425.88 219.154 425.77 218.952C425.669 218.75 425.526 218.58 425.343 218.442C425.159 218.304 424.943 218.203 424.695 218.139C424.447 218.065 424.19 218.029 423.924 218.029ZM435.033 215.108H436.052L428.419 228.706H427.358L435.033 215.108ZM439.047 218.029C438.56 218.029 438.142 218.097 437.793 218.235C437.444 218.373 437.053 218.616 436.622 218.965L436.057 218.125C436.553 217.748 437.035 217.477 437.503 217.312C437.972 217.147 438.491 217.064 439.06 217.064C439.474 217.064 439.859 217.119 440.218 217.229C440.585 217.34 440.907 217.5 441.182 217.712C441.458 217.923 441.678 218.194 441.843 218.525C442.009 218.846 442.091 219.213 442.091 219.627C442.091 220.141 441.972 220.651 441.733 221.156C441.504 221.652 441.164 222.162 440.714 222.685C440.273 223.2 439.731 223.732 439.088 224.284C438.445 224.826 437.857 225.294 437.324 225.689H442.353V226.64H435.712V225.758C436.613 225.096 437.393 224.49 438.055 223.939C438.716 223.388 439.267 222.869 439.708 222.382C440.158 221.886 440.493 221.418 440.714 220.977C440.943 220.536 441.058 220.109 441.058 219.696C441.058 219.402 441.003 219.154 440.893 218.952C440.792 218.75 440.649 218.58 440.466 218.442C440.282 218.304 440.066 218.203 439.818 218.139C439.57 218.065 439.313 218.029 439.047 218.029ZM447.745 225.785C448.562 225.785 449.21 225.473 449.687 224.848C450.174 224.224 450.417 223.25 450.417 221.928C450.417 220.605 450.174 219.622 449.687 218.979C449.2 218.327 448.553 218.001 447.745 218.001C446.918 218.001 446.266 218.322 445.788 218.965C445.32 219.608 445.085 220.596 445.085 221.928C445.085 223.25 445.32 224.224 445.788 224.848C446.266 225.473 446.918 225.785 447.745 225.785ZM449.37 226.392C448.911 226.63 448.369 226.75 447.745 226.75C447.12 226.75 446.569 226.63 446.091 226.392C445.623 226.153 445.237 225.822 444.934 225.4C444.631 224.977 444.406 224.472 444.259 223.884C444.112 223.287 444.038 222.635 444.038 221.928C444.038 221.22 444.112 220.573 444.259 219.985C444.406 219.397 444.631 218.887 444.934 218.456C445.237 218.015 445.623 217.675 446.091 217.436C446.569 217.188 447.12 217.064 447.745 217.064C448.369 217.064 448.911 217.188 449.37 217.436C449.839 217.675 450.224 218.015 450.528 218.456C450.831 218.887 451.056 219.397 451.203 219.985C451.35 220.573 451.423 221.22 451.423 221.928C451.423 222.635 451.35 223.287 451.203 223.884C451.056 224.472 450.831 224.977 450.528 225.4C450.224 225.822 449.839 226.153 449.37 226.392ZM455.986 218.029C455.499 218.029 455.081 218.097 454.732 218.235C454.383 218.373 453.993 218.616 453.561 218.965L452.996 218.125C453.492 217.748 453.974 217.477 454.443 217.312C454.911 217.147 455.43 217.064 456 217.064C456.413 217.064 456.799 217.119 457.157 217.229C457.524 217.34 457.846 217.5 458.122 217.712C458.397 217.923 458.617 218.194 458.783 218.525C458.948 218.846 459.031 219.213 459.031 219.627C459.031 220.141 458.911 220.651 458.673 221.156C458.443 221.652 458.103 222.162 457.653 222.685C457.212 223.2 456.67 223.732 456.027 224.284C455.384 224.826 454.797 225.294 454.264 225.689H459.293V226.64H452.652V225.758C453.552 225.096 454.333 224.49 454.994 223.939C455.655 223.388 456.206 222.869 456.647 222.382C457.097 221.886 457.433 221.418 457.653 220.977C457.883 220.536 457.998 220.109 457.998 219.696C457.998 219.402 457.942 219.154 457.832 218.952C457.731 218.75 457.589 218.58 457.405 218.442C457.221 218.304 457.006 218.203 456.758 218.139C456.51 218.065 456.252 218.029 455.986 218.029ZM463.361 226.75C462.792 226.75 462.264 226.667 461.777 226.502C461.29 226.336 460.799 226.065 460.303 225.689L460.868 224.848C461.299 225.198 461.699 225.441 462.066 225.579C462.434 225.716 462.861 225.785 463.348 225.785C463.687 225.785 464.004 225.749 464.298 225.675C464.601 225.592 464.863 225.478 465.083 225.331C465.304 225.175 465.474 224.991 465.593 224.78C465.722 224.559 465.786 224.302 465.786 224.008C465.786 223.677 465.726 223.402 465.607 223.181C465.488 222.952 465.318 222.763 465.097 222.617C464.877 222.47 464.606 222.364 464.284 222.3C463.963 222.226 463.595 222.189 463.182 222.189H462.852V221.239H463.141C464.004 221.239 464.624 221.092 465.001 220.798C465.377 220.504 465.566 220.1 465.566 219.585C465.566 219.347 465.515 219.135 465.414 218.952C465.313 218.768 465.166 218.607 464.973 218.469C464.79 218.332 464.565 218.226 464.298 218.153C464.041 218.07 463.756 218.029 463.444 218.029C462.966 218.029 462.553 218.097 462.204 218.235C461.855 218.373 461.46 218.616 461.019 218.965L460.482 218.125C460.969 217.748 461.446 217.477 461.915 217.312C462.383 217.147 462.902 217.064 463.472 217.064C463.903 217.064 464.307 217.119 464.684 217.229C465.061 217.34 465.391 217.5 465.676 217.712C465.961 217.923 466.186 218.185 466.351 218.497C466.526 218.8 466.613 219.14 466.613 219.517C466.613 219.829 466.558 220.118 466.447 220.385C466.346 220.651 466.209 220.885 466.034 221.087C465.869 221.28 465.713 221.418 465.566 221.501C465.428 221.583 465.295 221.643 465.166 221.68C465.331 221.707 465.497 221.767 465.662 221.859C465.827 221.941 466.002 222.088 466.186 222.3C466.379 222.502 466.53 222.75 466.64 223.044C466.76 223.328 466.819 223.65 466.819 224.008C466.819 224.449 466.723 224.844 466.53 225.193C466.346 225.542 466.094 225.831 465.772 226.061C465.46 226.291 465.097 226.46 464.684 226.571C464.271 226.69 463.83 226.75 463.361 226.75ZM476.807 225.785C477.624 225.785 478.272 225.473 478.749 224.848C479.236 224.224 479.479 223.25 479.479 221.928C479.479 220.605 479.236 219.622 478.749 218.979C478.262 218.327 477.615 218.001 476.807 218.001C475.98 218.001 475.328 218.322 474.85 218.965C474.382 219.608 474.148 220.596 474.148 221.928C474.148 223.25 474.382 224.224 474.85 224.848C475.328 225.473 475.98 225.785 476.807 225.785ZM478.432 226.392C477.973 226.63 477.431 226.75 476.807 226.75C476.182 226.75 475.631 226.63 475.153 226.392C474.685 226.153 474.299 225.822 473.996 225.4C473.693 224.977 473.468 224.472 473.321 223.884C473.174 223.287 473.1 222.635 473.1 221.928C473.1 221.22 473.174 220.573 473.321 219.985C473.468 219.397 473.693 218.887 473.996 218.456C474.299 218.015 474.685 217.675 475.153 217.436C475.631 217.188 476.182 217.064 476.807 217.064C477.431 217.064 477.973 217.188 478.432 217.436C478.901 217.675 479.287 218.015 479.59 218.456C479.893 218.887 480.118 219.397 480.265 219.985C480.412 220.573 480.485 221.22 480.485 221.928C480.485 222.635 480.412 223.287 480.265 223.884C480.118 224.472 479.893 224.977 479.59 225.4C479.287 225.822 478.901 226.153 478.432 226.392ZM483.684 218.442L481.659 219.021V218.111L484.662 217.257V226.64H483.684V218.442ZM488.309 226.557C488.162 226.704 487.987 226.777 487.785 226.777C487.583 226.777 487.409 226.704 487.262 226.557C487.115 226.41 487.041 226.235 487.041 226.033C487.041 225.831 487.115 225.657 487.262 225.51C487.409 225.363 487.583 225.289 487.785 225.289C487.987 225.289 488.162 225.363 488.309 225.51C488.456 225.657 488.529 225.831 488.529 226.033C488.529 226.235 488.456 226.41 488.309 226.557ZM488.309 220.095C488.162 220.242 487.987 220.316 487.785 220.316C487.583 220.316 487.409 220.242 487.262 220.095C487.115 219.948 487.041 219.774 487.041 219.572C487.041 219.37 487.115 219.195 487.262 219.048C487.409 218.901 487.583 218.828 487.785 218.828C487.987 218.828 488.162 218.901 488.309 219.048C488.456 219.195 488.529 219.37 488.529 219.572C488.529 219.774 488.456 219.948 488.309 220.095ZM494.897 224.187H489.923V223.388L494.966 217.326H495.875V223.25H497.666V224.187H495.875V226.64H494.897V224.187ZM494.897 223.25V218.814L491.232 223.25H494.897ZM501.286 217.243C501.672 217.124 502.085 217.064 502.526 217.064C502.967 217.064 503.38 217.124 503.766 217.243C504.151 217.353 504.487 217.519 504.771 217.739C505.056 217.951 505.281 218.212 505.447 218.525C505.612 218.828 505.695 219.158 505.695 219.517C505.695 220.068 505.538 220.55 505.226 220.963C504.923 221.367 504.666 221.602 504.455 221.666C504.675 221.739 504.831 221.808 504.923 221.873C505.015 221.928 505.153 222.056 505.336 222.258C505.529 222.46 505.685 222.704 505.805 222.989C505.924 223.273 505.984 223.608 505.984 223.994C505.984 224.435 505.887 224.83 505.695 225.179C505.502 225.528 505.245 225.822 504.923 226.061C504.611 226.291 504.248 226.46 503.835 226.571C503.421 226.69 502.985 226.75 502.526 226.75C502.076 226.75 501.644 226.69 501.231 226.571C500.817 226.46 500.45 226.291 500.128 226.061C499.816 225.822 499.564 225.528 499.371 225.179C499.178 224.83 499.081 224.435 499.081 223.994C499.081 223.608 499.141 223.273 499.26 222.989C499.38 222.704 499.531 222.46 499.715 222.258C499.899 222.056 500.037 221.928 500.128 221.873C500.22 221.817 500.422 221.735 500.735 221.625C500.533 221.56 500.367 221.482 500.239 221.39C500.11 221.289 499.972 221.142 499.825 220.949C499.678 220.757 499.564 220.541 499.481 220.302C499.398 220.054 499.357 219.792 499.357 219.517C499.357 219.158 499.44 218.828 499.605 218.525C499.77 218.212 499.995 217.951 500.28 217.739C500.574 217.519 500.909 217.353 501.286 217.243ZM504.303 222.575C503.881 222.245 503.288 222.079 502.526 222.079C501.763 222.079 501.171 222.245 500.748 222.575C500.326 222.906 500.115 223.37 500.115 223.967C500.115 224.261 500.174 224.518 500.294 224.738C500.413 224.959 500.579 225.147 500.79 225.303C501.001 225.459 501.254 225.579 501.548 225.661C501.851 225.744 502.177 225.785 502.526 225.785C502.875 225.785 503.201 225.744 503.504 225.661C503.807 225.579 504.064 225.459 504.275 225.303C504.487 225.147 504.652 224.959 504.771 224.738C504.891 224.518 504.951 224.261 504.951 223.967C504.951 223.37 504.735 222.906 504.303 222.575ZM503.394 218.139C503.127 218.065 502.838 218.029 502.526 218.029C502.213 218.029 501.924 218.065 501.658 218.139C501.401 218.212 501.176 218.318 500.983 218.456C500.799 218.593 500.652 218.754 500.542 218.938C500.441 219.122 500.39 219.337 500.39 219.585C500.39 219.797 500.432 219.999 500.514 220.192C500.606 220.385 500.735 220.554 500.9 220.701C501.075 220.839 501.295 220.954 501.561 221.046C501.837 221.138 502.158 221.184 502.526 221.184C502.893 221.184 503.215 221.138 503.49 221.046C503.766 220.954 503.986 220.839 504.151 220.701C504.326 220.554 504.455 220.385 504.537 220.192C504.629 219.999 504.675 219.797 504.675 219.585C504.675 219.337 504.62 219.122 504.51 218.938C504.409 218.754 504.262 218.593 504.069 218.456C503.885 218.318 503.66 218.212 503.394 218.139ZM514.004 221.831V226.64H512.985V215.108H516.691C517.38 215.108 517.977 215.195 518.482 215.37C518.996 215.544 519.419 215.783 519.749 216.086C520.08 216.38 520.323 216.729 520.48 217.133C520.636 217.528 520.714 217.946 520.714 218.387C520.714 218.837 520.636 219.269 520.48 219.682C520.323 220.095 520.08 220.463 519.749 220.784C519.419 221.106 518.996 221.363 518.482 221.556C517.977 221.739 517.38 221.831 516.691 221.831H514.004ZM514.004 216.086V220.853H516.512C517.504 220.853 518.275 220.656 518.826 220.261C519.377 219.866 519.653 219.241 519.653 218.387C519.653 218.038 519.598 217.725 519.488 217.45C519.377 217.174 519.198 216.936 518.95 216.733C518.712 216.531 518.39 216.375 517.986 216.265C517.582 216.146 517.09 216.086 516.512 216.086H514.004ZM527.717 226.64L523.584 216.789V226.64H522.564V215.108H523.983L528.186 225.234L532.388 215.108H533.807V226.64H532.787V216.789L528.654 226.64H527.717Z" fill="#3375A9"/>
<g filter="url(#filter2_d_2802_41026)">
<rect x="296.585" y="263.46" width="242.83" height="53.3881" rx="3.44439" fill="#D32F2F"/>
<mask id="mask0_2802_41026" style="mask-type:alpha" maskUnits="userSpaceOnUse" x="369" y="279" width="21" height="22">
<rect x="369.139" y="279.821" width="20.6664" height="20.6664" fill="#D9D9D9"/>
</mask>
<g mask="url(#mask0_2802_41026)">
<path d="M373.506 298.079C372.964 298.079 372.502 297.888 372.12 297.506C371.738 297.124 371.547 296.662 371.547 296.12V284.188C371.547 283.646 371.738 283.184 372.12 282.802C372.502 282.42 372.964 282.229 373.506 282.229H378.534C378.809 282.229 379.041 282.324 379.23 282.513C379.419 282.702 379.513 282.934 379.513 283.209C379.513 283.483 379.419 283.715 379.23 283.904C379.041 284.093 378.809 284.188 378.534 284.188H373.506V296.12H378.534C378.809 296.12 379.041 296.214 379.23 296.403C379.419 296.592 379.513 296.824 379.513 297.099C379.513 297.374 379.419 297.606 379.23 297.795C379.041 297.984 378.809 298.079 378.534 298.079H373.506ZM383.661 291.133H377.827C377.552 291.133 377.321 291.039 377.131 290.85C376.942 290.661 376.848 290.429 376.848 290.154C376.848 289.879 376.942 289.647 377.131 289.458C377.321 289.269 377.552 289.174 377.827 289.174H383.661L382.165 287.678C381.983 287.496 381.892 287.273 381.892 287.01C381.892 286.746 381.983 286.517 382.165 286.324C382.347 286.128 382.574 286.027 382.847 286.022C383.12 286.016 383.355 286.112 383.551 286.308L386.712 289.469C386.905 289.665 387.001 289.893 387.001 290.154C387.001 290.414 386.905 290.643 386.712 290.839L383.551 294C383.358 294.196 383.127 294.291 382.858 294.286C382.589 294.281 382.357 294.18 382.165 293.983C381.983 293.791 381.895 293.56 381.9 293.29C381.905 293.021 381.999 292.795 382.181 292.613L383.661 291.133Z" fill="white"/>
</g>
<path d="M402.752 293.822C399.562 293.822 397.314 291.626 397.301 288.423V288.41C397.301 285.206 399.549 283.011 402.752 283.011H402.765C404.095 283.011 405.219 283.385 406.175 284.018L405.529 285.426C404.625 284.858 403.76 284.612 402.843 284.612H402.83C400.853 284.612 399.097 285.865 399.097 288.41V288.423C399.11 290.954 400.84 292.207 402.83 292.207H402.843C403.747 292.207 404.625 291.975 405.529 291.406L406.175 292.814C405.245 293.421 404.16 293.822 402.765 293.822H402.752ZM407.858 293.654V283.179H409.524V293.654H407.858ZM414.973 293.822C412.726 293.822 411.021 292.207 411.008 289.986V289.973C411.008 287.738 412.726 286.085 414.973 286.085H414.986C417.272 286.098 418.977 287.738 418.977 289.973V289.986C418.977 292.207 417.272 293.809 414.986 293.822H414.973ZM414.986 292.285H414.999C416.381 292.285 417.311 291.264 417.311 289.986V289.973C417.311 288.668 416.381 287.648 414.999 287.635H414.986C413.617 287.635 412.687 288.668 412.687 289.973V289.986C412.687 291.264 413.617 292.285 414.986 292.285ZM423.791 293.809C421.401 293.809 419.903 292.323 419.89 289.947V289.934C419.916 287.635 421.479 286.098 423.804 286.098C424.708 286.098 425.586 286.279 426.297 286.627L425.651 288.035C425.083 287.764 424.501 287.635 423.817 287.635C422.448 287.635 421.582 288.526 421.569 289.934V289.96C421.582 291.368 422.448 292.259 423.83 292.259C424.527 292.259 425.173 292.13 425.664 291.858L426.31 293.266C425.586 293.615 424.708 293.809 423.791 293.809ZM434.262 293.654H432.13L429.327 290.102V293.654H427.661V283.179H429.327V289.947L432.117 286.356H434.068L431.252 289.934L434.262 293.654ZM441.109 293.822C438.862 293.822 437.157 292.207 437.144 289.986V289.973C437.144 287.738 438.862 286.085 441.109 286.085H441.122C443.408 286.098 445.113 287.738 445.113 289.973V289.986C445.113 292.207 443.408 293.809 441.122 293.822H441.109ZM441.122 292.285H441.135C442.517 292.285 443.447 291.264 443.447 289.986V289.973C443.447 288.668 442.517 287.648 441.135 287.635H441.122C439.753 287.635 438.823 288.668 438.823 289.973V289.986C438.823 291.264 439.753 292.285 441.122 292.285ZM453.194 286.356V293.447C451.98 293.667 450.624 293.822 449.875 293.822C447.834 293.822 446.607 293.008 446.607 291.032V286.356H448.26C448.26 287.828 448.273 289.236 448.273 290.709C448.273 291.871 448.88 292.194 449.952 292.194C450.392 292.194 450.96 292.143 451.528 292.039V286.356H453.194ZM458.397 293.654C456.524 293.654 455.904 292.905 455.904 291.329V287.854H454.573V286.356H455.904V283.721H457.544V286.356H460.308V287.854H457.544V290.838C457.544 291.833 458.022 292.13 458.991 292.13H460.321V293.654H458.397Z" fill="white"/>
</g>
<g filter="url(#filter3_d_2802_41026)">
<rect x="296.585" y="330.625" width="242.83" height="53.3881" rx="3.44439" fill="#005394"/>
<path d="M360.792 360.819V350.344H367.366V351.894H362.445V354.658H366.901V356.208H362.445V359.269H367.405V360.819H360.792ZM369.44 360.819V353.677C370.641 353.47 372.01 353.315 372.746 353.315C374.529 353.315 376.014 353.948 376.014 356.092C376.014 357.668 376.027 359.244 376.027 360.819H374.361V356.415C374.361 355.317 373.741 354.929 372.669 354.929C372.243 354.929 371.661 354.981 371.093 355.084V360.819H369.44ZM381.229 360.819C379.357 360.819 378.737 360.07 378.737 358.494V355.02H377.406V353.522H378.737V350.887H380.377V353.522H383.141V355.02H380.377V358.004C380.377 358.998 380.855 359.295 381.824 359.295H383.154V360.819H381.229ZM391.33 356.931V357.719H385.724C385.944 358.856 386.745 359.515 387.998 359.515C388.876 359.515 389.703 359.295 390.258 358.972L390.956 360.264C390.193 360.664 389.173 360.974 387.881 360.974C385.556 360.974 384.019 359.424 384.019 357.125V357.112C384.019 354.8 385.531 353.25 387.791 353.25C389.922 353.25 391.33 354.723 391.33 356.931ZM387.752 354.71C386.629 354.71 385.944 355.304 385.737 356.311H389.716C389.612 355.317 388.876 354.71 387.752 354.71ZM392.722 360.819V353.87C393.755 353.586 394.84 353.522 395.59 353.522H396.92V355.059H395.796C395.435 355.059 394.634 355.084 394.375 355.214V360.819H392.722ZM404.041 360.974C401.652 360.974 400.154 359.489 400.141 357.112V357.099C400.167 354.8 401.729 353.263 404.054 353.263C404.959 353.263 405.837 353.444 406.547 353.793L405.901 355.201C405.333 354.929 404.752 354.8 404.067 354.8C402.698 354.8 401.833 355.691 401.82 357.099V357.125C401.833 358.533 402.698 359.424 404.08 359.424C404.778 359.424 405.424 359.295 405.914 359.024L406.56 360.432C405.837 360.781 404.959 360.974 404.041 360.974ZM410.689 353.276C412.613 353.276 413.957 354.116 413.957 356.118V360.484C413.156 360.703 411.877 360.949 410.728 360.949C408.493 360.949 407.266 360.083 407.266 358.469V358.456C407.266 356.893 408.428 356.04 410.56 356.04C411.076 356.04 411.683 356.092 412.316 356.169V356.131C412.316 355.252 411.645 354.736 410.314 354.736C409.63 354.736 408.622 354.878 407.821 355.214L408.209 353.689C408.777 353.444 409.759 353.276 410.689 353.276ZM408.945 358.43C408.945 359.127 409.513 359.463 410.74 359.463C411.18 359.463 411.916 359.399 412.316 359.295V357.564C412.032 357.513 411.27 357.422 410.74 357.422C409.513 357.422 408.945 357.745 408.945 358.43ZM418.309 360.987C417.211 360.987 416.216 360.794 415.235 360.354L415.674 359.05C416.526 359.411 417.405 359.579 418.154 359.579C419.174 359.579 419.859 359.424 419.859 358.804C419.859 358.249 419.613 358.133 418.386 357.81C418.167 357.758 417.947 357.694 417.728 357.642C416.139 357.241 415.429 356.531 415.429 355.343C415.429 354.051 416.514 353.263 418.335 353.263C419.433 353.263 420.492 353.483 421.228 353.883L420.763 355.188C420.078 354.865 419.278 354.671 418.528 354.671C417.663 354.671 417.146 354.839 417.146 355.343C417.146 355.872 417.573 355.989 418.567 356.247L419.097 356.389C420.789 356.828 421.486 357.551 421.486 358.714C421.486 360.212 420.427 360.987 418.309 360.987ZM429.573 360.832H427.907V356.428C427.907 355.33 427.287 354.942 426.215 354.942C425.788 354.942 425.207 354.994 424.639 355.097V360.819H422.973V350.344H424.639V353.457C425.298 353.379 425.879 353.328 426.292 353.328C428.075 353.328 429.56 353.961 429.56 356.105C429.56 357.681 429.573 359.256 429.573 360.832ZM432.566 352.54C432.024 352.54 431.533 352.217 431.533 351.597C431.533 351.042 431.985 350.68 432.566 350.68C433.121 350.68 433.574 351.042 433.574 351.597C433.574 352.217 433.096 352.54 432.566 352.54ZM431.726 360.819V353.522H433.393V360.819H431.726ZM442.239 356.931V357.719H436.633C436.853 358.856 437.654 359.515 438.907 359.515C439.785 359.515 440.612 359.295 441.167 358.972L441.865 360.264C441.103 360.664 440.082 360.974 438.79 360.974C436.466 360.974 434.928 359.424 434.928 357.125V357.112C434.928 354.8 436.44 353.25 438.7 353.25C440.831 353.25 442.239 354.723 442.239 356.931ZM438.661 354.71C437.538 354.71 436.853 355.304 436.646 356.311H440.625C440.521 355.317 439.785 354.71 438.661 354.71ZM443.631 360.819V353.87C444.664 353.586 445.749 353.522 446.499 353.522H447.829V355.059H446.705C446.344 355.059 445.543 355.084 445.284 355.214V360.819H443.631ZM454.408 353.276C456.333 353.276 457.676 354.116 457.676 356.118V360.484C456.875 360.703 455.596 360.949 454.447 360.949C452.212 360.949 450.985 360.083 450.985 358.469V358.456C450.985 356.893 452.148 356.04 454.279 356.04C454.796 356.04 455.403 356.092 456.035 356.169V356.131C456.035 355.252 455.364 354.736 454.033 354.736C453.349 354.736 452.341 354.878 451.541 355.214L451.928 353.689C452.496 353.444 453.478 353.276 454.408 353.276ZM452.664 358.43C452.664 359.127 453.233 359.463 454.46 359.463C454.899 359.463 455.635 359.399 456.035 359.295V357.564C455.751 357.513 454.989 357.422 454.46 357.422C453.233 357.422 452.664 357.745 452.664 358.43ZM462.713 353.354C465.167 353.354 466.768 354.762 466.768 357.19V357.203C466.768 359.592 465.244 361.065 462.713 361.065C462.299 361.065 461.847 361.026 461.395 360.949V363.674H459.729V353.728H460.052C460.943 353.483 461.899 353.354 462.713 353.354ZM465.167 357.216V357.19C465.167 355.821 464.314 354.865 462.764 354.865C462.351 354.865 461.912 354.917 461.395 355.033V359.45C461.847 359.541 462.364 359.566 462.751 359.566C464.237 359.566 465.167 358.662 465.167 357.216ZM471.227 353.354C473.681 353.354 475.283 354.762 475.283 357.19V357.203C475.283 359.592 473.759 361.065 471.227 361.065C470.814 361.065 470.362 361.026 469.909 360.949V363.674H468.243V353.728H468.566C469.457 353.483 470.413 353.354 471.227 353.354ZM473.681 357.216V357.19C473.681 355.821 472.829 354.865 471.279 354.865C470.865 354.865 470.426 354.917 469.909 355.033V359.45C470.362 359.541 470.878 359.566 471.266 359.566C472.751 359.566 473.681 358.662 473.681 357.216Z" fill="white"/>
</g>
<rect x="296.8" y="398.006" width="242.399" height="0.430549" stroke="#E5E7EB" stroke-width="0.430549"/>
<rect x="297.016" y="412.86" width="241.969" height="52.527" rx="3.01384" stroke="#3375A9" stroke-opacity="0.5" stroke-width="0.861098"/>
<path d="M386.242 437.057C387.573 437.315 388.244 438.232 388.244 439.588V439.601C388.244 441.926 386.514 442.624 384.382 442.624H380.792V432.148H384.305C386.591 432.148 387.818 433.027 387.818 434.732V434.744C387.818 435.842 387.224 436.785 386.242 437.057ZM384.202 433.711H382.445V436.566H384.215C385.661 436.566 386.178 436.01 386.178 435.106V435.093C386.178 434.047 385.39 433.711 384.202 433.711ZM386.565 439.446V439.433C386.565 438.297 385.752 437.883 384.537 437.883H382.445V441.048H384.499C386.023 441.048 386.565 440.376 386.565 439.446ZM392.772 435.08C394.696 435.08 396.04 435.92 396.04 437.922V442.288C395.239 442.507 393.96 442.753 392.811 442.753C390.576 442.753 389.349 441.887 389.349 440.273V440.26C389.349 438.697 390.511 437.844 392.643 437.844C393.159 437.844 393.766 437.896 394.399 437.974V437.935C394.399 437.057 393.728 436.54 392.397 436.54C391.713 436.54 390.705 436.682 389.904 437.018L390.292 435.494C390.86 435.248 391.842 435.08 392.772 435.08ZM391.028 440.234C391.028 440.931 391.596 441.267 392.824 441.267C393.263 441.267 393.999 441.203 394.399 441.099V439.369C394.115 439.317 393.353 439.227 392.824 439.227C391.596 439.227 391.028 439.549 391.028 440.234ZM401.412 442.779C399.023 442.779 397.525 441.293 397.512 438.917V438.904C397.537 436.604 399.1 435.067 401.425 435.067C402.329 435.067 403.208 435.248 403.918 435.597L403.272 437.005C402.704 436.734 402.123 436.604 401.438 436.604C400.069 436.604 399.204 437.496 399.191 438.904V438.929C399.204 440.337 400.069 441.229 401.451 441.229C402.149 441.229 402.794 441.099 403.285 440.828L403.931 442.236C403.208 442.585 402.329 442.779 401.412 442.779ZM411.883 442.624H409.752L406.949 439.072V442.624H405.283V432.148H406.949V438.917L409.739 435.326H411.689L408.873 438.904L411.883 442.624ZM418.73 442.791C416.483 442.791 414.778 441.177 414.765 438.955V438.942C414.765 436.708 416.483 435.054 418.73 435.054H418.743C421.03 435.067 422.735 436.708 422.735 438.942V438.955C422.735 441.177 421.03 442.779 418.743 442.791H418.73ZM418.743 441.254H418.756C420.138 441.254 421.068 440.234 421.068 438.955V438.942C421.068 437.638 420.138 436.617 418.756 436.604H418.743C417.374 436.604 416.444 437.638 416.444 438.942V438.955C416.444 440.234 417.374 441.254 418.743 441.254ZM424.81 442.624V436.876H423.466V435.326H424.81V434.499C424.81 432.665 425.662 432.148 427.742 432.148H429.266V433.556H427.948C426.915 433.556 426.476 433.853 426.476 434.783V435.326H429.24V436.876H426.476V442.624H424.81ZM431.482 442.624V436.876H430.139V435.326H431.482V434.499C431.482 432.665 432.335 432.148 434.414 432.148H435.939V433.556H434.621C433.588 433.556 433.149 433.853 433.149 434.783V435.326H435.913V436.876H433.149V442.624H431.482ZM438.413 434.344C437.871 434.344 437.38 434.021 437.38 433.401C437.38 432.846 437.832 432.484 438.413 432.484C438.969 432.484 439.421 432.846 439.421 433.401C439.421 434.021 438.943 434.344 438.413 434.344ZM437.574 442.624V435.326H439.24V442.624H437.574ZM444.715 442.779C442.326 442.779 440.828 441.293 440.815 438.917V438.904C440.84 436.604 442.403 435.067 444.728 435.067C445.632 435.067 446.511 435.248 447.221 435.597L446.575 437.005C446.007 436.734 445.426 436.604 444.741 436.604C443.372 436.604 442.507 437.496 442.494 438.904V438.929C442.507 440.337 443.372 441.229 444.754 441.229C445.452 441.229 446.097 441.099 446.588 440.828L447.234 442.236C446.511 442.585 445.632 442.779 444.715 442.779ZM455.15 438.736V439.524H449.545C449.764 440.66 450.565 441.319 451.818 441.319C452.696 441.319 453.523 441.099 454.078 440.776L454.776 442.068C454.014 442.469 452.993 442.779 451.702 442.779C449.377 442.779 447.84 441.229 447.84 438.929V438.917C447.84 436.604 449.351 435.054 451.611 435.054C453.742 435.054 455.15 436.527 455.15 438.736ZM451.572 436.514C450.449 436.514 449.764 437.108 449.557 438.116H453.536C453.432 437.121 452.696 436.514 451.572 436.514Z" fill="#005394"/>
</g>
<defs>
<filter id="filter0_dd_2802_41026" x="29.6936" y="-13.4723" width="488.613" height="314.4" filterUnits="userSpaceOnUse" color-interpolation-filters="sRGB">
<feFlood flood-opacity="0" result="BackgroundImageFix"/>
<feColorMatrix in="SourceAlpha" type="matrix" values="0 0 0 0 0 0 0 0 0 0 0 0 0 0 0 0 0 0 127 0" result="hardAlpha"/>
<feOffset dy="4.29361"/>
<feGaussianBlur stdDeviation="9.44595"/>
<feComposite in2="hardAlpha" operator="out"/>
<feColorMatrix type="matrix" values="0 0 0 0 0 0 0 0 0 0 0 0 0 0 0 0 0 0 0.04 0"/>
<feBlend mode="normal" in2="BackgroundImageFix" result="effect1_dropShadow_2802_41026"/>
<feColorMatrix in="SourceAlpha" type="matrix" values="0 0 0 0 0 0 0 0 0 0 0 0 0 0 0 0 0 0 127 0" result="hardAlpha"/>
<feMorphology radius="0.429361" operator="dilate" in="SourceAlpha" result="effect2_dropShadow_2802_41026"/>
<feOffset/>
<feComposite in2="hardAlpha" operator="out"/>
<feColorMatrix type="matrix" values="0 0 0 0 0 0 0 0 0 0 0 0 0 0 0 0 0 0 0.03 0"/>
<feBlend mode="normal" in2="effect1_dropShadow_2802_41026" result="effect2_dropShadow_2802_41026"/>
<feBlend mode="normal" in="SourceGraphic" in2="effect2_dropShadow_2802_41026" result="shape"/>
</filter>
<filter id="filter1_d_2802_41026" x="260.419" y="150.267" width="315.162" height="352.579" filterUnits="userSpaceOnUse" color-interpolation-filters="sRGB">
<feFlood flood-opacity="0" result="BackgroundImageFix"/>
<feColorMatrix in="SourceAlpha" type="matrix" values="0 0 0 0 0 0 0 0 0 0 0 0 0 0 0 0 0 0 127 0" result="hardAlpha"/>
<feOffset dy="0.861098"/>
<feGaussianBlur stdDeviation="7.74988"/>
<feColorMatrix type="matrix" values="0 0 0 0 0 0 0 0 0 0 0 0 0 0 0 0 0 0 0.08 0"/>
<feBlend mode="normal" in2="BackgroundImageFix" result="effect1_dropShadow_2802_41026"/>
<feBlend mode="normal" in="SourceGraphic" in2="effect1_dropShadow_2802_41026" result="shape"/>
</filter>
<filter id="filter2_d_2802_41026" x="294.585" y="262.46" width="246.83" height="57.3882" filterUnits="userSpaceOnUse" color-interpolation-filters="sRGB">
<feFlood flood-opacity="0" result="BackgroundImageFix"/>
<feColorMatrix in="SourceAlpha" type="matrix" values="0 0 0 0 0 0 0 0 0 0 0 0 0 0 0 0 0 0 127 0" result="hardAlpha"/>
<feOffset dy="1"/>
<feGaussianBlur stdDeviation="1"/>
<feColorMatrix type="matrix" values="0 0 0 0 0 0 0 0 0 0 0 0 0 0 0 0 0 0 0.08 0"/>
<feBlend mode="normal" in2="BackgroundImageFix" result="effect1_dropShadow_2802_41026"/>
<feBlend mode="normal" in="SourceGraphic" in2="effect1_dropShadow_2802_41026" result="shape"/>
</filter>
<filter id="filter3_d_2802_41026" x="294.585" y="329.625" width="246.83" height="57.3882" filterUnits="userSpaceOnUse" color-interpolation-filters="sRGB">
<feFlood flood-opacity="0" result="BackgroundImageFix"/>
<feColorMatrix in="SourceAlpha" type="matrix" values="0 0 0 0 0 0 0 0 0 0 0 0 0 0 0 0 0 0 127 0" result="hardAlpha"/>
<feOffset dy="1"/>
<feGaussianBlur stdDeviation="1"/>
<feColorMatrix type="matrix" values="0 0 0 0 0 0 0 0 0 0 0 0 0 0 0 0 0 0 0.08 0"/>
<feBlend mode="normal" in2="BackgroundImageFix" result="effect1_dropShadow_2802_41026"/>
<feBlend mode="normal" in="SourceGraphic" in2="effect1_dropShadow_2802_41026" result="shape"/>
</filter>
<clipPath id="clip0_2802_41026">
<rect x="48.5854" y="1.12598" width="450.829" height="276.617" rx="17.1744" fill="white"/>
</clipPath>
<clipPath id="clip1_2802_41026">
<rect x="48.5854" y="1.12598" width="450.829" height="276.617" rx="17.1744" fill="white"/>
</clipPath>
<clipPath id="clip2_2802_41026">
<rect x="62.325" y="59.5732" width="92.742" height="19" rx="3.43489" fill="white"/>
</clipPath>
<clipPath id="clip3_2802_41026">
<rect width="36.0663" height="36.0663" fill="white" transform="translate(160.048 51.04)"/>
</clipPath>
<clipPath id="clip4_2802_41026">
<rect width="36.0663" height="36.0663" fill="white" transform="translate(231.837 51.04)"/>
</clipPath>
<clipPath id="clip5_2802_41026">
<rect width="36.0663" height="36.0663" fill="white" transform="translate(303.626 51.04)"/>
</clipPath>
<clipPath id="clip6_2802_41026">
<rect width="36.0663" height="36.0663" fill="white" transform="translate(375.415 51.04)"/>
</clipPath>
<clipPath id="clip7_2802_41026">
<rect width="36.0663" height="36.0663" fill="white" transform="translate(447.204 51.04)"/>
</clipPath>
<clipPath id="clip8_2802_41026">
<rect x="62.325" y="105.944" width="92.742" height="19" rx="3.43489" fill="white"/>
</clipPath>
<clipPath id="clip9_2802_41026">
<rect width="36.0663" height="36.0663" fill="white" transform="translate(160.048 97.4111)"/>
</clipPath>
<clipPath id="clip10_2802_41026">
<rect width="36.0663" height="36.0663" fill="white" transform="translate(231.837 97.4111)"/>
</clipPath>
<clipPath id="clip11_2802_41026">
<rect width="36.0663" height="36.0663" fill="white" transform="translate(303.626 97.4111)"/>
</clipPath>
<clipPath id="clip12_2802_41026">
<rect width="36.0663" height="36.0663" fill="white" transform="translate(375.415 97.4111)"/>
</clipPath>
<clipPath id="clip13_2802_41026">
<rect width="36.0663" height="36.0663" fill="white" transform="translate(447.204 97.4111)"/>
</clipPath>
<clipPath id="clip14_2802_41026">
<rect x="62.325" y="152.315" width="92.742" height="19" rx="3.43489" fill="white"/>
</clipPath>
<clipPath id="clip15_2802_41026">
<rect width="36.0663" height="36.0663" fill="white" transform="translate(160.048 143.782)"/>
</clipPath>
<clipPath id="clip16_2802_41026">
<rect width="36.0663" height="36.0663" fill="white" transform="translate(231.837 143.782)"/>
</clipPath>
<clipPath id="clip17_2802_41026">
<rect width="36.0663" height="36.0663" fill="white" transform="translate(303.626 143.782)"/>
</clipPath>
<clipPath id="clip18_2802_41026">
<rect width="36.0663" height="36.0663" fill="white" transform="translate(375.415 143.782)"/>
</clipPath>
<clipPath id="clip19_2802_41026">
<rect width="36.0663" height="36.0663" fill="white" transform="translate(447.204 143.782)"/>
</clipPath>
<clipPath id="clip20_2802_41026">
<rect x="62.325" y="198.686" width="92.742" height="19" rx="3.43489" fill="white"/>
</clipPath>
<clipPath id="clip21_2802_41026">
<rect width="36.0663" height="36.0663" fill="white" transform="translate(160.048 190.153)"/>
</clipPath>
<clipPath id="clip22_2802_41026">
<rect width="36.0663" height="36.0663" fill="white" transform="translate(231.837 190.153)"/>
</clipPath>
<clipPath id="clip23_2802_41026">
<rect width="36.0663" height="36.0663" fill="white" transform="translate(303.626 190.153)"/>
</clipPath>
<clipPath id="clip24_2802_41026">
<rect width="36.0663" height="36.0663" fill="white" transform="translate(375.415 190.153)"/>
</clipPath>
<clipPath id="clip25_2802_41026">
<rect width="36.0663" height="36.0663" fill="white" transform="translate(447.204 190.153)"/>
</clipPath>
<clipPath id="clip26_2802_41026">
<rect x="62.325" y="245.057" width="92.742" height="19" rx="3.43489" fill="white"/>
</clipPath>
<clipPath id="clip27_2802_41026">
<rect width="36.0663" height="36.0663" fill="white" transform="translate(160.048 236.524)"/>
</clipPath>
<clipPath id="clip28_2802_41026">
<rect width="36.0663" height="36.0663" fill="white" transform="translate(231.837 236.524)"/>
</clipPath>
<clipPath id="clip29_2802_41026">
<rect width="36.0663" height="36.0663" fill="white" transform="translate(303.626 236.524)"/>
</clipPath>
<clipPath id="clip30_2802_41026">
<rect width="36.0663" height="36.0663" fill="white" transform="translate(375.415 236.524)"/>
</clipPath>
<clipPath id="clip31_2802_41026">
<rect width="36.0663" height="36.0663" fill="white" transform="translate(447.204 236.524)"/>
</clipPath>
</defs>
</svg>
