<svg width="550" height="506" viewBox="0 0 550 506" fill="none" xmlns="http://www.w3.org/2000/svg">
<circle opacity="0.1" cx="44" cy="44" r="44" transform="matrix(1 0 0 -1 461.63 150)" fill="#FF9800"/>
<circle opacity="0.1" cx="178.63" cy="398" r="58.0001" fill="#3375A9"/>
<g filter="url(#filter0_d_2802_42468)">
<g clip-path="url(#clip0_2802_42468)">
<mask id="path-3-inside-1_2802_42468" fill="white">
<path d="M182 119C182 112.373 187.373 107 194 107H503C509.627 107 515 112.373 515 119V475C515 481.627 509.627 487 503 487H194C187.373 487 182 481.627 182 475V119Z"/>
</mask>
<path d="M182 119C182 112.373 187.373 107 194 107H503C509.627 107 515 112.373 515 119V475C515 481.627 509.627 487 503 487H194C187.373 487 182 481.627 182 475V119Z" fill="white"/>
<path d="M217.394 155L216.296 151.796H210.824L209.744 155H206.288L211.508 140.402H215.594L220.868 155H217.394ZM213.542 143.696L213.506 143.894L211.814 148.79H215.306L213.614 143.894L213.542 143.696ZM228.399 140.402H231.783V154.586C230.325 155.036 228.561 155.378 227.013 155.378C223.359 155.378 221.163 153.254 221.163 149.78V149.762C221.163 146.252 223.431 144.2 227.013 144.2C227.445 144.2 227.913 144.218 228.399 144.272V140.402ZM226.923 152.462C227.319 152.462 227.859 152.444 228.399 152.354V147.512C227.859 147.404 227.373 147.35 226.905 147.35C225.357 147.35 224.493 148.358 224.493 149.888V149.924C224.493 151.49 225.393 152.462 226.923 152.462ZM240.721 140.402H244.105V154.586C242.647 155.036 240.883 155.378 239.335 155.378C235.681 155.378 233.485 153.254 233.485 149.78V149.762C233.485 146.252 235.753 144.2 239.335 144.2C239.767 144.2 240.235 144.218 240.721 144.272V140.402ZM239.245 152.462C239.641 152.462 240.181 152.444 240.721 152.354V147.512C240.181 147.404 239.695 147.35 239.227 147.35C237.679 147.35 236.815 148.358 236.815 149.888V149.924C236.815 151.49 237.715 152.462 239.245 152.462ZM249.571 155V144.74C251.317 144.434 253.495 144.182 254.521 144.182C257.167 144.182 259.543 145.064 259.543 148.286V155H256.159V148.97C256.159 147.872 255.583 147.458 254.395 147.458C253.999 147.458 253.477 147.512 252.937 147.602V155H249.571ZM272.167 149.69C272.167 149.906 272.167 150.428 272.149 150.644H264.805C265.129 151.688 265.993 152.3 267.253 152.3C268.405 152.3 269.557 151.958 270.295 151.508L271.735 154.118C270.619 154.712 269.089 155.234 267.073 155.234C263.599 155.234 261.277 153.002 261.277 149.672V149.654C261.277 146.306 263.509 144.056 266.839 144.056C270.043 144.056 272.167 146.324 272.167 149.69ZM266.803 146.846C265.705 146.846 265.039 147.404 264.787 148.358H268.837C268.621 147.422 267.901 146.846 266.803 146.846ZM284.918 144.506H288.428L286.322 155H281.966L280.652 147.638L279.32 155H275.054L272.858 144.506H276.386L277.448 151.4L278.672 144.506H282.632L283.856 151.364L284.918 144.506ZM297.776 144.2C301.358 144.2 303.626 146.252 303.626 149.762V149.78C303.626 153.254 301.43 155.378 297.776 155.378C296.228 155.378 294.464 155.036 293.006 154.586V140.402H296.39V144.272C296.876 144.218 297.344 144.2 297.776 144.2ZM300.296 149.924V149.888C300.296 148.358 299.432 147.35 297.884 147.35C297.416 147.35 296.93 147.404 296.39 147.512V152.354C296.93 152.444 297.47 152.462 297.866 152.462C299.396 152.462 300.296 151.49 300.296 149.924ZM305.116 155V144.938C306.736 144.596 308.626 144.506 309.688 144.506H311.74V147.62C310.894 147.62 311.002 147.602 310.138 147.602C309.886 147.602 308.68 147.638 308.5 147.71V155H305.116ZM317.7 144.056C321.57 144.056 322.632 145.424 322.632 147.926V154.568C321.282 154.928 319.32 155.18 317.664 155.18C314.424 155.18 312.552 154.1 312.552 151.598C312.552 149.33 314.262 148.232 317.178 148.232C317.88 148.232 318.6 148.286 319.356 148.376V148.268C319.356 147.26 318.672 146.99 316.98 146.99C315.864 146.99 314.388 147.224 313.128 147.584L313.956 144.506C314.892 144.29 316.476 144.056 317.7 144.056ZM319.266 152.354V150.572C318.924 150.518 318.258 150.446 317.754 150.446C316.566 150.446 315.972 150.752 315.972 151.436V151.454C315.972 152.156 316.566 152.498 317.754 152.498C318.168 152.498 318.96 152.444 319.266 152.354ZM324.876 155V144.74C326.622 144.434 328.8 144.182 329.826 144.182C332.472 144.182 334.848 145.064 334.848 148.286V155H331.464V148.97C331.464 147.872 330.888 147.458 329.7 147.458C329.304 147.458 328.782 147.512 328.242 147.602V155H324.876ZM342.431 155.252C338.831 155.252 336.653 153.128 336.635 149.654V149.636C336.653 146.288 338.975 144.074 342.431 144.074C343.745 144.074 345.077 144.362 346.139 144.866L344.807 147.71C344.087 147.386 343.349 147.206 342.467 147.206C340.955 147.206 340.055 148.124 340.037 149.636V149.672C340.037 151.202 340.955 152.102 342.503 152.102C343.385 152.102 344.249 151.922 344.843 151.58L346.139 154.424C345.077 154.946 343.727 155.252 342.431 155.252ZM357.629 155.018H354.245V148.988C354.245 147.89 353.651 147.476 352.481 147.476C352.085 147.476 351.545 147.53 351.023 147.62V155H347.639V140.402H351.023V144.29C351.653 144.236 352.211 144.2 352.607 144.2C355.235 144.2 357.611 145.082 357.611 148.304C357.611 150.536 357.629 152.786 357.629 155.018Z" fill="#111927"/>
<rect x="182.25" y="177.25" width="332.5" height="0.5" stroke="#111927" stroke-opacity="0.08" stroke-width="0.5"/>
<rect x="206.5" y="210.5" width="284" height="55" rx="7.5" stroke="#D2D6DB"/>
<path d="M231.156 234.39C231.156 234.661 231.119 234.931 231.044 235.202C230.979 235.463 230.867 235.72 230.708 235.972C230.559 236.215 230.358 236.439 230.106 236.644C229.863 236.84 229.756 236.933 229.784 236.924C229.859 236.943 230.059 237.059 230.386 237.274C230.722 237.489 230.993 237.741 231.198 238.03C231.413 238.319 231.567 238.627 231.66 238.954C231.753 239.281 231.8 239.603 231.8 239.92C231.8 240.499 231.688 240.998 231.464 241.418C231.249 241.829 230.955 242.165 230.582 242.426C230.218 242.687 229.793 242.879 229.308 243C228.823 243.121 228.305 243.182 227.754 243.182H223.638V231.464H227.11C227.81 231.464 228.412 231.539 228.916 231.688C229.429 231.837 229.854 232.047 230.19 232.318C230.526 232.579 230.769 232.892 230.918 233.256C231.077 233.611 231.156 233.989 231.156 234.39ZM230.736 239.948C230.736 239.472 230.647 239.085 230.47 238.786C230.302 238.478 230.073 238.235 229.784 238.058C229.495 237.871 229.154 237.745 228.762 237.68C228.37 237.605 227.955 237.568 227.516 237.568H224.674V242.188H227.712C228.748 242.188 229.509 241.983 229.994 241.572C230.489 241.161 230.736 240.62 230.736 239.948ZM230.064 234.446C230.064 234.213 230.008 233.979 229.896 233.746C229.784 233.503 229.616 233.289 229.392 233.102C229.168 232.915 228.874 232.761 228.51 232.64C228.146 232.519 227.717 232.458 227.222 232.458H224.674V236.574H227.222C228.174 236.574 228.883 236.392 229.35 236.028C229.826 235.655 230.064 235.127 230.064 234.446ZM238.024 236.364H236.736C236.446 236.364 236.134 236.392 235.798 236.448C235.462 236.495 235.228 236.541 235.098 236.588V243.182H234.104V235.79C234.496 235.687 234.902 235.599 235.322 235.524C235.742 235.44 236.166 235.398 236.596 235.398H238.024V236.364ZM242.469 243.322C242.021 243.322 241.587 243.28 241.167 243.196C240.756 243.112 240.387 242.977 240.061 242.79C239.743 242.603 239.482 242.351 239.277 242.034C239.081 241.717 238.983 241.329 238.983 240.872C238.983 239.948 239.342 239.285 240.061 238.884C240.779 238.483 241.731 238.282 242.917 238.282C243.141 238.282 243.402 238.296 243.701 238.324C244.009 238.352 244.27 238.38 244.485 238.408V238.324C244.485 237.568 244.307 237.031 243.953 236.714C243.598 236.387 243.052 236.224 242.315 236.224C242.109 236.224 241.895 236.243 241.671 236.28C241.456 236.317 241.237 236.364 241.013 236.42C240.798 236.476 240.593 236.546 240.397 236.63C240.201 236.714 239.925 236.854 239.571 237.05L239.613 235.93C240.107 235.678 240.593 235.501 241.069 235.398C241.545 235.295 241.983 235.244 242.385 235.244C243.421 235.244 244.195 235.482 244.709 235.958C245.222 236.425 245.479 237.171 245.479 238.198V242.748C245.003 242.944 244.513 243.089 244.009 243.182C243.505 243.275 242.991 243.322 242.469 243.322ZM244.485 239.416C244.354 239.388 244.111 239.355 243.757 239.318C243.411 239.281 243.085 239.262 242.777 239.262C242.422 239.262 242.077 239.285 241.741 239.332C241.414 239.379 241.12 239.458 240.859 239.57C240.607 239.682 240.406 239.841 240.257 240.046C240.117 240.242 240.047 240.508 240.047 240.844C240.047 241.143 240.107 241.385 240.229 241.572C240.35 241.759 240.513 241.913 240.719 242.034C240.924 242.146 241.171 242.225 241.461 242.272C241.759 242.319 242.072 242.342 242.399 242.342C242.781 242.342 243.164 242.309 243.547 242.244C243.929 242.179 244.242 242.099 244.485 242.006V239.416ZM248.199 235.608C248.833 235.487 249.412 235.398 249.935 235.342C250.457 235.277 250.947 235.244 251.405 235.244C251.881 235.244 252.319 235.291 252.721 235.384C253.131 235.477 253.481 235.65 253.771 235.902C254.069 236.154 254.293 236.495 254.443 236.924C254.601 237.344 254.681 237.876 254.681 238.52V243.182H253.687V238.94C253.687 238.371 253.631 237.913 253.519 237.568C253.416 237.213 253.267 236.943 253.071 236.756C252.884 236.56 252.646 236.425 252.357 236.35C252.067 236.266 251.731 236.224 251.349 236.224C250.677 236.224 249.958 236.299 249.193 236.448V243.182H248.199V235.608ZM256.811 240.914C256.606 240.419 256.503 239.878 256.503 239.29C256.503 238.702 256.606 238.165 256.811 237.68C257.016 237.185 257.296 236.756 257.651 236.392C258.006 236.028 258.416 235.748 258.883 235.552C259.359 235.347 259.872 235.244 260.423 235.244C260.992 235.244 261.492 235.305 261.921 235.426C262.35 235.538 262.794 235.72 263.251 235.972L262.789 236.882C262.388 236.639 262.01 236.471 261.655 236.378C261.31 236.275 260.899 236.224 260.423 236.224C260.003 236.224 259.616 236.303 259.261 236.462C258.916 236.621 258.617 236.835 258.365 237.106C258.113 237.377 257.917 237.699 257.777 238.072C257.637 238.445 257.567 238.851 257.567 239.29C257.567 239.729 257.637 240.135 257.777 240.508C257.917 240.881 258.113 241.203 258.365 241.474C258.617 241.745 258.916 241.959 259.261 242.118C259.616 242.267 260.003 242.342 260.423 242.342C260.899 242.342 261.31 242.295 261.655 242.202C262.01 242.099 262.388 241.927 262.789 241.684L263.251 242.594C262.794 242.846 262.35 243.028 261.921 243.14C261.492 243.261 260.992 243.322 260.423 243.322C259.872 243.322 259.359 243.219 258.883 243.014C258.416 242.818 258.006 242.543 257.651 242.188C257.296 241.824 257.016 241.399 256.811 240.914ZM266.008 235.44C266.288 235.393 266.634 235.351 267.044 235.314C267.464 235.267 267.856 235.244 268.22 235.244C268.696 235.244 269.135 235.291 269.536 235.384C269.947 235.477 270.297 235.65 270.586 235.902C270.885 236.154 271.109 236.495 271.258 236.924C271.417 237.344 271.496 237.876 271.496 238.52V243.182H270.502V238.94C270.502 238.371 270.446 237.913 270.334 237.568C270.232 237.213 270.082 236.943 269.886 236.756C269.7 236.56 269.462 236.425 269.172 236.35C268.883 236.266 268.547 236.224 268.164 236.224C267.492 236.224 266.774 236.299 266.008 236.448V243.182H265.014V231.464H266.008V235.44ZM279 235.608C279.634 235.487 280.213 235.398 280.736 235.342C281.258 235.277 281.748 235.244 282.206 235.244C282.682 235.244 283.12 235.291 283.522 235.384C283.932 235.477 284.282 235.65 284.572 235.902C284.87 236.154 285.094 236.495 285.244 236.924C285.402 237.344 285.482 237.876 285.482 238.52V243.182H284.488V238.94C284.488 238.371 284.432 237.913 284.32 237.568C284.217 237.213 284.068 236.943 283.872 236.756C283.685 236.56 283.447 236.425 283.158 236.35C282.868 236.266 282.532 236.224 282.15 236.224C281.478 236.224 280.759 236.299 279.994 236.448V243.182H279V235.608ZM291.056 243.322C290.608 243.322 290.174 243.28 289.754 243.196C289.344 243.112 288.975 242.977 288.648 242.79C288.331 242.603 288.07 242.351 287.864 242.034C287.668 241.717 287.57 241.329 287.57 240.872C287.57 239.948 287.93 239.285 288.648 238.884C289.367 238.483 290.319 238.282 291.504 238.282C291.728 238.282 291.99 238.296 292.288 238.324C292.596 238.352 292.858 238.38 293.072 238.408V238.324C293.072 237.568 292.895 237.031 292.54 236.714C292.186 236.387 291.64 236.224 290.902 236.224C290.697 236.224 290.482 236.243 290.258 236.28C290.044 236.317 289.824 236.364 289.6 236.42C289.386 236.476 289.18 236.546 288.984 236.63C288.788 236.714 288.513 236.854 288.158 237.05L288.2 235.93C288.695 235.678 289.18 235.501 289.656 235.398C290.132 235.295 290.571 235.244 290.972 235.244C292.008 235.244 292.783 235.482 293.296 235.958C293.81 236.425 294.066 237.171 294.066 238.198V242.748C293.59 242.944 293.1 243.089 292.596 243.182C292.092 243.275 291.579 243.322 291.056 243.322ZM293.072 239.416C292.942 239.388 292.699 239.355 292.344 239.318C291.999 239.281 291.672 239.262 291.364 239.262C291.01 239.262 290.664 239.285 290.328 239.332C290.002 239.379 289.708 239.458 289.446 239.57C289.194 239.682 288.994 239.841 288.844 240.046C288.704 240.242 288.634 240.508 288.634 240.844C288.634 241.143 288.695 241.385 288.816 241.572C288.938 241.759 289.101 241.913 289.306 242.034C289.512 242.146 289.759 242.225 290.048 242.272C290.347 242.319 290.66 242.342 290.986 242.342C291.369 242.342 291.752 242.309 292.134 242.244C292.517 242.179 292.83 242.099 293.072 242.006V239.416ZM306.726 238.912C306.726 238.343 306.679 237.885 306.586 237.54C306.493 237.185 306.357 236.915 306.18 236.728C306.012 236.541 305.788 236.411 305.508 236.336C305.228 236.261 304.897 236.224 304.514 236.224C304.365 236.224 304.197 236.238 304.01 236.266C303.823 236.285 303.632 236.317 303.436 236.364C303.249 236.411 303.058 236.471 302.862 236.546C302.666 236.611 302.54 236.658 302.484 236.686C302.549 236.835 302.615 237.073 302.68 237.4C302.755 237.717 302.792 238.091 302.792 238.52V243.182H301.798V238.912C301.798 238.343 301.751 237.885 301.658 237.54C301.565 237.195 301.425 236.929 301.238 236.742C301.061 236.546 300.832 236.411 300.552 236.336C300.272 236.261 299.936 236.224 299.544 236.224C299.208 236.224 298.9 236.247 298.62 236.294C298.349 236.341 298.069 236.397 297.78 236.462V243.182H296.786V235.65L298.382 235.356C298.793 235.281 299.203 235.244 299.614 235.244C300.099 235.244 300.533 235.291 300.916 235.384C301.308 235.477 301.616 235.631 301.84 235.846C302.204 235.678 302.643 235.538 303.156 235.426C303.669 235.305 304.141 235.244 304.57 235.244C305.055 235.244 305.489 235.291 305.872 235.384C306.264 235.477 306.595 235.655 306.866 235.916C307.146 236.168 307.356 236.504 307.496 236.924C307.645 237.344 307.72 237.876 307.72 238.52V243.182H306.726V238.912ZM313.482 242.342C314.07 242.342 314.574 242.277 314.994 242.146C315.423 242.015 315.848 241.824 316.268 241.572L316.744 242.482C316.259 242.762 315.769 242.972 315.274 243.112C314.789 243.252 314.191 243.322 313.482 243.322C312.913 243.322 312.39 243.219 311.914 243.014C311.438 242.809 311.023 242.529 310.668 242.174C310.313 241.81 310.033 241.385 309.828 240.9C309.632 240.405 309.534 239.869 309.534 239.29C309.534 238.693 309.637 238.151 309.842 237.666C310.047 237.171 310.327 236.747 310.682 236.392C311.046 236.028 311.466 235.748 311.942 235.552C312.418 235.347 312.931 235.244 313.482 235.244C314.042 235.244 314.551 235.342 315.008 235.538C315.465 235.725 315.857 236 316.184 236.364C316.52 236.719 316.781 237.153 316.968 237.666C317.155 238.17 317.253 238.795 317.262 239.542H310.598C310.607 239.85 310.682 240.191 310.822 240.564C310.962 240.928 311.158 241.241 311.41 241.502C311.671 241.763 311.975 241.969 312.32 242.118C312.675 242.267 313.062 242.342 313.482 242.342ZM313.482 236.224C313.071 236.224 312.698 236.289 312.362 236.42C312.035 236.551 311.755 236.733 311.522 236.966C311.289 237.19 311.097 237.461 310.948 237.778C310.799 238.086 310.705 238.352 310.668 238.576H316.128C316.1 238.315 316.011 238.03 315.862 237.722C315.722 237.405 315.535 237.134 315.302 236.91C315.078 236.686 314.812 236.518 314.504 236.406C314.196 236.285 313.855 236.224 313.482 236.224Z" fill="#6C737F"/>
<path d="M325.939 233.41L327.941 232.752L328.193 233.62L326.233 234.264L327.437 235.916L326.709 236.448L325.491 234.796L324.301 236.448L323.559 235.93L324.749 234.278L322.803 233.592L323.055 232.724L325.029 233.41V231.464H325.939V233.41Z" fill="#EF6C00"/>
<rect x="206.5" y="290.5" width="284" height="55" rx="7.5" stroke="#D2D6DB"/>
<path d="M232.514 323.182H231.394L229.91 319.486H224.758L223.274 323.182H222.154L226.858 311.464H227.81L232.514 323.182ZM225.164 318.464H229.504L227.334 313.088L225.164 318.464ZM234.326 319.318C234.326 320.261 234.601 321.003 235.152 321.544C235.703 322.076 236.557 322.342 237.714 322.342C237.966 322.342 238.232 322.323 238.512 322.286C238.801 322.239 239.063 322.193 239.296 322.146V316.42C239.007 316.345 238.722 316.294 238.442 316.266C238.162 316.238 237.919 316.224 237.714 316.224C237.126 316.224 236.622 316.299 236.202 316.448C235.782 316.588 235.432 316.793 235.152 317.064C234.872 317.335 234.662 317.661 234.522 318.044C234.391 318.417 234.326 318.842 234.326 319.318ZM239.296 311.464H240.29V322.93C239.833 323.061 239.38 323.159 238.932 323.224C238.493 323.289 238.097 323.322 237.742 323.322C236.995 323.322 236.337 323.215 235.768 323C235.208 322.795 234.741 322.515 234.368 322.16C233.995 321.796 233.715 321.371 233.528 320.886C233.351 320.391 233.262 319.869 233.262 319.318C233.262 318.767 233.351 318.245 233.528 317.75C233.715 317.255 233.995 316.821 234.368 316.448C234.741 316.075 235.208 315.781 235.768 315.566C236.337 315.351 236.995 315.244 237.742 315.244C238.171 315.244 238.689 315.295 239.296 315.398V311.464ZM243.308 319.318C243.308 320.261 243.583 321.003 244.134 321.544C244.685 322.076 245.539 322.342 246.696 322.342C246.948 322.342 247.214 322.323 247.494 322.286C247.783 322.239 248.045 322.193 248.278 322.146V316.42C247.989 316.345 247.704 316.294 247.424 316.266C247.144 316.238 246.901 316.224 246.696 316.224C246.108 316.224 245.604 316.299 245.184 316.448C244.764 316.588 244.414 316.793 244.134 317.064C243.854 317.335 243.644 317.661 243.504 318.044C243.373 318.417 243.308 318.842 243.308 319.318ZM248.278 311.464H249.272V322.93C248.815 323.061 248.362 323.159 247.914 323.224C247.475 323.289 247.079 323.322 246.724 323.322C245.977 323.322 245.319 323.215 244.75 323C244.19 322.795 243.723 322.515 243.35 322.16C242.977 321.796 242.697 321.371 242.51 320.886C242.333 320.391 242.244 319.869 242.244 319.318C242.244 318.767 242.333 318.245 242.51 317.75C242.697 317.255 242.977 316.821 243.35 316.448C243.723 316.075 244.19 315.781 244.75 315.566C245.319 315.351 245.977 315.244 246.724 315.244C247.153 315.244 247.671 315.295 248.278 315.398V311.464ZM256.056 316.364H254.768C254.479 316.364 254.166 316.392 253.83 316.448C253.494 316.495 253.261 316.541 253.13 316.588V323.182H252.136V315.79C252.528 315.687 252.934 315.599 253.354 315.524C253.774 315.44 254.199 315.398 254.628 315.398H256.056V316.364ZM260.697 322.342C261.285 322.342 261.789 322.277 262.209 322.146C262.639 322.015 263.063 321.824 263.483 321.572L263.959 322.482C263.474 322.762 262.984 322.972 262.489 323.112C262.004 323.252 261.407 323.322 260.697 323.322C260.128 323.322 259.605 323.219 259.129 323.014C258.653 322.809 258.238 322.529 257.883 322.174C257.529 321.81 257.249 321.385 257.043 320.9C256.847 320.405 256.749 319.869 256.749 319.29C256.749 318.693 256.852 318.151 257.057 317.666C257.263 317.171 257.543 316.747 257.897 316.392C258.261 316.028 258.681 315.748 259.157 315.552C259.633 315.347 260.147 315.244 260.697 315.244C261.257 315.244 261.766 315.342 262.223 315.538C262.681 315.725 263.073 316 263.399 316.364C263.735 316.719 263.997 317.153 264.183 317.666C264.37 318.17 264.468 318.795 264.477 319.542H257.813C257.823 319.85 257.897 320.191 258.037 320.564C258.177 320.928 258.373 321.241 258.625 321.502C258.887 321.763 259.19 321.969 259.535 322.118C259.89 322.267 260.277 322.342 260.697 322.342ZM260.697 316.224C260.287 316.224 259.913 316.289 259.577 316.42C259.251 316.551 258.971 316.733 258.737 316.966C258.504 317.19 258.313 317.461 258.163 317.778C258.014 318.086 257.921 318.352 257.883 318.576H263.343C263.315 318.315 263.227 318.03 263.077 317.722C262.937 317.405 262.751 317.134 262.517 316.91C262.293 316.686 262.027 316.518 261.719 316.406C261.411 316.285 261.071 316.224 260.697 316.224ZM269.076 322.342C269.384 322.342 269.674 322.323 269.944 322.286C270.224 322.239 270.462 322.174 270.658 322.09C270.864 321.997 271.022 321.871 271.134 321.712C271.246 321.553 271.302 321.348 271.302 321.096C271.302 320.741 271.162 320.457 270.882 320.242C270.602 320.027 270.136 319.85 269.482 319.71L268.894 319.584C268.418 319.472 268.012 319.351 267.676 319.22C267.34 319.08 267.065 318.917 266.85 318.73C266.636 318.543 266.482 318.329 266.388 318.086C266.295 317.843 266.248 317.573 266.248 317.274C266.248 316.975 266.323 316.7 266.472 316.448C266.622 316.196 266.822 315.981 267.074 315.804C267.336 315.627 267.639 315.491 267.984 315.398C268.339 315.295 268.722 315.244 269.132 315.244C270.234 315.244 271.242 315.491 272.156 315.986L271.708 316.896C271.251 316.644 270.836 316.471 270.462 316.378C270.089 316.275 269.646 316.224 269.132 316.224C268.535 316.224 268.082 316.322 267.774 316.518C267.466 316.705 267.312 316.961 267.312 317.288C267.312 317.633 267.443 317.895 267.704 318.072C267.966 318.249 268.437 318.408 269.118 318.548L269.636 318.66C270.131 318.772 270.551 318.903 270.896 319.052C271.242 319.192 271.526 319.36 271.75 319.556C271.974 319.752 272.133 319.981 272.226 320.242C272.32 320.503 272.366 320.788 272.366 321.096C272.366 321.46 272.287 321.782 272.128 322.062C271.97 322.342 271.741 322.575 271.442 322.762C271.153 322.949 270.808 323.089 270.406 323.182C270.005 323.275 269.562 323.322 269.076 323.322C268.526 323.322 268.008 323.261 267.522 323.14C267.046 323.019 266.556 322.818 266.052 322.538L266.528 321.586C266.976 321.857 267.415 322.053 267.844 322.174C268.283 322.286 268.694 322.342 269.076 322.342ZM277.224 322.342C277.532 322.342 277.822 322.323 278.092 322.286C278.372 322.239 278.61 322.174 278.806 322.09C279.012 321.997 279.17 321.871 279.282 321.712C279.394 321.553 279.45 321.348 279.45 321.096C279.45 320.741 279.31 320.457 279.03 320.242C278.75 320.027 278.284 319.85 277.63 319.71L277.042 319.584C276.566 319.472 276.16 319.351 275.824 319.22C275.488 319.08 275.213 318.917 274.998 318.73C274.784 318.543 274.63 318.329 274.536 318.086C274.443 317.843 274.396 317.573 274.396 317.274C274.396 316.975 274.471 316.7 274.62 316.448C274.77 316.196 274.97 315.981 275.222 315.804C275.484 315.627 275.787 315.491 276.132 315.398C276.487 315.295 276.87 315.244 277.28 315.244C278.382 315.244 279.39 315.491 280.304 315.986L279.856 316.896C279.399 316.644 278.984 316.471 278.61 316.378C278.237 316.275 277.794 316.224 277.28 316.224C276.683 316.224 276.23 316.322 275.922 316.518C275.614 316.705 275.46 316.961 275.46 317.288C275.46 317.633 275.591 317.895 275.852 318.072C276.114 318.249 276.585 318.408 277.266 318.548L277.784 318.66C278.279 318.772 278.699 318.903 279.044 319.052C279.39 319.192 279.674 319.36 279.898 319.556C280.122 319.752 280.281 319.981 280.374 320.242C280.468 320.503 280.514 320.788 280.514 321.096C280.514 321.46 280.435 321.782 280.276 322.062C280.118 322.342 279.889 322.575 279.59 322.762C279.301 322.949 278.956 323.089 278.554 323.182C278.153 323.275 277.71 323.322 277.224 323.322C276.674 323.322 276.156 323.261 275.67 323.14C275.194 323.019 274.704 322.818 274.2 322.538L274.676 321.586C275.124 321.857 275.563 322.053 275.992 322.174C276.431 322.286 276.842 322.342 277.224 322.342Z" fill="#6C737F"/>
<path d="M289.723 313.41L291.725 312.752L291.977 313.62L290.017 314.264L291.221 315.916L290.493 316.448L289.275 314.796L288.085 316.448L287.343 315.93L288.533 314.278L286.587 313.592L286.839 312.724L288.813 313.41V311.464H289.723V313.41Z" fill="#EF6C00"/>
<g clip-path="url(#clip1_2802_42468)">
<path d="M235.035 438.195C231.33 438.195 228.72 435.645 228.705 431.925V431.91C228.705 428.19 231.315 425.64 235.035 425.64H235.05C236.595 425.64 237.9 426.075 239.01 426.81L238.26 428.445C237.21 427.785 236.205 427.5 235.14 427.5H235.125C232.83 427.5 230.79 428.955 230.79 431.91V431.925C230.805 434.865 232.815 436.32 235.125 436.32H235.14C236.19 436.32 237.21 436.05 238.26 435.39L239.01 437.025C237.93 437.73 236.67 438.195 235.05 438.195H235.035ZM243.808 429.24C246.043 429.24 247.603 430.215 247.603 432.54V437.61C246.673 437.865 245.188 438.15 243.853 438.15C241.258 438.15 239.833 437.145 239.833 435.27V435.255C239.833 433.44 241.183 432.45 243.658 432.45C244.258 432.45 244.963 432.51 245.698 432.6V432.555C245.698 431.535 244.918 430.935 243.373 430.935C242.578 430.935 241.408 431.1 240.478 431.49L240.928 429.72C241.588 429.435 242.728 429.24 243.808 429.24ZM241.783 435.225C241.783 436.035 242.443 436.425 243.868 436.425C244.378 436.425 245.233 436.35 245.698 436.23V434.22C245.368 434.16 244.483 434.055 243.868 434.055C242.443 434.055 241.783 434.43 241.783 435.225ZM249.988 438V429.705C251.383 429.465 252.973 429.285 253.828 429.285C255.898 429.285 257.623 430.02 257.623 432.51C257.623 434.34 257.638 436.17 257.638 438H255.703V432.885C255.703 431.61 254.983 431.16 253.738 431.16C253.243 431.16 252.568 431.22 251.908 431.34V438H249.988ZM263.994 438.18C261.219 438.18 259.479 436.455 259.464 433.695V433.68C259.494 431.01 261.309 429.225 264.009 429.225C265.059 429.225 266.079 429.435 266.904 429.84L266.154 431.475C265.494 431.16 264.819 431.01 264.024 431.01C262.434 431.01 261.429 432.045 261.414 433.68V433.71C261.429 435.345 262.434 436.38 264.039 436.38C264.849 436.38 265.599 436.23 266.169 435.915L266.919 437.55C266.079 437.955 265.059 438.18 263.994 438.18ZM276.112 433.485V434.4H269.602C269.857 435.72 270.787 436.485 272.242 436.485C273.262 436.485 274.222 436.23 274.867 435.855L275.677 437.355C274.792 437.82 273.607 438.18 272.107 438.18C269.407 438.18 267.622 436.38 267.622 433.71V433.695C267.622 431.01 269.377 429.21 272.002 429.21C274.477 429.21 276.112 430.92 276.112 433.485ZM271.957 430.905C270.652 430.905 269.857 431.595 269.617 432.765H274.237C274.117 431.61 273.262 430.905 271.957 430.905ZM277.864 438V425.835H279.799V438H277.864Z" fill="#005394"/>
</g>
<rect x="206.5" y="413.5" width="97" height="41" rx="11.5" stroke="#3375A9" stroke-opacity="0.5"/>
<g filter="url(#filter1_d_2802_42468)">
<rect x="320" y="413" width="171" height="42" rx="12" fill="#005394"/>
<path d="M370.705 438L369.505 434.715H364.48L363.295 438H361.315L365.815 425.835H368.14L372.685 438H370.705ZM366.94 427.86L365.065 432.99H368.905L367.015 427.86L366.97 427.725L366.94 427.86ZM379.542 425.835H381.477V437.7C380.442 438.03 379.122 438.285 378.012 438.285C375.072 438.285 373.302 436.575 373.302 433.8V433.785C373.302 430.965 375.162 429.33 378.012 429.33C378.492 429.33 379.002 429.375 379.542 429.45V425.835ZM377.967 436.545C378.417 436.545 379.017 436.515 379.542 436.41V431.28C378.942 431.145 378.432 431.085 377.952 431.085C376.152 431.085 375.162 432.195 375.162 433.785V433.815C375.162 435.495 376.242 436.545 377.967 436.545ZM389.503 425.835H391.438V437.7C390.403 438.03 389.083 438.285 387.973 438.285C385.033 438.285 383.263 436.575 383.263 433.8V433.785C383.263 430.965 385.123 429.33 387.973 429.33C388.453 429.33 388.963 429.375 389.503 429.45V425.835ZM387.928 436.545C388.378 436.545 388.978 436.515 389.503 436.41V431.28C388.903 431.145 388.393 431.085 387.913 431.085C386.113 431.085 385.123 432.195 385.123 433.785V433.815C385.123 435.495 386.203 436.545 387.928 436.545ZM400.046 429.33C402.896 429.33 404.756 430.965 404.756 433.785V433.8C404.756 436.575 402.986 438.285 400.046 438.285C398.936 438.285 397.616 438.03 396.581 437.7V425.835H398.516V429.45C399.056 429.375 399.566 429.33 400.046 429.33ZM402.896 433.815V433.785C402.896 432.195 401.906 431.085 400.106 431.085C399.626 431.085 399.116 431.145 398.516 431.28V436.41C399.041 436.515 399.641 436.545 400.091 436.545C401.816 436.545 402.896 435.495 402.896 433.815ZM406.334 438V429.93C407.534 429.6 408.794 429.525 409.664 429.525H411.209V431.31H409.904C409.484 431.31 408.554 431.34 408.254 431.49V438H406.334ZM416.007 429.24C418.242 429.24 419.802 430.215 419.802 432.54V437.61C418.872 437.865 417.387 438.15 416.052 438.15C413.457 438.15 412.032 437.145 412.032 435.27V435.255C412.032 433.44 413.382 432.45 415.857 432.45C416.457 432.45 417.162 432.51 417.897 432.6V432.555C417.897 431.535 417.117 430.935 415.572 430.935C414.777 430.935 413.607 431.1 412.677 431.49L413.127 429.72C413.787 429.435 414.927 429.24 416.007 429.24ZM413.982 435.225C413.982 436.035 414.642 436.425 416.067 436.425C416.577 436.425 417.432 436.35 417.897 436.23V434.22C417.567 434.16 416.682 434.055 416.067 434.055C414.642 434.055 413.982 434.43 413.982 435.225ZM422.187 438V429.705C423.582 429.465 425.172 429.285 426.027 429.285C428.097 429.285 429.822 430.02 429.822 432.51C429.822 434.34 429.837 436.17 429.837 438H427.902V432.885C427.902 431.61 427.182 431.16 425.937 431.16C425.442 431.16 424.767 431.22 424.107 431.34V438H422.187ZM436.193 438.18C433.418 438.18 431.678 436.455 431.663 433.695V433.68C431.693 431.01 433.508 429.225 436.208 429.225C437.258 429.225 438.278 429.435 439.103 429.84L438.353 431.475C437.693 431.16 437.018 431.01 436.223 431.01C434.633 431.01 433.628 432.045 433.613 433.68V433.71C433.628 435.345 434.633 436.38 436.238 436.38C437.048 436.38 437.798 436.23 438.368 435.915L439.118 437.55C438.278 437.955 437.258 438.18 436.193 438.18ZM448.353 438.015H446.418V432.9C446.418 431.625 445.698 431.175 444.453 431.175C443.958 431.175 443.283 431.235 442.623 431.355V438H440.688V425.835H442.623V429.45C443.388 429.36 444.063 429.3 444.543 429.3C446.613 429.3 448.338 430.035 448.338 432.525C448.338 434.355 448.353 436.185 448.353 438.015Z" fill="white"/>
</g>
</g>
<path d="M182 107H515H182ZM515 487H182H515ZM194 487C186.82 487 181 481.18 181 474V120C181 112.82 186.82 107 194 107C187.925 107 183 112.373 183 119V475C183 481.627 187.925 487 194 487ZM515 107V487V107Z" fill="#111927" fill-opacity="0.08" mask="url(#path-3-inside-1_2802_42468)"/>
</g>
<g filter="url(#filter2_b_2802_42468)">
<g clip-path="url(#clip2_2802_42468)">
<path d="M47.9384 49.966C49.3804 50.246 50.1084 51.24 50.1084 52.71V52.724C50.1084 55.244 48.2324 56 45.9224 56H42.0304V44.646H45.8384C48.3164 44.646 49.6464 45.598 49.6464 47.446V47.46C49.6464 48.65 49.0024 49.672 47.9384 49.966ZM45.7264 46.34H43.8224V49.434H45.7404C47.3084 49.434 47.8684 48.832 47.8684 47.852V47.838C47.8684 46.704 47.0144 46.34 45.7264 46.34ZM48.2884 52.556V52.542C48.2884 51.31 47.4064 50.862 46.0904 50.862H43.8224V54.292H46.0484C47.7004 54.292 48.2884 53.564 48.2884 52.556ZM55.0156 47.824C57.1016 47.824 58.5576 48.734 58.5576 50.904V55.636C57.6896 55.874 56.3036 56.14 55.0576 56.14C52.6356 56.14 51.3056 55.202 51.3056 53.452V53.438C51.3056 51.744 52.5656 50.82 54.8756 50.82C55.4356 50.82 56.0936 50.876 56.7796 50.96V50.918C56.7796 49.966 56.0516 49.406 54.6096 49.406C53.8676 49.406 52.7756 49.56 51.9076 49.924L52.3276 48.272C52.9436 48.006 54.0076 47.824 55.0156 47.824ZM53.1256 53.41C53.1256 54.166 53.7416 54.53 55.0716 54.53C55.5476 54.53 56.3456 54.46 56.7796 54.348V52.472C56.4716 52.416 55.6456 52.318 55.0716 52.318C53.7416 52.318 53.1256 52.668 53.1256 53.41ZM68.9411 48.076H70.8311L69.0531 56H66.6731L65.1891 49.868L63.6911 56H61.3531L59.5191 48.076H61.4231L62.6691 53.956L64.0831 48.076H66.2951L67.7231 53.914L68.9411 48.076ZM74.8687 56.182C73.6787 56.182 72.6007 55.972 71.5367 55.496L72.0127 54.082C72.9367 54.474 73.8887 54.656 74.7007 54.656C75.8067 54.656 76.5487 54.488 76.5487 53.816C76.5487 53.214 76.2827 53.088 74.9527 52.738C74.7147 52.682 74.4767 52.612 74.2387 52.556C72.5167 52.122 71.7467 51.352 71.7467 50.064C71.7467 48.664 72.9227 47.81 74.8967 47.81C76.0867 47.81 77.2347 48.048 78.0327 48.482L77.5287 49.896C76.7867 49.546 75.9187 49.336 75.1067 49.336C74.1687 49.336 73.6087 49.518 73.6087 50.064C73.6087 50.638 74.0707 50.764 75.1487 51.044L75.7227 51.198C77.5567 51.674 78.3127 52.458 78.3127 53.718C78.3127 55.342 77.1647 56.182 74.8687 56.182ZM87.0776 56.014H85.2716V51.24C85.2716 50.05 84.5996 49.63 83.4376 49.63C82.9756 49.63 82.3456 49.686 81.7296 49.798V56H79.9236V44.646H81.7296V48.02C82.4436 47.936 83.0736 47.88 83.5216 47.88C85.4536 47.88 87.0636 48.566 87.0636 50.89C87.0636 52.598 87.0776 54.306 87.0776 56.014ZM92.4218 47.824C94.5078 47.824 95.9638 48.734 95.9638 50.904V55.636C95.0958 55.874 93.7098 56.14 92.4638 56.14C90.0418 56.14 88.7118 55.202 88.7118 53.452V53.438C88.7118 51.744 89.9718 50.82 92.2818 50.82C92.8418 50.82 93.4998 50.876 94.1858 50.96V50.918C94.1858 49.966 93.4578 49.406 92.0158 49.406C91.2738 49.406 90.1818 49.56 89.3138 49.924L89.7338 48.272C90.3498 48.006 91.4138 47.824 92.4218 47.824ZM90.5318 53.41C90.5318 54.166 91.1478 54.53 92.4778 54.53C92.9538 54.53 93.7518 54.46 94.1858 54.348V52.472C93.8778 52.416 93.0518 52.318 92.4778 52.318C91.1478 52.318 90.5318 52.668 90.5318 53.41ZM98.0632 56V48.468C99.1832 48.16 100.359 48.09 101.171 48.09H102.613V49.756H101.395C101.003 49.756 100.135 49.784 99.8552 49.924V56H98.0632Z" fill="#005394"/>
<path d="M125.455 48.9126L121.63 52.7293L117.805 48.9126L116.63 50.0876L121.63 55.0876L126.63 50.0876L125.455 48.9126Z" fill="#005394"/>
</g>
<rect x="25.1304" y="34.5" width="118" height="35" rx="11.5" stroke="#3375A9" stroke-opacity="0.5"/>
<rect x="159.88" y="32.25" width="0.5" height="39.5" stroke="#111927" stroke-opacity="0.08" stroke-width="0.5"/>
<path d="M178.03 56V44.646H185.156V46.326H179.822V49.322H184.652V51.002H179.822V54.32H185.198V56H178.03ZM187.404 56V48.258C188.706 48.034 190.19 47.866 190.988 47.866C192.92 47.866 194.53 48.552 194.53 50.876C194.53 52.584 194.544 54.292 194.544 56H192.738V51.226C192.738 50.036 192.066 49.616 190.904 49.616C190.442 49.616 189.812 49.672 189.196 49.784V56H187.404Z" fill="#111927"/>
<mask id="mask0_2802_42468" style="mask-type:alpha" maskUnits="userSpaceOnUse" x="200" y="42" width="21" height="20">
<rect x="200.63" y="42" width="20" height="20" fill="#D9D9D9"/>
</mask>
<g mask="url(#mask0_2802_42468)">
<path d="M210.63 54.5679C210.506 54.5679 210.387 54.5464 210.273 54.5033C210.159 54.4603 210.056 54.3921 209.962 54.2989L206.134 50.4705C205.958 50.2945 205.87 50.0735 205.87 49.8075C205.87 49.5415 205.958 49.3204 206.134 49.1444C206.31 48.9684 206.531 48.8804 206.797 48.8804C207.063 48.8804 207.284 48.9684 207.46 49.1444L210.63 52.3147L213.801 49.1444C213.977 48.9684 214.198 48.8804 214.464 48.8804C214.73 48.8804 214.951 48.9684 215.127 49.1444C215.303 49.3204 215.391 49.5415 215.391 49.8075C215.391 50.0735 215.303 50.2945 215.127 50.4705L211.298 54.2989C211.205 54.3921 211.101 54.4603 210.988 54.5033C210.874 54.5464 210.755 54.5679 210.63 54.5679Z" fill="#111927"/>
</g>
<g clip-path="url(#clip3_2802_42468)">
<path d="M253.375 60.1C254.01 60.6601 254.843 61 255.756 61C256.669 61 257.503 60.6601 258.138 60.1M261.156 48.4C261.156 46.9678 260.588 45.5943 259.575 44.5816C258.562 43.5689 257.189 43 255.756 43C254.324 43 252.951 43.5689 251.938 44.5816C250.925 45.5943 250.356 46.9678 250.356 48.4C250.356 51.1812 249.655 53.0854 248.871 54.3449C248.21 55.4073 247.88 55.9385 247.892 56.0867C247.905 56.2508 247.94 56.3133 248.072 56.4114C248.191 56.5 248.73 56.5 249.806 56.5H261.707C262.783 56.5 263.321 56.5 263.441 56.4114C263.573 56.3133 263.608 56.2508 263.621 56.0867C263.633 55.9385 263.303 55.4073 262.642 54.3449C261.858 53.0854 261.156 51.1812 261.156 48.4Z" stroke="#6C737F" stroke-width="2" stroke-linecap="round" stroke-linejoin="round"/>
</g>
<g clip-path="url(#clip4_2802_42468)">
<path d="M304.63 55C301.46 55 298.641 56.5306 296.846 58.906C296.46 59.4172 296.267 59.6728 296.273 60.0183C296.278 60.2852 296.446 60.6219 296.656 60.7867C296.928 61 297.304 61 298.058 61H311.203C311.957 61 312.333 61 312.605 60.7867C312.815 60.6219 312.983 60.2852 312.988 60.0183C312.994 59.6728 312.801 59.4172 312.414 58.906C310.62 56.5306 307.801 55 304.63 55Z" stroke="#6C737F" stroke-width="2" stroke-linecap="round" stroke-linejoin="round"/>
<path d="M304.63 52C307.116 52 309.13 49.9853 309.13 47.5C309.13 45.0147 307.116 43 304.63 43C302.145 43 300.13 45.0147 300.13 47.5C300.13 49.9853 302.145 52 304.63 52Z" stroke="#6C737F" stroke-width="2" stroke-linecap="round" stroke-linejoin="round"/>
</g>
<rect x="0.880371" y="88.25" width="347.5" height="0.5" stroke="#111927" stroke-opacity="0.08" stroke-width="0.5"/>
</g>
<g filter="url(#filter3_d_2802_42468)">
<rect x="24.6304" y="77" width="125" height="124" rx="12" fill="white"/>
<rect x="25.1304" y="77.5" width="124" height="123" rx="11.5" stroke="#E5E7EB"/>
<g clip-path="url(#clip5_2802_42468)">
<path d="M53.6884 103L52.5684 99.934H47.8784L46.7724 103H44.9244L49.1244 91.646H51.2944L55.5364 103H53.6884ZM50.1744 93.536L48.4244 98.324H52.0084L50.2444 93.536L50.2024 93.41L50.1744 93.536ZM57.0036 103V91.646H58.8096V103H57.0036ZM67.5275 97.288L72.6515 103H70.4535L65.6095 97.54V103H63.8175V91.646H65.6095V97.162L70.2575 91.646H72.3575L67.5275 97.288ZM81.3569 103.014H79.5509V98.24C79.5509 97.05 78.8789 96.63 77.7169 96.63C77.2549 96.63 76.6249 96.686 76.0089 96.798V103H74.2029V91.646H76.0089V95.02C76.7229 94.936 77.3529 94.88 77.8009 94.88C79.7329 94.88 81.3429 95.566 81.3429 97.89C81.3429 99.598 81.3569 101.306 81.3569 103.014ZM87.2611 103.182C84.8251 103.182 82.9771 101.432 82.9631 99.024V99.01C82.9631 96.588 84.8251 94.796 87.2611 94.796H87.2751C89.7531 94.81 91.6011 96.588 91.6011 99.01V99.024C91.6011 101.432 89.7531 103.168 87.2751 103.182H87.2611ZM87.2751 101.516H87.2891C88.7871 101.516 89.7951 100.41 89.7951 99.024V99.01C89.7951 97.596 88.7871 96.49 87.2891 96.476H87.2751C85.7911 96.476 84.7831 97.596 84.7831 99.01V99.024C84.7831 100.41 85.7911 101.516 87.2751 101.516ZM100.36 95.09V102.776C99.0444 103.014 97.5744 103.182 96.7624 103.182C94.5504 103.182 93.2204 102.3 93.2204 100.158V95.09H95.0124C95.0124 96.686 95.0264 98.212 95.0264 99.808C95.0264 101.068 95.6844 101.418 96.8464 101.418C97.3224 101.418 97.9384 101.362 98.5544 101.25V95.09H100.36ZM107.833 91.646H109.639V102.72C108.673 103.028 107.441 103.266 106.405 103.266C103.661 103.266 102.009 101.67 102.009 99.08V99.066C102.009 96.434 103.745 94.908 106.405 94.908C106.853 94.908 107.329 94.95 107.833 95.02V91.646ZM106.363 101.642C106.783 101.642 107.343 101.614 107.833 101.516V96.728C107.273 96.602 106.797 96.546 106.349 96.546C104.669 96.546 103.745 97.582 103.745 99.066V99.094C103.745 100.662 104.753 101.642 106.363 101.642ZM119.146 103.014H117.34V98.24C117.34 97.05 116.668 96.63 115.506 96.63C115.044 96.63 114.414 96.686 113.798 96.798V103H111.992V91.646H113.798V95.02C114.512 94.936 115.142 94.88 115.59 94.88C117.522 94.88 119.132 95.566 119.132 97.89C119.132 99.598 119.146 101.306 119.146 103.014Z" fill="#6C737F"/>
</g>
<g clip-path="url(#clip6_2802_42468)">
<path d="M51.9384 136.966C53.3804 137.246 54.1084 138.24 54.1084 139.71V139.724C54.1084 142.244 52.2324 143 49.9224 143H46.0304V131.646H49.8384C52.3164 131.646 53.6464 132.598 53.6464 134.446V134.46C53.6464 135.65 53.0024 136.672 51.9384 136.966ZM49.7264 133.34H47.8224V136.434H49.7404C51.3084 136.434 51.8684 135.832 51.8684 134.852V134.838C51.8684 133.704 51.0144 133.34 49.7264 133.34ZM52.2884 139.556V139.542C52.2884 138.31 51.4064 137.862 50.0904 137.862H47.8224V141.292H50.0484C51.7004 141.292 52.2884 140.564 52.2884 139.556ZM59.0156 134.824C61.1016 134.824 62.5576 135.734 62.5576 137.904V142.636C61.6896 142.874 60.3036 143.14 59.0576 143.14C56.6356 143.14 55.3056 142.202 55.3056 140.452V140.438C55.3056 138.744 56.5656 137.82 58.8756 137.82C59.4356 137.82 60.0936 137.876 60.7796 137.96V137.918C60.7796 136.966 60.0516 136.406 58.6096 136.406C57.8676 136.406 56.7756 136.56 55.9076 136.924L56.3276 135.272C56.9436 135.006 58.0076 134.824 59.0156 134.824ZM57.1256 140.41C57.1256 141.166 57.7416 141.53 59.0716 141.53C59.5476 141.53 60.3456 141.46 60.7796 141.348V139.472C60.4716 139.416 59.6456 139.318 59.0716 139.318C57.7416 139.318 57.1256 139.668 57.1256 140.41ZM72.9411 135.076H74.8311L73.0531 143H70.6731L69.1891 136.868L67.6911 143H65.3531L63.5191 135.076H65.4231L66.6691 140.956L68.0831 135.076H70.2951L71.7231 140.914L72.9411 135.076ZM78.8687 143.182C77.6787 143.182 76.6007 142.972 75.5367 142.496L76.0127 141.082C76.9367 141.474 77.8887 141.656 78.7007 141.656C79.8067 141.656 80.5487 141.488 80.5487 140.816C80.5487 140.214 80.2827 140.088 78.9527 139.738C78.7147 139.682 78.4767 139.612 78.2387 139.556C76.5167 139.122 75.7467 138.352 75.7467 137.064C75.7467 135.664 76.9227 134.81 78.8967 134.81C80.0867 134.81 81.2347 135.048 82.0327 135.482L81.5287 136.896C80.7867 136.546 79.9187 136.336 79.1067 136.336C78.1687 136.336 77.6087 136.518 77.6087 137.064C77.6087 137.638 78.0707 137.764 79.1487 138.044L79.7227 138.198C81.5567 138.674 82.3127 139.458 82.3127 140.718C82.3127 142.342 81.1647 143.182 78.8687 143.182ZM91.0776 143.014H89.2716V138.24C89.2716 137.05 88.5996 136.63 87.4376 136.63C86.9756 136.63 86.3456 136.686 85.7296 136.798V143H83.9236V131.646H85.7296V135.02C86.4436 134.936 87.0736 134.88 87.5216 134.88C89.4536 134.88 91.0636 135.566 91.0636 137.89C91.0636 139.598 91.0776 141.306 91.0776 143.014ZM96.4218 134.824C98.5078 134.824 99.9638 135.734 99.9638 137.904V142.636C99.0958 142.874 97.7098 143.14 96.4638 143.14C94.0418 143.14 92.7118 142.202 92.7118 140.452V140.438C92.7118 138.744 93.9718 137.82 96.2818 137.82C96.8418 137.82 97.4998 137.876 98.1858 137.96V137.918C98.1858 136.966 97.4578 136.406 96.0158 136.406C95.2738 136.406 94.1818 136.56 93.3138 136.924L93.7338 135.272C94.3498 135.006 95.4138 134.824 96.4218 134.824ZM94.5318 140.41C94.5318 141.166 95.1478 141.53 96.4778 141.53C96.9538 141.53 97.7518 141.46 98.1858 141.348V139.472C97.8778 139.416 97.0518 139.318 96.4778 139.318C95.1478 139.318 94.5318 139.668 94.5318 140.41ZM102.063 143V135.468C103.183 135.16 104.359 135.09 105.171 135.09H106.613V136.756H105.395C105.003 136.756 104.135 136.784 103.855 136.924V143H102.063Z" fill="#6C737F"/>
</g>
<g clip-path="url(#clip7_2802_42468)">
<path d="M49.5304 183.168C48.0184 183.168 46.5484 182.79 45.5404 182.118L46.2404 180.62C47.0944 181.208 48.2704 181.558 49.4604 181.558C51.0844 181.558 51.9944 180.9 51.9944 179.892V179.864C51.9944 179.01 51.3784 178.576 49.7404 178.086L48.7604 177.792C46.7444 177.204 45.8624 176.224 45.8624 174.53V174.502C45.8624 172.682 47.3324 171.464 49.7824 171.464C51.1824 171.464 52.5824 171.814 53.5484 172.444L52.8624 173.942C52.0224 173.382 50.9024 173.06 49.7964 173.06C48.3404 173.06 47.6544 173.648 47.6544 174.46V174.488C47.6544 175.468 48.2424 175.818 49.4184 176.196C49.7264 176.294 50.1324 176.406 50.4404 176.49C52.8344 177.162 53.8004 178.17 53.8004 179.836V179.864C53.8004 181.936 52.1624 183.168 49.5304 183.168ZM58.9062 174.824C60.9922 174.824 62.4482 175.734 62.4482 177.904V182.636C61.5802 182.874 60.1942 183.14 58.9482 183.14C56.5262 183.14 55.1962 182.202 55.1962 180.452V180.438C55.1962 178.744 56.4562 177.82 58.7662 177.82C59.3262 177.82 59.9842 177.876 60.6702 177.96V177.918C60.6702 176.966 59.9422 176.406 58.5002 176.406C57.7582 176.406 56.6662 176.56 55.7982 176.924L56.2182 175.272C56.8342 175.006 57.8982 174.824 58.9062 174.824ZM57.0162 180.41C57.0162 181.166 57.6322 181.53 58.9622 181.53C59.4382 181.53 60.2362 181.46 60.6702 181.348V179.472C60.3622 179.416 59.5362 179.318 58.9622 179.318C57.6322 179.318 57.0162 179.668 57.0162 180.41ZM64.6736 183V171.646H66.4796V183H64.6736ZM71.8261 174.824C73.9121 174.824 75.3681 175.734 75.3681 177.904V182.636C74.5001 182.874 73.1141 183.14 71.8681 183.14C69.4461 183.14 68.1161 182.202 68.1161 180.452V180.438C68.1161 178.744 69.3761 177.82 71.6861 177.82C72.2461 177.82 72.9041 177.876 73.5901 177.96V177.918C73.5901 176.966 72.8621 176.406 71.4201 176.406C70.6781 176.406 69.5861 176.56 68.7181 176.924L69.1381 175.272C69.7541 175.006 70.8181 174.824 71.8261 174.824ZM69.9361 180.41C69.9361 181.166 70.5521 181.53 71.8821 181.53C72.3581 181.53 73.1561 181.46 73.5901 181.348V179.472C73.2821 179.416 72.4561 179.318 71.8821 179.318C70.5521 179.318 69.9361 179.668 69.9361 180.41ZM77.5935 183V171.646H79.3995V183H77.5935ZM84.7461 174.824C86.8321 174.824 88.2881 175.734 88.2881 177.904V182.636C87.4201 182.874 86.0341 183.14 84.7881 183.14C82.3661 183.14 81.0361 182.202 81.0361 180.452V180.438C81.0361 178.744 82.2961 177.82 84.6061 177.82C85.1661 177.82 85.8241 177.876 86.5101 177.96V177.918C86.5101 176.966 85.7821 176.406 84.3401 176.406C83.5981 176.406 82.5061 176.56 81.6381 176.924L82.0581 175.272C82.6741 175.006 83.7381 174.824 84.7461 174.824ZM82.8561 180.41C82.8561 181.166 83.4721 181.53 84.8021 181.53C85.2781 181.53 86.0761 181.46 86.5101 181.348V179.472C86.2021 179.416 85.3761 179.318 84.8021 179.318C83.4721 179.318 82.8561 179.668 82.8561 180.41ZM97.6674 183.014H95.8614V178.24C95.8614 177.05 95.1894 176.63 94.0274 176.63C93.5654 176.63 92.9354 176.686 92.3194 176.798V183H90.5134V171.646H92.3194V175.02C93.0334 174.936 93.6634 174.88 94.1114 174.88C96.0434 174.88 97.6534 175.566 97.6534 177.89C97.6534 179.598 97.6674 181.306 97.6674 183.014Z" fill="#6C737F"/>
</g>
</g>
<defs>
<filter id="filter0_d_2802_42468" x="164" y="90" width="369" height="416" filterUnits="userSpaceOnUse" color-interpolation-filters="sRGB">
<feFlood flood-opacity="0" result="BackgroundImageFix"/>
<feColorMatrix in="SourceAlpha" type="matrix" values="0 0 0 0 0 0 0 0 0 0 0 0 0 0 0 0 0 0 127 0" result="hardAlpha"/>
<feOffset dy="1"/>
<feGaussianBlur stdDeviation="9"/>
<feColorMatrix type="matrix" values="0 0 0 0 0 0 0 0 0 0 0 0 0 0 0 0 0 0 0.08 0"/>
<feBlend mode="normal" in2="BackgroundImageFix" result="effect1_dropShadow_2802_42468"/>
<feBlend mode="normal" in="SourceGraphic" in2="effect1_dropShadow_2802_42468" result="shape"/>
</filter>
<filter id="filter1_d_2802_42468" x="318" y="412" width="175" height="46" filterUnits="userSpaceOnUse" color-interpolation-filters="sRGB">
<feFlood flood-opacity="0" result="BackgroundImageFix"/>
<feColorMatrix in="SourceAlpha" type="matrix" values="0 0 0 0 0 0 0 0 0 0 0 0 0 0 0 0 0 0 127 0" result="hardAlpha"/>
<feOffset dy="1"/>
<feGaussianBlur stdDeviation="1"/>
<feColorMatrix type="matrix" values="0 0 0 0 0 0 0 0 0 0 0 0 0 0 0 0 0 0 0.08 0"/>
<feBlend mode="normal" in2="BackgroundImageFix" result="effect1_dropShadow_2802_42468"/>
<feBlend mode="normal" in="SourceGraphic" in2="effect1_dropShadow_2802_42468" result="shape"/>
</filter>
<filter id="filter2_b_2802_42468" x="-7.36963" y="-8" width="364" height="105" filterUnits="userSpaceOnUse" color-interpolation-filters="sRGB">
<feFlood flood-opacity="0" result="BackgroundImageFix"/>
<feGaussianBlur in="BackgroundImageFix" stdDeviation="4"/>
<feComposite in2="SourceAlpha" operator="in" result="effect1_backgroundBlur_2802_42468"/>
<feBlend mode="normal" in="SourceGraphic" in2="effect1_backgroundBlur_2802_42468" result="shape"/>
</filter>
<filter id="filter3_d_2802_42468" x="2.63037" y="60" width="169" height="168" filterUnits="userSpaceOnUse" color-interpolation-filters="sRGB">
<feFlood flood-opacity="0" result="BackgroundImageFix"/>
<feColorMatrix in="SourceAlpha" type="matrix" values="0 0 0 0 0 0 0 0 0 0 0 0 0 0 0 0 0 0 127 0" result="hardAlpha"/>
<feOffset dy="5"/>
<feGaussianBlur stdDeviation="11"/>
<feColorMatrix type="matrix" values="0 0 0 0 0 0 0 0 0 0 0 0 0 0 0 0 0 0 0.08 0"/>
<feBlend mode="normal" in2="BackgroundImageFix" result="effect1_dropShadow_2802_42468"/>
<feBlend mode="normal" in="SourceGraphic" in2="effect1_dropShadow_2802_42468" result="shape"/>
</filter>
<clipPath id="clip0_2802_42468">
<path d="M182 119C182 112.373 187.373 107 194 107H503C509.627 107 515 112.373 515 119V475C515 481.627 509.627 487 503 487H194C187.373 487 182 481.627 182 475V119Z" fill="white"/>
</clipPath>
<clipPath id="clip1_2802_42468">
<rect x="206" y="413" width="98" height="42" rx="12" fill="white"/>
</clipPath>
<clipPath id="clip2_2802_42468">
<rect x="24.6304" y="34" width="119" height="36" rx="12" fill="white"/>
</clipPath>
<clipPath id="clip3_2802_42468">
<rect width="40" height="40" fill="white" transform="translate(236.63 32)"/>
</clipPath>
<clipPath id="clip4_2802_42468">
<rect width="40" height="40" fill="white" transform="translate(284.63 32)"/>
</clipPath>
<clipPath id="clip5_2802_42468">
<rect x="28.6304" y="81" width="117" height="36" rx="12" fill="white"/>
</clipPath>
<clipPath id="clip6_2802_42468">
<rect x="28.6304" y="121" width="117" height="36" rx="12" fill="white"/>
</clipPath>
<clipPath id="clip7_2802_42468">
<rect x="28.6304" y="161" width="117" height="36" rx="12" fill="white"/>
</clipPath>
</defs>
</svg>
