<svg width="550" height="487" viewBox="0 0 550 487" fill="none" xmlns="http://www.w3.org/2000/svg">
<circle opacity="0.1" cx="80.6498" cy="80.6498" r="80.6498" transform="matrix(1 0 0 -1 97.9805 226.649)" fill="#FF9800"/>
<circle opacity="0.1" cx="351.527" cy="291.99" r="33.6974" fill="#3375A9"/>
<g filter="url(#filter0_d_2802_45445)">
<rect x="176.603" y="39.0391" width="322.796" height="95.2209" rx="14.0736" fill="white"/>
<g clip-path="url(#clip0_2802_45445)">
<rect x="191.379" y="59.2061" width="54.8872" height="54.8872" rx="27.4436" fill="#E5E7EB"/>
<rect x="191.379" y="59.2061" width="54.8872" height="54.8872" rx="27.4436" stroke="white" stroke-width="6.09857"/>
<mask id="mask0_2802_45445" style="mask-type:alpha" maskUnits="userSpaceOnUse" x="209" y="77" width="19" height="19">
<rect x="209.675" y="77.502" width="18.2957" height="18.2957" fill="#D9D9D9"/>
</mask>
<g mask="url(#mask0_2802_45445)">
<path d="M226.595 90.4877L226.567 90.5106L225.044 91.7512L225.675 93.6708C225.675 93.6708 225.675 93.6709 225.675 93.6709C225.774 93.9681 225.673 94.2953 225.425 94.4863C225.176 94.6771 224.835 94.6905 224.573 94.5201L224.573 94.5201L222.795 93.3625L221.047 94.532L226.595 90.4877ZM226.595 90.4877V90.4851M226.595 90.4877V90.4851M226.595 90.4851C226.811 90.2839 226.888 89.9715 226.786 89.6923C226.68 89.4019 226.403 89.208 226.094 89.208H224.164L223.48 87.289L223.48 87.2881C223.373 86.9997 223.096 86.8081 222.789 86.8081C222.481 86.8081 222.206 86.9998 222.098 87.288L222.098 87.289L221.414 89.208H219.484C219.175 89.208 218.899 89.4005 218.792 89.6909C218.686 89.9814 218.772 90.3073 219.008 90.507L219.009 90.508L220.54 91.7537L219.933 93.6978C219.84 93.9961 219.944 94.322 220.195 94.5094C220.326 94.6073 220.481 94.6567 220.637 94.6567C220.78 94.6567 220.923 94.6155 221.047 94.5321L226.595 90.4851ZM216.179 86.7259C218.408 86.7259 220.221 84.9132 220.221 82.684C220.221 80.4548 218.408 78.642 216.179 78.642C213.95 78.642 212.137 80.4548 212.137 82.684C212.137 84.9132 213.95 86.7259 216.179 86.7259ZM216.179 80.1164C217.595 80.1164 218.747 81.268 218.747 82.684C218.747 84.0999 217.595 85.2516 216.179 85.2516C214.763 85.2516 213.612 84.0999 213.612 82.684C213.612 81.268 214.763 80.1164 216.179 80.1164ZM216.84 89.3698C217.247 89.3698 217.577 89.0395 217.577 88.6326C217.577 88.2256 217.247 87.8954 216.84 87.8954C213.518 87.8954 210.815 90.5984 210.815 93.9202C210.815 94.3271 211.146 94.6574 211.553 94.6574C211.96 94.6574 212.29 94.3271 212.29 93.9202C212.29 91.411 214.331 89.3698 216.84 89.3698Z" fill="#111927" stroke="black" stroke-width="0.152464"/>
</g>
</g>
<rect x="187.949" y="55.7756" width="61.748" height="61.748" rx="30.874" stroke="#E5E7EB" stroke-width="0.762322"/>
<path d="M277.644 74.7118C272.388 74.7118 269.073 70.7219 269.073 65.8665V65.8454C269.073 60.9689 272.366 57.0635 277.644 57.0635H277.665C282.901 57.0635 286.215 60.9689 286.215 65.8454V65.8665C286.215 70.7219 282.879 74.7118 277.665 74.7118H277.644ZM277.644 72.073H277.665C281.127 72.073 283.492 69.3709 283.513 65.8454V65.8243C283.513 62.2778 281.148 59.6812 277.665 59.6812H277.644C274.119 59.6812 271.775 62.2778 271.775 65.8243V65.8454C271.796 69.3709 274.161 72.073 277.644 72.073ZM301.335 62.1933C304.417 62.1933 306.423 63.46 306.423 66.7532V74.4585H303.7C303.7 72.0519 303.679 69.6664 303.679 67.2598C303.679 65.7821 303.172 64.8321 301.209 64.8321C300.533 64.8321 299.625 65.0855 298.971 65.4866C299.055 65.9299 299.119 66.4154 299.119 66.9432V74.4585H296.395V67.2598C296.395 65.4866 295.403 64.8321 293.862 64.8321C293.229 64.8321 292.49 64.9377 291.709 65.1066V74.4585H288.986V62.7844C291.012 62.4044 292.954 62.1933 293.989 62.1933C295.403 62.1933 296.649 62.4889 297.578 63.2066C298.633 62.5944 299.942 62.1933 301.335 62.1933ZM320.887 68.1043V69.392H311.725C312.084 71.2497 313.393 72.3263 315.441 72.3263C316.876 72.3263 318.227 71.9675 319.135 71.4397L320.275 73.5507C319.029 74.2052 317.362 74.7118 315.251 74.7118C311.451 74.7118 308.938 72.1786 308.938 68.4209V68.3998C308.938 64.621 311.408 62.0878 315.103 62.0878C318.586 62.0878 320.887 64.4944 320.887 68.1043ZM315.039 64.4733C313.203 64.4733 312.084 65.4443 311.746 67.091H318.248C318.079 65.4654 316.876 64.4733 315.039 64.4733ZM323.162 74.4585V63.1011C324.851 62.6366 326.624 62.5311 327.849 62.5311H330.023V65.0432H328.186C327.595 65.0432 326.286 65.0855 325.864 65.2966V74.4585H323.162ZM340.776 62.13C343.921 62.13 346.116 63.5022 346.116 66.7743V73.9096C344.808 74.2685 342.718 74.6696 340.839 74.6696C337.187 74.6696 335.181 73.2552 335.181 70.6164V70.5953C335.181 68.0409 337.081 66.6476 340.564 66.6476C341.409 66.6476 342.401 66.7321 343.435 66.8587V66.7954C343.435 65.3599 342.338 64.5155 340.163 64.5155C339.044 64.5155 337.398 64.7477 336.089 65.2966L336.722 62.8055C337.651 62.4044 339.256 62.13 340.776 62.13ZM337.926 70.5531C337.926 71.693 338.854 72.2419 340.86 72.2419C341.578 72.2419 342.781 72.1363 343.435 71.9675V69.1387C342.971 69.0542 341.725 68.9064 340.86 68.9064C338.854 68.9064 337.926 69.4342 337.926 70.5531ZM360.259 74.4796H357.536V67.2809C357.536 65.4866 356.523 64.8532 354.771 64.8532C354.074 64.8532 353.124 64.9377 352.195 65.1066V74.4585H349.472V57.3379H352.195V62.4255C353.272 62.2989 354.222 62.2144 354.897 62.2144C357.811 62.2144 360.238 63.2489 360.238 66.7532C360.238 69.3287 360.259 71.9041 360.259 74.4796ZM376.129 62.1933C379.211 62.1933 381.217 63.46 381.217 66.7532V74.4585H378.493C378.493 72.0519 378.472 69.6664 378.472 67.2598C378.472 65.7821 377.966 64.8321 376.002 64.8321C375.327 64.8321 374.419 65.0855 373.765 65.4866C373.849 65.9299 373.912 66.4154 373.912 66.9432V74.4585H371.189V67.2598C371.189 65.4866 370.197 64.8321 368.656 64.8321C368.023 64.8321 367.284 64.9377 366.503 65.1066V74.4585H363.779V62.7844C365.806 62.4044 367.748 62.1933 368.782 62.1933C370.197 62.1933 371.442 62.4889 372.371 63.2066C373.427 62.5944 374.736 62.1933 376.129 62.1933ZM395.681 68.1043V69.392H386.519C386.878 71.2497 388.186 72.3263 390.234 72.3263C391.67 72.3263 393.021 71.9675 393.928 71.4397L395.068 73.5507C393.823 74.2052 392.155 74.7118 390.044 74.7118C386.244 74.7118 383.732 72.1786 383.732 68.4209V68.3998C383.732 64.621 386.202 62.0878 389.896 62.0878C393.38 62.0878 395.681 64.4944 395.681 68.1043ZM389.833 64.4733C387.996 64.4733 386.878 65.4443 386.54 67.091H393.042C392.873 65.4654 391.67 64.4733 389.833 64.4733ZM405.996 57.3379H408.719V74.0363C407.263 74.5007 405.405 74.8596 403.843 74.8596C399.705 74.8596 397.214 72.453 397.214 68.5476V68.5265C397.214 64.5577 399.832 62.2567 403.843 62.2567C404.518 62.2567 405.236 62.32 405.996 62.4255V57.3379ZM403.78 72.4108C404.413 72.4108 405.257 72.3686 405.996 72.2208V65.001C405.152 64.811 404.434 64.7266 403.759 64.7266C401.225 64.7266 399.832 66.2888 399.832 68.5265V68.5687C399.832 70.9331 401.352 72.4108 403.78 72.4108Z" fill="#111927"/>
<path d="M273.861 97.0432C274.511 97.0432 275.118 97.162 275.681 97.3997C276.256 97.6374 276.757 97.9627 277.182 98.3755C277.62 98.7758 277.964 99.2637 278.214 99.8392C278.464 100.402 278.589 101.009 278.589 101.659C278.589 102.26 278.471 102.823 278.233 103.348C278.008 103.861 277.651 104.48 277.163 105.206L273.804 110.085H272.172L274.949 106.069C274.799 106.132 274.63 106.188 274.442 106.238C274.255 106.276 274.011 106.294 273.711 106.294C273.073 106.294 272.478 106.175 271.928 105.938C271.377 105.7 270.89 105.375 270.464 104.962C270.051 104.537 269.726 104.042 269.488 103.48C269.251 102.917 269.132 102.31 269.132 101.659C269.132 101.046 269.251 100.465 269.488 99.9142C269.726 99.3638 270.058 98.8759 270.483 98.4506C270.908 98.0252 271.409 97.6875 271.984 97.4373C272.56 97.1746 273.185 97.0432 273.861 97.0432ZM275.174 98.6194C274.774 98.4443 274.336 98.3567 273.861 98.3567C273.385 98.3567 272.941 98.4443 272.528 98.6194C272.128 98.7946 271.778 99.0385 271.477 99.3513C271.177 99.6515 270.946 100.008 270.783 100.421C270.621 100.821 270.539 101.247 270.539 101.697C270.539 102.135 270.621 102.56 270.783 102.973C270.946 103.373 271.171 103.723 271.459 104.024C271.759 104.311 272.115 104.543 272.528 104.718C272.941 104.893 273.385 104.981 273.861 104.981C274.323 104.981 274.761 104.893 275.174 104.718C275.587 104.543 275.937 104.311 276.225 104.024C276.525 103.723 276.757 103.373 276.919 102.973C277.094 102.56 277.182 102.135 277.182 101.697C277.182 101.247 277.101 100.821 276.938 100.421C276.775 100.008 276.544 99.6515 276.244 99.3513C275.944 99.0385 275.587 98.7946 275.174 98.6194ZM285.405 110.235C284.754 110.235 284.141 110.116 283.566 109.878C283.003 109.641 282.509 109.322 282.084 108.921C281.658 108.509 281.32 108.021 281.07 107.458C280.82 106.895 280.695 106.282 280.695 105.619C280.695 105.018 280.801 104.455 281.014 103.93C281.239 103.404 281.608 102.779 282.121 102.053L285.48 97.3997H287.113L284.373 101.209C284.485 101.146 284.636 101.096 284.823 101.059C285.011 101.021 285.255 101.003 285.555 101.003C286.193 101.003 286.787 101.121 287.338 101.359C287.888 101.597 288.37 101.928 288.783 102.354C289.208 102.766 289.539 103.254 289.777 103.817C290.027 104.368 290.152 104.968 290.152 105.619C290.152 106.232 290.034 106.813 289.796 107.364C289.558 107.914 289.227 108.408 288.801 108.846C288.376 109.272 287.876 109.609 287.3 109.86C286.725 110.11 286.093 110.235 285.405 110.235ZM284.091 108.659C284.504 108.834 284.948 108.921 285.424 108.921C285.899 108.921 286.337 108.834 286.737 108.659C287.138 108.483 287.488 108.246 287.788 107.946C288.088 107.633 288.32 107.276 288.482 106.876C288.658 106.463 288.745 106.032 288.745 105.581C288.745 105.143 288.658 104.724 288.482 104.324C288.32 103.911 288.088 103.561 287.788 103.273C287.5 102.973 287.15 102.735 286.737 102.56C286.337 102.385 285.899 102.297 285.424 102.297C284.948 102.297 284.504 102.385 284.091 102.56C283.691 102.735 283.341 102.973 283.041 103.273C282.753 103.561 282.521 103.911 282.346 104.324C282.184 104.724 282.102 105.143 282.102 105.581C282.102 106.032 282.184 106.463 282.346 106.876C282.509 107.276 282.74 107.633 283.041 107.946C283.341 108.246 283.691 108.483 284.091 108.659ZM296.368 110.235C295.592 110.235 294.86 110.122 294.172 109.897C293.484 109.672 292.796 109.303 292.108 108.79L292.877 107.645C293.453 108.108 294.009 108.44 294.547 108.64C295.098 108.828 295.698 108.921 296.349 108.921C296.799 108.921 297.237 108.859 297.662 108.734C298.088 108.609 298.457 108.427 298.769 108.19C299.095 107.939 299.351 107.639 299.539 107.289C299.739 106.939 299.839 106.526 299.839 106.05C299.839 105.537 299.752 105.093 299.576 104.718C299.414 104.33 299.189 104.017 298.901 103.78C298.613 103.53 298.257 103.342 297.831 103.217C297.418 103.092 296.968 103.029 296.48 103.029C295.98 103.029 295.442 103.098 294.866 103.236C294.303 103.361 293.597 103.605 292.746 103.967L293.572 97.3997H300.721V98.6945H294.66L294.228 102.072C294.891 101.847 295.673 101.734 296.574 101.734C297.199 101.734 297.794 101.816 298.357 101.978C298.92 102.141 299.414 102.404 299.839 102.766C300.277 103.117 300.621 103.567 300.871 104.118C301.121 104.655 301.246 105.3 301.246 106.05C301.246 106.726 301.109 107.326 300.834 107.852C300.558 108.377 300.189 108.815 299.726 109.165C299.276 109.516 298.757 109.778 298.169 109.953C297.594 110.141 296.993 110.235 296.368 110.235ZM307.564 110.235C306.789 110.235 306.057 110.122 305.369 109.897C304.681 109.672 303.993 109.303 303.305 108.79L304.074 107.645C304.649 108.108 305.206 108.44 305.744 108.64C306.294 108.828 306.895 108.921 307.545 108.921C307.996 108.921 308.434 108.859 308.859 108.734C309.284 108.609 309.653 108.427 309.966 108.19C310.291 107.939 310.548 107.639 310.735 107.289C310.936 106.939 311.036 106.526 311.036 106.05C311.036 105.537 310.948 105.093 310.773 104.718C310.61 104.33 310.385 104.017 310.097 103.78C309.81 103.53 309.453 103.342 309.028 103.217C308.615 103.092 308.165 103.029 307.677 103.029C307.176 103.029 306.638 103.098 306.063 103.236C305.5 103.361 304.793 103.605 303.943 103.967L304.768 97.3997H311.918V98.6945H305.857L305.425 102.072C306.088 101.847 306.87 101.734 307.771 101.734C308.396 101.734 308.99 101.816 309.553 101.978C310.116 102.141 310.61 102.404 311.036 102.766C311.474 103.117 311.818 103.567 312.068 104.118C312.318 104.655 312.443 105.3 312.443 106.05C312.443 106.726 312.305 107.326 312.03 107.852C311.755 108.377 311.386 108.815 310.923 109.165C310.473 109.516 309.954 109.778 309.366 109.953C308.79 110.141 308.19 110.235 307.564 110.235ZM318.761 110.235C317.985 110.235 317.253 110.122 316.565 109.897C315.877 109.672 315.189 109.303 314.501 108.79L315.271 107.645C315.846 108.108 316.403 108.44 316.941 108.64C317.491 108.828 318.091 108.921 318.742 108.921C319.192 108.921 319.63 108.859 320.056 108.734C320.481 108.609 320.85 108.427 321.163 108.19C321.488 107.939 321.744 107.639 321.932 107.289C322.132 106.939 322.232 106.526 322.232 106.05C322.232 105.537 322.145 105.093 321.97 104.718C321.807 104.33 321.582 104.017 321.294 103.78C321.006 103.53 320.65 103.342 320.224 103.217C319.812 103.092 319.361 103.029 318.873 103.029C318.373 103.029 317.835 103.098 317.26 103.236C316.697 103.361 315.99 103.605 315.139 103.967L315.965 97.3997H323.114V98.6945H317.053L316.622 102.072C317.285 101.847 318.066 101.734 318.967 101.734C319.593 101.734 320.187 101.816 320.75 101.978C321.313 102.141 321.807 102.404 322.232 102.766C322.67 103.117 323.014 103.567 323.264 104.118C323.515 104.655 323.64 105.3 323.64 106.05C323.64 106.726 323.502 107.326 323.227 107.852C322.952 108.377 322.583 108.815 322.12 109.165C321.669 109.516 321.15 109.778 320.562 109.953C319.987 110.141 319.386 110.235 318.761 110.235ZM327.987 98.9197L325.229 99.7078V98.4693L329.319 97.3059V110.085H327.987V98.9197ZM337.495 108.921C338.608 108.921 339.49 108.496 340.141 107.645C340.804 106.795 341.135 105.469 341.135 103.667C341.135 101.866 340.804 100.527 340.141 99.6515C339.478 98.7633 338.596 98.3192 337.495 98.3192C336.369 98.3192 335.481 98.7571 334.83 99.6327C334.192 100.508 333.873 101.853 333.873 103.667C333.873 105.469 334.192 106.795 334.83 107.645C335.481 108.496 336.369 108.921 337.495 108.921ZM339.709 109.747C339.084 110.072 338.345 110.235 337.495 110.235C336.644 110.235 335.894 110.072 335.243 109.747C334.605 109.422 334.08 108.971 333.667 108.396C333.254 107.82 332.947 107.132 332.747 106.332C332.547 105.519 332.447 104.63 332.447 103.667C332.447 102.704 332.547 101.822 332.747 101.021C332.947 100.221 333.254 99.5264 333.667 98.9384C334.08 98.338 334.605 97.8751 335.243 97.5499C335.894 97.2121 336.644 97.0432 337.495 97.0432C338.345 97.0432 339.084 97.2121 339.709 97.5499C340.347 97.8751 340.872 98.338 341.285 98.9384C341.698 99.5264 342.005 100.221 342.205 101.021C342.405 101.822 342.505 102.704 342.505 103.667C342.505 104.63 342.405 105.519 342.205 106.332C342.005 107.132 341.698 107.82 341.285 108.396C340.872 108.971 340.347 109.422 339.709 109.747ZM349.864 108.921C350.978 108.921 351.86 108.496 352.51 107.645C353.173 106.795 353.505 105.469 353.505 103.667C353.505 101.866 353.173 100.527 352.51 99.6515C351.847 98.7633 350.965 98.3192 349.864 98.3192C348.738 98.3192 347.85 98.7571 347.2 99.6327C346.562 100.508 346.243 101.853 346.243 103.667C346.243 105.469 346.562 106.795 347.2 107.645C347.85 108.496 348.738 108.921 349.864 108.921ZM352.078 109.747C351.453 110.072 350.715 110.235 349.864 110.235C349.014 110.235 348.263 110.072 347.612 109.747C346.974 109.422 346.449 108.971 346.036 108.396C345.623 107.82 345.317 107.132 345.117 106.332C344.917 105.519 344.816 104.63 344.816 103.667C344.816 102.704 344.917 101.822 345.117 101.021C345.317 100.221 345.623 99.5264 346.036 98.9384C346.449 98.338 346.974 97.8751 347.612 97.5499C348.263 97.2121 349.014 97.0432 349.864 97.0432C350.715 97.0432 351.453 97.2121 352.078 97.5499C352.716 97.8751 353.242 98.338 353.655 98.9384C354.068 99.5264 354.374 100.221 354.574 101.021C354.774 101.822 354.874 102.704 354.874 103.667C354.874 104.63 354.774 105.519 354.574 106.332C354.374 107.132 354.068 107.82 353.655 108.396C353.242 108.971 352.716 109.422 352.078 109.747Z" fill="#6C737F"/>
<path d="M372.881 94.3114H374.047V111.667H372.881V94.3114Z" fill="#6C737F"/>
<path d="M390.061 110.235C389.285 110.235 388.566 110.122 387.903 109.897C387.24 109.672 386.571 109.303 385.895 108.79L386.664 107.645C387.252 108.121 387.797 108.452 388.297 108.64C388.797 108.828 389.379 108.921 390.042 108.921C390.505 108.921 390.937 108.871 391.337 108.771C391.75 108.659 392.106 108.502 392.406 108.302C392.707 108.089 392.938 107.839 393.101 107.552C393.276 107.251 393.364 106.901 393.364 106.501C393.364 106.05 393.282 105.675 393.12 105.375C392.957 105.062 392.726 104.806 392.425 104.605C392.125 104.405 391.756 104.261 391.318 104.174C390.88 104.074 390.38 104.024 389.817 104.024H389.367V102.729H389.761C390.937 102.729 391.781 102.529 392.294 102.128C392.807 101.728 393.063 101.178 393.063 100.477C393.063 100.152 392.994 99.8642 392.857 99.614C392.719 99.3638 392.519 99.1449 392.256 98.9572C392.006 98.7696 391.7 98.6257 391.337 98.5256C390.987 98.413 390.599 98.3567 390.173 98.3567C389.523 98.3567 388.96 98.4506 388.485 98.6382C388.009 98.8259 387.471 99.1574 386.871 99.6327L386.139 98.4881C386.802 97.9752 387.453 97.6061 388.091 97.381C388.729 97.1558 389.435 97.0432 390.211 97.0432C390.799 97.0432 391.349 97.1183 391.862 97.2684C392.375 97.4185 392.826 97.6374 393.213 97.9251C393.601 98.2129 393.908 98.5694 394.133 98.9947C394.371 99.4076 394.489 99.8704 394.489 100.383C394.489 100.809 394.414 101.203 394.264 101.566C394.127 101.928 393.939 102.247 393.701 102.523C393.476 102.785 393.263 102.973 393.063 103.085C392.876 103.198 392.694 103.279 392.519 103.329C392.744 103.367 392.969 103.448 393.195 103.573C393.42 103.686 393.657 103.886 393.908 104.174C394.17 104.449 394.377 104.787 394.527 105.187C394.69 105.575 394.771 106.013 394.771 106.501C394.771 107.101 394.64 107.639 394.377 108.114C394.127 108.59 393.783 108.984 393.345 109.297C392.919 109.609 392.425 109.841 391.862 109.991C391.299 110.154 390.699 110.235 390.061 110.235ZM401.147 110.235C400.372 110.235 399.64 110.122 398.952 109.897C398.264 109.672 397.576 109.303 396.888 108.79L397.657 107.645C398.232 108.108 398.789 108.44 399.327 108.64C399.877 108.828 400.478 108.921 401.128 108.921C401.579 108.921 402.017 108.859 402.442 108.734C402.867 108.609 403.236 108.427 403.549 108.19C403.874 107.939 404.131 107.639 404.319 107.289C404.519 106.939 404.619 106.526 404.619 106.05C404.619 105.537 404.531 105.093 404.356 104.718C404.193 104.33 403.968 104.017 403.681 103.78C403.393 103.53 403.036 103.342 402.611 103.217C402.198 103.092 401.748 103.029 401.26 103.029C400.759 103.029 400.222 103.098 399.646 103.236C399.083 103.361 398.376 103.605 397.526 103.967L398.351 97.3997H405.501V98.6945H399.44L399.008 102.072C399.671 101.847 400.453 101.734 401.354 101.734C401.979 101.734 402.573 101.816 403.136 101.978C403.699 102.141 404.193 102.404 404.619 102.766C405.057 103.117 405.401 103.567 405.651 104.118C405.901 104.655 406.026 105.3 406.026 106.05C406.026 106.726 405.888 107.326 405.613 107.852C405.338 108.377 404.969 108.815 404.506 109.165C404.056 109.516 403.537 109.778 402.949 109.953C402.373 110.141 401.773 110.235 401.147 110.235ZM413.376 108.921C414.489 108.921 415.371 108.496 416.022 107.645C416.685 106.795 417.016 105.469 417.016 103.667C417.016 101.866 416.685 100.527 416.022 99.6515C415.359 98.7633 414.477 98.3192 413.376 98.3192C412.25 98.3192 411.362 98.7571 410.711 99.6327C410.073 100.508 409.754 101.853 409.754 103.667C409.754 105.469 410.073 106.795 410.711 107.645C411.362 108.496 412.25 108.921 413.376 108.921ZM415.59 109.747C414.965 110.072 414.227 110.235 413.376 110.235C412.525 110.235 411.775 110.072 411.124 109.747C410.486 109.422 409.961 108.971 409.548 108.396C409.135 107.82 408.829 107.132 408.628 106.332C408.428 105.519 408.328 104.63 408.328 103.667C408.328 102.704 408.428 101.822 408.628 101.021C408.829 100.221 409.135 99.5264 409.548 98.9384C409.961 98.338 410.486 97.8751 411.124 97.5499C411.775 97.2121 412.525 97.0432 413.376 97.0432C414.227 97.0432 414.965 97.2121 415.59 97.5499C416.228 97.8751 416.754 98.338 417.166 98.9384C417.579 99.5264 417.886 100.221 418.086 101.021C418.286 101.822 418.386 102.704 418.386 103.667C418.386 104.63 418.286 105.519 418.086 106.332C417.886 107.132 417.579 107.82 417.166 108.396C416.754 108.971 416.228 109.422 415.59 109.747ZM429.331 103.536V110.085H427.942V94.3786H432.99C433.928 94.3786 434.741 94.4974 435.429 94.7351C436.13 94.9728 436.705 95.2981 437.156 95.7109C437.606 96.1112 437.938 96.5866 438.15 97.137C438.363 97.675 438.469 98.2442 438.469 98.8446C438.469 99.4576 438.363 100.046 438.15 100.609C437.938 101.171 437.606 101.672 437.156 102.11C436.705 102.548 436.13 102.898 435.429 103.161C434.741 103.411 433.928 103.536 432.99 103.536H429.331ZM429.331 95.7109V102.204H432.746C434.097 102.204 435.148 101.935 435.899 101.397C436.649 100.859 437.024 100.008 437.024 98.8446C437.024 98.3692 436.949 97.9439 436.799 97.5686C436.649 97.1933 436.405 96.8681 436.067 96.5928C435.742 96.3176 435.304 96.105 434.754 95.9548C434.203 95.7922 433.534 95.7109 432.746 95.7109H429.331ZM446.201 109.841C445.563 110.129 444.869 110.272 444.118 110.272C443.368 110.272 442.667 110.129 442.017 109.841C441.379 109.566 440.822 109.184 440.347 108.696C439.871 108.196 439.496 107.62 439.221 106.97C438.958 106.319 438.827 105.619 438.827 104.868C438.827 104.118 438.958 103.417 439.221 102.766C439.496 102.116 439.871 101.547 440.347 101.059C440.822 100.558 441.379 100.164 442.017 99.8767C442.667 99.589 443.368 99.4451 444.118 99.4451C444.869 99.4451 445.563 99.589 446.201 99.8767C446.852 100.164 447.415 100.558 447.89 101.059C448.365 101.547 448.734 102.116 448.997 102.766C449.272 103.417 449.41 104.118 449.41 104.868C449.41 105.619 449.272 106.319 448.997 106.97C448.734 107.62 448.365 108.196 447.89 108.696C447.415 109.184 446.852 109.566 446.201 109.841ZM442.542 108.64C443.017 108.853 443.543 108.959 444.118 108.959C444.694 108.959 445.219 108.853 445.695 108.64C446.17 108.415 446.576 108.121 446.914 107.758C447.252 107.383 447.515 106.951 447.702 106.463C447.89 105.963 447.984 105.431 447.984 104.868C447.984 104.305 447.89 103.774 447.702 103.273C447.515 102.773 447.252 102.341 446.914 101.978C446.576 101.603 446.17 101.309 445.695 101.096C445.219 100.871 444.694 100.759 444.118 100.759C443.543 100.759 443.017 100.871 442.542 101.096C442.067 101.309 441.66 101.603 441.322 101.978C440.985 102.341 440.722 102.773 440.534 103.273C440.347 103.774 440.253 104.305 440.253 104.868C440.253 105.431 440.347 105.963 440.534 106.463C440.722 106.951 440.985 107.383 441.322 107.758C441.66 108.121 442.067 108.415 442.542 108.64ZM451.829 99.6515H453.162V110.085H451.829V99.6515ZM451.792 95.6171C451.992 95.4169 452.23 95.3168 452.505 95.3168C452.78 95.3168 453.018 95.4169 453.218 95.6171C453.418 95.8172 453.518 96.0549 453.518 96.3301C453.518 96.6054 453.418 96.843 453.218 97.0432C453.018 97.2434 452.78 97.3434 452.505 97.3434C452.23 97.3434 451.992 97.2434 451.792 97.0432C451.592 96.843 451.492 96.6054 451.492 96.3301C451.492 96.0549 451.592 95.8172 451.792 95.6171ZM456.795 99.933C457.646 99.7704 458.422 99.6515 459.122 99.5765C459.823 99.4889 460.48 99.4451 461.093 99.4451C461.731 99.4451 462.319 99.5076 462.856 99.6327C463.407 99.7578 463.876 99.9893 464.264 100.327C464.664 100.665 464.964 101.121 465.165 101.697C465.377 102.26 465.484 102.973 465.484 103.836V110.085H464.151V104.399C464.151 103.636 464.076 103.023 463.926 102.56C463.788 102.085 463.588 101.722 463.326 101.472C463.075 101.209 462.756 101.028 462.369 100.928C461.981 100.815 461.53 100.759 461.017 100.759C460.117 100.759 459.154 100.859 458.128 101.059V110.085H456.795V99.933ZM467.444 99.6515H469.658V95.8798H470.99V99.6515H475.306V100.946H470.99V106.032C470.99 106.582 471.028 107.032 471.103 107.383C471.19 107.733 471.322 108.008 471.497 108.208C471.672 108.408 471.91 108.559 472.21 108.659C472.51 108.746 472.886 108.79 473.336 108.79H475.438V110.085H473.467C472.917 110.085 472.41 110.022 471.947 109.897C471.497 109.785 471.097 109.591 470.746 109.315C470.396 109.04 470.127 108.677 469.939 108.227C469.752 107.777 469.658 107.22 469.658 106.557V100.946H467.444V99.6515ZM481.353 108.959C481.766 108.959 482.153 108.934 482.516 108.884C482.892 108.821 483.211 108.734 483.473 108.621C483.748 108.496 483.961 108.327 484.111 108.114C484.261 107.902 484.336 107.627 484.336 107.289C484.336 106.813 484.149 106.432 483.774 106.144C483.398 105.856 482.773 105.619 481.897 105.431L481.109 105.262C480.471 105.112 479.927 104.949 479.476 104.774C479.026 104.587 478.657 104.368 478.369 104.118C478.082 103.867 477.875 103.58 477.75 103.254C477.625 102.929 477.562 102.566 477.562 102.166C477.562 101.766 477.662 101.397 477.863 101.059C478.063 100.721 478.332 100.433 478.669 100.196C479.02 99.958 479.426 99.7766 479.889 99.6515C480.365 99.5139 480.877 99.4451 481.428 99.4451C482.904 99.4451 484.255 99.7766 485.481 100.44L484.881 101.659C484.268 101.322 483.711 101.09 483.211 100.965C482.71 100.827 482.116 100.759 481.428 100.759C480.627 100.759 480.021 100.89 479.608 101.153C479.195 101.403 478.988 101.747 478.988 102.185C478.988 102.648 479.164 102.998 479.514 103.236C479.864 103.473 480.496 103.686 481.409 103.874L482.103 104.024C482.766 104.174 483.329 104.349 483.792 104.549C484.255 104.737 484.637 104.962 484.937 105.225C485.237 105.487 485.45 105.794 485.575 106.144C485.7 106.494 485.763 106.876 485.763 107.289C485.763 107.777 485.656 108.208 485.444 108.584C485.231 108.959 484.924 109.272 484.524 109.522C484.136 109.772 483.673 109.96 483.136 110.085C482.598 110.21 482.003 110.272 481.353 110.272C480.615 110.272 479.92 110.191 479.27 110.028C478.632 109.866 477.975 109.597 477.3 109.222L477.938 107.946C478.538 108.308 479.126 108.571 479.702 108.734C480.29 108.884 480.84 108.959 481.353 108.959Z" fill="#6C737F"/>
</g>
<g filter="url(#filter1_d_2802_45445)">
<rect x="18" y="150.056" width="305" height="192" rx="12" fill="white"/>
<path d="M34.88 178.128C35.904 178.128 36.8053 178 37.584 177.744C38.3733 177.477 39.0293 177.104 39.552 176.624C40.0853 176.133 40.4907 175.546 40.768 174.864C41.0453 174.181 41.184 173.413 41.184 172.56C41.184 171.706 41.0293 170.938 40.72 170.256C40.4107 169.573 39.9787 168.992 39.424 168.512C38.8693 168.032 38.2027 167.664 37.424 167.408C36.656 167.141 35.808 167.008 34.88 167.008H33.056V178.128H34.88ZM31.872 165.872H34.896C35.9733 165.872 36.9653 166.016 37.872 166.304C38.7893 166.581 39.584 167.008 40.256 167.584C40.9387 168.149 41.4667 168.848 41.84 169.68C42.224 170.512 42.416 171.472 42.416 172.56C42.416 173.648 42.224 174.613 41.84 175.456C41.4667 176.288 40.9387 176.986 40.256 177.552C39.584 178.117 38.7893 178.544 37.872 178.832C36.9653 179.12 35.9733 179.264 34.896 179.264H31.872V165.872ZM44.7239 170.368H45.8599V179.264H44.7239V170.368ZM44.6919 166.928C44.8625 166.757 45.0652 166.672 45.2999 166.672C45.5345 166.672 45.7372 166.757 45.9079 166.928C46.0785 167.098 46.1639 167.301 46.1639 167.536C46.1639 167.77 46.0785 167.973 45.9079 168.144C45.7372 168.314 45.5345 168.4 45.2999 168.4C45.0652 168.4 44.8625 168.314 44.6919 168.144C44.5212 167.973 44.4359 167.77 44.4359 167.536C44.4359 167.301 44.5212 167.098 44.6919 166.928ZM51.6943 178.304C52.0463 178.304 52.3769 178.282 52.6863 178.24C53.0063 178.186 53.2783 178.112 53.5023 178.016C53.7369 177.909 53.9183 177.765 54.0463 177.584C54.1743 177.402 54.2383 177.168 54.2383 176.88C54.2383 176.474 54.0783 176.149 53.7583 175.904C53.4383 175.658 52.9049 175.456 52.1583 175.296L51.4863 175.152C50.9423 175.024 50.4783 174.885 50.0943 174.736C49.7103 174.576 49.3956 174.389 49.1503 174.176C48.9049 173.962 48.7289 173.717 48.6223 173.44C48.5156 173.162 48.4622 172.853 48.4622 172.512C48.4622 172.17 48.5476 171.856 48.7183 171.568C48.8889 171.28 49.1183 171.034 49.4062 170.832C49.7049 170.629 50.0516 170.474 50.4463 170.368C50.8516 170.25 51.2889 170.192 51.7583 170.192C53.0169 170.192 54.1689 170.474 55.2143 171.04L54.7023 172.08C54.1796 171.792 53.7049 171.594 53.2783 171.488C52.8516 171.37 52.3449 171.312 51.7583 171.312C51.0756 171.312 50.5583 171.424 50.2063 171.648C49.8543 171.861 49.6783 172.154 49.6783 172.528C49.6783 172.922 49.8276 173.221 50.1263 173.424C50.4249 173.626 50.9636 173.808 51.7423 173.968L52.3343 174.096C52.8996 174.224 53.3796 174.373 53.7743 174.544C54.1689 174.704 54.4943 174.896 54.7503 175.12C55.0063 175.344 55.1876 175.605 55.2943 175.904C55.4009 176.202 55.4543 176.528 55.4543 176.88C55.4543 177.296 55.3636 177.664 55.1823 177.984C55.0009 178.304 54.7396 178.57 54.3983 178.784C54.0676 178.997 53.6729 179.157 53.2143 179.264C52.7556 179.37 52.2489 179.424 51.6943 179.424C51.0649 179.424 50.4729 179.354 49.9183 179.216C49.3743 179.077 48.8143 178.848 48.2383 178.528L48.7823 177.44C49.2943 177.749 49.7956 177.973 50.2863 178.112C50.7876 178.24 51.2569 178.304 51.6943 178.304ZM57.5671 176.672C57.3325 176.106 57.2151 175.488 57.2151 174.816C57.2151 174.144 57.3325 173.53 57.5671 172.976C57.8018 172.41 58.1218 171.92 58.5271 171.504C58.9325 171.088 59.4018 170.768 59.9351 170.544C60.4791 170.309 61.0658 170.192 61.6951 170.192C62.3458 170.192 62.9165 170.261 63.4071 170.4C63.8978 170.528 64.4045 170.736 64.9271 171.024L64.3991 172.064C63.9405 171.786 63.5085 171.594 63.1031 171.488C62.7085 171.37 62.2391 171.312 61.6951 171.312C61.2151 171.312 60.7725 171.402 60.3671 171.584C59.9725 171.765 59.6311 172.01 59.3431 172.32C59.0551 172.629 58.8311 172.997 58.6711 173.424C58.5111 173.85 58.4311 174.314 58.4311 174.816C58.4311 175.317 58.5111 175.781 58.6711 176.208C58.8311 176.634 59.0551 177.002 59.3431 177.312C59.6311 177.621 59.9725 177.866 60.3671 178.048C60.7725 178.218 61.2151 178.304 61.6951 178.304C62.2391 178.304 62.7085 178.25 63.1031 178.144C63.5085 178.026 63.9405 177.829 64.3991 177.552L64.9271 178.592C64.4045 178.88 63.8978 179.088 63.4071 179.216C62.9165 179.354 62.3458 179.424 61.6951 179.424C61.0658 179.424 60.4791 179.306 59.9351 179.072C59.4018 178.848 58.9325 178.533 58.5271 178.128C58.1218 177.712 57.8018 177.226 57.5671 176.672ZM72.175 179.056C71.631 179.301 71.039 179.424 70.399 179.424C69.759 179.424 69.1617 179.301 68.607 179.056C68.063 178.821 67.5883 178.496 67.183 178.08C66.7777 177.653 66.4577 177.162 66.223 176.608C65.999 176.053 65.887 175.456 65.887 174.816C65.887 174.176 65.999 173.578 66.223 173.024C66.4577 172.469 66.7777 171.984 67.183 171.568C67.5883 171.141 68.063 170.805 68.607 170.56C69.1617 170.314 69.759 170.192 70.399 170.192C71.039 170.192 71.631 170.314 72.175 170.56C72.7297 170.805 73.2097 171.141 73.615 171.568C74.0203 171.984 74.335 172.469 74.559 173.024C74.7937 173.578 74.911 174.176 74.911 174.816C74.911 175.456 74.7937 176.053 74.559 176.608C74.335 177.162 74.0203 177.653 73.615 178.08C73.2097 178.496 72.7297 178.821 72.175 179.056ZM69.055 178.032C69.4603 178.213 69.9083 178.304 70.399 178.304C70.8897 178.304 71.3377 178.213 71.743 178.032C72.1483 177.84 72.495 177.589 72.783 177.28C73.071 176.96 73.295 176.592 73.455 176.176C73.615 175.749 73.695 175.296 73.695 174.816C73.695 174.336 73.615 173.882 73.455 173.456C73.295 173.029 73.071 172.661 72.783 172.352C72.495 172.032 72.1483 171.781 71.743 171.6C71.3377 171.408 70.8897 171.312 70.399 171.312C69.9083 171.312 69.4603 171.408 69.055 171.6C68.6497 171.781 68.303 172.032 68.015 172.352C67.727 172.661 67.503 173.029 67.343 173.456C67.183 173.882 67.103 174.336 67.103 174.816C67.103 175.296 67.183 175.749 67.343 176.176C67.503 176.592 67.727 176.96 68.015 177.28C68.303 177.589 68.6497 177.84 69.055 178.032ZM82.8459 170.368H83.9819V178.848C83.2672 179.05 82.6272 179.194 82.0619 179.28C81.5072 179.376 80.9525 179.424 80.3979 179.424C79.8432 179.424 79.3419 179.37 78.8939 179.264C78.4565 179.157 78.0779 178.96 77.7579 178.672C77.4485 178.384 77.2139 178 77.0539 177.52C76.8939 177.029 76.8139 176.416 76.8139 175.68V170.368H77.9499V175.2C77.9499 175.85 78.0032 176.378 78.1099 176.784C78.2165 177.189 78.3659 177.498 78.5579 177.712C78.7605 177.925 79.0165 178.08 79.3259 178.176C79.6459 178.261 80.0245 178.304 80.4619 178.304C80.8245 178.304 81.2085 178.277 81.6139 178.224C82.0299 178.17 82.4405 178.085 82.8459 177.968V170.368ZM87.0833 170.608C87.8086 170.469 88.4699 170.368 89.0673 170.304C89.6646 170.229 90.2246 170.192 90.7473 170.192C91.2913 170.192 91.7926 170.245 92.2513 170.352C92.7206 170.458 93.1206 170.656 93.4513 170.944C93.7926 171.232 94.0486 171.621 94.2193 172.112C94.4006 172.592 94.4913 173.2 94.4913 173.936V179.264H93.3553V174.416C93.3553 173.765 93.2913 173.242 93.1633 172.848C93.0459 172.442 92.8753 172.133 92.6513 171.92C92.4379 171.696 92.1659 171.541 91.8353 171.456C91.5046 171.36 91.1206 171.312 90.6833 171.312C89.9153 171.312 89.0939 171.397 88.2193 171.568V179.264H87.0833V170.608ZM96.1626 170.368H98.0506V167.152H99.1866V170.368H102.867V171.472H99.1866V175.808C99.1866 176.277 99.2186 176.661 99.2826 176.96C99.3573 177.258 99.4693 177.493 99.6186 177.664C99.768 177.834 99.9706 177.962 100.227 178.048C100.483 178.122 100.803 178.16 101.187 178.16H102.979V179.264H101.299C100.829 179.264 100.397 179.21 100.003 179.104C99.6186 179.008 99.2773 178.842 98.9786 178.608C98.68 178.373 98.4506 178.064 98.2906 177.68C98.1306 177.296 98.0506 176.821 98.0506 176.256V171.472H96.1626V170.368ZM109.288 170.368H111.176V167.152H112.312V170.368H115.992V171.472H112.312V175.808C112.312 176.277 112.344 176.661 112.408 176.96C112.482 177.258 112.594 177.493 112.744 177.664C112.893 177.834 113.096 177.962 113.352 178.048C113.608 178.122 113.928 178.16 114.312 178.16H116.104V179.264H114.424C113.954 179.264 113.522 179.21 113.128 179.104C112.744 179.008 112.402 178.842 112.104 178.608C111.805 178.373 111.576 178.064 111.416 177.68C111.256 177.296 111.176 176.821 111.176 176.256V171.472H109.288V170.368ZM124.283 179.136C123.974 179.21 123.595 179.274 123.147 179.328C122.71 179.392 122.273 179.424 121.835 179.424C121.281 179.424 120.779 179.37 120.331 179.264C119.894 179.157 119.515 178.96 119.195 178.672C118.886 178.384 118.651 178 118.491 177.52C118.331 177.029 118.251 176.416 118.251 175.68V170.368H119.387V175.2C119.387 175.85 119.441 176.378 119.547 176.784C119.654 177.189 119.803 177.498 119.995 177.712C120.198 177.925 120.454 178.08 120.763 178.176C121.083 178.261 121.462 178.304 121.899 178.304C122.262 178.304 122.646 178.277 123.051 178.224C123.467 178.17 123.878 178.085 124.283 177.968V170.368H125.419V179.504C125.419 180.677 125.073 181.53 124.379 182.064C123.686 182.608 122.758 182.88 121.595 182.88C121.35 182.88 121.094 182.864 120.827 182.832C120.571 182.81 120.31 182.773 120.043 182.72C119.787 182.666 119.531 182.597 119.275 182.512C119.03 182.437 118.774 182.336 118.507 182.208L118.299 180.8C118.737 181.034 119.067 181.2 119.291 181.296C119.526 181.392 119.771 181.472 120.027 181.536C120.283 181.6 120.534 181.653 120.779 181.696C121.035 181.738 121.281 181.76 121.515 181.76C122.369 181.76 123.041 181.573 123.531 181.2C124.033 180.826 124.283 180.213 124.283 179.36V179.136ZM129.657 178.08C129.987 178.165 130.313 178.224 130.633 178.256C130.953 178.288 131.23 178.304 131.465 178.304C132.126 178.304 132.697 178.224 133.177 178.064C133.667 177.893 134.073 177.653 134.393 177.344C134.713 177.034 134.947 176.666 135.097 176.24C135.257 175.802 135.337 175.312 135.337 174.768C135.337 173.69 135.022 172.848 134.393 172.24C133.763 171.621 132.787 171.312 131.465 171.312C131.177 171.312 130.867 171.338 130.537 171.392C130.217 171.434 129.923 171.482 129.657 171.536V178.08ZM129.657 182.784H128.521V170.64C129.043 170.49 129.555 170.378 130.057 170.304C130.569 170.229 131.027 170.192 131.433 170.192C132.286 170.192 133.033 170.314 133.673 170.56C134.323 170.794 134.862 171.12 135.289 171.536C135.715 171.941 136.03 172.426 136.233 172.992C136.446 173.546 136.553 174.138 136.553 174.768C136.553 175.397 136.446 175.994 136.233 176.56C136.03 177.125 135.715 177.621 135.289 178.048C134.862 178.474 134.323 178.81 133.673 179.056C133.033 179.301 132.286 179.424 131.433 179.424C130.942 179.424 130.35 179.365 129.657 179.248V182.784ZM142.571 178.304C143.243 178.304 143.819 178.229 144.299 178.08C144.79 177.93 145.275 177.712 145.755 177.424L146.299 178.464C145.744 178.784 145.184 179.024 144.619 179.184C144.064 179.344 143.382 179.424 142.571 179.424C141.92 179.424 141.323 179.306 140.779 179.072C140.235 178.837 139.76 178.517 139.355 178.112C138.95 177.696 138.63 177.21 138.395 176.656C138.171 176.09 138.059 175.477 138.059 174.816C138.059 174.133 138.176 173.514 138.411 172.96C138.646 172.394 138.966 171.909 139.371 171.504C139.787 171.088 140.267 170.768 140.811 170.544C141.355 170.309 141.942 170.192 142.571 170.192C143.211 170.192 143.792 170.304 144.315 170.528C144.838 170.741 145.286 171.056 145.659 171.472C146.043 171.877 146.342 172.373 146.555 172.96C146.768 173.536 146.88 174.25 146.891 175.104H139.275C139.286 175.456 139.371 175.845 139.531 176.272C139.691 176.688 139.915 177.045 140.203 177.344C140.502 177.642 140.848 177.877 141.243 178.048C141.648 178.218 142.091 178.304 142.571 178.304ZM142.571 171.312C142.102 171.312 141.675 171.386 141.291 171.536C140.918 171.685 140.598 171.893 140.331 172.16C140.064 172.416 139.846 172.725 139.675 173.088C139.504 173.44 139.398 173.744 139.355 174H145.595C145.563 173.701 145.462 173.376 145.291 173.024C145.131 172.661 144.918 172.352 144.651 172.096C144.395 171.84 144.091 171.648 143.739 171.52C143.387 171.381 142.998 171.312 142.571 171.312Z" fill="#111927"/>
<rect x="30.5" y="202.556" width="135.5" height="55" rx="3.5" stroke="#D2D6DB"/>
<path d="M81.7027 234.056V222.702H88.7587V224.382H83.4947V227.392H88.2407V229.072H83.4947V234.056H81.7027ZM91.6036 225.082C91.0156 225.082 90.4836 224.732 90.4836 224.06C90.4836 223.458 90.9736 223.066 91.6036 223.066C92.2056 223.066 92.6956 223.458 92.6956 224.06C92.6956 224.732 92.1776 225.082 91.6036 225.082ZM90.6936 234.056V226.146H92.4996V234.056H90.6936ZM102.158 234.056H100.058L98.0142 231.368L95.9282 234.056H93.9402L97.0062 230.01L94.1222 226.146H96.2082L98.0702 228.61L99.9462 226.146H101.99L99.0782 229.954L102.158 234.056ZM110.373 229.842V230.696H104.297C104.535 231.928 105.403 232.642 106.761 232.642C107.713 232.642 108.609 232.404 109.211 232.054L109.967 233.454C109.141 233.888 108.035 234.224 106.635 234.224C104.115 234.224 102.449 232.544 102.449 230.052V230.038C102.449 227.532 104.087 225.852 106.537 225.852C108.847 225.852 110.373 227.448 110.373 229.842ZM106.495 227.434C105.277 227.434 104.535 228.078 104.311 229.17H108.623C108.511 228.092 107.713 227.434 106.495 227.434ZM117.214 222.702H119.02V233.776C118.054 234.084 116.822 234.322 115.786 234.322C113.042 234.322 111.39 232.726 111.39 230.136V230.122C111.39 227.49 113.126 225.964 115.786 225.964C116.234 225.964 116.71 226.006 117.214 226.076V222.702ZM115.744 232.698C116.164 232.698 116.724 232.67 117.214 232.572V227.784C116.654 227.658 116.178 227.602 115.73 227.602C114.05 227.602 113.126 228.638 113.126 230.122V230.15C113.126 231.718 114.134 232.698 115.744 232.698Z" fill="#6C737F"/>
<rect x="175.5" y="203.056" width="134.5" height="54" rx="3" stroke="#EF6C00" stroke-width="2"/>
<g clip-path="url(#clip1_2802_45445)">
<path d="M240.913 234.056L247.059 222.702H248.963L242.817 234.056H240.913ZM238.575 230.066C236.321 230.066 235.005 228.792 235.005 226.664V226.65C235.005 224.508 236.321 223.234 238.575 223.234C240.815 223.234 242.145 224.508 242.145 226.65V226.664C242.145 228.792 240.815 230.066 238.575 230.066ZM238.575 228.708C239.667 228.708 240.325 227.952 240.325 226.664V226.65C240.325 225.362 239.667 224.606 238.575 224.606C237.469 224.606 236.811 225.362 236.811 226.65V226.664C236.811 227.952 237.469 228.708 238.575 228.708ZM250.937 234.266C248.683 234.266 247.367 232.992 247.367 230.864V230.85C247.367 228.708 248.683 227.434 250.937 227.434C253.177 227.434 254.507 228.708 254.507 230.85V230.864C254.507 232.992 253.177 234.266 250.937 234.266ZM250.937 232.908C252.029 232.908 252.687 232.152 252.687 230.864V230.85C252.687 229.562 252.029 228.806 250.937 228.806C249.831 228.806 249.173 229.562 249.173 230.85V230.864C249.173 232.152 249.831 232.908 250.937 232.908Z" fill="#EF6C00"/>
</g>
<rect x="30.5" y="274.556" width="280" height="55" rx="3.5" stroke="#D2D6DB"/>
<path d="M49.744 307.392C49.0827 307.392 48.4693 307.296 47.904 307.104C47.3387 306.912 46.768 306.597 46.192 306.16L46.848 305.184C47.3493 305.589 47.8133 305.872 48.24 306.032C48.6667 306.192 49.1627 306.272 49.728 306.272C50.1227 306.272 50.4907 306.229 50.832 306.144C51.184 306.048 51.488 305.914 51.744 305.744C52 305.562 52.1973 305.349 52.336 305.104C52.4853 304.848 52.56 304.549 52.56 304.208C52.56 303.824 52.4907 303.504 52.352 303.248C52.2133 302.981 52.016 302.762 51.76 302.592C51.504 302.421 51.1893 302.298 50.816 302.224C50.4427 302.138 50.016 302.096 49.536 302.096H49.152V300.992H49.488C50.4907 300.992 51.2107 300.821 51.648 300.48C52.0853 300.138 52.304 299.669 52.304 299.072C52.304 298.794 52.2453 298.549 52.128 298.336C52.0107 298.122 51.84 297.936 51.616 297.776C51.4027 297.616 51.1413 297.493 50.832 297.408C50.5333 297.312 50.2027 297.264 49.84 297.264C49.2853 297.264 48.8053 297.344 48.4 297.504C47.9947 297.664 47.536 297.946 47.024 298.352L46.4 297.376C46.9653 296.938 47.52 296.624 48.064 296.432C48.608 296.24 49.2107 296.144 49.872 296.144C50.3733 296.144 50.8427 296.208 51.28 296.336C51.7173 296.464 52.1013 296.65 52.432 296.896C52.7627 297.141 53.024 297.445 53.216 297.808C53.4187 298.16 53.52 298.554 53.52 298.992C53.52 299.354 53.456 299.69 53.328 300C53.2107 300.309 53.0507 300.581 52.848 300.816C52.656 301.04 52.4747 301.2 52.304 301.296C52.144 301.392 51.9893 301.461 51.84 301.504C52.032 301.536 52.224 301.605 52.416 301.712C52.608 301.808 52.8107 301.978 53.024 302.224C53.248 302.458 53.424 302.746 53.552 303.088C53.6907 303.418 53.76 303.792 53.76 304.208C53.76 304.72 53.648 305.178 53.424 305.584C53.2107 305.989 52.9173 306.325 52.544 306.592C52.1813 306.858 51.76 307.056 51.28 307.184C50.8 307.322 50.288 307.392 49.744 307.392Z" fill="#111927"/>
<path d="M285.512 307.264L294.872 293.872H296.2L286.84 307.264H285.512ZM294.776 307.424C294.243 307.424 293.779 307.322 293.384 307.12C292.989 306.917 292.664 306.634 292.408 306.272C292.163 305.909 291.976 305.482 291.848 304.992C291.731 304.501 291.672 303.957 291.672 303.36C291.672 302.762 291.731 302.224 291.848 301.744C291.976 301.253 292.163 300.826 292.408 300.464C292.664 300.101 292.989 299.824 293.384 299.632C293.779 299.429 294.243 299.328 294.776 299.328C295.299 299.328 295.757 299.429 296.152 299.632C296.547 299.824 296.872 300.101 297.128 300.464C297.384 300.816 297.571 301.237 297.688 301.728C297.816 302.218 297.88 302.762 297.88 303.36C297.88 303.957 297.816 304.506 297.688 305.008C297.571 305.498 297.384 305.925 297.128 306.288C296.872 306.64 296.547 306.917 296.152 307.12C295.757 307.322 295.299 307.424 294.776 307.424ZM294.776 306.336C295.373 306.336 295.848 306.101 296.2 305.632C296.552 305.152 296.728 304.394 296.728 303.36C296.728 302.325 296.552 301.573 296.2 301.104C295.848 300.634 295.373 300.4 294.776 300.4C294.179 300.4 293.704 300.634 293.352 301.104C293 301.573 292.824 302.325 292.824 303.36C292.824 304.394 293 305.152 293.352 305.632C293.715 306.101 294.189 306.336 294.776 306.336ZM286.936 301.792C286.403 301.792 285.939 301.69 285.544 301.488C285.149 301.285 284.824 301.002 284.568 300.64C284.323 300.277 284.136 299.85 284.008 299.36C283.891 298.869 283.832 298.325 283.832 297.728C283.832 297.13 283.891 296.592 284.008 296.112C284.136 295.621 284.323 295.194 284.568 294.832C284.824 294.469 285.149 294.192 285.544 294C285.939 293.797 286.403 293.696 286.936 293.696C287.459 293.696 287.917 293.797 288.312 294C288.707 294.192 289.032 294.469 289.288 294.832C289.544 295.184 289.731 295.605 289.848 296.096C289.976 296.586 290.04 297.13 290.04 297.728C290.04 298.325 289.976 298.874 289.848 299.376C289.731 299.866 289.544 300.293 289.288 300.656C289.032 301.008 288.707 301.285 288.312 301.488C287.917 301.69 287.459 301.792 286.936 301.792ZM286.936 300.704C287.533 300.704 288.008 300.469 288.36 300C288.712 299.52 288.888 298.762 288.888 297.728C288.888 296.693 288.712 295.941 288.36 295.472C288.008 295.002 287.533 294.768 286.936 294.768C286.339 294.768 285.864 295.002 285.512 295.472C285.16 295.941 284.984 296.693 284.984 297.728C284.984 298.762 285.16 299.52 285.512 300C285.875 300.469 286.349 300.704 286.936 300.704Z" fill="#6C737F"/>
</g>
<g filter="url(#filter2_dd_2802_45445)">
<rect x="338" y="289.056" width="190" height="159" rx="4" fill="white"/>
<mask id="mask1_2802_45445" style="mask-type:alpha" maskUnits="userSpaceOnUse" x="352" y="299" width="16" height="17">
<rect x="352" y="299.056" width="16" height="16" fill="#D9D9D9"/>
</mask>
<g mask="url(#mask1_2802_45445)">
<path d="M356.666 313.782C356.3 313.782 355.986 313.651 355.725 313.39C355.463 313.129 355.333 312.815 355.333 312.449C355.333 312.082 355.463 311.768 355.725 311.507C355.986 311.246 356.3 311.115 356.666 311.115C357.033 311.115 357.347 311.246 357.608 311.507C357.869 311.768 358 312.082 358 312.449C358 312.815 357.869 313.129 357.608 313.39C357.347 313.651 357.033 313.782 356.666 313.782ZM363.333 313.782C362.966 313.782 362.652 313.651 362.391 313.39C362.13 313.129 362 312.815 362 312.449C362 312.082 362.13 311.768 362.391 311.507C362.652 311.246 362.966 311.115 363.333 311.115C363.7 311.115 364.013 311.246 364.275 311.507C364.536 311.768 364.666 312.082 364.666 312.449C364.666 312.815 364.536 313.129 364.275 313.39C364.013 313.651 363.7 313.782 363.333 313.782ZM356.199 303.115L357.708 306.265H362.358L364.088 303.115H356.199ZM355.502 301.662H365.184C365.486 301.662 365.716 301.796 365.874 302.064C366.032 302.332 366.038 302.603 365.892 302.879L363.617 306.99C363.489 307.221 363.318 307.4 363.103 307.529C362.888 307.658 362.653 307.722 362.398 307.722H357.467L356.77 308.996H364C364.205 308.996 364.378 309.065 364.517 309.205C364.656 309.344 364.726 309.516 364.726 309.722C364.726 309.928 364.656 310.101 364.517 310.24C364.378 310.379 364.205 310.449 364 310.449H356.666C356.137 310.449 355.739 310.219 355.473 309.758C355.207 309.298 355.197 308.842 355.444 308.39L356.332 306.789L353.964 301.782H353.333C353.127 301.782 352.955 301.712 352.815 301.573C352.676 301.434 352.606 301.261 352.606 301.056C352.606 300.85 352.676 300.677 352.815 300.538C352.955 300.399 353.127 300.329 353.333 300.329H354.392C354.533 300.329 354.667 300.367 354.793 300.443C354.919 300.518 355.013 300.626 355.076 300.764L355.502 301.662Z" fill="#1C1B1F"/>
</g>
<path d="M353.056 344.056L359.696 332.984H352.448V331.08H362V332.984L355.536 344.056H353.056ZM368.456 344.056V340.888H361.544V338.968L367.848 331.08H370.52V338.968H372.648V340.888H370.52V344.056H368.456ZM363.768 338.968H368.456V333.16L363.768 338.968ZM379.46 335C382.244 335 384.116 336.808 384.116 339.448V339.496C384.116 342.344 382.132 344.232 379.124 344.248C376.036 344.248 374.004 342.392 373.988 339.528V339.496C373.988 338.024 374.82 336.632 375.46 335.8C376.564 334.376 378.02 332.424 379.06 331.08H381.412C380.5 332.248 379.268 333.8 378.212 335.16C378.628 335.048 379.06 335 379.46 335ZM382.036 339.624V339.592C382.036 337.928 380.852 336.824 379.076 336.808C377.284 336.808 376.084 337.912 376.084 339.592V339.624C376.084 341.288 377.284 342.376 379.076 342.376C380.852 342.36 382.036 341.272 382.036 339.624ZM391.273 335C394.057 335 395.929 336.808 395.929 339.448V339.496C395.929 342.344 393.945 344.232 390.937 344.248C387.849 344.248 385.817 342.392 385.801 339.528V339.496C385.801 338.024 386.633 336.632 387.273 335.8C388.377 334.376 389.833 332.424 390.873 331.08H393.225C392.313 332.248 391.081 333.8 390.025 335.16C390.441 335.048 390.873 335 391.273 335ZM393.849 339.624V339.592C393.849 337.928 392.665 336.824 390.889 336.808C389.097 336.808 387.897 337.912 387.897 339.592V339.624C387.897 341.288 389.097 342.376 390.889 342.376C392.665 342.36 393.849 341.272 393.849 339.624ZM397.525 344.056L404.165 332.984H396.917V331.08H406.469V332.984L400.005 344.056H397.525ZM407.723 344.056V342.184C411.099 339.608 414.155 337.448 414.155 335.016V334.856C414.155 333.464 413.163 332.856 411.627 332.856C410.571 332.856 409.451 333.192 408.603 333.672L407.771 331.928C408.859 331.304 410.411 330.888 411.979 330.888C414.731 330.888 416.315 332.264 416.331 334.6V334.728C416.331 337.496 414.475 339.496 410.795 342.088H416.411V344.056H407.723ZM425.137 337.272C426.561 337.752 427.185 338.984 427.185 340.472V340.52C427.185 342.872 425.281 344.232 422.145 344.232C420.609 344.232 418.849 343.736 417.681 342.904L418.641 341.144C419.569 341.88 420.721 342.264 421.841 342.264C423.921 342.264 425.089 341.576 425.089 340.28V340.216C425.089 338.84 423.969 338.296 421.809 338.296H421.217V336.488H421.809C423.713 336.488 424.865 336.008 424.865 334.728V334.664C424.865 333.48 423.889 332.856 422.001 332.856C420.881 332.856 419.697 333.224 418.753 333.944L417.809 332.2C418.977 331.368 420.737 330.872 422.257 330.872C425.105 330.872 426.929 332.088 426.929 334.28V334.344C426.929 335.544 426.305 336.696 425.137 337.272ZM428.993 344.056L435.634 332.984H428.386V331.08H437.938V332.984L431.474 344.056H428.993ZM446.215 337.272C447.639 337.752 448.263 338.984 448.263 340.472V340.52C448.263 342.872 446.359 344.232 443.223 344.232C441.687 344.232 439.927 343.736 438.759 342.904L439.719 341.144C440.647 341.88 441.799 342.264 442.919 342.264C444.999 342.264 446.167 341.576 446.167 340.28V340.216C446.167 338.84 445.047 338.296 442.887 338.296H442.295V336.488H442.887C444.791 336.488 445.943 336.008 445.943 334.728V334.664C445.943 333.48 444.967 332.856 443.079 332.856C441.959 332.856 440.775 333.224 439.831 333.944L438.887 332.2C440.055 331.368 441.815 330.872 443.335 330.872C446.183 330.872 448.007 332.088 448.007 334.28V334.344C448.007 335.544 447.383 336.696 446.215 337.272Z" fill="#111927"/>
<path d="M356.718 367.702C360.484 367.702 362.85 369.886 362.85 373.33V373.344C362.836 376.83 360.47 379.056 356.718 379.056H353.512V367.702H356.718ZM361.352 373.344V373.33C361.352 370.628 359.686 369.004 356.9 369.004H354.884V377.754H356.9C359.672 377.754 361.338 376.102 361.352 373.344ZM367.422 371.006C369.55 371.006 370.838 371.958 370.838 373.974V378.664C370.082 378.902 368.78 379.196 367.576 379.196C365.224 379.196 363.894 378.272 363.894 376.606V376.592C363.894 374.94 365.168 373.988 367.436 373.988C367.996 373.988 368.724 374.058 369.466 374.156V374.002C369.466 372.91 368.752 372.238 367.1 372.238C366.33 372.238 365.294 372.406 364.454 372.784L364.748 371.51C365.42 371.202 366.442 371.006 367.422 371.006ZM365.294 376.564C365.294 377.488 366.036 377.922 367.576 377.922C368.108 377.922 368.892 377.824 369.466 377.684V375.416C369.172 375.36 368.22 375.234 367.576 375.234C366.036 375.234 365.294 375.668 365.294 376.564ZM376.648 379.056C374.604 379.056 373.96 378.244 373.96 376.606V372.532H372.476V371.272H373.96V368.43H375.332V371.272H378.398V372.532H375.332V376.186C375.332 377.432 375.934 377.782 377.11 377.782H378.426V379.056H376.648ZM387.237 374.898C387.237 375.052 387.237 375.43 387.223 375.584H380.867C381.063 377.082 382.085 377.992 383.639 377.992C384.661 377.992 385.529 377.754 386.159 377.39L386.747 378.468C385.935 378.902 384.885 379.21 383.555 379.21C381.091 379.21 379.467 377.572 379.467 375.122C379.467 372.658 381.077 371.006 383.471 371.006C385.725 371.006 387.237 372.56 387.237 374.898ZM383.443 372.238C382.001 372.238 381.105 373.036 380.895 374.394H385.879C385.795 373.064 384.871 372.238 383.443 372.238ZM389.178 373.638C388.66 373.638 388.184 373.316 388.184 372.728C388.184 372.182 388.632 371.818 389.178 371.818C389.724 371.818 390.172 372.182 390.172 372.728C390.172 373.316 389.696 373.638 389.178 373.638ZM389.178 379.196C388.66 379.196 388.184 378.874 388.184 378.286C388.184 377.74 388.632 377.376 389.178 377.376C389.724 377.376 390.172 377.74 390.172 378.286C390.172 378.874 389.696 379.196 389.178 379.196ZM396.158 379.056V369.088L393.652 369.746V368.486L397.544 367.618V379.056H396.158ZM405.471 373.12C406.857 373.484 407.529 374.562 407.529 375.92V375.976C407.529 377.992 405.891 379.196 403.189 379.196C401.873 379.196 400.445 378.79 399.437 378.09L400.081 376.886C400.935 377.544 401.957 377.88 402.993 377.88C404.897 377.88 406.101 377.166 406.101 375.878V375.822C406.101 374.436 404.925 373.82 402.839 373.82H402.489V372.56H402.839C404.645 372.56 405.877 372 405.877 370.726V370.684C405.877 369.494 404.855 368.864 403.147 368.864C402.139 368.864 401.075 369.186 400.221 369.83L399.577 368.64C400.571 367.94 402.013 367.534 403.315 367.534C405.765 367.534 407.263 368.57 407.263 370.432V370.488C407.263 371.636 406.633 372.658 405.471 373.12ZM407.24 381.156L414.814 367.702H416.326L408.752 381.156H407.24ZM418.963 379.056V369.088L416.457 369.746V368.486L420.349 367.618V379.056H418.963ZM422.535 379.056V377.824C426.539 374.926 428.947 372.896 428.947 370.936V370.922C428.947 369.606 427.911 368.864 426.301 368.864C425.237 368.864 424.271 369.214 423.403 369.858L422.801 368.64C423.809 367.926 425.125 367.52 426.483 367.52C428.793 367.52 430.361 368.584 430.361 370.642V370.67C430.361 372.952 428.793 374.786 424.705 377.754H430.613V379.056H422.535ZM431.179 381.156L438.753 367.702H440.265L432.691 381.156H431.179ZM440.733 379.056V377.824C444.737 374.926 447.145 372.896 447.145 370.936V370.922C447.145 369.606 446.109 368.864 444.499 368.864C443.435 368.864 442.469 369.214 441.601 369.858L440.999 368.64C442.007 367.926 443.323 367.52 444.681 367.52C446.991 367.52 448.559 368.584 448.559 370.642V370.67C448.559 372.952 446.991 374.786 442.903 377.754H448.811V379.056H440.733ZM455.132 379.224C452.346 379.224 450.568 377.124 450.568 373.4V373.386C450.568 369.634 452.346 367.52 455.132 367.52C457.918 367.52 459.696 369.634 459.696 373.386V373.4C459.696 377.124 457.918 379.224 455.132 379.224ZM455.132 377.908C457.064 377.908 458.268 376.284 458.268 373.4V373.386C458.268 370.474 457.064 368.822 455.132 368.822C453.186 368.822 451.996 370.474 451.996 373.386V373.4C451.996 376.284 453.186 377.908 455.132 377.908ZM460.83 379.056V377.824C464.834 374.926 467.242 372.896 467.242 370.936V370.922C467.242 369.606 466.206 368.864 464.596 368.864C463.532 368.864 462.566 369.214 461.698 369.858L461.096 368.64C462.104 367.926 463.42 367.52 464.778 367.52C467.088 367.52 468.656 368.584 468.656 370.642V370.67C468.656 372.952 467.088 374.786 463 377.754H468.908V379.056H460.83ZM476.25 373.12C477.636 373.484 478.308 374.562 478.308 375.92V375.976C478.308 377.992 476.67 379.196 473.968 379.196C472.652 379.196 471.224 378.79 470.216 378.09L470.86 376.886C471.714 377.544 472.736 377.88 473.772 377.88C475.676 377.88 476.88 377.166 476.88 375.878V375.822C476.88 374.436 475.704 373.82 473.618 373.82H473.268V372.56H473.618C475.424 372.56 476.656 372 476.656 370.726V370.684C476.656 369.494 475.634 368.864 473.926 368.864C472.918 368.864 471.854 369.186 471 369.83L470.356 368.64C471.35 367.94 472.792 367.534 474.094 367.534C476.544 367.534 478.042 368.57 478.042 370.432V370.488C478.042 371.636 477.412 372.658 476.25 373.12Z" fill="#6C737F"/>
<path d="M358.286 405.224C354.856 405.224 352.7 402.578 352.7 399.358V399.344C352.7 396.11 354.842 393.52 358.286 393.52H358.3C361.744 393.52 363.9 396.11 363.9 399.344V399.358C363.886 402.578 361.73 405.224 358.3 405.224H358.286ZM358.286 403.866H358.314C360.792 403.866 362.5 401.906 362.5 399.344V399.33C362.5 396.754 360.82 394.878 358.314 394.878H358.286C355.766 394.878 354.086 396.754 354.086 399.33V399.344C354.1 401.906 355.78 403.866 358.286 403.866ZM365.712 405.056V397.664C366.748 397.356 367.77 397.258 368.596 397.258H369.954V398.574C369.45 398.574 369.296 398.56 368.75 398.56C368.274 398.56 367.434 398.602 367.084 398.77V405.056H365.712ZM376.872 393.702H378.272V404.804C377.376 405.084 376.214 405.294 375.276 405.294C372.518 405.294 370.908 403.698 370.908 401.178V401.164C370.908 398.574 372.63 397.09 375.262 397.09C375.766 397.09 376.312 397.146 376.872 397.23V393.702ZM375.234 404.034C375.696 404.034 376.326 403.978 376.872 403.852V398.574C376.256 398.42 375.71 398.35 375.22 398.35C373.302 398.35 372.252 399.498 372.252 401.164V401.192C372.252 402.956 373.414 404.034 375.234 404.034ZM387.893 400.898C387.893 401.052 387.893 401.43 387.879 401.584H381.523C381.719 403.082 382.741 403.992 384.295 403.992C385.317 403.992 386.185 403.754 386.815 403.39L387.403 404.468C386.591 404.902 385.541 405.21 384.211 405.21C381.747 405.21 380.123 403.572 380.123 401.122C380.123 398.658 381.733 397.006 384.127 397.006C386.381 397.006 387.893 398.56 387.893 400.898ZM384.099 398.238C382.657 398.238 381.761 399.036 381.551 400.394H386.535C386.451 399.064 385.527 398.238 384.099 398.238ZM389.556 405.056V397.664C390.592 397.356 391.614 397.258 392.44 397.258H393.798V398.574C393.294 398.574 393.14 398.56 392.594 398.56C392.118 398.56 391.278 398.602 390.928 398.77V405.056H389.556ZM395.699 399.638C395.181 399.638 394.705 399.316 394.705 398.728C394.705 398.182 395.153 397.818 395.699 397.818C396.245 397.818 396.693 398.182 396.693 398.728C396.693 399.316 396.217 399.638 395.699 399.638ZM395.699 405.196C395.181 405.196 394.705 404.874 394.705 404.286C394.705 403.74 395.153 403.376 395.699 403.376C396.245 403.376 396.693 403.74 396.693 404.286C396.693 404.874 396.217 405.196 395.699 405.196ZM405.228 397.202C407.622 397.202 409.274 398.798 409.274 401.08V401.108C409.274 403.6 407.594 405.21 404.99 405.224C402.344 405.224 400.636 403.642 400.636 401.136V401.094C400.636 399.89 401.294 398.728 401.84 398.014C402.792 396.698 404.122 394.948 405.06 393.702H406.628C405.774 394.822 404.724 396.208 403.772 397.44C404.248 397.258 404.752 397.202 405.228 397.202ZM407.86 401.234V401.206C407.86 399.554 406.726 398.462 404.962 398.448C403.198 398.448 402.05 399.54 402.05 401.206V401.234C402.05 402.886 403.198 403.964 404.962 403.964C406.726 403.95 407.86 402.872 407.86 401.234ZM414.856 397.636C417.068 397.636 418.986 398.896 418.986 401.458V401.486C418.972 403.88 417.194 405.224 414.562 405.224C413.12 405.224 411.762 404.818 410.628 404.118L411.244 402.872C412.098 403.53 413.302 403.88 414.394 403.88C416.326 403.88 417.558 402.998 417.572 401.458V401.444C417.572 399.694 416.256 398.938 414.142 398.938C413.176 398.938 412.168 399.162 411.314 399.428L411.958 393.702H418.412V395.004H413.218L412.896 397.846C413.386 397.734 414.044 397.636 414.856 397.636ZM426.587 405.056V402.172H420.371V400.87L426.195 393.702H427.973V400.87H429.961V402.172H427.973V405.056H426.587ZM421.897 400.87H426.587V395.13L421.897 400.87Z" fill="#6C737F"/>
<path d="M357.334 419.702C360.232 419.702 361.31 421.228 361.31 423.104V423.118C361.296 425.358 359.882 426.674 357.348 426.674H354.884V431.056H353.512V419.702H357.334ZM359.924 423.16V423.146C359.924 421.578 358.916 420.99 357.278 420.99H354.884V425.386H357.278C359.182 425.386 359.924 424.532 359.924 423.16ZM362.854 431.056V423.664C363.89 423.356 364.912 423.258 365.738 423.258H367.096V424.574C366.592 424.574 366.438 424.56 365.892 424.56C365.416 424.56 364.576 424.602 364.226 424.77V431.056H362.854ZM369.628 422.166C369.11 422.166 368.648 421.858 368.648 421.27C368.648 420.738 369.082 420.374 369.628 420.374C370.16 420.374 370.594 420.738 370.594 421.27C370.594 421.858 370.132 422.166 369.628 422.166ZM368.914 431.056V423.272H370.314V431.056H368.914ZM376.268 431.21C373.79 431.21 372.194 429.614 372.18 427.122V427.108C372.208 424.658 373.846 423.02 376.282 423.02C377.248 423.02 378.144 423.216 378.9 423.58L378.354 424.756C377.724 424.448 377.066 424.308 376.296 424.308C374.658 424.308 373.608 425.4 373.58 427.108V427.122C373.594 428.83 374.658 429.922 376.31 429.922C377.08 429.922 377.794 429.768 378.368 429.46L378.914 430.65C378.144 431.014 377.248 431.21 376.268 431.21ZM387.524 426.898C387.524 427.052 387.524 427.43 387.51 427.584H381.154C381.35 429.082 382.372 429.992 383.926 429.992C384.948 429.992 385.816 429.754 386.446 429.39L387.034 430.468C386.222 430.902 385.172 431.21 383.842 431.21C381.378 431.21 379.754 429.572 379.754 427.122C379.754 424.658 381.364 423.006 383.758 423.006C386.012 423.006 387.524 424.56 387.524 426.898ZM383.73 424.238C382.288 424.238 381.392 425.036 381.182 426.394H386.166C386.082 425.064 385.158 424.238 383.73 424.238ZM389.465 425.638C388.947 425.638 388.471 425.316 388.471 424.728C388.471 424.182 388.919 423.818 389.465 423.818C390.011 423.818 390.459 424.182 390.459 424.728C390.459 425.316 389.983 425.638 389.465 425.638ZM389.465 431.196C388.947 431.196 388.471 430.874 388.471 430.286C388.471 429.74 388.919 429.376 389.465 429.376C390.011 429.376 390.459 429.74 390.459 430.286C390.459 430.874 389.983 431.196 389.465 431.196ZM399.89 431.224C396.46 431.224 394.304 428.578 394.304 425.358V425.344C394.304 422.11 396.446 419.52 399.89 419.52H399.904C403.348 419.52 405.504 422.11 405.504 425.344V425.358C405.49 428.578 403.334 431.224 399.904 431.224H399.89ZM399.89 429.866H399.918C402.396 429.866 404.104 427.906 404.104 425.344V425.33C404.104 422.754 402.424 420.878 399.918 420.878H399.89C397.37 420.878 395.69 422.754 395.69 425.33V425.344C395.704 427.906 397.384 429.866 399.89 429.866ZM416.779 419.702H418.515V431.056H417.143V422.026L417.017 422.46L413.769 431.056H412.467L409.191 422.446L409.079 422.054V431.056H407.707V419.702H409.443L412.705 428.256L413.125 429.712L413.531 428.27L416.779 419.702ZM428.529 431.056L425.505 426.352H422.915V431.056H421.543V419.702H425.827C428.543 419.702 429.817 420.99 429.817 422.936V422.95C429.817 424.658 428.795 425.904 426.961 426.254L430.069 431.056H428.529ZM422.915 420.99V425.134H425.967C427.465 425.134 428.417 424.35 428.417 423.006V422.992C428.417 421.662 427.451 420.99 425.967 420.99H422.915ZM433.965 431.056V429.824C437.969 426.926 440.377 424.896 440.377 422.936V422.922C440.377 421.606 439.341 420.864 437.731 420.864C436.667 420.864 435.701 421.214 434.833 421.858L434.231 420.64C435.239 419.926 436.555 419.52 437.913 419.52C440.223 419.52 441.791 420.584 441.791 422.642V422.67C441.791 424.952 440.223 426.786 436.135 429.754H442.043V431.056H433.965ZM448.364 431.224C445.578 431.224 443.8 429.124 443.8 425.4V425.386C443.8 421.634 445.578 419.52 448.364 419.52C451.15 419.52 452.928 421.634 452.928 425.386V425.4C452.928 429.124 451.15 431.224 448.364 431.224ZM448.364 429.908C450.296 429.908 451.5 428.284 451.5 425.4V425.386C451.5 422.474 450.296 420.822 448.364 420.822C446.418 420.822 445.228 422.474 445.228 425.386V425.4C445.228 428.284 446.418 429.908 448.364 429.908Z" fill="#6C737F"/>
</g>
<defs>
<filter id="filter0_d_2802_45445" x="155.492" y="19.1014" width="365.017" height="137.442" filterUnits="userSpaceOnUse" color-interpolation-filters="sRGB">
<feFlood flood-opacity="0" result="BackgroundImageFix"/>
<feColorMatrix in="SourceAlpha" type="matrix" values="0 0 0 0 0 0 0 0 0 0 0 0 0 0 0 0 0 0 127 0" result="hardAlpha"/>
<feOffset dy="1.1728"/>
<feGaussianBlur stdDeviation="10.5552"/>
<feColorMatrix type="matrix" values="0 0 0 0 0 0 0 0 0 0 0 0 0 0 0 0 0 0 0.08 0"/>
<feBlend mode="normal" in2="BackgroundImageFix" result="effect1_dropShadow_2802_45445"/>
<feBlend mode="normal" in="SourceGraphic" in2="effect1_dropShadow_2802_45445" result="shape"/>
</filter>
<filter id="filter1_d_2802_45445" x="0" y="133.056" width="341" height="228" filterUnits="userSpaceOnUse" color-interpolation-filters="sRGB">
<feFlood flood-opacity="0" result="BackgroundImageFix"/>
<feColorMatrix in="SourceAlpha" type="matrix" values="0 0 0 0 0 0 0 0 0 0 0 0 0 0 0 0 0 0 127 0" result="hardAlpha"/>
<feOffset dy="1"/>
<feGaussianBlur stdDeviation="9"/>
<feColorMatrix type="matrix" values="0 0 0 0 0 0 0 0 0 0 0 0 0 0 0 0 0 0 0.08 0"/>
<feBlend mode="normal" in2="BackgroundImageFix" result="effect1_dropShadow_2802_45445"/>
<feBlend mode="normal" in="SourceGraphic" in2="effect1_dropShadow_2802_45445" result="shape"/>
</filter>
<filter id="filter2_dd_2802_45445" x="316" y="272.056" width="234" height="203" filterUnits="userSpaceOnUse" color-interpolation-filters="sRGB">
<feFlood flood-opacity="0" result="BackgroundImageFix"/>
<feColorMatrix in="SourceAlpha" type="matrix" values="0 0 0 0 0 0 0 0 0 0 0 0 0 0 0 0 0 0 127 0" result="hardAlpha"/>
<feOffset dy="5"/>
<feGaussianBlur stdDeviation="11"/>
<feComposite in2="hardAlpha" operator="out"/>
<feColorMatrix type="matrix" values="0 0 0 0 0 0 0 0 0 0 0 0 0 0 0 0 0 0 0.04 0"/>
<feBlend mode="normal" in2="BackgroundImageFix" result="effect1_dropShadow_2802_45445"/>
<feColorMatrix in="SourceAlpha" type="matrix" values="0 0 0 0 0 0 0 0 0 0 0 0 0 0 0 0 0 0 127 0" result="hardAlpha"/>
<feMorphology radius="0.5" operator="dilate" in="SourceAlpha" result="effect2_dropShadow_2802_45445"/>
<feOffset/>
<feComposite in2="hardAlpha" operator="out"/>
<feColorMatrix type="matrix" values="0 0 0 0 0 0 0 0 0 0 0 0 0 0 0 0 0 0 0.03 0"/>
<feBlend mode="normal" in2="effect1_dropShadow_2802_45445" result="effect2_dropShadow_2802_45445"/>
<feBlend mode="normal" in="SourceGraphic" in2="effect2_dropShadow_2802_45445" result="shape"/>
</filter>
<clipPath id="clip0_2802_45445">
<rect x="188.33" y="56.1567" width="60.9857" height="60.9857" rx="30.4929" fill="white"/>
</clipPath>
<clipPath id="clip1_2802_45445">
<rect width="112.5" height="56" fill="white" transform="translate(186.5 202.056)"/>
</clipPath>
</defs>
</svg>
