<svg width="33" height="33" viewBox="0 0 33 33" fill="none" xmlns="http://www.w3.org/2000/svg">
<g id="arrow_forward">
<mask id="mask0_2802_41024" style="mask-type:alpha" maskUnits="userSpaceOnUse" x="0" y="0" width="33" height="33">
<rect id="Bounding box" x="0.523193" y="0.5" width="32" height="32" fill="#D9D9D9"/>
</mask>
<g mask="url(#mask0_2802_41024)">
<path id="arrow_forward_2" d="M21.6514 18.0165H7.10215C6.67653 18.0165 6.31734 17.8701 6.02458 17.5773C5.73183 17.2846 5.58545 16.9254 5.58545 16.4998C5.58545 16.0742 5.73183 15.715 6.02458 15.4223C6.31734 15.1295 6.67653 14.9831 7.10215 14.9831H21.6514L15.4289 8.76068C15.1251 8.45681 14.9774 8.10053 14.9858 7.69184C14.9943 7.28315 15.1504 6.92688 15.4543 6.62301C15.7582 6.34136 16.1145 6.19631 16.5231 6.18784C16.9318 6.1794 17.2881 6.32711 17.592 6.63098L26.392 15.431C26.5413 15.5802 26.6503 15.7459 26.7192 15.9281C26.788 16.1102 26.8224 16.3008 26.8224 16.4998C26.8224 16.6989 26.788 16.8894 26.7192 17.0715C26.6503 17.2537 26.5413 17.4194 26.392 17.5686L17.584 26.3766C17.2971 26.6636 16.9463 26.8071 16.5318 26.8071C16.1174 26.8071 15.7582 26.6636 15.4543 26.3766C15.1504 26.0727 14.9985 25.7122 14.9985 25.2951C14.9985 24.878 15.1504 24.5174 15.4543 24.2136L21.6514 18.0165Z" fill="#005394"/>
</g>
</g>
</svg>
