<svg width="33" height="33" viewBox="0 0 33 33" fill="none" xmlns="http://www.w3.org/2000/svg">
<g id="arrow_back">
<mask id="mask0_2802_41021" style="mask-type:alpha" maskUnits="userSpaceOnUse" x="0" y="0" width="33" height="33">
<rect id="Bounding box" x="0.841064" y="0.5" width="32" height="32" fill="#D9D9D9"/>
</mask>
<g mask="url(#mask0_2802_41021)">
<path id="arrow_back_2" d="M11.7127 18.0168L17.9352 24.2393C18.2391 24.5431 18.3868 24.8994 18.3783 25.3081C18.3699 25.7168 18.2137 26.0731 17.9098 26.3769C17.606 26.6586 17.2497 26.8036 16.841 26.8121C16.4323 26.8206 16.076 26.6728 15.7722 26.369L6.97218 17.569C6.82289 17.4197 6.71383 17.254 6.64498 17.0719C6.57616 16.8898 6.54175 16.6992 6.54175 16.5001C6.54175 16.3011 6.57616 16.1105 6.64498 15.9284C6.71383 15.7463 6.82289 15.5806 6.97218 15.4313L15.7801 6.62334C16.0671 6.33636 16.4178 6.19287 16.8323 6.19287C17.2468 6.19287 17.606 6.33636 17.9098 6.62334C18.2137 6.9272 18.3656 7.2877 18.3656 7.70484C18.3656 8.12199 18.2137 8.4825 17.9098 8.78637L11.7127 14.9835H26.262C26.6876 14.9835 27.0468 15.1299 27.3396 15.4226C27.6323 15.7154 27.7787 16.0745 27.7787 16.5001C27.7787 16.9257 27.6323 17.2849 27.3396 17.5777C27.0468 17.8704 26.6876 18.0168 26.262 18.0168H11.7127Z" fill="#005394"/>
</g>
</g>
</svg>
