<svg width="563" height="519" viewBox="0 0 563 519" fill="none" xmlns="http://www.w3.org/2000/svg">
<circle opacity="0.1" cx="38.7361" cy="38.7361" r="38.7361" transform="matrix(1 0 0 -1 484.894 283.736)" fill="#FF9800"/>
<circle opacity="0.1" cx="226.63" cy="276" r="61.8854" fill="#3375A9"/>
<g filter="url(#filter0_d_2802_41781)">
<g clip-path="url(#clip0_2802_41781)">
<rect x="19.9924" y="19.2085" width="418.085" height="269.585" rx="11.4231" fill="white"/>
<path d="M37.8536 38.1476C40.0743 38.1476 40.8556 39.4739 40.8556 40.8309V40.8412C40.8453 42.4039 39.8892 43.6479 37.8639 43.6479H36.4966V46.4854H34.5741V38.1476H37.8536ZM38.9331 40.8926V40.8823C38.9331 40.1832 38.5219 39.9365 37.7097 39.9365H36.4966V41.859H37.7097C38.5938 41.859 38.9228 41.53 38.9331 40.8926ZM41.7379 46.4854V40.7384C42.6632 40.5431 43.7427 40.4917 44.3492 40.4917H45.5212V42.2702C45.038 42.2702 45.0997 42.26 44.6062 42.26C44.4623 42.26 43.7735 42.2805 43.6707 42.3216V46.4854H41.7379ZM49.3668 46.6293C47.4546 46.6293 46.0153 45.3339 46.0153 43.4628V43.4525C46.0153 41.5711 47.4546 40.2346 49.3668 40.2346H49.3771C51.3202 40.2346 52.7595 41.5711 52.7595 43.4525V43.4628C52.7595 45.3339 51.3202 46.6293 49.3771 46.6293H49.3668ZM49.3771 44.8507H49.3874C50.2715 44.8507 50.8267 44.2544 50.8267 43.4628V43.4525C50.8267 42.6403 50.2715 42.0338 49.3874 42.0338H49.3771C48.5135 42.0338 47.9583 42.6403 47.9583 43.4525V43.4628C47.9583 44.2544 48.5135 44.8507 49.3771 44.8507ZM54.2297 46.4854V42.2805H53.2222V40.4917H54.2297V40.0187C54.2297 38.5794 54.8568 38.1476 56.7485 38.1476H58.2803V39.772H57.0363C56.3784 39.772 56.1522 39.9159 56.1522 40.3477V40.4917H58.27V42.2805H56.1522V46.4854H54.2297ZM60.4459 39.7617C59.9113 39.7617 59.4281 39.4739 59.4281 38.857C59.4281 38.3121 59.8701 37.9523 60.4459 37.9523C61.0113 37.9523 61.4534 38.3121 61.4534 38.857C61.4534 39.4739 60.9702 39.7617 60.4459 39.7617ZM59.4692 46.4854V40.4917H61.402V46.4854H59.4692ZM65.2997 46.4854C63.8604 46.4854 63.3052 45.8685 63.3052 44.532V42.26H62.3183V40.4917H63.3052V38.3738H65.2277V40.4917H67.325V42.26H65.2277V43.946C65.2277 44.4806 65.4847 44.7068 66.0913 44.7068H67.3353V46.4854H65.2997ZM70.7682 46.6293C69.8019 46.6293 68.928 46.4545 68.0541 46.0741L68.5579 44.604C69.2878 44.9021 69.9972 45.046 70.5935 45.046C71.2 45.046 71.5907 45.0152 71.5907 44.7273C71.5907 44.4498 71.4159 44.4189 70.6654 44.2339C70.4804 44.1927 70.2953 44.1413 70.1103 44.1002C68.8663 43.8021 68.27 43.1235 68.27 42.0955C68.27 40.9646 69.1644 40.2449 70.7785 40.2449C71.7141 40.2449 72.6702 40.4505 73.287 40.7898L72.7422 42.26C72.2076 42.0029 71.5496 41.8282 71.015 41.8282C70.5318 41.8282 70.2439 41.8796 70.2439 42.1057C70.2439 42.373 70.5421 42.4142 71.0972 42.5581C71.2309 42.5889 71.3645 42.6301 71.4982 42.6609C72.8347 43.0002 73.4515 43.6684 73.4515 44.6143C73.4515 45.9713 72.5879 46.6293 70.7682 46.6293Z" fill="#111927"/>
<circle cx="362.283" cy="78.3315" r="2.28462" fill="#0288D1" fill-opacity="0.5"/>
<path d="M373.021 76.97C372.987 76.6823 372.849 76.4589 372.607 76.2999C372.364 76.1409 372.067 76.0613 371.715 76.0613C371.458 76.0613 371.232 76.103 371.039 76.1863C370.848 76.2696 370.698 76.3841 370.591 76.5299C370.485 76.6756 370.432 76.8413 370.432 77.0268C370.432 77.182 370.468 77.3155 370.542 77.4272C370.618 77.537 370.715 77.6288 370.832 77.7026C370.949 77.7745 371.072 77.8342 371.201 77.8815C371.33 77.9269 371.448 77.9638 371.556 77.9922L372.147 78.1513C372.298 78.191 372.467 78.2459 372.652 78.3159C372.839 78.386 373.018 78.4816 373.189 78.6027C373.361 78.722 373.503 78.8753 373.615 79.0627C373.726 79.2502 373.782 79.4802 373.782 79.7528C373.782 80.067 373.7 80.351 373.535 80.6046C373.372 80.8583 373.134 81.0599 372.82 81.2094C372.507 81.359 372.128 81.4338 371.681 81.4338C371.264 81.4338 370.904 81.3666 370.599 81.2322C370.296 81.0978 370.058 80.9103 369.884 80.6699C369.711 80.4295 369.614 80.1503 369.591 79.8323H370.318C370.337 80.0519 370.411 80.2336 370.539 80.3775C370.67 80.5194 370.835 80.6254 371.034 80.6955C371.234 80.7636 371.45 80.7977 371.681 80.7977C371.95 80.7977 372.191 80.7542 372.405 80.6671C372.619 80.5781 372.788 80.4551 372.913 80.2979C373.038 80.1389 373.101 79.9534 373.101 79.7414C373.101 79.5483 373.047 79.3912 372.939 79.27C372.831 79.1489 372.689 79.0504 372.513 78.9747C372.337 78.899 372.147 78.8327 371.942 78.776L371.227 78.5715C370.772 78.4409 370.413 78.2544 370.148 78.0121C369.883 77.7698 369.75 77.4527 369.75 77.0609C369.75 76.7353 369.838 76.4513 370.014 76.209C370.192 75.9648 370.431 75.7755 370.73 75.6411C371.031 75.5048 371.367 75.4366 371.738 75.4366C372.113 75.4366 372.446 75.5039 372.737 75.6383C373.029 75.7708 373.26 75.9525 373.43 76.1834C373.602 76.4144 373.693 76.6766 373.703 76.97H373.021ZM376.133 81.4338C375.856 81.4338 375.605 81.3817 375.38 81.2776C375.155 81.1716 374.976 81.0192 374.843 80.8204C374.711 80.6198 374.645 80.3775 374.645 80.0935C374.645 79.8436 374.694 79.6411 374.792 79.4858C374.891 79.3287 375.022 79.2057 375.187 79.1167C375.352 79.0277 375.534 78.9615 375.732 78.9179C375.933 78.8725 376.135 78.8365 376.337 78.81C376.602 78.776 376.817 78.7504 376.982 78.7334C377.148 78.7144 377.269 78.6832 377.345 78.6397C377.423 78.5961 377.462 78.5204 377.462 78.4125V78.3898C377.462 78.1096 377.385 77.8919 377.232 77.7367C377.08 77.5815 376.85 77.5038 376.542 77.5038C376.222 77.5038 375.971 77.5739 375.789 77.714C375.607 77.854 375.48 78.0036 375.406 78.1626L374.77 77.9354C374.883 77.6704 375.035 77.4641 375.224 77.3164C375.415 77.1669 375.623 77.0628 375.849 77.0041C376.076 76.9435 376.299 76.9132 376.519 76.9132C376.659 76.9132 376.82 76.9302 377.002 76.9643C377.185 76.9965 377.362 77.0637 377.533 77.1659C377.705 77.2682 377.848 77.4224 377.961 77.6288C378.075 77.8351 378.132 78.1115 378.132 78.4579V81.3315H377.462V80.7409H377.427C377.382 80.8356 377.306 80.9368 377.2 81.0447C377.094 81.1527 376.953 81.2445 376.777 81.3202C376.601 81.3959 376.386 81.4338 376.133 81.4338ZM376.235 80.8318C376.5 80.8318 376.723 80.7797 376.905 80.6756C377.089 80.5715 377.227 80.4371 377.32 80.2724C377.414 80.1077 377.462 79.9345 377.462 79.7528V79.1394C377.433 79.1735 377.371 79.2047 377.274 79.2331C377.179 79.2596 377.07 79.2833 376.945 79.3041C376.822 79.323 376.702 79.3401 376.584 79.3552C376.469 79.3685 376.375 79.3798 376.303 79.3893C376.129 79.412 375.966 79.4489 375.815 79.5C375.665 79.5493 375.544 79.624 375.451 79.7244C375.36 79.8228 375.315 79.9572 375.315 80.1276C375.315 80.3604 375.401 80.5365 375.573 80.6557C375.747 80.7731 375.968 80.8318 376.235 80.8318ZM380.025 75.5162V81.3315H379.355V75.5162H380.025ZM383.081 81.4224C382.661 81.4224 382.298 81.3296 381.993 81.1441C381.691 80.9567 381.457 80.6955 381.292 80.3604C381.129 80.0235 381.048 79.6316 381.048 79.1848C381.048 78.7381 381.129 78.3443 381.292 78.0036C381.457 77.661 381.686 77.394 381.979 77.2028C382.275 77.0098 382.619 76.9132 383.013 76.9132C383.24 76.9132 383.464 76.9511 383.686 77.0268C383.907 77.1025 384.109 77.2256 384.291 77.3959C384.472 77.5644 384.617 77.7878 384.725 78.0661C384.833 78.3443 384.887 78.687 384.887 79.094V79.3779H381.525V78.7987H384.205C384.205 78.5526 384.156 78.333 384.058 78.1399C383.961 77.9468 383.823 77.7944 383.643 77.6827C383.465 77.571 383.255 77.5152 383.013 77.5152C382.746 77.5152 382.515 77.5815 382.32 77.714C382.127 77.8446 381.978 78.015 381.874 78.2251C381.77 78.4352 381.718 78.6605 381.718 78.9009V79.2871C381.718 79.6165 381.775 79.8957 381.888 80.1247C382.004 80.3519 382.164 80.5251 382.368 80.6444C382.573 80.7617 382.81 80.8204 383.081 80.8204C383.257 80.8204 383.416 80.7958 383.558 80.7466C383.702 80.6955 383.826 80.6198 383.93 80.5194C384.034 80.4172 384.115 80.2904 384.171 80.1389L384.819 80.3207C384.751 80.5403 384.636 80.7333 384.475 80.8999C384.314 81.0646 384.116 81.1934 383.879 81.2861C383.642 81.377 383.376 81.4224 383.081 81.4224ZM388.996 77.9468L388.394 78.1172C388.356 78.0168 388.3 77.9194 388.226 77.8247C388.154 77.7282 388.056 77.6487 387.931 77.5862C387.806 77.5237 387.646 77.4925 387.451 77.4925C387.184 77.4925 386.962 77.554 386.784 77.677C386.608 77.7982 386.52 77.9525 386.52 78.1399C386.52 78.3065 386.58 78.438 386.701 78.5346C386.823 78.6311 387.012 78.7116 387.269 78.776L387.917 78.935C388.307 79.0296 388.597 79.1744 388.788 79.3694C388.98 79.5625 389.075 79.8114 389.075 80.1162C389.075 80.3661 389.003 80.5895 388.859 80.7864C388.718 80.9832 388.519 81.1385 388.263 81.252C388.008 81.3656 387.71 81.4224 387.372 81.4224C386.927 81.4224 386.559 81.3259 386.267 81.1328C385.975 80.9397 385.791 80.6576 385.713 80.2866L386.349 80.1276C386.41 80.3623 386.524 80.5384 386.693 80.6557C386.863 80.7731 387.086 80.8318 387.36 80.8318C387.673 80.8318 387.921 80.7655 388.104 80.633C388.29 80.4986 388.382 80.3377 388.382 80.1503C388.382 79.9989 388.329 79.872 388.223 79.7698C388.117 79.6657 387.955 79.5881 387.735 79.537L387.008 79.3666C386.609 79.2719 386.315 79.1252 386.128 78.9264C385.942 78.7258 385.85 78.475 385.85 78.174C385.85 77.9279 385.919 77.7102 386.057 77.5209C386.197 77.3316 386.387 77.183 386.628 77.0751C386.87 76.9672 387.144 76.9132 387.451 76.9132C387.883 76.9132 388.222 77.0079 388.468 77.1972C388.716 77.3865 388.892 77.6363 388.996 77.9468Z" fill="#667085"/>
<circle cx="399.846" cy="78.3315" r="2.28462" fill="#0288D1"/>
<path d="M412.084 77.3335H411.38C411.338 77.1309 411.265 76.953 411.161 76.7996C411.059 76.6463 410.934 76.5176 410.786 76.4135C410.641 76.3074 410.479 76.2279 410.301 76.1749C410.123 76.1219 409.937 76.0954 409.744 76.0954C409.392 76.0954 409.073 76.1844 408.787 76.3623C408.503 76.5403 408.277 76.8025 408.109 77.1489C407.942 77.4953 407.859 77.9203 407.859 78.4238C407.859 78.9274 407.942 79.3524 408.109 79.6988C408.277 80.0452 408.503 80.3074 408.787 80.4854C409.073 80.6633 409.392 80.7523 409.744 80.7523C409.937 80.7523 410.123 80.7258 410.301 80.6728C410.479 80.6198 410.641 80.5412 410.786 80.4371C410.934 80.3311 411.059 80.2014 411.161 80.0481C411.265 79.8928 411.338 79.7149 411.38 79.5142H412.084C412.031 79.8114 411.935 80.0774 411.794 80.3121C411.654 80.5469 411.48 80.7466 411.272 80.9113C411.064 81.0741 410.83 81.1981 410.571 81.2833C410.313 81.3685 410.038 81.4111 409.744 81.4111C409.248 81.4111 408.807 81.2899 408.421 81.0476C408.035 80.8053 407.731 80.4607 407.51 80.014C407.288 79.5672 407.177 79.0372 407.177 78.4238C407.177 77.8105 407.288 77.2805 407.51 76.8337C407.731 76.3869 408.035 76.0424 408.421 75.8001C408.807 75.5578 409.248 75.4366 409.744 75.4366C410.038 75.4366 410.313 75.4792 410.571 75.5644C410.83 75.6496 411.064 75.7746 411.272 75.9392C411.48 76.102 411.654 76.3008 411.794 76.5356C411.935 76.7684 412.031 77.0344 412.084 77.3335ZM414.903 81.4224C414.509 81.4224 414.164 81.3287 413.867 81.1413C413.571 80.9539 413.34 80.6917 413.174 80.3547C413.009 80.0178 412.927 79.624 412.927 79.1735C412.927 78.7192 413.009 78.3226 413.174 77.9837C413.34 77.6449 413.571 77.3817 413.867 77.1943C414.164 77.0069 414.509 76.9132 414.903 76.9132C415.297 76.9132 415.641 77.0069 415.937 77.1943C416.234 77.3817 416.465 77.6449 416.629 77.9837C416.796 78.3226 416.879 78.7192 416.879 79.1735C416.879 79.624 416.796 80.0178 416.629 80.3547C416.465 80.6917 416.234 80.9539 415.937 81.1413C415.641 81.3287 415.297 81.4224 414.903 81.4224ZM414.903 80.8204C415.202 80.8204 415.448 80.7438 415.641 80.5904C415.834 80.4371 415.977 80.2355 416.07 79.9856C416.163 79.7357 416.209 79.465 416.209 79.1735C416.209 78.882 416.163 78.6103 416.07 78.3585C415.977 78.1068 415.834 77.9033 415.641 77.748C415.448 77.5928 415.202 77.5152 414.903 77.5152C414.604 77.5152 414.358 77.5928 414.165 77.748C413.972 77.9033 413.829 78.1068 413.736 78.3585C413.643 78.6103 413.597 78.882 413.597 79.1735C413.597 79.465 413.643 79.7357 413.736 79.9856C413.829 80.2355 413.972 80.4371 414.165 80.5904C414.358 80.7438 414.604 80.8204 414.903 80.8204ZM420.992 77.9468L420.39 78.1172C420.352 78.0168 420.296 77.9194 420.222 77.8247C420.15 77.7282 420.052 77.6487 419.927 77.5862C419.802 77.5237 419.642 77.4925 419.447 77.4925C419.18 77.4925 418.958 77.554 418.78 77.677C418.604 77.7982 418.516 77.9525 418.516 78.1399C418.516 78.3065 418.576 78.438 418.697 78.5346C418.819 78.6311 419.008 78.7116 419.265 78.776L419.913 78.935C420.303 79.0296 420.593 79.1744 420.784 79.3694C420.976 79.5625 421.071 79.8114 421.071 80.1162C421.071 80.3661 420.999 80.5895 420.855 80.7864C420.713 80.9832 420.515 81.1385 420.259 81.252C420.004 81.3656 419.706 81.4224 419.368 81.4224C418.923 81.4224 418.554 81.3259 418.263 81.1328C417.971 80.9397 417.787 80.6576 417.709 80.2866L418.345 80.1276C418.406 80.3623 418.52 80.5384 418.689 80.6557C418.859 80.7731 419.082 80.8318 419.356 80.8318C419.669 80.8318 419.917 80.7655 420.1 80.633C420.286 80.4986 420.378 80.3377 420.378 80.1503C420.378 79.9989 420.325 79.872 420.219 79.7698C420.113 79.6657 419.951 79.5881 419.731 79.537L419.004 79.3666C418.605 79.2719 418.311 79.1252 418.124 78.9264C417.938 78.7258 417.846 78.475 417.846 78.174C417.846 77.9279 417.915 77.7102 418.053 77.5209C418.193 77.3316 418.383 77.183 418.624 77.0751C418.866 76.9672 419.14 76.9132 419.447 76.9132C419.879 76.9132 420.217 77.0079 420.464 77.1972C420.712 77.3865 420.888 77.6363 420.992 77.9468ZM423.977 76.97V77.5379H421.717V76.97H423.977ZM422.375 75.9251H423.045V80.0821C423.045 80.2714 423.073 80.4134 423.128 80.5081C423.185 80.6008 423.257 80.6633 423.344 80.6955C423.433 80.7258 423.526 80.7409 423.625 80.7409C423.699 80.7409 423.759 80.7371 423.806 80.7296C423.854 80.7201 423.892 80.7125 423.92 80.7068L424.056 81.3088C424.011 81.3259 423.947 81.3429 423.866 81.3599C423.785 81.3789 423.682 81.3883 423.557 81.3883C423.367 81.3883 423.182 81.3476 423 81.2662C422.82 81.1848 422.671 81.0608 422.551 80.8943C422.434 80.7277 422.375 80.5175 422.375 80.2639V75.9251Z" fill="#667085"/>
<line x1="33.9858" y1="90.6143" x2="423.938" y2="90.6143" stroke="#E5E7EB" stroke-width="0.571154" stroke-linecap="round" stroke-dasharray="2.28 2.28"/>
<line x1="33.9858" y1="125.329" x2="423.938" y2="125.329" stroke="#E5E7EB" stroke-width="0.571154" stroke-linecap="round" stroke-dasharray="2.28 2.28"/>
<line x1="33.9858" y1="158.616" x2="423.938" y2="158.616" stroke="#E5E7EB" stroke-width="0.571154" stroke-linecap="round" stroke-dasharray="2.28 2.28"/>
<line x1="33.9858" y1="191.903" x2="423.938" y2="191.903" stroke="#E5E7EB" stroke-width="0.571154" stroke-linecap="round" stroke-dasharray="2.28 2.28"/>
<line x1="33.9858" y1="225.19" x2="423.938" y2="225.19" stroke="#E5E7EB" stroke-width="0.571154" stroke-linecap="round" stroke-dasharray="2.28 2.28"/>
<line x1="33.9858" y1="258.477" x2="423.938" y2="258.477" stroke="#E5E7EB" stroke-width="0.571154" stroke-linecap="round" stroke-dasharray="2.28 2.28"/>
<path d="M50.1234 266.347H50.727V269.91C50.727 270.228 50.6686 270.498 50.5518 270.721C50.435 270.943 50.2703 271.112 50.0577 271.227C49.8451 271.342 49.5945 271.4 49.3056 271.4C49.033 271.4 48.7905 271.35 48.5779 271.251C48.3653 271.151 48.1982 271.008 48.0765 270.823C47.9548 270.638 47.894 270.418 47.894 270.163H48.4878C48.4878 270.304 48.5227 270.428 48.5925 270.533C48.6639 270.637 48.7612 270.718 48.8846 270.777C49.0079 270.835 49.1482 270.864 49.3056 270.864C49.4792 270.864 49.6269 270.828 49.7486 270.755C49.8703 270.682 49.9628 270.575 50.0261 270.433C50.091 270.291 50.1234 270.116 50.1234 269.91V266.347ZM52.9589 271.419C52.722 271.419 52.507 271.375 52.3139 271.285C52.1208 271.194 51.9675 271.064 51.8539 270.893C51.7403 270.721 51.6835 270.514 51.6835 270.27C51.6835 270.056 51.7257 269.883 51.8101 269.75C51.8945 269.615 52.0073 269.509 52.1484 269.433C52.2896 269.357 52.4454 269.3 52.6157 269.263C52.7877 269.224 52.9605 269.193 53.1341 269.17C53.3613 269.141 53.5455 269.119 53.6866 269.105C53.8294 269.088 53.9333 269.062 53.9982 269.024C54.0647 268.987 54.098 268.922 54.098 268.829V268.81C54.098 268.57 54.0323 268.383 53.9008 268.25C53.771 268.117 53.5739 268.051 53.3094 268.051C53.0352 268.051 52.8202 268.111 52.6644 268.231C52.5086 268.351 52.3991 268.479 52.3358 268.615L51.7906 268.421C51.888 268.193 52.0178 268.017 52.1801 267.89C52.3439 267.762 52.5224 267.673 52.7155 267.622C52.9102 267.57 53.1017 267.544 53.2899 267.544C53.41 267.544 53.5479 267.559 53.7037 267.588C53.8611 267.616 54.0128 267.673 54.1588 267.761C54.3065 267.849 54.429 267.981 54.5263 268.158C54.6237 268.335 54.6724 268.572 54.6724 268.868V271.332H54.098V270.825H54.0688C54.0298 270.906 53.9649 270.993 53.8741 271.086C53.7832 271.178 53.6623 271.257 53.5114 271.322C53.3605 271.387 53.1763 271.419 52.9589 271.419ZM53.0465 270.903C53.2737 270.903 53.4652 270.859 53.6209 270.769C53.7783 270.68 53.8968 270.565 53.9763 270.424C54.0574 270.283 54.098 270.134 54.098 269.978V269.453C54.0736 269.482 54.0201 269.509 53.9373 269.533C53.8562 269.556 53.7621 269.576 53.655 269.594C53.5495 269.61 53.4465 269.625 53.3459 269.638C53.2469 269.649 53.1666 269.659 53.1049 269.667C52.9557 269.686 52.8161 269.718 52.6863 269.762C52.5581 269.804 52.4543 269.868 52.3748 269.954C52.2969 270.038 52.2579 270.154 52.2579 270.3C52.2579 270.499 52.3318 270.65 52.4794 270.752C52.6287 270.853 52.8177 270.903 53.0465 270.903ZM56.2952 269.083V271.332H55.7208V267.593H56.2757V268.177H56.3244C56.412 267.987 56.545 267.835 56.7235 267.72C56.902 267.603 57.1324 267.544 57.4148 267.544C57.6679 267.544 57.8894 267.596 58.0792 267.7C58.2691 267.802 58.4167 267.958 58.5222 268.167C58.6276 268.375 58.6804 268.638 58.6804 268.956V271.332H58.106V268.995C58.106 268.701 58.0297 268.473 57.8772 268.309C57.7247 268.143 57.5154 268.06 57.2493 268.06C57.0659 268.06 56.902 268.1 56.7576 268.18C56.6148 268.259 56.502 268.375 56.4193 268.528C56.3365 268.68 56.2952 268.865 56.2952 269.083Z" fill="#667085"/>
<path d="M79.522 271.332V266.347H82.5108V266.882H80.1256V268.567H82.2869V269.102H80.1256V271.332H79.522ZM84.7598 271.409C84.3995 271.409 84.0888 271.33 83.8276 271.171C83.568 271.01 83.3676 270.786 83.2264 270.499C83.0869 270.21 83.0171 269.874 83.0171 269.492C83.0171 269.109 83.0869 268.771 83.2264 268.479C83.3676 268.185 83.5639 267.957 83.8154 267.793C84.0685 267.627 84.3638 267.544 84.7013 267.544C84.8961 267.544 85.0883 267.577 85.2782 267.642C85.468 267.707 85.6408 267.812 85.7966 267.958C85.9524 268.103 86.0765 268.294 86.169 268.533C86.2615 268.771 86.3077 269.065 86.3077 269.414V269.657H83.426V269.161H85.7236C85.7236 268.95 85.6814 268.761 85.597 268.596C85.5143 268.43 85.3958 268.3 85.2417 268.204C85.0891 268.108 84.909 268.06 84.7013 268.06C84.4726 268.06 84.2746 268.117 84.1075 268.231C83.942 268.343 83.8146 268.489 83.7254 268.669C83.6361 268.849 83.5915 269.042 83.5915 269.248V269.579C83.5915 269.861 83.6402 270.101 83.7375 270.297C83.8365 270.492 83.9736 270.64 84.1489 270.743C84.3241 270.843 84.5277 270.893 84.7598 270.893C84.9107 270.893 85.047 270.872 85.1687 270.83C85.292 270.786 85.3982 270.721 85.4875 270.635C85.5767 270.548 85.6457 270.439 85.6944 270.309L86.2493 270.465C86.1909 270.653 86.0927 270.819 85.9548 270.962C85.8169 271.103 85.6465 271.213 85.4437 271.293C85.2409 271.37 85.0129 271.409 84.7598 271.409ZM87.2594 271.332V266.347H87.8338V268.187H87.8824C87.9246 268.122 87.983 268.039 88.0577 267.939C88.1339 267.836 88.2427 267.746 88.3838 267.666C88.5266 267.585 88.7197 267.544 88.9631 267.544C89.2779 267.544 89.5553 267.623 89.7955 267.78C90.0356 267.938 90.223 268.161 90.3577 268.45C90.4924 268.739 90.5597 269.079 90.5597 269.472C90.5597 269.868 90.4924 270.211 90.3577 270.502C90.223 270.79 90.0364 271.014 89.7979 271.173C89.5594 271.331 89.2844 271.409 88.9728 271.409C88.7327 271.409 88.5404 271.37 88.396 271.29C88.2516 271.209 88.1404 271.117 88.0626 271.015C87.9847 270.911 87.9246 270.825 87.8824 270.757H87.8143V271.332H87.2594ZM87.824 269.462C87.824 269.745 87.8654 269.994 87.9482 270.21C88.0309 270.424 88.1518 270.592 88.3108 270.713C88.4698 270.833 88.6645 270.893 88.8949 270.893C89.1351 270.893 89.3355 270.83 89.4961 270.704C89.6584 270.575 89.7801 270.403 89.8612 270.188C89.944 269.97 89.9853 269.728 89.9853 269.462C89.9853 269.199 89.9448 268.963 89.8636 268.752C89.7841 268.539 89.6632 268.371 89.501 268.248C89.3403 268.123 89.1383 268.06 88.8949 268.06C88.6613 268.06 88.465 268.12 88.3059 268.238C88.1469 268.355 88.0269 268.519 87.9457 268.73C87.8646 268.939 87.824 269.183 87.824 269.462Z" fill="#667085"/>
<path d="M111.272 266.347H111.993L113.687 270.485H113.745L115.439 266.347H116.159V271.332H115.595V267.544H115.546L113.988 271.332H113.443L111.885 267.544H111.837V271.332H111.272V266.347ZM118.392 271.419C118.155 271.419 117.94 271.375 117.747 271.285C117.554 271.194 117.4 271.064 117.287 270.893C117.173 270.721 117.117 270.514 117.117 270.27C117.117 270.056 117.159 269.883 117.243 269.75C117.327 269.615 117.44 269.509 117.581 269.433C117.723 269.357 117.878 269.3 118.049 269.263C118.221 269.224 118.394 269.193 118.567 269.17C118.794 269.141 118.978 269.119 119.12 269.105C119.262 269.088 119.366 269.062 119.431 269.024C119.498 268.987 119.531 268.922 119.531 268.829V268.81C119.531 268.57 119.465 268.383 119.334 268.25C119.204 268.117 119.007 268.051 118.742 268.051C118.468 268.051 118.253 268.111 118.097 268.231C117.942 268.351 117.832 268.479 117.769 268.615L117.224 268.421C117.321 268.193 117.451 268.017 117.613 267.89C117.777 267.762 117.955 267.673 118.149 267.622C118.343 267.57 118.535 267.544 118.723 267.544C118.843 267.544 118.981 267.559 119.137 267.588C119.294 267.616 119.446 267.673 119.592 267.761C119.739 267.849 119.862 267.981 119.959 268.158C120.057 268.335 120.105 268.572 120.105 268.868V271.332H119.531V270.825H119.502C119.463 270.906 119.398 270.993 119.307 271.086C119.216 271.178 119.095 271.257 118.944 271.322C118.793 271.387 118.609 271.419 118.392 271.419ZM118.48 270.903C118.707 270.903 118.898 270.859 119.054 270.769C119.211 270.68 119.33 270.565 119.409 270.424C119.49 270.283 119.531 270.134 119.531 269.978V269.453C119.507 269.482 119.453 269.509 119.37 269.533C119.289 269.556 119.195 269.576 119.088 269.594C118.983 269.61 118.879 269.625 118.779 269.638C118.68 269.649 118.6 269.659 118.538 269.667C118.389 269.686 118.249 269.718 118.119 269.762C117.991 269.804 117.887 269.868 117.808 269.954C117.73 270.038 117.691 270.154 117.691 270.3C117.691 270.499 117.765 270.65 117.912 270.752C118.062 270.853 118.251 270.903 118.48 270.903ZM121.154 271.332V267.593H121.709V268.158H121.748C121.816 267.973 121.939 267.823 122.118 267.707C122.296 267.592 122.497 267.535 122.721 267.535C122.763 267.535 122.816 267.535 122.879 267.537C122.943 267.539 122.991 267.541 123.023 267.544V268.129C123.004 268.124 122.959 268.116 122.889 268.107C122.821 268.095 122.749 268.09 122.673 268.09C122.491 268.09 122.329 268.128 122.186 268.204C122.045 268.279 121.933 268.382 121.85 268.516C121.769 268.647 121.728 268.797 121.728 268.966V271.332H121.154Z" fill="#667085"/>
<path d="M144.06 271.332H143.427L145.257 266.347H145.88L147.711 271.332H147.078L145.588 267.136H145.549L144.06 271.332ZM144.293 269.384H146.844V269.92H144.293V269.384ZM148.409 272.733V267.593H148.964V268.187H149.032C149.074 268.122 149.133 268.039 149.207 267.939C149.284 267.836 149.392 267.746 149.534 267.666C149.676 267.585 149.869 267.544 150.113 267.544C150.428 267.544 150.705 267.623 150.945 267.78C151.185 267.938 151.373 268.161 151.507 268.45C151.642 268.739 151.71 269.079 151.71 269.472C151.71 269.868 151.642 270.211 151.507 270.502C151.373 270.79 151.186 271.014 150.948 271.173C150.709 271.331 150.434 271.409 150.123 271.409C149.882 271.409 149.69 271.37 149.546 271.29C149.401 271.209 149.29 271.117 149.212 271.015C149.134 270.911 149.074 270.825 149.032 270.757H148.984V272.733H148.409ZM148.974 269.462C148.974 269.745 149.015 269.994 149.098 270.21C149.181 270.424 149.302 270.592 149.461 270.713C149.62 270.833 149.814 270.893 150.045 270.893C150.285 270.893 150.485 270.83 150.646 270.704C150.808 270.575 150.93 270.403 151.011 270.188C151.094 269.97 151.135 269.728 151.135 269.462C151.135 269.199 151.095 268.963 151.013 268.752C150.934 268.539 150.813 268.371 150.651 268.248C150.49 268.123 150.288 268.06 150.045 268.06C149.811 268.06 149.615 268.12 149.456 268.238C149.297 268.355 149.177 268.519 149.096 268.73C149.014 268.939 148.974 269.183 148.974 269.462ZM152.586 271.332V267.593H153.141V268.158H153.18C153.248 267.973 153.371 267.823 153.55 267.707C153.728 267.592 153.929 267.535 154.153 267.535C154.195 267.535 154.248 267.535 154.311 267.537C154.375 267.539 154.422 267.541 154.455 267.544V268.129C154.435 268.124 154.391 268.116 154.321 268.107C154.253 268.095 154.181 268.09 154.104 268.09C153.923 268.09 153.76 268.128 153.618 268.204C153.477 268.279 153.365 268.382 153.282 268.516C153.201 268.647 153.16 268.797 153.16 268.966V271.332H152.586Z" fill="#667085"/>
<path d="M175.222 266.347H175.942L177.636 270.485H177.695L179.389 266.347H180.109V271.332H179.545V267.544H179.496L177.938 271.332H177.393L175.835 267.544H175.787V271.332H175.222V266.347ZM182.342 271.419C182.105 271.419 181.89 271.375 181.697 271.285C181.504 271.194 181.35 271.064 181.237 270.893C181.123 270.721 181.066 270.514 181.066 270.27C181.066 270.056 181.109 269.883 181.193 269.75C181.277 269.615 181.39 269.509 181.531 269.433C181.672 269.357 181.828 269.3 181.999 269.263C182.171 269.224 182.343 269.193 182.517 269.17C182.744 269.141 182.928 269.119 183.069 269.105C183.212 269.088 183.316 269.062 183.381 269.024C183.447 268.987 183.481 268.922 183.481 268.829V268.81C183.481 268.57 183.415 268.383 183.284 268.25C183.154 268.117 182.957 268.051 182.692 268.051C182.418 268.051 182.203 268.111 182.047 268.231C181.891 268.351 181.782 268.479 181.719 268.615L181.173 268.421C181.271 268.193 181.401 268.017 181.563 267.89C181.727 267.762 181.905 267.673 182.098 267.622C182.293 267.57 182.484 267.544 182.673 267.544C182.793 267.544 182.931 267.559 183.086 267.588C183.244 267.616 183.396 267.673 183.542 267.761C183.689 267.849 183.812 267.981 183.909 268.158C184.006 268.335 184.055 268.572 184.055 268.868V271.332H183.481V270.825H183.452C183.413 270.906 183.348 270.993 183.257 271.086C183.166 271.178 183.045 271.257 182.894 271.322C182.743 271.387 182.559 271.419 182.342 271.419ZM182.429 270.903C182.656 270.903 182.848 270.859 183.004 270.769C183.161 270.68 183.28 270.565 183.359 270.424C183.44 270.283 183.481 270.134 183.481 269.978V269.453C183.456 269.482 183.403 269.509 183.32 269.533C183.239 269.556 183.145 269.576 183.038 269.594C182.932 269.61 182.829 269.625 182.729 269.638C182.63 269.649 182.549 269.659 182.488 269.667C182.338 269.686 182.199 269.718 182.069 269.762C181.941 269.804 181.837 269.868 181.758 269.954C181.68 270.038 181.641 270.154 181.641 270.3C181.641 270.499 181.715 270.65 181.862 270.752C182.011 270.853 182.201 270.903 182.429 270.903ZM185.34 272.733C185.242 272.733 185.155 272.725 185.079 272.709C185.003 272.695 184.95 272.68 184.921 272.665L185.067 272.159C185.207 272.195 185.33 272.208 185.437 272.198C185.544 272.188 185.639 272.14 185.722 272.054C185.806 271.97 185.883 271.833 185.953 271.643L186.06 271.351L184.678 267.593H185.301L186.333 270.572H186.372L187.404 267.593H188.027L186.44 271.877C186.368 272.07 186.28 272.23 186.174 272.356C186.069 272.484 185.946 272.579 185.807 272.641C185.669 272.703 185.513 272.733 185.34 272.733Z" fill="#667085"/>
<path d="M210.602 266.347H211.205V269.91C211.205 270.228 211.147 270.498 211.03 270.721C210.913 270.943 210.748 271.112 210.536 271.227C210.323 271.342 210.073 271.4 209.784 271.4C209.511 271.4 209.269 271.35 209.056 271.251C208.843 271.151 208.676 271.008 208.555 270.823C208.433 270.638 208.372 270.418 208.372 270.163H208.966C208.966 270.304 209.001 270.428 209.071 270.533C209.142 270.637 209.239 270.718 209.363 270.777C209.486 270.835 209.626 270.864 209.784 270.864C209.957 270.864 210.105 270.828 210.227 270.755C210.348 270.682 210.441 270.575 210.504 270.433C210.569 270.291 210.602 270.116 210.602 269.91V266.347ZM214.693 269.803V267.593H215.267V271.332H214.693V270.699H214.654C214.566 270.889 214.43 271.05 214.245 271.183C214.06 271.315 213.826 271.38 213.544 271.38C213.31 271.38 213.103 271.329 212.921 271.227C212.739 271.123 212.596 270.967 212.493 270.76C212.389 270.55 212.337 270.287 212.337 269.969V267.593H212.911V269.93C212.911 270.202 212.988 270.42 213.14 270.582C213.294 270.744 213.491 270.825 213.729 270.825C213.872 270.825 214.017 270.789 214.165 270.716C214.314 270.643 214.439 270.531 214.54 270.38C214.642 270.229 214.693 270.037 214.693 269.803ZM216.894 269.083V271.332H216.319V267.593H216.874V268.177H216.923C217.011 267.987 217.144 267.835 217.322 267.72C217.501 267.603 217.731 267.544 218.013 267.544C218.266 267.544 218.488 267.596 218.678 267.7C218.868 267.802 219.015 267.958 219.121 268.167C219.226 268.375 219.279 268.638 219.279 268.956V271.332H218.705V268.995C218.705 268.701 218.628 268.473 218.476 268.309C218.323 268.143 218.114 268.06 217.848 268.06C217.664 268.06 217.501 268.1 217.356 268.18C217.213 268.259 217.101 268.375 217.018 268.528C216.935 268.68 216.894 268.865 216.894 269.083Z" fill="#667085"/>
<path d="M242.301 266.347H242.904V269.91C242.904 270.228 242.846 270.498 242.729 270.721C242.612 270.943 242.448 271.112 242.235 271.227C242.022 271.342 241.772 271.4 241.483 271.4C241.21 271.4 240.968 271.35 240.755 271.251C240.543 271.151 240.376 271.008 240.254 270.823C240.132 270.638 240.071 270.418 240.071 270.163H240.665C240.665 270.304 240.7 270.428 240.77 270.533C240.841 270.637 240.939 270.718 241.062 270.777C241.185 270.835 241.326 270.864 241.483 270.864C241.657 270.864 241.804 270.828 241.926 270.755C242.048 270.682 242.14 270.575 242.203 270.433C242.268 270.291 242.301 270.116 242.301 269.91V266.347ZM246.392 269.803V267.593H246.966V271.332H246.392V270.699H246.353C246.266 270.889 246.129 271.05 245.944 271.183C245.759 271.315 245.526 271.38 245.243 271.38C245.01 271.38 244.802 271.329 244.62 271.227C244.438 271.123 244.296 270.967 244.192 270.76C244.088 270.55 244.036 270.287 244.036 269.969V267.593H244.61V269.93C244.61 270.202 244.687 270.42 244.839 270.582C244.993 270.744 245.19 270.825 245.428 270.825C245.571 270.825 245.716 270.789 245.864 270.716C246.013 270.643 246.138 270.531 246.239 270.38C246.341 270.229 246.392 270.037 246.392 269.803ZM248.593 266.347V271.332H248.019V266.347H248.593Z" fill="#667085"/>
<path d="M269.874 271.332H269.242L271.072 266.347H271.695L273.525 271.332H272.892L271.403 267.136H271.364L269.874 271.332ZM270.108 269.384H272.659V269.92H270.108V269.384ZM276.58 269.803V267.593H277.154V271.332H276.58V270.699H276.541C276.453 270.889 276.317 271.05 276.132 271.183C275.947 271.315 275.713 271.38 275.431 271.38C275.197 271.38 274.99 271.329 274.808 271.227C274.626 271.123 274.483 270.967 274.379 270.76C274.276 270.55 274.224 270.287 274.224 269.969V267.593H274.798V269.93C274.798 270.202 274.874 270.42 275.027 270.582C275.181 270.744 275.377 270.825 275.616 270.825C275.759 270.825 275.904 270.789 276.052 270.716C276.201 270.643 276.326 270.531 276.426 270.38C276.529 270.229 276.58 270.037 276.58 269.803ZM279.715 272.811C279.438 272.811 279.199 272.776 279 272.704C278.8 272.634 278.634 272.542 278.501 272.427C278.369 272.313 278.265 272.192 278.187 272.062L278.644 271.74C278.696 271.809 278.762 271.886 278.841 271.974C278.921 272.063 279.03 272.14 279.168 272.205C279.307 272.272 279.49 272.305 279.715 272.305C280.017 272.305 280.266 272.232 280.462 272.086C280.659 271.94 280.757 271.711 280.757 271.4V270.64H280.708C280.666 270.708 280.606 270.793 280.528 270.893C280.452 270.992 280.342 271.081 280.197 271.159C280.054 271.235 279.861 271.273 279.618 271.273C279.316 271.273 279.045 271.202 278.805 271.059C278.566 270.916 278.377 270.708 278.238 270.436C278.1 270.163 278.031 269.832 278.031 269.443C278.031 269.06 278.098 268.726 278.233 268.443C278.368 268.157 278.555 267.936 278.795 267.78C279.035 267.623 279.313 267.544 279.628 267.544C279.871 267.544 280.064 267.585 280.207 267.666C280.351 267.746 280.462 267.836 280.538 267.939C280.616 268.039 280.676 268.122 280.718 268.187H280.776V267.593H281.331V271.439C281.331 271.76 281.258 272.021 281.112 272.222C280.968 272.425 280.773 272.574 280.528 272.668C280.285 272.763 280.014 272.811 279.715 272.811ZM279.696 270.757C279.926 270.757 280.121 270.704 280.28 270.599C280.439 270.493 280.56 270.342 280.643 270.144C280.725 269.946 280.767 269.709 280.767 269.433C280.767 269.164 280.726 268.926 280.645 268.72C280.564 268.514 280.444 268.352 280.285 268.236C280.126 268.119 279.929 268.06 279.696 268.06C279.452 268.06 279.25 268.122 279.087 268.245C278.927 268.369 278.806 268.534 278.725 268.742C278.645 268.95 278.605 269.18 278.605 269.433C278.605 269.693 278.646 269.922 278.727 270.122C278.81 270.32 278.931 270.476 279.092 270.589C279.254 270.701 279.456 270.757 279.696 270.757Z" fill="#667085"/>
<path d="M305.031 267.593C305.002 267.346 304.883 267.155 304.676 267.019C304.468 266.882 304.213 266.814 303.911 266.814C303.691 266.814 303.498 266.85 303.332 266.921C303.168 266.993 303.04 267.091 302.947 267.216C302.857 267.341 302.811 267.483 302.811 267.642C302.811 267.775 302.843 267.889 302.906 267.985C302.971 268.079 303.054 268.158 303.154 268.221C303.255 268.283 303.36 268.334 303.471 268.374C303.581 268.413 303.682 268.445 303.775 268.469L304.281 268.606C304.411 268.64 304.555 268.687 304.714 268.747C304.875 268.807 305.028 268.889 305.174 268.993C305.322 269.095 305.444 269.226 305.54 269.387C305.635 269.547 305.683 269.745 305.683 269.978C305.683 270.248 305.613 270.491 305.471 270.708C305.332 270.926 305.127 271.099 304.858 271.227C304.59 271.355 304.265 271.419 303.882 271.419C303.525 271.419 303.216 271.362 302.955 271.246C302.695 271.131 302.491 270.971 302.341 270.764C302.194 270.558 302.11 270.319 302.091 270.046H302.714C302.73 270.235 302.793 270.39 302.904 270.514C303.016 270.635 303.157 270.726 303.327 270.786C303.499 270.845 303.684 270.874 303.882 270.874C304.112 270.874 304.319 270.837 304.503 270.762C304.686 270.686 304.831 270.58 304.938 270.446C305.045 270.309 305.099 270.15 305.099 269.969C305.099 269.803 305.053 269.668 304.96 269.565C304.868 269.461 304.746 269.376 304.595 269.311C304.444 269.247 304.281 269.19 304.106 269.141L303.493 268.966C303.103 268.854 302.795 268.694 302.568 268.486C302.341 268.279 302.227 268.007 302.227 267.671C302.227 267.392 302.302 267.148 302.453 266.941C302.606 266.731 302.81 266.569 303.067 266.454C303.325 266.337 303.613 266.279 303.931 266.279C304.252 266.279 304.538 266.336 304.787 266.452C305.037 266.565 305.235 266.721 305.381 266.919C305.529 267.117 305.607 267.342 305.615 267.593H305.031ZM308.165 271.409C307.805 271.409 307.494 271.33 307.233 271.171C306.973 271.01 306.773 270.786 306.632 270.499C306.492 270.21 306.422 269.874 306.422 269.492C306.422 269.109 306.492 268.771 306.632 268.479C306.773 268.185 306.969 267.957 307.221 267.793C307.474 267.627 307.769 267.544 308.107 267.544C308.301 267.544 308.494 267.577 308.684 267.642C308.873 267.707 309.046 267.812 309.202 267.958C309.358 268.103 309.482 268.294 309.574 268.533C309.667 268.771 309.713 269.065 309.713 269.414V269.657H306.831V269.161H309.129C309.129 268.95 309.087 268.761 309.002 268.596C308.92 268.43 308.801 268.3 308.647 268.204C308.494 268.108 308.314 268.06 308.107 268.06C307.878 268.06 307.68 268.117 307.513 268.231C307.347 268.343 307.22 268.489 307.131 268.669C307.041 268.849 306.997 269.042 306.997 269.248V269.579C306.997 269.861 307.046 270.101 307.143 270.297C307.242 270.492 307.379 270.64 307.554 270.743C307.729 270.843 307.933 270.893 308.165 270.893C308.316 270.893 308.452 270.872 308.574 270.83C308.697 270.786 308.804 270.721 308.893 270.635C308.982 270.548 309.051 270.439 309.1 270.309L309.655 270.465C309.596 270.653 309.498 270.819 309.36 270.962C309.222 271.103 309.052 271.213 308.849 271.293C308.646 271.37 308.418 271.409 308.165 271.409ZM310.587 272.733V267.593H311.142V268.187H311.21C311.252 268.122 311.311 268.039 311.385 267.939C311.461 267.836 311.57 267.746 311.711 267.666C311.854 267.585 312.047 267.544 312.291 267.544C312.605 267.544 312.883 267.623 313.123 267.78C313.363 267.938 313.551 268.161 313.685 268.45C313.82 268.739 313.887 269.079 313.887 269.472C313.887 269.868 313.82 270.211 313.685 270.502C313.551 270.79 313.364 271.014 313.125 271.173C312.887 271.331 312.612 271.409 312.3 271.409C312.06 271.409 311.868 271.37 311.723 271.29C311.579 271.209 311.468 271.117 311.39 271.015C311.312 270.911 311.252 270.825 311.21 270.757H311.161V272.733H310.587ZM311.151 269.462C311.151 269.745 311.193 269.994 311.276 270.21C311.358 270.424 311.479 270.592 311.638 270.713C311.797 270.833 311.992 270.893 312.222 270.893C312.463 270.893 312.663 270.83 312.824 270.704C312.986 270.575 313.108 270.403 313.189 270.188C313.271 269.97 313.313 269.728 313.313 269.462C313.313 269.199 313.272 268.963 313.191 268.752C313.112 268.539 312.991 268.371 312.828 268.248C312.668 268.123 312.466 268.06 312.222 268.06C311.989 268.06 311.792 268.12 311.633 268.238C311.474 268.355 311.354 268.519 311.273 268.73C311.192 268.939 311.151 269.183 311.151 269.462Z" fill="#667085"/>
<path d="M339.017 268.839C339.017 269.365 338.922 269.819 338.732 270.202C338.542 270.585 338.282 270.88 337.951 271.088C337.62 271.296 337.242 271.4 336.817 271.4C336.392 271.4 336.013 271.296 335.682 271.088C335.351 270.88 335.091 270.585 334.901 270.202C334.711 269.819 334.616 269.365 334.616 268.839C334.616 268.314 334.711 267.859 334.901 267.476C335.091 267.093 335.351 266.798 335.682 266.59C336.013 266.383 336.392 266.279 336.817 266.279C337.242 266.279 337.62 266.383 337.951 266.59C338.282 266.798 338.542 267.093 338.732 267.476C338.922 267.859 339.017 268.314 339.017 268.839ZM338.433 268.839C338.433 268.408 338.361 268.043 338.216 267.746C338.073 267.449 337.879 267.225 337.634 267.072C337.391 266.92 337.118 266.843 336.817 266.843C336.515 266.843 336.241 266.92 335.996 267.072C335.753 267.225 335.559 267.449 335.415 267.746C335.272 268.043 335.201 268.408 335.201 268.839C335.201 269.271 335.272 269.635 335.415 269.932C335.559 270.229 335.753 270.454 335.996 270.606C336.241 270.759 336.515 270.835 336.817 270.835C337.118 270.835 337.391 270.759 337.634 270.606C337.879 270.454 338.073 270.229 338.216 269.932C338.361 269.635 338.433 269.271 338.433 268.839ZM341.473 271.409C341.122 271.409 340.82 271.327 340.567 271.161C340.314 270.996 340.119 270.768 339.983 270.477C339.847 270.187 339.779 269.855 339.779 269.482C339.779 269.102 339.848 268.767 339.988 268.477C340.129 268.185 340.326 267.957 340.577 267.793C340.83 267.627 341.125 267.544 341.463 267.544C341.726 267.544 341.963 267.593 342.174 267.69C342.385 267.788 342.557 267.924 342.692 268.099C342.827 268.275 342.91 268.479 342.943 268.713H342.368C342.325 268.542 342.227 268.391 342.076 268.26C341.927 268.127 341.726 268.06 341.473 268.06C341.249 268.06 341.052 268.119 340.884 268.236C340.717 268.351 340.586 268.514 340.492 268.725C340.399 268.934 340.353 269.18 340.353 269.462C340.353 269.751 340.399 270.003 340.489 270.217C340.582 270.431 340.712 270.597 340.879 270.716C341.048 270.834 341.246 270.893 341.473 270.893C341.622 270.893 341.757 270.867 341.879 270.816C342.001 270.764 342.104 270.689 342.188 270.592C342.273 270.494 342.333 270.377 342.368 270.241H342.943C342.91 270.462 342.83 270.661 342.702 270.837C342.575 271.013 342.407 271.152 342.198 271.256C341.99 271.358 341.749 271.409 341.473 271.409ZM345.408 267.593V268.08H343.471V267.593H345.408ZM344.036 266.697H344.61V270.261C344.61 270.423 344.633 270.545 344.681 270.626C344.729 270.705 344.791 270.759 344.866 270.786C344.942 270.812 345.022 270.825 345.106 270.825C345.17 270.825 345.222 270.822 345.262 270.816C345.303 270.807 345.335 270.801 345.36 270.796L345.476 271.312C345.437 271.327 345.383 271.341 345.313 271.356C345.244 271.372 345.155 271.38 345.048 271.38C344.886 271.38 344.727 271.345 344.571 271.276C344.417 271.206 344.289 271.1 344.186 270.957C344.086 270.814 344.036 270.634 344.036 270.416V266.697Z" fill="#667085"/>
<path d="M370.075 266.347V271.332H369.491L366.775 267.418H366.726V271.332H366.123V266.347H366.707L369.433 270.27H369.482V266.347H370.075ZM372.724 271.409C372.387 271.409 372.091 271.329 371.836 271.168C371.583 271.008 371.385 270.783 371.242 270.494C371.101 270.205 371.03 269.868 371.03 269.482C371.03 269.092 371.101 268.752 371.242 268.462C371.385 268.172 371.583 267.946 371.836 267.785C372.091 267.625 372.387 267.544 372.724 267.544C373.062 267.544 373.357 267.625 373.61 267.785C373.865 267.946 374.063 268.172 374.204 268.462C374.347 268.752 374.418 269.092 374.418 269.482C374.418 269.868 374.347 270.205 374.204 270.494C374.063 270.783 373.865 271.008 373.61 271.168C373.357 271.329 373.062 271.409 372.724 271.409ZM372.724 270.893C372.981 270.893 373.191 270.828 373.357 270.696C373.522 270.565 373.645 270.392 373.724 270.178C373.804 269.964 373.844 269.732 373.844 269.482C373.844 269.232 373.804 268.999 373.724 268.783C373.645 268.567 373.522 268.393 373.357 268.26C373.191 268.127 372.981 268.06 372.724 268.06C372.468 268.06 372.257 268.127 372.091 268.26C371.926 268.393 371.803 268.567 371.724 268.783C371.644 268.999 371.605 269.232 371.605 269.482C371.605 269.732 371.644 269.964 371.724 270.178C371.803 270.392 371.926 270.565 372.091 270.696C372.257 270.828 372.468 270.893 372.724 270.893ZM378.218 267.593L376.836 271.332H376.251L374.869 267.593H375.492L376.524 270.572H376.563L377.595 267.593H378.218Z" fill="#667085"/>
<path d="M400.262 271.332H398.724V266.347H400.33C400.814 266.347 401.228 266.447 401.572 266.646C401.916 266.844 402.179 267.129 402.363 267.501C402.546 267.871 402.638 268.314 402.638 268.829C402.638 269.349 402.545 269.796 402.36 270.171C402.175 270.544 401.906 270.831 401.552 271.032C401.199 271.232 400.769 271.332 400.262 271.332ZM399.328 270.796H400.223C400.636 270.796 400.977 270.717 401.248 270.558C401.519 270.399 401.721 270.172 401.854 269.879C401.987 269.585 402.054 269.235 402.054 268.829C402.054 268.427 401.988 268.081 401.857 267.79C401.725 267.498 401.529 267.274 401.268 267.118C401.006 266.961 400.681 266.882 400.292 266.882H399.328V270.796ZM405.14 271.409C404.78 271.409 404.469 271.33 404.208 271.171C403.948 271.01 403.748 270.786 403.606 270.499C403.467 270.21 403.397 269.874 403.397 269.492C403.397 269.109 403.467 268.771 403.606 268.479C403.748 268.185 403.944 267.957 404.195 267.793C404.449 267.627 404.744 267.544 405.081 267.544C405.276 267.544 405.468 267.577 405.658 267.642C405.848 267.707 406.021 267.812 406.177 267.958C406.332 268.103 406.457 268.294 406.549 268.533C406.642 268.771 406.688 269.065 406.688 269.414V269.657H403.806V269.161H406.104C406.104 268.95 406.061 268.761 405.977 268.596C405.894 268.43 405.776 268.3 405.622 268.204C405.469 268.108 405.289 268.06 405.081 268.06C404.853 268.06 404.655 268.117 404.488 268.231C404.322 268.343 404.195 268.489 404.105 268.669C404.016 268.849 403.972 269.042 403.972 269.248V269.579C403.972 269.861 404.02 270.101 404.118 270.297C404.217 270.492 404.354 270.64 404.529 270.743C404.704 270.843 404.908 270.893 405.14 270.893C405.291 270.893 405.427 270.872 405.549 270.83C405.672 270.786 405.778 270.721 405.868 270.635C405.957 270.548 406.026 270.439 406.074 270.309L406.629 270.465C406.571 270.653 406.473 270.819 406.335 270.962C406.197 271.103 406.027 271.213 405.824 271.293C405.621 271.37 405.393 271.409 405.14 271.409ZM409.08 271.409C408.73 271.409 408.428 271.327 408.175 271.161C407.922 270.996 407.727 270.768 407.591 270.477C407.454 270.187 407.386 269.855 407.386 269.482C407.386 269.102 407.456 268.767 407.596 268.477C407.737 268.185 407.933 267.957 408.185 267.793C408.438 267.627 408.733 267.544 409.071 267.544C409.333 267.544 409.57 267.593 409.781 267.69C409.992 267.788 410.165 267.924 410.3 268.099C410.434 268.275 410.518 268.479 410.55 268.713H409.976C409.932 268.542 409.835 268.391 409.684 268.26C409.535 268.127 409.333 268.06 409.08 268.06C408.856 268.06 408.66 268.119 408.491 268.236C408.324 268.351 408.194 268.514 408.099 268.725C408.007 268.934 407.961 269.18 407.961 269.462C407.961 269.751 408.006 270.003 408.097 270.217C408.19 270.431 408.319 270.597 408.486 270.716C408.655 270.834 408.853 270.893 409.08 270.893C409.23 270.893 409.365 270.867 409.487 270.816C409.608 270.764 409.712 270.689 409.796 270.592C409.88 270.494 409.94 270.377 409.976 270.241H410.55C410.518 270.462 410.438 270.661 410.309 270.837C410.183 271.013 410.015 271.152 409.806 271.256C409.598 271.358 409.356 271.409 409.08 271.409Z" fill="#667085"/>
<g clip-path="url(#clip1_2802_41781)">
<g clip-path="url(#clip2_2802_41781)">
<path d="M45.1233 112.312C45.1233 110.42 46.6576 108.885 48.5502 108.885H59.9733C61.8659 108.885 63.4002 110.42 63.4002 112.312V259.131H45.1233V112.312Z" fill="#0288D1" fill-opacity="0.5"/>
<path d="M45.1233 181.175C45.1233 179.283 46.6576 177.749 48.5502 177.749H59.9733C61.8659 177.749 63.4002 179.283 63.4002 181.175V259.132H45.1233V181.175Z" fill="#0288D1"/>
<path d="M76.9521 94.0353C76.9521 92.1427 78.4864 90.6084 80.3791 90.6084H91.8022C93.6948 90.6084 95.2291 92.1427 95.2291 94.0353V259.132H76.9521V94.0353Z" fill="#0288D1" fill-opacity="0.5"/>
<path d="M76.9521 171.275C76.9521 169.382 78.4864 167.848 80.3791 167.848H91.8022C93.6948 167.848 95.2291 169.382 95.2291 171.275V259.131H76.9521V171.275Z" fill="#0288D1"/>
<path d="M108.781 130.589C108.781 128.696 110.315 127.162 112.208 127.162H123.631C125.524 127.162 127.058 128.696 127.058 130.589V259.131H108.781V130.589Z" fill="#0288D1" fill-opacity="0.5"/>
<path d="M108.781 191.075C108.781 189.183 110.315 187.648 112.208 187.648H123.631C125.524 187.648 127.058 189.183 127.058 191.075V259.132H108.781V191.075Z" fill="#0288D1"/>
<path d="M140.61 107.743C140.61 105.851 142.144 104.316 144.037 104.316H155.46C157.353 104.316 158.887 105.851 158.887 107.743V259.132H140.61V107.743Z" fill="#0288D1" fill-opacity="0.5"/>
<path d="M140.61 178.7C140.61 176.807 142.144 175.273 144.037 175.273H155.46C157.353 175.273 158.887 176.807 158.887 178.7V259.131H140.61V178.7Z" fill="#0288D1"/>
<path d="M172.439 130.589C172.439 128.696 173.973 127.162 175.866 127.162H187.289C189.181 127.162 190.716 128.696 190.716 130.589V259.131H172.439V130.589Z" fill="#0288D1" fill-opacity="0.5"/>
<path d="M172.439 191.075C172.439 189.183 173.973 187.648 175.866 187.648H187.289C189.181 187.648 190.716 189.183 190.716 191.075V259.132H172.439V191.075Z" fill="#0288D1"/>
<path d="M204.268 98.6047C204.268 96.712 205.802 95.1777 207.695 95.1777H219.118C221.01 95.1777 222.545 96.712 222.545 98.6047V259.132H204.268V98.6047Z" fill="#0288D1" fill-opacity="0.5"/>
<path d="M204.268 173.75C204.268 171.858 205.802 170.323 207.695 170.323H219.118C221.01 170.323 222.545 171.858 222.545 173.75V259.132H204.268V173.75Z" fill="#0288D1"/>
<path d="M236.096 112.312C236.096 110.42 237.631 108.885 239.523 108.885H250.946C252.839 108.885 254.373 110.42 254.373 112.312V259.131H236.096V112.312Z" fill="#0288D1" fill-opacity="0.5"/>
<path d="M236.096 181.175C236.096 179.283 237.631 177.749 239.523 177.749H250.946C252.839 177.749 254.373 179.283 254.373 181.175V259.132H236.096V181.175Z" fill="#0288D1"/>
<path d="M267.925 107.743C267.925 105.851 269.46 104.316 271.352 104.316H282.775C284.668 104.316 286.202 105.851 286.202 107.743V259.132H267.925V107.743Z" fill="#0288D1" fill-opacity="0.5"/>
<path d="M267.925 178.7C267.925 176.807 269.46 175.273 271.352 175.273H282.775C284.668 175.273 286.202 176.807 286.202 178.7V259.131H267.925V178.7Z" fill="#0288D1"/>
<path d="M299.754 112.312C299.754 110.42 301.289 108.885 303.181 108.885H314.604C316.497 108.885 318.031 110.42 318.031 112.312V259.131H299.754V112.312Z" fill="#0288D1" fill-opacity="0.5"/>
<path d="M299.754 181.175C299.754 179.283 301.289 177.749 303.181 177.749H314.604C316.497 177.749 318.031 179.283 318.031 181.175V259.132H299.754V181.175Z" fill="#0288D1"/>
<path d="M331.583 103.174C331.583 101.281 333.117 99.7471 335.01 99.7471H346.433C348.326 99.7471 349.86 101.281 349.86 103.174V259.132H331.583V103.174Z" fill="#0288D1" fill-opacity="0.5"/>
<path d="M331.583 176.225C331.583 174.333 333.117 172.798 335.01 172.798H346.433C348.326 172.798 349.86 174.333 349.86 176.225V259.132H331.583V176.225Z" fill="#0288D1"/>
<path d="M363.412 94.0353C363.412 92.1427 364.946 90.6084 366.839 90.6084H378.262C380.155 90.6084 381.689 92.1427 381.689 94.0353V259.132H363.412V94.0353Z" fill="#0288D1" fill-opacity="0.5"/>
<path d="M363.412 171.275C363.412 169.382 364.946 167.848 366.839 167.848H378.262C380.155 167.848 381.689 169.382 381.689 171.275V259.131H363.412V171.275Z" fill="#0288D1"/>
<path d="M395.241 116.882C395.241 114.989 396.775 113.455 398.668 113.455H410.091C411.983 113.455 413.518 114.989 413.518 116.882V259.132H395.241V116.882Z" fill="#0288D1" fill-opacity="0.5"/>
<path d="M395.241 183.651C395.241 181.758 396.775 180.224 398.668 180.224H410.091C411.983 180.224 413.518 181.758 413.518 183.651V259.132H395.241V183.651Z" fill="#0288D1"/>
</g>
</g>
</g>
</g>
<g filter="url(#filter1_d_2802_41781)">
<g clip-path="url(#clip3_2802_41781)">
<rect x="276.052" y="249.879" width="251.83" height="252.582" rx="14.4315" fill="white"/>
<path d="M296.942 284.969V276.696H293.668V274.436H302.63V276.696H299.357V284.969H296.942ZM305.971 285.151C303.555 285.151 301.736 283.515 301.736 281.151V281.138C301.736 278.761 303.555 277.072 305.971 277.072H305.984C308.438 277.072 310.257 278.761 310.257 281.138V281.151C310.257 283.515 308.438 285.151 305.984 285.151H305.971ZM305.984 282.904H305.997C307.114 282.904 307.815 282.151 307.815 281.151V281.138C307.815 280.112 307.114 279.345 305.997 279.345H305.984C304.893 279.345 304.191 280.112 304.191 281.138V281.151C304.191 282.151 304.893 282.904 305.984 282.904ZM314.844 277.176C317.429 277.176 319.065 278.657 319.065 281.19V281.203C319.065 283.709 317.481 285.242 314.844 285.242C314.519 285.242 314.182 285.216 313.844 285.19V287.827H311.402V277.618H311.727C312.792 277.332 313.922 277.176 314.844 277.176ZM316.663 281.307V281.281C316.663 280.177 316.039 279.449 314.922 279.449C314.584 279.449 314.234 279.488 313.844 279.566V283.06C314.234 283.125 314.623 283.138 314.909 283.138C316.013 283.138 316.663 282.437 316.663 281.307ZM326.062 285.151C323.464 285.151 321.892 283.618 321.879 281.112V281.099C321.892 278.683 323.568 277.085 326.062 277.085C327.01 277.085 327.971 277.293 328.737 277.657L327.776 279.709C327.257 279.475 326.724 279.345 326.088 279.345C324.997 279.345 324.347 280.008 324.334 281.099V281.125C324.334 282.229 324.997 282.878 326.114 282.878C326.75 282.878 327.373 282.748 327.802 282.501L328.737 284.554C327.971 284.93 326.997 285.151 326.062 285.151ZM337.028 277.397V284.735C335.768 284.969 334.196 285.151 333.443 285.151C331.417 285.151 329.832 284.424 329.832 282.177V277.397H332.261C332.261 278.852 332.274 280.228 332.274 281.683C332.274 282.514 332.69 282.774 333.534 282.774C333.833 282.774 334.209 282.735 334.586 282.67V277.397H337.028ZM341.786 285.151C340.565 285.151 339.461 284.93 338.357 284.45L338.993 282.592C339.915 282.969 340.812 283.151 341.565 283.151C342.331 283.151 342.825 283.112 342.825 282.748C342.825 282.398 342.604 282.359 341.656 282.125C341.422 282.073 341.188 282.008 340.954 281.956C339.383 281.579 338.629 280.722 338.629 279.423C338.629 277.994 339.759 277.085 341.799 277.085C342.981 277.085 344.189 277.345 344.968 277.774L344.279 279.631C343.604 279.306 342.773 279.086 342.097 279.086C341.487 279.086 341.123 279.15 341.123 279.436C341.123 279.774 341.5 279.826 342.201 280.008C342.37 280.047 342.539 280.099 342.708 280.138C344.396 280.566 345.176 281.41 345.176 282.605C345.176 284.32 344.085 285.151 341.786 285.151ZM349.552 284.969C347.734 284.969 347.032 284.19 347.032 282.501V279.631H345.786V277.397H347.032V274.721H349.461V277.397H352.111V279.631H349.461V281.761C349.461 282.437 349.786 282.722 350.552 282.722H352.124V284.969H349.552ZM357.087 285.151C354.671 285.151 352.853 283.515 352.853 281.151V281.138C352.853 278.761 354.671 277.072 357.087 277.072H357.1C359.555 277.072 361.373 278.761 361.373 281.138V281.151C361.373 283.515 359.555 285.151 357.1 285.151H357.087ZM357.1 282.904H357.113C358.23 282.904 358.931 282.151 358.931 281.151V281.138C358.931 280.112 358.23 279.345 357.113 279.345H357.1C356.009 279.345 355.307 280.112 355.307 281.138V281.151C355.307 282.151 356.009 282.904 357.1 282.904ZM370.402 277.163C372.299 277.163 373.818 277.878 373.818 280.138V284.969H371.364V280.618C371.364 279.956 371.169 279.54 370.325 279.54C370.065 279.54 369.662 279.631 369.376 279.787C369.389 279.956 369.402 280.138 369.402 280.319V284.969H366.961V280.618C366.961 279.826 366.545 279.54 365.883 279.54C365.623 279.54 365.311 279.566 364.96 279.644V284.969H362.519V277.566C363.804 277.332 365.285 277.163 365.973 277.163C366.805 277.163 367.571 277.319 368.155 277.696C368.818 277.384 369.571 277.163 370.402 277.163ZM382.92 281.138C382.92 281.294 382.92 281.67 382.907 281.826H377.608C377.842 282.579 378.465 283.021 379.374 283.021C380.206 283.021 381.037 282.774 381.569 282.449L382.608 284.333C381.803 284.761 380.699 285.138 379.244 285.138C376.738 285.138 375.062 283.528 375.062 281.125V281.112C375.062 278.696 376.673 277.072 379.076 277.072C381.388 277.072 382.92 278.709 382.92 281.138ZM379.05 279.086C378.257 279.086 377.777 279.488 377.595 280.177H380.517C380.361 279.501 379.842 279.086 379.05 279.086ZM384.042 284.969V277.709C385.211 277.462 386.575 277.397 387.341 277.397H388.822V279.644C388.211 279.644 388.289 279.631 387.666 279.631C387.484 279.631 386.614 279.657 386.484 279.709V284.969H384.042ZM392.915 285.151C391.694 285.151 390.59 284.93 389.486 284.45L390.122 282.592C391.044 282.969 391.94 283.151 392.694 283.151C393.46 283.151 393.954 283.112 393.954 282.748C393.954 282.398 393.733 282.359 392.785 282.125C392.551 282.073 392.317 282.008 392.083 281.956C390.512 281.579 389.758 280.722 389.758 279.423C389.758 277.994 390.888 277.085 392.928 277.085C394.11 277.085 395.317 277.345 396.097 277.774L395.408 279.631C394.733 279.306 393.902 279.086 393.226 279.086C392.616 279.086 392.252 279.15 392.252 279.436C392.252 279.774 392.629 279.826 393.33 280.008C393.499 280.047 393.668 280.099 393.837 280.138C395.525 280.566 396.305 281.41 396.305 282.605C396.305 284.32 395.214 285.151 392.915 285.151Z" fill="#111927"/>
<g clip-path="url(#clip4_2802_41781)">
<rect x="287.597" y="307.009" width="28.4315" height="26.1021" rx="8.6589" fill="#3375A9" fill-opacity="0.08"/>
<path d="M297.017 323.06L297.28 321.043H295.751L295.854 320.105H297.402L297.646 318.322H296.136L296.239 317.384H297.768L298.03 315.443H299.175L298.912 317.384H300.76L301.023 315.443H302.167L301.905 317.384H303.471L303.368 318.322H301.783L301.548 320.105H303.087L302.983 321.043H301.426L301.154 323.06H300.01L300.282 321.043H298.424L298.152 323.06H297.017ZM298.546 320.105H300.404L300.638 318.322H298.79L298.546 320.105ZM306.396 323.06V316.643L304.783 317.028V315.949L307.607 315.377V323.06H306.396Z" fill="#005394"/>
</g>
<path d="M334.11 323.06L333.302 320.847H329.918L329.119 323.06H327.786L330.817 314.867H332.382L335.443 323.06H334.11ZM331.574 316.231L330.312 319.685H332.898L331.625 316.231L331.594 316.14L331.574 316.231ZM336.502 323.06V314.867H337.805V323.06H336.502ZM342.088 323.181C340.219 323.181 339.047 322.019 339.037 320.16V320.15C339.057 318.352 340.279 317.15 342.098 317.15C342.805 317.15 343.492 317.291 344.047 317.564L343.542 318.665C343.098 318.453 342.643 318.352 342.108 318.352C341.037 318.352 340.36 319.049 340.35 320.15V320.17C340.36 321.272 341.037 321.969 342.118 321.969C342.663 321.969 343.168 321.868 343.552 321.655L344.057 322.757C343.492 323.029 342.805 323.181 342.088 323.181ZM345.771 316.584C345.347 316.584 344.963 316.332 344.963 315.847C344.963 315.412 345.317 315.129 345.771 315.129C346.206 315.129 346.559 315.412 346.559 315.847C346.559 316.332 346.185 316.584 345.771 316.584ZM345.114 323.06V317.352H346.418V323.06H345.114ZM351.811 314.867H353.114V322.858C352.417 323.08 351.528 323.252 350.781 323.252C348.801 323.252 347.609 322.1 347.609 320.231V320.221C347.609 318.322 348.861 317.221 350.781 317.221C351.104 317.221 351.447 317.251 351.811 317.301V314.867ZM350.75 322.08C351.053 322.08 351.458 322.059 351.811 321.989V318.534C351.407 318.443 351.064 318.403 350.74 318.403C349.528 318.403 348.861 319.15 348.861 320.221V320.241C348.861 321.373 349.589 322.08 350.75 322.08ZM360.045 320.019V320.635H355.661C355.832 321.524 356.459 322.039 357.439 322.039C358.126 322.039 358.772 321.868 359.206 321.615L359.752 322.625C359.156 322.938 358.358 323.181 357.348 323.181C355.529 323.181 354.327 321.969 354.327 320.17V320.16C354.327 318.352 355.509 317.14 357.277 317.14C358.944 317.14 360.045 318.291 360.045 320.019ZM357.247 318.281C356.368 318.281 355.832 318.746 355.671 319.534H358.782C358.701 318.756 358.126 318.281 357.247 318.281ZM362.973 323.191C362.115 323.191 361.337 323.039 360.569 322.696L360.913 321.676C361.579 321.958 362.266 322.09 362.852 322.09C363.65 322.09 364.186 321.969 364.186 321.484C364.186 321.049 363.994 320.958 363.034 320.706C362.862 320.665 362.69 320.615 362.519 320.574C361.276 320.261 360.721 319.706 360.721 318.776C360.721 317.766 361.569 317.15 362.994 317.15C363.852 317.15 364.681 317.322 365.256 317.635L364.893 318.655C364.357 318.403 363.731 318.251 363.145 318.251C362.468 318.251 362.064 318.382 362.064 318.776C362.064 319.19 362.398 319.281 363.175 319.483L363.59 319.595C364.913 319.938 365.458 320.504 365.458 321.413C365.458 322.585 364.63 323.191 362.973 323.191ZM374.074 323.06L373.266 320.847H369.882L369.084 323.06H367.75L370.781 314.867H372.347L375.408 323.06H374.074ZM371.539 316.231L370.276 319.685H372.862L371.589 316.231L371.559 316.14L371.539 316.231ZM376.466 323.06V317.473C377.406 317.312 378.477 317.19 379.052 317.19C380.447 317.19 381.608 317.685 381.608 319.362C381.608 320.595 381.618 321.827 381.618 323.06H380.315V319.615C380.315 318.756 379.83 318.453 378.992 318.453C378.659 318.453 378.204 318.493 377.759 318.574V323.06H376.466ZM385.687 323.06C384.222 323.06 383.737 322.474 383.737 321.241V318.524H382.697V317.352H383.737V315.291H385.02V317.352H387.182V318.524H385.02V320.857C385.02 321.635 385.394 321.868 386.152 321.868H387.192V323.06H385.687ZM390.93 323.191C389.172 323.191 387.839 321.928 387.829 320.191V320.18C387.829 318.433 389.172 317.14 390.93 317.14H390.94C392.728 317.15 394.062 318.433 394.062 320.18V320.191C394.062 321.928 392.728 323.181 390.94 323.191H390.93ZM390.94 321.989H390.95C392.031 321.989 392.759 321.191 392.759 320.191V320.18C392.759 319.16 392.031 318.362 390.95 318.352H390.94C389.869 318.352 389.142 319.16 389.142 320.18V320.191C389.142 321.191 389.869 321.989 390.94 321.989ZM395.23 323.06V317.473C396.17 317.312 397.24 317.19 397.816 317.19C399.21 317.19 400.372 317.685 400.372 319.362C400.372 320.595 400.382 321.827 400.382 323.06H399.079V319.615C399.079 318.756 398.594 318.453 397.756 318.453C397.422 318.453 396.968 318.493 396.523 318.574V323.06H395.23ZM402.723 316.584C402.299 316.584 401.915 316.332 401.915 315.847C401.915 315.412 402.269 315.129 402.723 315.129C403.158 315.129 403.511 315.412 403.511 315.847C403.511 316.332 403.138 316.584 402.723 316.584ZM402.067 323.06V317.352H403.37V323.06H402.067ZM407.632 323.191C405.874 323.191 404.541 321.928 404.531 320.191V320.18C404.531 318.433 405.874 317.14 407.632 317.14H407.642C409.43 317.15 410.764 318.433 410.764 320.18V320.191C410.764 321.928 409.43 323.181 407.642 323.191H407.632ZM407.642 321.989H407.652C408.733 321.989 409.46 321.191 409.46 320.191V320.18C409.46 319.16 408.733 318.362 407.652 318.352H407.642C406.571 318.352 405.844 319.16 405.844 320.18V320.191C405.844 321.191 406.571 321.989 407.642 321.989Z" fill="#111927"/>
<path d="M468.38 323.06V321.345H464.639V320.306L468.051 316.037H469.497V320.306H470.649V321.345H469.497V323.06H468.38ZM465.843 320.306H468.38V317.163L465.843 320.306ZM474.234 323.163C472.468 323.163 471.316 321.873 471.316 319.561V319.553C471.316 317.215 472.468 315.916 474.234 315.916C476.001 315.916 477.152 317.215 477.152 319.553V319.561C477.152 321.873 476.001 323.163 474.234 323.163ZM474.234 322.116C475.325 322.116 476.009 321.207 476.009 319.561V319.553C476.009 317.89 475.325 316.964 474.234 316.964C473.152 316.964 472.459 317.89 472.459 319.553V319.561C472.459 321.207 473.152 322.116 474.234 322.116ZM481.109 323.163C479.343 323.163 478.191 321.873 478.191 319.561V319.553C478.191 317.215 479.343 315.916 481.109 315.916C482.875 315.916 484.027 317.215 484.027 319.553V319.561C484.027 321.873 482.875 323.163 481.109 323.163ZM481.109 322.116C482.2 322.116 482.884 321.207 482.884 319.561V319.553C482.884 317.89 482.2 316.964 481.109 316.964C480.027 316.964 479.334 317.89 479.334 319.553V319.561C479.334 321.207 480.027 322.116 481.109 322.116ZM489.428 316.037C491.246 316.037 491.905 317.042 491.905 318.193V318.202C491.896 319.561 491.047 320.453 489.437 320.453H488.034V323.06H486.926V316.037H489.428ZM490.796 318.228V318.219C490.796 317.379 490.268 317.068 489.359 317.068H488.034V319.423H489.359C490.398 319.423 490.788 318.981 490.796 318.228ZM495.075 323.172C493.568 323.172 492.425 322.09 492.417 320.6V320.592C492.417 319.094 493.568 317.985 495.075 317.985H495.084C496.616 317.994 497.759 319.094 497.759 320.592V320.6C497.759 322.09 496.616 323.163 495.084 323.172H495.075ZM495.084 322.142H495.092C496.019 322.142 496.642 321.458 496.642 320.6V320.592C496.642 319.717 496.019 319.033 495.092 319.025H495.084C494.166 319.025 493.542 319.717 493.542 320.592V320.6C493.542 321.458 494.166 322.142 495.084 322.142ZM499.324 317.509C498.96 317.509 498.631 317.293 498.631 316.877C498.631 316.505 498.934 316.262 499.324 316.262C499.696 316.262 499.999 316.505 499.999 316.877C499.999 317.293 499.679 317.509 499.324 317.509ZM498.761 323.06V318.167H499.878V323.06H498.761ZM501.323 323.06V318.271C502.128 318.133 503.046 318.029 503.54 318.029C504.735 318.029 505.73 318.453 505.73 319.89C505.73 320.947 505.739 322.003 505.739 323.06H504.622V320.107C504.622 319.371 504.206 319.111 503.488 319.111C503.202 319.111 502.812 319.146 502.431 319.215V323.06H501.323ZM509.226 323.06C507.971 323.06 507.555 322.557 507.555 321.501V319.172H506.663V318.167H507.555V316.401H508.655V318.167H510.508V319.172H508.655V321.172C508.655 321.839 508.975 322.038 509.625 322.038H510.517V323.06H509.226ZM513.096 323.172C512.36 323.172 511.693 323.042 511.035 322.748L511.329 321.873C511.901 322.116 512.49 322.228 512.992 322.228C513.676 322.228 514.135 322.124 514.135 321.709C514.135 321.336 513.97 321.259 513.148 321.042C513.001 321.007 512.853 320.964 512.706 320.929C511.641 320.661 511.165 320.185 511.165 319.388C511.165 318.522 511.892 317.994 513.113 317.994C513.849 317.994 514.559 318.141 515.053 318.41L514.741 319.284C514.282 319.068 513.745 318.938 513.243 318.938C512.663 318.938 512.317 319.05 512.317 319.388C512.317 319.743 512.602 319.821 513.269 319.994L513.624 320.09C514.758 320.384 515.226 320.869 515.226 321.648C515.226 322.653 514.516 323.172 513.096 323.172Z" fill="#6C737F"/>
<g clip-path="url(#clip5_2802_41781)">
<rect x="287.597" y="347.542" width="30.4315" height="26.1021" rx="8.6589" fill="#3375A9" fill-opacity="0.08"/>
<path d="M297.017 363.593L297.28 361.576H295.751L295.854 360.638H297.402L297.646 358.856H296.136L296.239 357.918H297.768L298.03 355.976H299.175L298.912 357.918H300.76L301.023 355.976H302.167L301.905 357.918H303.471L303.368 358.856H301.783L301.548 360.638H303.087L302.983 361.576H301.426L301.154 363.593H300.01L300.282 361.576H298.424L298.152 363.593H297.017ZM298.546 360.638H300.404L300.638 358.856H298.79L298.546 360.638ZM305.036 363.593V362.496C307.016 360.985 308.807 359.719 308.807 358.293V358.199C308.807 357.383 308.226 357.027 307.325 357.027C306.706 357.027 306.049 357.224 305.552 357.505L305.064 356.483C305.702 356.117 306.612 355.873 307.531 355.873C309.145 355.873 310.074 356.68 310.083 358.049V358.124C310.083 359.747 308.995 360.92 306.837 362.439H310.13V363.593H305.036Z" fill="#005394"/>
</g>
<path d="M334.312 363.725C331.817 363.725 330.059 362.007 330.049 359.502V359.492C330.049 356.987 331.806 355.269 334.312 355.269H334.322C335.362 355.269 336.241 355.562 336.989 356.057L336.484 357.158C335.777 356.714 335.1 356.522 334.382 356.522H334.372C332.827 356.522 331.453 357.502 331.453 359.492V359.502C331.463 361.482 332.817 362.462 334.372 362.462H334.382C335.09 362.462 335.777 362.28 336.484 361.836L336.989 362.937C336.261 363.411 335.413 363.725 334.322 363.725H334.312ZM340.22 357.694C341.725 357.694 342.776 358.35 342.776 359.916V363.331C342.15 363.502 341.15 363.694 340.251 363.694C338.503 363.694 337.543 363.017 337.543 361.755V361.745C337.543 360.522 338.452 359.856 340.119 359.856C340.523 359.856 340.998 359.896 341.493 359.957V359.926C341.493 359.239 340.968 358.835 339.927 358.835C339.392 358.835 338.604 358.946 337.978 359.209L338.281 358.017C338.725 357.825 339.493 357.694 340.22 357.694ZM338.856 361.724C338.856 362.27 339.301 362.533 340.261 362.533C340.604 362.533 341.18 362.482 341.493 362.401V361.048C341.271 361.007 340.675 360.936 340.261 360.936C339.301 360.936 338.856 361.189 338.856 361.724ZM344.291 363.593V358.158C345.099 357.936 345.948 357.886 346.534 357.886H347.574V359.088H346.695C346.412 359.088 345.786 359.108 345.584 359.209V363.593H344.291ZM350.531 363.725C349.672 363.725 348.894 363.573 348.126 363.23L348.47 362.209C349.136 362.492 349.823 362.623 350.409 362.623C351.207 362.623 351.743 362.502 351.743 362.017C351.743 361.583 351.551 361.492 350.591 361.239C350.419 361.199 350.248 361.149 350.076 361.108C348.833 360.795 348.278 360.239 348.278 359.31C348.278 358.3 349.126 357.684 350.551 357.684C351.409 357.684 352.238 357.855 352.814 358.168L352.45 359.189C351.915 358.936 351.288 358.785 350.702 358.785C350.025 358.785 349.621 358.916 349.621 359.31C349.621 359.724 349.955 359.815 350.733 360.017L351.147 360.128C352.47 360.472 353.016 361.037 353.016 361.947C353.016 363.118 352.187 363.725 350.531 363.725ZM356.754 363.725C354.996 363.725 353.663 362.462 353.653 360.724V360.714C353.653 358.967 354.996 357.673 356.754 357.673H356.764C358.552 357.684 359.886 358.967 359.886 360.714V360.724C359.886 362.462 358.552 363.714 356.764 363.725H356.754ZM356.764 362.522H356.774C357.855 362.522 358.583 361.724 358.583 360.724V360.714C358.583 359.694 357.855 358.896 356.774 358.886H356.764C355.693 358.886 354.966 359.694 354.966 360.714V360.724C354.966 361.724 355.693 362.522 356.764 362.522ZM361.054 363.593V358.007C361.994 357.845 363.064 357.724 363.64 357.724C365.034 357.724 366.196 358.219 366.196 359.896C366.196 361.128 366.206 362.361 366.206 363.593H364.903V360.148C364.903 359.29 364.418 358.987 363.58 358.987C363.246 358.987 362.792 359.027 362.347 359.108V363.593H361.054ZM372.223 355.4C375.001 355.4 376.738 356.956 376.738 359.451V359.462C376.728 361.997 374.991 363.593 372.223 363.593H369.818V355.4H372.223ZM375.334 359.462V359.451C375.334 357.643 374.263 356.613 372.394 356.613H371.111V362.381H372.394C374.263 362.381 375.324 361.32 375.334 359.462ZM380.125 357.694C381.631 357.694 382.681 358.35 382.681 359.916V363.331C382.055 363.502 381.055 363.694 380.156 363.694C378.408 363.694 377.448 363.017 377.448 361.755V361.745C377.448 360.522 378.357 359.856 380.024 359.856C380.428 359.856 380.903 359.896 381.398 359.957V359.926C381.398 359.239 380.873 358.835 379.832 358.835C379.297 358.835 378.509 358.946 377.883 359.209L378.186 358.017C378.63 357.825 379.398 357.694 380.125 357.694ZM378.762 361.724C378.762 362.27 379.206 362.533 380.166 362.533C380.509 362.533 381.085 362.482 381.398 362.401V361.048C381.176 361.007 380.58 360.936 380.166 360.936C379.206 360.936 378.762 361.189 378.762 361.724ZM384.196 363.593V358.158C385.004 357.936 385.853 357.886 386.439 357.886H387.479V359.088H386.6C386.317 359.088 385.691 359.108 385.489 359.209V363.593H384.196ZM388.596 363.593V358.158C389.404 357.936 390.253 357.886 390.839 357.886H391.879V359.088H391C390.717 359.088 390.091 359.108 389.889 359.209V363.593H388.596ZM393.743 357.118C393.319 357.118 392.935 356.865 392.935 356.38C392.935 355.946 393.289 355.663 393.743 355.663C394.178 355.663 394.531 355.946 394.531 356.38C394.531 356.865 394.158 357.118 393.743 357.118ZM393.087 363.593V357.886H394.39V363.593H393.087ZM396.076 363.593V358.007C397.015 357.845 398.086 357.724 398.662 357.724C400.056 357.724 401.218 358.219 401.218 359.896C401.218 361.128 401.228 362.361 401.228 363.593H399.925V360.148C399.925 359.29 399.44 358.987 398.601 358.987C398.268 358.987 397.813 359.027 397.369 359.108V363.593H396.076Z" fill="#111927"/>
<path d="M469.787 363.593V362.58C471.614 361.186 473.268 360.017 473.268 358.701V358.614C473.268 357.861 472.731 357.532 471.899 357.532C471.328 357.532 470.722 357.714 470.263 357.974L469.813 357.03C470.401 356.692 471.241 356.467 472.09 356.467C473.579 356.467 474.437 357.212 474.445 358.476V358.545C474.445 360.043 473.441 361.125 471.449 362.528H474.488V363.593H469.787ZM476.665 363.593V357.671L475.176 358.026V357.03L477.782 356.502V363.593H476.665ZM481.937 356.467C483.608 356.467 484.708 357.471 484.716 359.021V359.039C484.716 359.835 484.266 360.589 483.92 361.039C483.322 361.81 482.534 362.866 481.971 363.593H480.699C481.192 362.961 481.859 362.121 482.43 361.385C482.205 361.446 481.971 361.472 481.755 361.472C480.248 361.472 479.235 360.493 479.235 359.065V359.039C479.235 357.497 480.309 356.476 481.937 356.467ZM483.582 358.987V358.969C483.582 358.069 482.933 357.48 481.963 357.48C481.002 357.489 480.361 358.078 480.361 358.969V358.987C480.361 359.887 481.002 360.485 481.963 360.493C482.933 360.493 483.582 359.896 483.582 358.987ZM490.048 356.571C491.866 356.571 492.524 357.575 492.524 358.727V358.736C492.516 360.095 491.667 360.987 490.057 360.987H488.654V363.593H487.545V356.571H490.048ZM491.416 358.762V358.753C491.416 357.913 490.888 357.601 489.979 357.601H488.654V359.957H489.979C491.018 359.957 491.407 359.515 491.416 358.762ZM495.695 363.706C494.188 363.706 493.045 362.623 493.037 361.134V361.125C493.037 359.627 494.188 358.519 495.695 358.519H495.703C497.236 358.528 498.379 359.627 498.379 361.125V361.134C498.379 362.623 497.236 363.697 495.703 363.706H495.695ZM495.703 362.675H495.712C496.639 362.675 497.262 361.991 497.262 361.134V361.125C497.262 360.251 496.639 359.567 495.712 359.558H495.703C494.786 359.558 494.162 360.251 494.162 361.125V361.134C494.162 361.991 494.786 362.675 495.703 362.675ZM499.943 358.043C499.58 358.043 499.251 357.826 499.251 357.411C499.251 357.038 499.554 356.796 499.943 356.796C500.316 356.796 500.619 357.038 500.619 357.411C500.619 357.826 500.298 358.043 499.943 358.043ZM499.381 363.593V358.701H500.498V363.593H499.381ZM501.943 363.593V358.805C502.748 358.666 503.666 358.562 504.159 358.562C505.354 358.562 506.35 358.987 506.35 360.424C506.35 361.48 506.359 362.537 506.359 363.593H505.242V360.641C505.242 359.905 504.826 359.645 504.107 359.645C503.822 359.645 503.432 359.679 503.051 359.749V363.593H501.943ZM509.846 363.593C508.591 363.593 508.175 363.091 508.175 362.035V359.705H507.283V358.701H508.175V356.935H509.275V358.701H511.128V359.705H509.275V361.706C509.275 362.372 509.595 362.572 510.245 362.572H511.136V363.593H509.846ZM513.716 363.706C512.98 363.706 512.313 363.576 511.655 363.282L511.949 362.407C512.521 362.649 513.11 362.762 513.612 362.762C514.296 362.762 514.755 362.658 514.755 362.242C514.755 361.87 514.59 361.792 513.768 361.576C513.62 361.541 513.473 361.498 513.326 361.463C512.261 361.195 511.785 360.719 511.785 359.922C511.785 359.056 512.512 358.528 513.733 358.528C514.469 358.528 515.179 358.675 515.673 358.943L515.361 359.818C514.902 359.602 514.365 359.472 513.863 359.472C513.283 359.472 512.936 359.584 512.936 359.922C512.936 360.277 513.222 360.355 513.889 360.528L514.244 360.623C515.378 360.918 515.846 361.403 515.846 362.182C515.846 363.186 515.136 363.706 513.716 363.706Z" fill="#6C737F"/>
<g clip-path="url(#clip6_2802_41781)">
<rect x="287.597" y="388.076" width="30.4315" height="26.1021" rx="8.6589" fill="#3375A9" fill-opacity="0.08"/>
<path d="M297.017 404.126L297.28 402.11H295.751L295.854 401.172H297.402L297.646 399.389H296.136L296.239 398.451H297.768L298.03 396.51H299.175L298.912 398.451H300.76L301.023 396.51H302.167L301.905 398.451H303.471L303.368 399.389H301.783L301.548 401.172H303.087L302.983 402.11H301.426L301.154 404.126H300.01L300.282 402.11H298.424L298.152 404.126H297.017ZM298.546 401.172H300.404L300.638 399.389H298.79L298.546 401.172ZM309.154 400.149C309.989 400.431 310.355 401.153 310.355 402.025V402.053C310.355 403.432 309.239 404.23 307.4 404.23C306.5 404.23 305.468 403.939 304.783 403.451L305.346 402.419C305.89 402.851 306.565 403.076 307.222 403.076C308.441 403.076 309.126 402.672 309.126 401.913V401.875C309.126 401.068 308.47 400.749 307.203 400.749H306.856V399.689H307.203C308.319 399.689 308.995 399.408 308.995 398.658V398.62C308.995 397.926 308.423 397.56 307.316 397.56C306.659 397.56 305.965 397.776 305.411 398.198L304.858 397.176C305.543 396.688 306.575 396.397 307.466 396.397C309.136 396.397 310.205 397.11 310.205 398.395V398.433C310.205 399.136 309.839 399.811 309.154 400.149Z" fill="#005394"/>
</g>
<path d="M330.584 404.126V395.934H335.675V397.146H331.877V399.318H335.302V400.53H331.877V404.126H330.584ZM336.418 404.126V398.692C337.227 398.469 338.075 398.419 338.661 398.419H339.702V399.621H338.823C338.54 399.621 337.913 399.641 337.711 399.742V404.126H336.418ZM342.933 398.227C344.438 398.227 345.489 398.883 345.489 400.449V403.864C344.863 404.036 343.863 404.227 342.963 404.227C341.216 404.227 340.256 403.551 340.256 402.288V402.278C340.256 401.055 341.165 400.389 342.832 400.389C343.236 400.389 343.711 400.429 344.206 400.49V400.459C344.206 399.772 343.681 399.368 342.64 399.368C342.105 399.368 341.317 399.48 340.691 399.742L340.994 398.55C341.438 398.358 342.206 398.227 342.933 398.227ZM341.569 402.258C341.569 402.803 342.014 403.066 342.974 403.066C343.317 403.066 343.893 403.015 344.206 402.934V401.581C343.984 401.54 343.388 401.47 342.974 401.47C342.014 401.47 341.569 401.722 341.569 402.258ZM347.095 404.126V398.54C348.034 398.378 349.105 398.257 349.681 398.257C351.075 398.257 352.237 398.752 352.237 400.429C352.237 401.662 352.247 402.894 352.247 404.126H350.944V400.682C350.944 399.823 350.459 399.52 349.62 399.52C349.287 399.52 348.832 399.56 348.388 399.641V404.126H347.095ZM358.778 395.934C360.9 395.934 361.668 397.106 361.668 398.449V398.459C361.657 400.045 360.667 401.086 358.789 401.086H357.152V404.126H355.859V395.934H358.778ZM360.375 398.49V398.479C360.375 397.5 359.758 397.136 358.698 397.136H357.152V399.884H358.698C359.91 399.884 360.364 399.368 360.375 398.49ZM368.023 401.086V401.702H363.639C363.811 402.591 364.437 403.106 365.417 403.106C366.104 403.106 366.75 402.934 367.185 402.682L367.73 403.692C367.134 404.005 366.336 404.248 365.326 404.248C363.508 404.248 362.306 403.035 362.306 401.237V401.227C362.306 399.419 363.487 398.207 365.255 398.207C366.922 398.207 368.023 399.358 368.023 401.086ZM365.225 399.348C364.346 399.348 363.811 399.813 363.649 400.601H366.761C366.68 399.823 366.104 399.348 365.225 399.348ZM369.112 404.126V398.692C369.92 398.469 370.769 398.419 371.355 398.419H372.395V399.621H371.516C371.233 399.621 370.607 399.641 370.405 399.742V404.126H369.112ZM378.737 401.086V401.702H374.353C374.524 402.591 375.151 403.106 376.131 403.106C376.818 403.106 377.464 402.934 377.899 402.682L378.444 403.692C377.848 404.005 377.05 404.248 376.04 404.248C374.221 404.248 373.019 403.035 373.019 401.237V401.227C373.019 399.419 374.201 398.207 375.969 398.207C377.636 398.207 378.737 399.358 378.737 401.086ZM375.939 399.348C375.06 399.348 374.524 399.813 374.363 400.601H377.474C377.393 399.823 376.818 399.348 375.939 399.348ZM381.102 402.934H384.365V404.126H379.476V403.005L382.668 399.601H379.637V398.419H384.284V399.5L381.102 402.934Z" fill="#111927"/>
<path d="M470.042 404.126V398.204L468.553 398.559V397.563L471.159 397.035V404.126H470.042ZM475.461 404.23C473.694 404.23 472.543 402.94 472.543 400.628V400.62C472.543 398.282 473.694 396.983 475.461 396.983C477.227 396.983 478.379 398.282 478.379 400.62V400.628C478.379 402.94 477.227 404.23 475.461 404.23ZM475.461 403.183C476.552 403.183 477.236 402.273 477.236 400.628V400.62C477.236 398.957 476.552 398.031 475.461 398.031C474.378 398.031 473.686 398.957 473.686 400.62V400.628C473.686 402.273 474.378 403.183 475.461 403.183ZM482.024 404.222C480.604 404.222 479.348 403.598 479.348 402.23V402.161C479.348 401.278 479.894 400.672 480.621 400.438C480.032 400.239 479.565 399.702 479.565 398.948V398.888C479.565 397.598 480.69 396.992 482.024 396.992C483.375 396.992 484.483 397.606 484.483 398.888V398.948C484.483 399.702 484.015 400.239 483.435 400.438C484.154 400.672 484.699 401.278 484.699 402.161V402.239C484.699 403.598 483.452 404.222 482.024 404.222ZM482.024 399.996C482.794 399.996 483.34 399.667 483.34 398.992C483.34 398.325 482.829 398.005 482.024 398.005C481.227 398.005 480.708 398.325 480.708 398.992C480.708 399.676 481.253 399.996 482.024 399.996ZM482.024 403.235C482.916 403.235 483.513 402.862 483.513 402.109C483.513 401.33 482.898 400.94 482.024 400.94C481.158 400.94 480.543 401.321 480.543 402.109C480.543 402.88 481.149 403.235 482.024 403.235ZM490.037 397.104C491.856 397.104 492.514 398.109 492.514 399.26V399.269C492.505 400.628 491.656 401.52 490.046 401.52H488.643V404.126H487.535V397.104H490.037ZM491.405 399.295V399.286C491.405 398.446 490.877 398.135 489.968 398.135H488.643V400.49H489.968C491.007 400.49 491.397 400.048 491.405 399.295ZM495.684 404.239C494.177 404.239 493.035 403.157 493.026 401.667V401.659C493.026 400.161 494.177 399.052 495.684 399.052H495.693C497.225 399.061 498.368 400.161 498.368 401.659V401.667C498.368 403.157 497.225 404.23 495.693 404.239H495.684ZM495.693 403.209H495.701C496.628 403.209 497.251 402.525 497.251 401.667V401.659C497.251 400.784 496.628 400.1 495.701 400.091H495.693C494.775 400.091 494.152 400.784 494.152 401.659V401.667C494.152 402.525 494.775 403.209 495.693 403.209ZM499.933 398.576C499.569 398.576 499.24 398.36 499.24 397.944C499.24 397.572 499.543 397.329 499.933 397.329C500.305 397.329 500.608 397.572 500.608 397.944C500.608 398.36 500.288 398.576 499.933 398.576ZM499.37 404.126V399.234H500.487V404.126H499.37ZM501.932 404.126V399.338C502.737 399.2 503.655 399.096 504.149 399.096C505.344 399.096 506.339 399.52 506.339 400.957C506.339 402.014 506.348 403.07 506.348 404.126H505.231V401.174C505.231 400.438 504.815 400.178 504.097 400.178C503.811 400.178 503.421 400.213 503.04 400.282V404.126H501.932ZM509.836 404.126C508.58 404.126 508.164 403.624 508.164 402.568V400.239H507.273V399.234H508.164V397.468H509.264V399.234H511.117V400.239H509.264V402.239C509.264 402.906 509.584 403.105 510.234 403.105H511.126V404.126H509.836ZM513.705 404.239C512.969 404.239 512.302 404.109 511.644 403.815L511.939 402.94C512.51 403.183 513.099 403.295 513.601 403.295C514.285 403.295 514.744 403.191 514.744 402.776C514.744 402.403 514.58 402.325 513.757 402.109C513.61 402.074 513.463 402.031 513.315 401.996C512.25 401.728 511.774 401.252 511.774 400.455C511.774 399.589 512.501 399.061 513.722 399.061C514.458 399.061 515.168 399.208 515.662 399.477L515.35 400.351C514.891 400.135 514.354 400.005 513.852 400.005C513.272 400.005 512.926 400.117 512.926 400.455C512.926 400.81 513.212 400.888 513.878 401.061L514.233 401.156C515.368 401.451 515.835 401.936 515.835 402.715C515.835 403.719 515.125 404.239 513.705 404.239Z" fill="#6C737F"/>
<g clip-path="url(#clip7_2802_41781)">
<rect x="287.597" y="428.609" width="31.4315" height="26.1021" rx="8.6589" fill="#3375A9" fill-opacity="0.08"/>
<path d="M297.017 444.66L297.28 442.643H295.751L295.854 441.705H297.402L297.646 439.923H296.136L296.239 438.985H297.768L298.03 437.043H299.175L298.912 438.985H300.76L301.023 437.043H302.167L301.905 438.985H303.471L303.368 439.923H301.783L301.548 441.705H303.087L302.983 442.643H301.426L301.154 444.66H300.01L300.282 442.643H298.424L298.152 444.66H297.017ZM298.546 441.705H300.404L300.638 439.923H298.79L298.546 441.705ZM308.929 444.66V442.803H304.877V441.677L308.573 437.053H310.139V441.677H311.387V442.803H310.139V444.66H308.929ZM306.181 441.677H308.929V438.272L306.181 441.677Z" fill="#005394"/>
</g>
<path d="M332.564 444.781C331.776 444.781 331.089 444.579 330.655 444.357L331.119 443.246C331.483 443.408 331.867 443.519 332.281 443.519C332.958 443.519 333.382 443.165 333.382 442.215V436.467H334.675V442.367C334.675 443.973 333.938 444.781 332.564 444.781ZM337.189 438.185C336.765 438.185 336.381 437.932 336.381 437.447C336.381 437.013 336.735 436.73 337.189 436.73C337.624 436.73 337.977 437.013 337.977 437.447C337.977 437.932 337.603 438.185 337.189 438.185ZM336.533 444.66V438.952H337.836V444.66H336.533ZM344.755 441.619V442.236H340.37C340.542 443.125 341.168 443.64 342.148 443.64C342.835 443.64 343.482 443.468 343.916 443.216L344.462 444.226C343.866 444.539 343.068 444.781 342.057 444.781C340.239 444.781 339.037 443.569 339.037 441.771V441.761C339.037 439.953 340.219 438.74 341.987 438.74C343.654 438.74 344.755 439.892 344.755 441.619ZM341.956 439.882C341.078 439.882 340.542 440.347 340.38 441.135H343.492C343.411 440.357 342.835 439.882 341.956 439.882ZM352.992 436.467H354.447L351.417 441.529V444.66H350.123V441.529L347.103 436.467H348.558L350.77 440.316L352.992 436.467ZM356.452 438.761C357.957 438.761 359.008 439.417 359.008 440.983V444.398C358.382 444.569 357.382 444.761 356.483 444.761C354.735 444.761 353.775 444.084 353.775 442.822V442.811C353.775 441.589 354.684 440.922 356.351 440.922C356.755 440.922 357.23 440.963 357.725 441.023V440.993C357.725 440.306 357.2 439.902 356.159 439.902C355.624 439.902 354.836 440.013 354.21 440.276L354.513 439.084C354.957 438.892 355.725 438.761 356.452 438.761ZM355.088 442.791C355.088 443.337 355.533 443.599 356.493 443.599C356.836 443.599 357.412 443.549 357.725 443.468V442.114C357.503 442.074 356.907 442.003 356.493 442.003C355.533 442.003 355.088 442.256 355.088 442.791ZM360.614 444.66V439.074C361.553 438.912 362.624 438.791 363.2 438.791C364.594 438.791 365.756 439.286 365.756 440.963C365.756 442.195 365.766 443.428 365.766 444.66H364.463V441.215C364.463 440.357 363.978 440.054 363.139 440.054C362.806 440.054 362.351 440.094 361.907 440.175V444.66H360.614ZM371.903 444.781C370.812 444.781 369.752 444.509 369.024 444.024L369.529 442.943C370.146 443.367 370.994 443.62 371.853 443.62C373.025 443.62 373.681 443.145 373.681 442.418V442.397C373.681 441.781 373.237 441.468 372.055 441.114L371.348 440.902C369.893 440.478 369.257 439.771 369.257 438.548V438.528C369.257 437.215 370.317 436.336 372.085 436.336C373.096 436.336 374.106 436.589 374.803 437.043L374.308 438.124C373.702 437.72 372.893 437.488 372.095 437.488C371.045 437.488 370.55 437.912 370.55 438.498V438.518C370.55 439.225 370.974 439.478 371.823 439.751C372.045 439.821 372.338 439.902 372.56 439.963C374.288 440.448 374.985 441.175 374.985 442.377V442.397C374.985 443.892 373.803 444.781 371.903 444.781ZM379.073 444.791C377.315 444.791 375.982 443.529 375.972 441.791V441.781C375.972 440.033 377.315 438.74 379.073 438.74H379.083C380.871 438.75 382.205 440.033 382.205 441.781V441.791C382.205 443.529 380.871 444.781 379.083 444.791H379.073ZM379.083 443.589H379.093C380.174 443.589 380.901 442.791 380.901 441.791V441.781C380.901 440.761 380.174 439.963 379.093 439.953H379.083C378.012 439.953 377.285 440.761 377.285 441.781V441.791C377.285 442.791 378.012 443.589 379.083 443.589ZM383.373 444.66V439.074C384.312 438.912 385.383 438.791 385.959 438.791C387.353 438.791 388.515 439.286 388.515 440.963C388.515 442.195 388.525 443.428 388.525 444.66H387.222V441.215C387.222 440.357 386.737 440.054 385.899 440.054C385.565 440.054 385.111 440.094 384.666 440.175V444.66H383.373ZM392.917 438.791C393.473 438.791 394.442 438.902 395.331 439.094V444.64C395.331 446.256 394.2 446.994 392.735 446.994C392.008 446.994 391.28 446.873 390.866 446.701L390.594 445.519C391.149 445.751 391.887 445.852 392.452 445.852C393.513 445.852 394.048 445.529 394.048 444.6V444.458C393.685 444.488 393.321 444.509 393.018 444.509H392.988C390.816 444.509 389.715 443.397 389.715 441.609V441.599C389.715 439.872 390.977 438.791 392.907 438.791H392.917ZM394.018 443.135V440.205C393.644 440.094 393.321 440.054 392.998 440.054H392.988C391.816 440.054 391.048 440.539 391.048 441.64V441.65C391.048 442.71 391.806 443.246 393.018 443.246H393.048C393.321 443.246 393.675 443.226 394.018 443.135Z" fill="#111927"/>
<path d="M473.908 444.66L477.501 438.668H473.579V437.638H478.748V438.668L475.25 444.66H473.908ZM483.228 440.989C483.999 441.249 484.336 441.915 484.336 442.721V442.747C484.336 444.019 483.306 444.755 481.609 444.755C480.778 444.755 479.825 444.487 479.193 444.037L479.713 443.084C480.215 443.483 480.838 443.69 481.444 443.69C482.57 443.69 483.202 443.318 483.202 442.617V442.582C483.202 441.837 482.596 441.543 481.427 441.543H481.107V440.564H481.427C482.457 440.564 483.081 440.305 483.081 439.612V439.577C483.081 438.937 482.553 438.599 481.531 438.599C480.925 438.599 480.284 438.798 479.773 439.188L479.262 438.244C479.894 437.794 480.847 437.525 481.669 437.525C483.211 437.525 484.198 438.183 484.198 439.37V439.404C484.198 440.054 483.86 440.677 483.228 440.989ZM489.625 437.638C491.444 437.638 492.102 438.642 492.102 439.794V439.803C492.093 441.162 491.245 442.054 489.634 442.054H488.231V444.66H487.123V437.638H489.625ZM490.994 439.828V439.82C490.994 438.98 490.465 438.668 489.556 438.668H488.231V441.023H489.556C490.595 441.023 490.985 440.582 490.994 439.828ZM495.272 444.773C493.766 444.773 492.623 443.69 492.614 442.201V442.192C492.614 440.694 493.766 439.586 495.272 439.586H495.281C496.814 439.595 497.957 440.694 497.957 442.192V442.201C497.957 443.69 496.814 444.764 495.281 444.773H495.272ZM495.281 443.742H495.29C496.216 443.742 496.84 443.058 496.84 442.201V442.192C496.84 441.318 496.216 440.634 495.29 440.625H495.281C494.363 440.625 493.74 441.318 493.74 442.192V442.201C493.74 443.058 494.363 443.742 495.281 443.742ZM499.521 439.11C499.157 439.11 498.828 438.893 498.828 438.478C498.828 438.105 499.131 437.863 499.521 437.863C499.893 437.863 500.196 438.105 500.196 438.478C500.196 438.893 499.876 439.11 499.521 439.11ZM498.958 444.66V439.768H500.075V444.66H498.958ZM501.52 444.66V439.872C502.326 439.733 503.243 439.629 503.737 439.629C504.932 439.629 505.928 440.054 505.928 441.491C505.928 442.547 505.936 443.604 505.936 444.66H504.819V441.707C504.819 440.971 504.404 440.712 503.685 440.712C503.399 440.712 503.01 440.746 502.629 440.816V444.66H501.52ZM509.424 444.66C508.168 444.66 507.753 444.158 507.753 443.102V440.772H506.861V439.768H507.753V438.001H508.852V439.768H510.705V440.772H508.852V442.773C508.852 443.439 509.173 443.638 509.822 443.638H510.714V444.66H509.424ZM513.293 444.773C512.557 444.773 511.891 444.643 511.232 444.348L511.527 443.474C512.098 443.716 512.687 443.829 513.189 443.829C513.873 443.829 514.332 443.725 514.332 443.309C514.332 442.937 514.168 442.859 513.345 442.643C513.198 442.608 513.051 442.565 512.904 442.53C511.839 442.262 511.362 441.785 511.362 440.989C511.362 440.123 512.09 439.595 513.311 439.595C514.047 439.595 514.757 439.742 515.25 440.01L514.938 440.885C514.48 440.668 513.943 440.539 513.44 440.539C512.86 440.539 512.514 440.651 512.514 440.989C512.514 441.344 512.8 441.422 513.466 441.595L513.821 441.69C514.956 441.985 515.423 442.469 515.423 443.249C515.423 444.253 514.713 444.773 513.293 444.773Z" fill="#6C737F"/>
<g clip-path="url(#clip8_2802_41781)">
<rect x="287.597" y="469.143" width="30.4315" height="26.1021" rx="8.6589" fill="#3375A9" fill-opacity="0.08"/>
<path d="M297.017 485.194L297.28 483.177H295.751L295.854 482.239H297.402L297.646 480.457H296.136L296.239 479.519H297.768L298.03 477.577H299.175L298.912 479.519H300.76L301.023 477.577H302.167L301.905 479.519H303.471L303.368 480.457H301.783L301.548 482.239H303.087L302.983 483.177H301.426L301.154 485.194H300.01L300.282 483.177H298.424L298.152 485.194H297.017ZM298.546 482.239H300.404L300.638 480.457H298.79L298.546 482.239ZM307.672 480.157C309.117 480.157 310.177 480.916 310.177 482.455V483.027C310.177 484.481 309.079 485.306 307.456 485.306C306.575 485.306 305.721 485.081 305.017 484.706L305.543 483.684C306.002 483.993 306.668 484.181 307.269 484.181C308.263 484.181 308.863 483.74 308.873 482.98V482.567C308.873 481.723 308.113 481.235 306.94 481.235C306.321 481.235 305.759 481.385 305.449 481.498L305.927 477.586H309.905V478.693H307.091L306.912 480.213C307.128 480.185 307.391 480.157 307.672 480.157Z" fill="#005394"/>
</g>
<path d="M337.009 477.001H338.645V485.194H337.363V479.173L337.282 479.456L335.221 485.194H334.009L331.938 479.446L331.867 479.183V485.194H330.584V477.001H332.21L334.372 482.911L334.615 483.87L334.867 482.921L337.009 477.001ZM342.687 479.294C344.192 479.294 345.242 479.951 345.242 481.517V484.931C344.616 485.103 343.616 485.295 342.717 485.295C340.969 485.295 340.01 484.618 340.01 483.355V483.345C340.01 482.123 340.919 481.456 342.586 481.456C342.99 481.456 343.464 481.496 343.959 481.557V481.527C343.959 480.84 343.434 480.436 342.394 480.436C341.858 480.436 341.07 480.547 340.444 480.81L340.747 479.618C341.191 479.426 341.959 479.294 342.687 479.294ZM341.323 483.325C341.323 483.87 341.767 484.133 342.727 484.133C343.07 484.133 343.646 484.083 343.959 484.002V482.648C343.737 482.608 343.141 482.537 342.727 482.537C341.767 482.537 341.323 482.79 341.323 483.325ZM346.757 485.194V479.759C347.565 479.537 348.414 479.486 349 479.486H350.04V480.688H349.161C348.879 480.688 348.252 480.709 348.05 480.81V485.194H346.757ZM353.746 485.315C351.877 485.315 350.705 484.153 350.695 482.295V482.284C350.715 480.486 351.937 479.284 353.756 479.284C354.463 479.284 355.15 479.426 355.705 479.698L355.2 480.799C354.756 480.587 354.301 480.486 353.766 480.486C352.695 480.486 352.018 481.183 352.008 482.284V482.305C352.018 483.406 352.695 484.103 353.776 484.103C354.321 484.103 354.827 484.002 355.21 483.79L355.716 484.891C355.15 485.164 354.463 485.315 353.746 485.315ZM361.925 479.486V485.032C360.975 485.204 359.914 485.325 359.328 485.325C357.732 485.325 356.773 484.689 356.773 483.143V479.486H358.066C358.066 480.638 358.076 481.739 358.076 482.891C358.076 483.8 358.551 484.052 359.389 484.052C359.732 484.052 360.177 484.012 360.621 483.931V479.486H361.925ZM365.407 485.325C364.549 485.325 363.771 485.174 363.003 484.83L363.347 483.81C364.013 484.093 364.7 484.224 365.286 484.224C366.084 484.224 366.62 484.103 366.62 483.618C366.62 483.184 366.428 483.093 365.468 482.84C365.296 482.8 365.125 482.749 364.953 482.709C363.71 482.396 363.155 481.84 363.155 480.911C363.155 479.9 364.003 479.284 365.428 479.284C366.286 479.284 367.115 479.456 367.69 479.769L367.327 480.789C366.791 480.537 366.165 480.385 365.579 480.385C364.902 480.385 364.498 480.517 364.498 480.911C364.498 481.325 364.832 481.416 365.609 481.618L366.024 481.729C367.347 482.072 367.893 482.638 367.893 483.547C367.893 484.719 367.064 485.325 365.407 485.325ZM370.982 485.194V477.001H376.074V478.213H372.275V480.385H375.7V481.598H372.275V485.194H370.982ZM378.127 478.718C377.702 478.718 377.318 478.466 377.318 477.981C377.318 477.547 377.672 477.264 378.127 477.264C378.561 477.264 378.915 477.547 378.915 477.981C378.915 478.466 378.541 478.718 378.127 478.718ZM377.47 485.194V479.486H378.773V485.194H377.47ZM380.459 485.194V479.607C381.399 479.446 382.469 479.325 383.045 479.325C384.439 479.325 385.601 479.82 385.601 481.496C385.601 482.729 385.611 483.961 385.611 485.194H384.308V481.749C384.308 480.89 383.823 480.587 382.985 480.587C382.651 480.587 382.197 480.628 381.752 480.709V485.194H380.459ZM387.296 485.194V479.607C388.235 479.446 389.306 479.325 389.882 479.325C391.276 479.325 392.438 479.82 392.438 481.496C392.438 482.729 392.448 483.961 392.448 485.194H391.145V481.749C391.145 480.89 390.66 480.587 389.821 480.587C389.488 480.587 389.033 480.628 388.589 480.709V485.194H387.296Z" fill="#111927"/>
<path d="M475.38 485.194V483.479H471.639V482.44L475.051 478.171H476.497V482.44H477.649V483.479H476.497V485.194H475.38ZM472.843 482.44H475.38V479.297L472.843 482.44ZM481.967 485.194V483.479H478.227V482.44L481.638 478.171H483.084V482.44H484.236V483.479H483.084V485.194H481.967ZM479.43 482.44H481.967V479.297L479.43 482.44ZM489.393 478.171C491.211 478.171 491.869 479.176 491.869 480.328V480.336C491.861 481.696 491.012 482.588 489.401 482.588H487.999V485.194H486.89V478.171H489.393ZM490.761 480.362V480.354C490.761 479.514 490.233 479.202 489.323 479.202H487.999V481.557H489.323C490.363 481.557 490.752 481.116 490.761 480.362ZM495.04 485.306C493.533 485.306 492.39 484.224 492.381 482.735V482.726C492.381 481.228 493.533 480.12 495.04 480.12H495.048C496.581 480.128 497.724 481.228 497.724 482.726V482.735C497.724 484.224 496.581 485.298 495.048 485.306H495.04ZM495.048 484.276H495.057C495.983 484.276 496.607 483.592 496.607 482.735V482.726C496.607 481.852 495.983 481.167 495.057 481.159H495.048C494.13 481.159 493.507 481.852 493.507 482.726V482.735C493.507 483.592 494.13 484.276 495.048 484.276ZM499.288 479.643C498.925 479.643 498.596 479.427 498.596 479.011C498.596 478.639 498.899 478.397 499.288 478.397C499.661 478.397 499.964 478.639 499.964 479.011C499.964 479.427 499.643 479.643 499.288 479.643ZM498.725 485.194V480.302H499.842V485.194H498.725ZM501.288 485.194V480.405C502.093 480.267 503.011 480.163 503.504 480.163C504.699 480.163 505.695 480.587 505.695 482.025C505.695 483.081 505.704 484.137 505.704 485.194H504.587V482.241C504.587 481.505 504.171 481.245 503.452 481.245C503.167 481.245 502.777 481.28 502.396 481.349V485.194H501.288ZM509.191 485.194C507.936 485.194 507.52 484.692 507.52 483.635V481.306H506.628V480.302H507.52V478.535H508.62V480.302H510.473V481.306H508.62V483.306C508.62 483.973 508.94 484.172 509.589 484.172H510.481V485.194H509.191ZM513.061 485.306C512.325 485.306 511.658 485.177 511 484.882L511.294 484.008C511.866 484.25 512.454 484.363 512.957 484.363C513.641 484.363 514.1 484.259 514.1 483.843C514.1 483.471 513.935 483.393 513.113 483.176C512.965 483.142 512.818 483.098 512.671 483.064C511.606 482.795 511.13 482.319 511.13 481.522C511.13 480.657 511.857 480.128 513.078 480.128C513.814 480.128 514.524 480.276 515.017 480.544L514.706 481.419C514.247 481.202 513.71 481.072 513.208 481.072C512.628 481.072 512.281 481.185 512.281 481.522C512.281 481.877 512.567 481.955 513.234 482.129L513.589 482.224C514.723 482.518 515.191 483.003 515.191 483.782C515.191 484.787 514.481 485.306 513.061 485.306Z" fill="#6C737F"/>
<rect x="276.302" y="501.989" width="348.5" height="0.5" stroke="#111927" stroke-opacity="0.12" stroke-width="0.5"/>
</g>
</g>
<defs>
<filter id="filter0_d_2802_41781" x="0.346708" y="0.654202" width="457.376" height="308.876" filterUnits="userSpaceOnUse" color-interpolation-filters="sRGB">
<feFlood flood-opacity="0" result="BackgroundImageFix"/>
<feColorMatrix in="SourceAlpha" type="matrix" values="0 0 0 0 0 0 0 0 0 0 0 0 0 0 0 0 0 0 127 0" result="hardAlpha"/>
<feOffset dy="1.09143"/>
<feGaussianBlur stdDeviation="9.82286"/>
<feColorMatrix type="matrix" values="0 0 0 0 0 0 0 0 0 0 0 0 0 0 0 0 0 0 0.08 0"/>
<feBlend mode="normal" in2="BackgroundImageFix" result="effect1_dropShadow_2802_41781"/>
<feBlend mode="normal" in="SourceGraphic" in2="effect1_dropShadow_2802_41781" result="shape"/>
</filter>
<filter id="filter1_d_2802_41781" x="260.993" y="235.657" width="281.947" height="282.699" filterUnits="userSpaceOnUse" color-interpolation-filters="sRGB">
<feFlood flood-opacity="0" result="BackgroundImageFix"/>
<feColorMatrix in="SourceAlpha" type="matrix" values="0 0 0 0 0 0 0 0 0 0 0 0 0 0 0 0 0 0 127 0" result="hardAlpha"/>
<feOffset dy="0.836585"/>
<feGaussianBlur stdDeviation="7.52927"/>
<feColorMatrix type="matrix" values="0 0 0 0 0 0 0 0 0 0 0 0 0 0 0 0 0 0 0.08 0"/>
<feBlend mode="normal" in2="BackgroundImageFix" result="effect1_dropShadow_2802_41781"/>
<feBlend mode="normal" in="SourceGraphic" in2="effect1_dropShadow_2802_41781" result="shape"/>
</filter>
<clipPath id="clip0_2802_41781">
<rect x="19.9924" y="19.2085" width="418.085" height="269.585" rx="11.4231" fill="white"/>
</clipPath>
<clipPath id="clip1_2802_41781">
<rect width="391" height="178.012" fill="white" transform="translate(33.7002 81.4702)"/>
</clipPath>
<clipPath id="clip2_2802_41781">
<rect width="391.241" height="178.012" fill="white" transform="translate(33.7002 81.4702)"/>
</clipPath>
<clipPath id="clip3_2802_41781">
<rect x="276.052" y="249.879" width="251.83" height="252.582" rx="14.4315" fill="white"/>
</clipPath>
<clipPath id="clip4_2802_41781">
<rect x="287.597" y="307.009" width="28.4315" height="26.1021" rx="8.6589" fill="white"/>
</clipPath>
<clipPath id="clip5_2802_41781">
<rect x="287.597" y="347.542" width="30.4315" height="26.1021" rx="8.6589" fill="white"/>
</clipPath>
<clipPath id="clip6_2802_41781">
<rect x="287.597" y="388.076" width="30.4315" height="26.1021" rx="8.6589" fill="white"/>
</clipPath>
<clipPath id="clip7_2802_41781">
<rect x="287.597" y="428.609" width="31.4315" height="26.1021" rx="8.6589" fill="white"/>
</clipPath>
<clipPath id="clip8_2802_41781">
<rect x="287.597" y="469.143" width="30.4315" height="26.1021" rx="8.6589" fill="white"/>
</clipPath>
</defs>
</svg>
