<svg width="135" height="41" viewBox="0 0 135 41" fill="none" xmlns="http://www.w3.org/2000/svg">
<path d="M130 0.0412598H5C2.23858 0.0412598 0 2.27984 0 5.04126V35.0413C0 37.8027 2.23858 40.0413 5 40.0413H130C132.761 40.0413 135 37.8027 135 35.0413V5.04126C135 2.27984 132.761 0.0412598 130 0.0412598Z" fill="black"/>
<path d="M130 0.84126C131.114 0.84126 132.182 1.28376 132.97 2.07141C133.758 2.85906 134.2 3.92735 134.2 5.04126V35.0413C134.2 36.1552 133.758 37.2235 132.97 38.0111C132.182 38.7988 131.114 39.2413 130 39.2413H5C3.88609 39.2413 2.8178 38.7988 2.03015 38.0111C1.2425 37.2235 0.8 36.1552 0.8 35.0413V5.04126C0.8 3.92735 1.2425 2.85906 2.03015 2.07141C2.8178 1.28376 3.88609 0.84126 5 0.84126H130ZM130 0.0412598H5C3.67392 0.0412598 2.40215 0.568044 1.46447 1.50573C0.526784 2.44341 0 3.71518 0 5.04126V35.0413C0 36.3673 0.526784 37.6391 1.46447 38.5768C2.40215 39.5145 3.67392 40.0413 5 40.0413H130C131.326 40.0413 132.598 39.5145 133.536 38.5768C134.473 37.6391 135 36.3673 135 35.0413V5.04126C135 3.71518 134.473 2.44341 133.536 1.50573C132.598 0.568044 131.326 0.0412598 130 0.0412598Z" fill="#A6A6A6"/>
<path d="M44.3757 10.5271H46.4666V13.4281C46.1529 13.5345 45.8297 13.6136 45.4969 13.6655C45.1668 13.7173 44.7972 13.7432 44.388 13.7432C43.7661 13.7432 43.2409 13.6191 42.8127 13.3709C42.3871 13.1226 42.0639 12.7694 41.8429 12.3111C41.622 11.8501 41.5115 11.3031 41.5115 10.6703C41.5115 10.051 41.6329 9.51093 41.8756 9.04992C42.1212 8.58891 42.4744 8.23156 42.9354 7.97787C43.3992 7.72145 43.9556 7.59324 44.6049 7.59324C44.9377 7.59324 45.2527 7.62461 45.5501 7.68735C45.8501 7.74737 46.1284 7.83329 46.3848 7.94514L46.1188 8.55072C45.8979 8.45525 45.6537 8.37341 45.3864 8.30521C45.1218 8.23702 44.8477 8.20292 44.564 8.20292C44.0757 8.20292 43.6569 8.30385 43.3078 8.50571C42.9613 8.70757 42.6954 8.99264 42.5099 9.3609C42.3271 9.72916 42.2357 10.1656 42.2357 10.6703C42.2357 11.1695 42.3162 11.6046 42.4771 11.9756C42.6381 12.3438 42.889 12.6302 43.23 12.8348C43.571 13.0394 44.0102 13.1417 44.5476 13.1417C44.8176 13.1417 45.0495 13.1267 45.2432 13.0967C45.4369 13.064 45.6128 13.0258 45.771 12.9821V11.149H44.3757V10.5271ZM51.2459 13.6614H47.9151V7.67917H51.2459V8.29294H48.6107V10.2284H51.0945V10.8339H48.6107V13.0476H51.2459V13.6614ZM54.4088 13.6614H53.7091V8.29294H51.8269V7.67917H56.2829V8.29294H54.4088V13.6614ZM59.364 13.6614V7.67917H60.0596V13.6614H59.364ZM63.5417 13.6614H62.842V8.29294H60.9598V7.67917H65.4158V8.29294H63.5417V13.6614ZM73.6853 10.6621C73.6853 11.1231 73.6266 11.5432 73.5093 11.9224C73.392 12.2988 73.2174 12.6234 72.9856 12.8962C72.7564 13.1663 72.4714 13.375 72.1304 13.5223C71.7894 13.6696 71.3939 13.7432 70.9438 13.7432C70.48 13.7432 70.0749 13.6696 69.7285 13.5223C69.3848 13.375 69.0984 13.1649 68.8692 12.8921C68.6428 12.6193 68.4723 12.2934 68.3578 11.9142C68.2459 11.535 68.19 11.1149 68.19 10.6539C68.19 10.0429 68.2909 9.50684 68.4928 9.04583C68.6946 8.58482 69.0002 8.22611 69.4093 7.96969C69.8213 7.71327 70.3368 7.58506 70.956 7.58506C71.548 7.58506 72.0458 7.7119 72.4496 7.9656C72.856 8.21929 73.1629 8.57664 73.3702 9.03765C73.5803 9.49593 73.6853 10.0374 73.6853 10.6621ZM68.9224 10.6621C68.9224 11.1695 68.9947 11.6087 69.1393 11.9796C69.2839 12.3506 69.5048 12.6371 69.8022 12.8389C70.1022 13.0408 70.4828 13.1417 70.9438 13.1417C71.4075 13.1417 71.7867 13.0408 72.0813 12.8389C72.3786 12.6371 72.5982 12.3506 72.7401 11.9796C72.8819 11.6087 72.9528 11.1695 72.9528 10.6621C72.9528 9.8901 72.7905 9.28725 72.4659 8.85352C72.144 8.41706 71.6407 8.19883 70.956 8.19883C70.4923 8.19883 70.1104 8.2984 69.8103 8.49753C69.5103 8.69666 69.2866 8.98036 69.1393 9.34862C68.9947 9.71416 68.9224 10.152 68.9224 10.6621ZM79.6961 13.6614H78.8941L75.633 8.63665H75.6002C75.6084 8.77032 75.618 8.92308 75.6289 9.09493C75.6398 9.26406 75.648 9.44546 75.6534 9.63914C75.6616 9.83009 75.6657 10.0251 75.6657 10.2243V13.6614H75.0192V7.67917H75.8171L79.066 12.6875H79.0946C79.0892 12.5921 79.0824 12.457 79.0742 12.2824C79.066 12.1051 79.0578 11.9155 79.0496 11.7137C79.0442 11.5091 79.0414 11.3195 79.0414 11.1449V7.67917H79.6961V13.6614Z" fill="white"/>
<path d="M44.3757 10.5271V10.4271H44.2757V10.5271H44.3757ZM46.4666 10.5271H46.5666V10.4271H46.4666V10.5271ZM46.4666 13.4281L46.4988 13.5228L46.5666 13.4998V13.4281H46.4666ZM45.4969 13.6655L45.4815 13.5667L45.4814 13.5667L45.4969 13.6655ZM42.8127 13.3709L42.7623 13.4572L42.7625 13.4574L42.8127 13.3709ZM41.8429 12.3111L41.7527 12.3543L41.7528 12.3545L41.8429 12.3111ZM41.8756 9.04992L41.7874 9.00292L41.7872 9.00333L41.8756 9.04992ZM42.9354 7.97787L42.9836 8.06548L42.9838 8.06538L42.9354 7.97787ZM45.5501 7.68735L45.5294 7.7852L45.5305 7.78541L45.5501 7.68735ZM46.3848 7.94514L46.4764 7.98535L46.5167 7.89356L46.4248 7.85348L46.3848 7.94514ZM46.1188 8.55072L46.0792 8.64252L46.1704 8.68195L46.2104 8.59093L46.1188 8.55072ZM45.3864 8.30521L45.3614 8.40205L45.3617 8.40211L45.3864 8.30521ZM43.3078 8.50571L43.2577 8.41914L43.2574 8.41931L43.3078 8.50571ZM42.5099 9.3609L42.4206 9.31591L42.4203 9.31644L42.5099 9.3609ZM42.4771 11.9756L42.3854 12.0154L42.3855 12.0156L42.4771 11.9756ZM43.23 12.8348L43.1786 12.9206L43.23 12.8348ZM45.2432 13.0967L45.2585 13.1955L45.2599 13.1953L45.2432 13.0967ZM45.771 12.9821L45.7976 13.0785L45.871 13.0583V12.9821H45.771ZM45.771 11.149H45.871V11.049H45.771V11.149ZM44.3757 11.149H44.2757V11.249H44.3757V11.149ZM44.3757 10.6271H46.4666V10.4271H44.3757V10.6271ZM46.3666 10.5271V13.4281H46.5666V10.5271H46.3666ZM46.4345 13.3334C46.1264 13.438 45.8087 13.5157 45.4815 13.5667L45.5123 13.7643C45.8507 13.7116 46.1795 13.6311 46.4988 13.5228L46.4345 13.3334ZM45.4814 13.5667C45.1574 13.6175 44.7931 13.6432 44.388 13.6432V13.8432C44.8013 13.8432 45.1762 13.817 45.5124 13.7643L45.4814 13.5667ZM44.388 13.6432C43.7792 13.6432 43.2724 13.5218 42.8628 13.2843L42.7625 13.4574C43.2095 13.7164 43.7529 13.8432 44.388 13.8432V13.6432ZM42.8631 13.2845C42.4553 13.0466 42.1456 12.7086 41.933 12.2677L41.7528 12.3545C41.9821 12.8301 42.3189 13.1986 42.7623 13.4572L42.8631 13.2845ZM41.9331 12.2679C41.7199 11.8232 41.6115 11.2917 41.6115 10.6703H41.4115C41.4115 11.3146 41.524 11.877 41.7527 12.3543L41.9331 12.2679ZM41.6115 10.6703C41.6115 10.0642 41.7302 9.54069 41.9641 9.09652L41.7872 9.00333C41.5355 9.48118 41.4115 10.0379 41.4115 10.6703H41.6115ZM41.9639 9.09693C42.2002 8.65319 42.5395 8.30989 42.9836 8.06548L42.8872 7.89026C42.4093 8.15324 42.0421 8.52464 41.7874 9.00292L41.9639 9.09693ZM42.9838 8.06538C43.4297 7.81881 43.9688 7.69324 44.6049 7.69324V7.49324C43.9425 7.49324 43.3686 7.6241 42.887 7.89036L42.9838 8.06538ZM44.6049 7.69324C44.9314 7.69324 45.2395 7.72402 45.5294 7.7852L45.5707 7.58951C45.266 7.52521 44.944 7.49324 44.6049 7.49324V7.69324ZM45.5305 7.78541C45.8242 7.84415 46.0955 7.92806 46.3448 8.0368L46.4248 7.85348C46.1612 7.73853 45.8761 7.65058 45.5697 7.5893L45.5305 7.78541ZM46.2932 7.90492L46.0273 8.51051L46.2104 8.59093L46.4764 7.98535L46.2932 7.90492ZM46.1585 8.45893C45.9321 8.36108 45.6828 8.27763 45.4111 8.20832L45.3617 8.40211C45.6246 8.46919 45.8637 8.54941 46.0792 8.64252L46.1585 8.45893ZM45.4114 8.20838C45.1383 8.138 44.8557 8.10292 44.564 8.10292V8.30292C44.8396 8.30292 45.1053 8.33603 45.3614 8.40205L45.4114 8.20838ZM44.564 8.10292C44.0618 8.10292 43.625 8.2068 43.2577 8.41914L43.3578 8.59229C43.6889 8.4009 44.0895 8.30292 44.564 8.30292V8.10292ZM43.2574 8.41931C42.8938 8.6312 42.6145 8.93088 42.4206 9.31591L42.5992 9.40588C42.7762 9.05439 43.0289 8.78394 43.3581 8.59212L43.2574 8.41931ZM42.4203 9.31644C42.2293 9.70131 42.1357 10.1536 42.1357 10.6703H42.3357C42.3357 10.1776 42.4249 9.75701 42.5994 9.40535L42.4203 9.31644ZM42.1357 10.6703C42.1357 11.18 42.2179 11.6292 42.3854 12.0154L42.5689 11.9358C42.4145 11.5799 42.3357 11.1589 42.3357 10.6703H42.1357ZM42.3855 12.0156C42.5547 12.4027 42.8196 12.7052 43.1786 12.9206L43.2815 12.7491C42.9585 12.5553 42.7215 12.285 42.5688 11.9355L42.3855 12.0156ZM43.1786 12.9206C43.5396 13.1372 43.9982 13.2417 44.5476 13.2417V13.0417C44.0222 13.0417 43.6024 12.9416 43.2815 12.7491L43.1786 12.9206ZM44.5476 13.2417C44.821 13.2417 45.0583 13.2266 45.2585 13.1955L45.2279 12.9979C45.0408 13.0269 44.8143 13.0417 44.5476 13.0417V13.2417ZM45.2599 13.1953C45.4563 13.1621 45.6356 13.1232 45.7976 13.0785L45.7444 12.8857C45.5901 12.9283 45.4175 12.9658 45.2265 12.9981L45.2599 13.1953ZM45.871 12.9821V11.149H45.671V12.9821H45.871ZM45.771 11.049H44.3757V11.249H45.771V11.049ZM44.4757 11.149V10.5271H44.2757V11.149H44.4757ZM51.2459 13.6614V13.7614H51.3459V13.6614H51.2459ZM47.9151 13.6614H47.8151V13.7614H47.9151V13.6614ZM47.9151 7.67917V7.57917H47.8151V7.67917H47.9151ZM51.2459 7.67917H51.3459V7.57917H51.2459V7.67917ZM51.2459 8.29294V8.39294H51.3459V8.29294H51.2459ZM48.6107 8.29294V8.19294H48.5107V8.29294H48.6107ZM48.6107 10.2284H48.5107V10.3284H48.6107V10.2284ZM51.0945 10.2284H51.1945V10.1284H51.0945V10.2284ZM51.0945 10.8339V10.9339H51.1945V10.8339H51.0945ZM48.6107 10.8339V10.7339H48.5107V10.8339H48.6107ZM48.6107 13.0476H48.5107V13.1476H48.6107V13.0476ZM51.2459 13.0476H51.3459V12.9476H51.2459V13.0476ZM51.2459 13.5614H47.9151V13.7614H51.2459V13.5614ZM48.0151 13.6614V7.67917H47.8151V13.6614H48.0151ZM47.9151 7.77917H51.2459V7.57917H47.9151V7.77917ZM51.1459 7.67917V8.29294H51.3459V7.67917H51.1459ZM51.2459 8.19294H48.6107V8.39294H51.2459V8.19294ZM48.5107 8.29294V10.2284H48.7107V8.29294H48.5107ZM48.6107 10.3284H51.0945V10.1284H48.6107V10.3284ZM50.9945 10.2284V10.8339H51.1945V10.2284H50.9945ZM51.0945 10.7339H48.6107V10.9339H51.0945V10.7339ZM48.5107 10.8339V13.0476H48.7107V10.8339H48.5107ZM48.6107 13.1476H51.2459V12.9476H48.6107V13.1476ZM51.1459 13.0476V13.6614H51.3459V13.0476H51.1459ZM54.4088 13.6614V13.7614H54.5088V13.6614H54.4088ZM53.7091 13.6614H53.6091V13.7614H53.7091V13.6614ZM53.7091 8.29294H53.8091V8.19294H53.7091V8.29294ZM51.8269 8.29294H51.7269V8.39294H51.8269V8.29294ZM51.8269 7.67917V7.57917H51.7269V7.67917H51.8269ZM56.2829 7.67917H56.3829V7.57917H56.2829V7.67917ZM56.2829 8.29294V8.39294H56.3829V8.29294H56.2829ZM54.4088 8.29294V8.19294H54.3088V8.29294H54.4088ZM54.4088 13.5614H53.7091V13.7614H54.4088V13.5614ZM53.8091 13.6614V8.29294H53.6091V13.6614H53.8091ZM53.7091 8.19294H51.8269V8.39294H53.7091V8.19294ZM51.9269 8.29294V7.67917H51.7269V8.29294H51.9269ZM51.8269 7.77917H56.2829V7.57917H51.8269V7.77917ZM56.1829 7.67917V8.29294H56.3829V7.67917H56.1829ZM56.2829 8.19294H54.4088V8.39294H56.2829V8.19294ZM54.3088 8.29294V13.6614H54.5088V8.29294H54.3088ZM59.364 13.6614H59.264V13.7614H59.364V13.6614ZM59.364 7.67917V7.57917H59.264V7.67917H59.364ZM60.0596 7.67917H60.1596V7.57917H60.0596V7.67917ZM60.0596 13.6614V13.7614H60.1596V13.6614H60.0596ZM59.464 13.6614V7.67917H59.264V13.6614H59.464ZM59.364 7.77917H60.0596V7.57917H59.364V7.77917ZM59.9596 7.67917V13.6614H60.1596V7.67917H59.9596ZM60.0596 13.5614H59.364V13.7614H60.0596V13.5614ZM63.5417 13.6614V13.7614H63.6417V13.6614H63.5417ZM62.842 13.6614H62.742V13.7614H62.842V13.6614ZM62.842 8.29294H62.942V8.19294H62.842V8.29294ZM60.9598 8.29294H60.8598V8.39294H60.9598V8.29294ZM60.9598 7.67917V7.57917H60.8598V7.67917H60.9598ZM65.4158 7.67917H65.5158V7.57917H65.4158V7.67917ZM65.4158 8.29294V8.39294H65.5158V8.29294H65.4158ZM63.5417 8.29294V8.19294H63.4417V8.29294H63.5417ZM63.5417 13.5614H62.842V13.7614H63.5417V13.5614ZM62.942 13.6614V8.29294H62.742V13.6614H62.942ZM62.842 8.19294H60.9598V8.39294H62.842V8.19294ZM61.0598 8.29294V7.67917H60.8598V8.29294H61.0598ZM60.9598 7.77917H65.4158V7.57917H60.9598V7.77917ZM65.3158 7.67917V8.29294H65.5158V7.67917H65.3158ZM65.4158 8.19294H63.5417V8.39294H65.4158V8.19294ZM63.4417 8.29294V13.6614H63.6417V8.29294H63.4417ZM73.5093 11.9224L73.6048 11.9521L73.6049 11.9519L73.5093 11.9224ZM72.9856 12.8962L72.9094 12.8314L72.9093 12.8315L72.9856 12.8962ZM72.1304 13.5223L72.17 13.6141L72.1304 13.5223ZM69.7285 13.5223L69.6891 13.6142L69.6894 13.6143L69.7285 13.5223ZM68.8692 12.8921L68.7923 12.956L68.7927 12.9564L68.8692 12.8921ZM68.3578 11.9142L68.2618 11.9425L68.262 11.9431L68.3578 11.9142ZM69.4093 7.96969L69.3565 7.88479L69.3562 7.88495L69.4093 7.96969ZM72.4496 7.9656L72.3963 8.05027L72.3966 8.05043L72.4496 7.9656ZM73.3702 9.03765L73.279 9.07866L73.2793 9.07931L73.3702 9.03765ZM69.8022 12.8389L69.746 12.9217L69.7463 12.9219L69.8022 12.8389ZM72.0813 12.8389L72.0251 12.7562L72.0248 12.7564L72.0813 12.8389ZM72.4659 8.85352L72.3854 8.91287L72.3859 8.91343L72.4659 8.85352ZM69.8103 8.49753L69.755 8.41421L69.8103 8.49753ZM69.1393 9.34862L69.0464 9.31148L69.0463 9.31184L69.1393 9.34862ZM73.5853 10.6621C73.5853 11.1147 73.5277 11.5246 73.4138 11.8928L73.6049 11.9519C73.7256 11.5618 73.7853 11.1315 73.7853 10.6621H73.5853ZM73.4139 11.8926C73.3002 12.2575 73.1317 12.5699 72.9094 12.8314L73.0618 12.961C73.3032 12.6769 73.4839 12.3401 73.6048 11.9521L73.4139 11.8926ZM72.9093 12.8315C72.6906 13.0893 72.4183 13.2889 72.0907 13.4305L72.17 13.6141C72.5244 13.461 72.8222 13.2433 73.0618 12.9609L72.9093 12.8315ZM72.0907 13.4305C71.7646 13.5713 71.3831 13.6432 70.9438 13.6432V13.8432C71.4047 13.8432 71.8142 13.7678 72.17 13.6141L72.0907 13.4305ZM70.9438 13.6432C70.4905 13.6432 70.0992 13.5712 69.7676 13.4302L69.6894 13.6143C70.0507 13.7679 70.4696 13.8432 70.9438 13.8432V13.6432ZM69.7679 13.4303C69.4378 13.2889 69.1644 13.088 68.9458 12.8278L68.7927 12.9564C69.0324 13.2418 69.3318 13.461 69.6891 13.6142L69.7679 13.4303ZM68.9462 12.8283C68.7292 12.5669 68.5646 12.2531 68.4535 11.8853L68.262 11.9431C68.38 12.3336 68.5564 12.6718 68.7923 12.956L68.9462 12.8283ZM68.4537 11.8859C68.3449 11.5173 68.29 11.1069 68.29 10.6539H68.09C68.09 11.1229 68.1469 11.5527 68.2618 11.9425L68.4537 11.8859ZM68.29 10.6539C68.29 10.0538 68.3891 9.5319 68.5844 9.08594L68.4012 9.00572C68.1927 9.48178 68.09 10.0319 68.09 10.6539H68.29ZM68.5844 9.08594C68.7786 8.64251 69.071 8.29971 69.4624 8.05442L69.3562 7.88495C68.9293 8.15251 68.6107 8.52713 68.4012 9.00572L68.5844 9.08594ZM69.4622 8.05458C69.8544 7.81042 70.3504 7.68506 70.956 7.68506V7.48506C70.3232 7.48506 69.7881 7.61611 69.3565 7.88479L69.4622 8.05458ZM70.956 7.68506C71.5337 7.68506 72.012 7.80876 72.3963 8.05027L72.5028 7.88092C72.0796 7.61505 71.5623 7.48506 70.956 7.48506V7.68506ZM72.3966 8.05043C72.7853 8.29303 73.0793 8.63468 73.279 9.07866L73.4614 8.99663C73.2464 8.5186 72.9267 8.14554 72.5025 7.88076L72.3966 8.05043ZM73.2793 9.07931C73.4821 9.52178 73.5853 10.0484 73.5853 10.6621H73.7853C73.7853 10.0264 73.6784 9.47007 73.4611 8.99598L73.2793 9.07931ZM68.8224 10.6621C68.8224 11.1786 68.896 11.6307 69.0461 12.016L69.2325 11.9433C69.0934 11.5866 69.0224 11.1603 69.0224 10.6621H68.8224ZM69.0461 12.016C69.1972 12.4037 69.4301 12.7072 69.746 12.9217L69.8583 12.7562C69.5795 12.5669 69.3705 12.2976 69.2325 11.9433L69.0461 12.016ZM69.7463 12.9219C70.0669 13.1376 70.4683 13.2417 70.9438 13.2417V13.0417C70.4972 13.0417 70.1375 12.944 69.858 12.756L69.7463 12.9219ZM70.9438 13.2417C71.4217 13.2417 71.8222 13.1377 72.1378 12.9214L72.0248 12.7564C71.7511 12.9439 71.3933 13.0417 70.9438 13.0417V13.2417ZM72.1375 12.9217C72.4535 12.7071 72.6851 12.4034 72.8335 12.0154L72.6467 11.9439C72.5113 12.2979 72.3038 12.567 72.0251 12.7562L72.1375 12.9217ZM72.8335 12.0154C72.9807 11.6303 73.0528 11.1784 73.0528 10.6621H72.8528C72.8528 11.1605 72.7831 11.587 72.6467 11.9439L72.8335 12.0154ZM73.0528 10.6621C73.0528 9.8774 72.888 9.2506 72.546 8.7936L72.3859 8.91343C72.6931 9.32389 72.8528 9.90281 72.8528 10.6621H73.0528ZM72.5464 8.79416C72.2008 8.32552 71.6633 8.09883 70.956 8.09883V8.29883C71.6182 8.29883 72.0873 8.5086 72.3854 8.91287L72.5464 8.79416ZM70.956 8.09883C70.4782 8.09883 70.0756 8.20146 69.755 8.41421L69.8656 8.58085C70.1452 8.39533 70.5064 8.29883 70.956 8.29883V8.09883ZM69.755 8.41421C69.4364 8.6257 69.2005 8.92637 69.0464 9.31148L69.2321 9.38576C69.3727 9.03435 69.5842 8.76763 69.8656 8.58085L69.755 8.41421ZM69.0463 9.31184C68.8959 9.692 68.8224 10.143 68.8224 10.6621H69.0224C69.0224 10.161 69.0935 9.73631 69.2323 9.3854L69.0463 9.31184ZM79.6961 13.6614V13.7614H79.7961V13.6614H79.6961ZM78.8941 13.6614L78.8102 13.7158L78.8398 13.7614H78.8941V13.6614ZM75.633 8.63665L75.7169 8.58221L75.6873 8.53665H75.633V8.63665ZM75.6002 8.63665V8.53665H75.4939L75.5004 8.64276L75.6002 8.63665ZM75.6289 9.09493L75.5291 9.10127L75.5291 9.10137L75.6289 9.09493ZM75.6534 9.63914L75.5535 9.64196L75.5535 9.64342L75.6534 9.63914ZM75.6657 13.6614V13.7614H75.7657V13.6614H75.6657ZM75.0192 13.6614H74.9192V13.7614H75.0192V13.6614ZM75.0192 7.67917V7.57917H74.9192V7.67917H75.0192ZM75.8171 7.67917L75.901 7.62475L75.8714 7.57917H75.8171V7.67917ZM79.066 12.6875L78.9821 12.742L79.0117 12.7875H79.066V12.6875ZM79.0946 12.6875V12.7875H79.2005L79.1945 12.6818L79.0946 12.6875ZM79.0742 12.2824L78.9743 12.2871L78.9743 12.2871L79.0742 12.2824ZM79.0496 11.7137L78.9496 11.7163L78.9497 11.7177L79.0496 11.7137ZM79.0414 7.67917V7.57917H78.9414V7.67917H79.0414ZM79.6961 7.67917H79.7961V7.57917H79.6961V7.67917ZM79.6961 13.5614H78.8941V13.7614H79.6961V13.5614ZM78.978 13.6069L75.7169 8.58221L75.5491 8.69109L78.8102 13.7158L78.978 13.6069ZM75.633 8.53665H75.6002V8.73665H75.633V8.53665ZM75.5004 8.64276C75.5086 8.77652 75.5182 8.92936 75.5291 9.10127L75.7287 9.0886C75.7178 8.91679 75.7082 8.76411 75.7 8.63054L75.5004 8.64276ZM75.5291 9.10137C75.5399 9.26914 75.548 9.44932 75.5535 9.64196L75.7534 9.63632C75.7479 9.4416 75.7397 9.25898 75.7287 9.08849L75.5291 9.10137ZM75.5535 9.64342C75.5616 9.83289 75.5657 10.0265 75.5657 10.2243H75.7657C75.7657 10.0238 75.7616 9.82729 75.7533 9.63486L75.5535 9.64342ZM75.5657 10.2243V13.6614H75.7657V10.2243H75.5657ZM75.6657 13.5614H75.0192V13.7614H75.6657V13.5614ZM75.1192 13.6614V7.67917H74.9192V13.6614H75.1192ZM75.0192 7.77917H75.8171V7.57917H75.0192V7.77917ZM75.7332 7.73359L78.9821 12.742L79.1499 12.6331L75.901 7.62475L75.7332 7.73359ZM79.066 12.7875H79.0946V12.5875H79.066V12.7875ZM79.1945 12.6818C79.189 12.5869 79.1822 12.4522 79.1741 12.2778L78.9743 12.2871C78.9825 12.4618 78.9893 12.5972 78.9948 12.6932L79.1945 12.6818ZM79.1741 12.2778C79.1659 12.1007 79.1577 11.9113 79.1495 11.7096L78.9497 11.7177C78.9579 11.9198 78.9661 12.1095 78.9743 12.2871L79.1741 12.2778ZM79.1496 11.711C79.1441 11.5072 79.1414 11.3185 79.1414 11.1449H78.9414C78.9414 11.3205 78.9442 11.511 78.9497 11.7163L79.1496 11.711ZM79.1414 11.1449V7.67917H78.9414V11.1449H79.1414ZM79.0414 7.77917H79.6961V7.57917H79.0414V7.77917ZM79.5961 7.67917V13.6614H79.7961V7.67917H79.5961Z" fill="white"/>
<path d="M68.14 21.7912C67.2974 21.7932 66.4744 22.0449 65.7749 22.5147C65.0755 22.9844 64.531 23.651 64.2104 24.4302C63.8898 25.2094 63.8075 26.0661 63.9738 26.8921C64.1401 27.718 64.5476 28.4761 65.1448 29.0705C65.742 29.6649 66.502 30.0688 67.3287 30.2313C68.1555 30.3937 69.0118 30.3073 69.7895 29.9831C70.5671 29.6588 71.2311 29.1112 71.6976 28.4096C72.164 27.7079 72.412 26.8837 72.41 26.0412C72.4181 25.4791 72.3131 24.9212 72.1012 24.4005C71.8892 23.8799 71.5746 23.4072 71.1762 23.0107C70.7778 22.6141 70.3037 22.3018 69.7821 22.0923C69.2604 21.8828 68.702 21.7804 68.14 21.7912ZM68.14 28.6212C67.6236 28.6573 67.1082 28.5372 66.6609 28.2766C66.2137 28.0159 65.8552 27.6267 65.632 27.1596C65.4088 26.6925 65.3314 26.1691 65.4097 25.6573C65.4879 25.1456 65.7184 24.6693 66.0709 24.2902C66.4235 23.9112 66.882 23.647 67.3867 23.532C67.8915 23.4169 68.4192 23.4564 68.9012 23.6453C69.3832 23.8341 69.7972 24.1636 70.0895 24.5909C70.3818 25.0182 70.5387 25.5235 70.54 26.0412C70.5561 26.3692 70.5063 26.6971 70.3937 27.0056C70.2811 27.3141 70.1078 27.5969 69.8841 27.8374C69.6604 28.0778 69.3909 28.2711 69.0913 28.4057C68.7918 28.5403 68.4683 28.6136 68.14 28.6212ZM58.82 21.7912C57.9774 21.7932 57.1544 22.0449 56.4549 22.5147C55.7555 22.9844 55.211 23.651 54.8904 24.4302C54.5698 25.2094 54.4875 26.0661 54.6538 26.8921C54.8201 27.718 55.2276 28.4761 55.8248 29.0705C56.422 29.6649 57.182 30.0688 58.0087 30.2313C58.8355 30.3937 59.6918 30.3073 60.4695 29.9831C61.2471 29.6588 61.9111 29.1112 62.3776 28.4096C62.844 27.7079 63.0919 26.8837 63.09 26.0412C63.0981 25.4791 62.9931 24.9212 62.7812 24.4005C62.5692 23.8799 62.2546 23.4072 61.8562 23.0107C61.4578 22.6141 60.9837 22.3018 60.4621 22.0923C59.9404 21.8828 59.382 21.7804 58.82 21.7912ZM58.82 28.6212C58.3036 28.6573 57.7882 28.5372 57.3409 28.2766C56.8937 28.0159 56.5352 27.6267 56.312 27.1596C56.0888 26.6925 56.0114 26.1691 56.0897 25.6573C56.1679 25.1456 56.3984 24.6693 56.7509 24.2902C57.1035 23.9112 57.562 23.647 58.0667 23.532C58.5715 23.4169 59.0992 23.4564 59.5812 23.6453C60.0632 23.8341 60.4772 24.1636 60.7695 24.5909C61.0618 25.0182 61.2187 25.5235 61.22 26.0412C61.2361 26.3692 61.1863 26.6971 61.0737 27.0056C60.9611 27.3141 60.7878 27.5969 60.5641 27.8374C60.3404 28.0778 60.0709 28.2711 59.7713 28.4057C59.4718 28.5403 59.1483 28.6136 58.82 28.6212ZM47.74 23.1012V24.9012H52.06C51.9922 25.749 51.6398 26.549 51.06 27.1712C50.6266 27.6127 50.1054 27.9583 49.5301 28.1857C48.9547 28.4131 48.3381 28.5172 47.72 28.4912C46.4469 28.4912 45.226 27.9855 44.3259 27.0853C43.4257 26.1851 42.92 24.9642 42.92 23.6912C42.92 22.4181 43.4257 21.1972 44.3259 20.2971C45.226 19.3969 46.4469 18.8912 47.72 18.8912C48.9404 18.873 50.1189 19.3365 51 20.1812L52.27 18.9112C51.674 18.3217 50.9663 17.8571 50.1884 17.5446C49.4106 17.232 48.5782 17.0779 47.74 17.0912C46.851 17.0566 45.9641 17.2018 45.1326 17.5182C44.3011 17.8345 43.5419 18.3154 42.9007 18.9322C42.2595 19.5489 41.7494 20.2888 41.401 21.1074C41.0525 21.926 40.8729 22.8065 40.8729 23.6962C40.8729 24.5859 41.0525 25.4664 41.401 26.285C41.7494 27.1036 42.2595 27.8434 42.9007 28.4602C43.5419 29.0769 44.3011 29.5579 45.1326 29.8742C45.9641 30.1906 46.851 30.3358 47.74 30.3012C48.5954 30.3353 49.4484 30.1882 50.2429 29.8693C51.0374 29.5505 51.7555 29.0672 52.35 28.4512C53.4001 27.2976 53.9596 25.7804 53.91 24.2212C53.9136 23.8459 53.8834 23.4711 53.82 23.1012H47.74ZM93.05 24.5012C92.7892 23.7339 92.3015 23.064 91.6515 22.58C91.0015 22.0961 90.2198 21.821 89.41 21.7912C88.863 21.7901 88.3216 21.9012 87.8192 22.1177C87.3169 22.3342 86.8643 22.6514 86.4894 23.0497C86.1145 23.448 85.8252 23.919 85.6396 24.4336C85.4539 24.9481 85.3758 25.4952 85.41 26.0412C85.4014 26.954 85.6884 27.8452 86.2281 28.5814C86.7678 29.3177 87.5312 29.8597 88.4042 30.1263C89.2773 30.393 90.2132 30.37 91.0722 30.0609C91.9311 29.7518 92.667 29.173 93.17 28.4112L91.72 27.4112C91.5038 27.7715 91.1972 28.069 90.8306 28.2742C90.464 28.4794 90.0501 28.5853 89.63 28.5812C89.1965 28.5991 88.7678 28.4854 88.4002 28.2552C88.0325 28.025 87.7431 27.6889 87.57 27.2912L93.26 24.9412L93.05 24.5012ZM87.25 25.9212C87.2297 25.6106 87.2716 25.299 87.3733 25.0048C87.4749 24.7106 87.6342 24.4396 87.8419 24.2077C88.0495 23.9758 88.3014 23.7877 88.5827 23.6544C88.8639 23.521 89.169 23.4452 89.48 23.4312C89.8022 23.4115 90.123 23.4874 90.4023 23.6492C90.6816 23.8111 90.9069 24.0518 91.05 24.3412L87.25 25.9212ZM82.63 30.0412H84.5V17.5412H82.63V30.0412ZM79.57 22.7412H79.5C79.2206 22.423 78.8759 22.169 78.4893 21.9964C78.1027 21.8238 77.6833 21.7367 77.26 21.7412C76.1672 21.7942 75.1366 22.2656 74.382 23.0578C73.6273 23.8499 73.2063 24.9021 73.2063 25.9962C73.2063 27.0903 73.6273 28.1424 74.382 28.9346C75.1366 29.7268 76.1672 30.1982 77.26 30.2512C77.6839 30.2597 78.1046 30.1745 78.4918 30.0016C78.879 29.8287 79.2233 29.5725 79.5 29.2512H79.57V29.8612C79.57 31.4912 78.7 32.3612 77.3 32.3612C76.8323 32.3509 76.3782 32.2019 75.9954 31.933C75.6126 31.6642 75.3183 31.2876 75.15 30.8512L73.53 31.5212C73.8295 32.2734 74.3502 32.9171 75.0234 33.367C75.6965 33.817 76.4904 34.0521 77.3 34.0412C79.49 34.0412 81.3 32.7512 81.3 29.6112V22.0412H79.57V22.7412ZM77.42 28.6212C76.7648 28.5803 76.1498 28.2913 75.7003 27.8128C75.2508 27.3344 75.0005 26.7027 75.0005 26.0462C75.0005 25.3897 75.2508 24.7579 75.7003 24.2795C76.1498 23.8011 76.7648 23.512 77.42 23.4712C77.7402 23.485 78.0544 23.5631 78.3438 23.7008C78.6333 23.8385 78.8921 24.0331 79.1048 24.2729C79.3175 24.5126 79.4798 24.7928 79.5821 25.0965C79.6843 25.4003 79.7244 25.7216 79.7 26.0412C79.7273 26.3619 79.6892 26.6848 79.5881 26.9903C79.4871 27.2959 79.3251 27.5778 79.1119 27.819C78.8988 28.0601 78.639 28.2556 78.3482 28.3935C78.0574 28.5314 77.7416 28.6088 77.42 28.6212ZM101.81 17.5412H97.33V30.0412H99.2V25.3012H101.81C102.343 25.3395 102.878 25.2676 103.382 25.0899C103.886 24.9123 104.348 24.6327 104.739 24.2687C105.13 23.9046 105.442 23.4639 105.655 22.974C105.869 22.4841 105.979 21.9555 105.979 21.4212C105.979 20.8869 105.869 20.3583 105.655 19.8684C105.442 19.3784 105.13 18.9377 104.739 18.5737C104.348 18.2097 103.886 17.9301 103.382 17.7525C102.878 17.5748 102.343 17.5029 101.81 17.5412ZM101.81 23.5412H99.2V19.2812H101.85C102.131 19.2812 102.409 19.3365 102.669 19.4441C102.929 19.5516 103.164 19.7093 103.363 19.908C103.562 20.1067 103.72 20.3426 103.827 20.6022C103.935 20.8619 103.99 21.1402 103.99 21.4212C103.99 21.7022 103.935 21.9805 103.827 22.2401C103.72 22.4998 103.562 22.7357 103.363 22.9344C103.164 23.1331 102.929 23.2907 102.669 23.3983C102.409 23.5058 102.131 23.5612 101.85 23.5612L101.81 23.5412ZM113.35 21.7512C112.669 21.7092 111.991 21.8677 111.399 22.2072C110.807 22.5467 110.328 23.0522 110.02 23.6612L111.67 24.3512C111.837 24.0506 112.087 23.8047 112.39 23.6432C112.694 23.4817 113.038 23.4116 113.38 23.4412C113.617 23.4135 113.858 23.4333 114.088 23.4995C114.317 23.5657 114.531 23.677 114.718 23.8269C114.904 23.9768 115.058 24.1622 115.172 24.3724C115.286 24.5826 115.356 24.8134 115.38 25.0512V25.1712C114.779 24.8551 114.109 24.6903 113.43 24.6912C111.65 24.6912 109.83 25.6912 109.83 27.5112C109.848 27.898 109.943 28.2774 110.11 28.6267C110.277 28.9761 110.513 29.2883 110.803 29.5448C111.093 29.8013 111.431 29.9969 111.799 30.12C112.166 30.243 112.554 30.2911 112.94 30.2612C113.409 30.2871 113.877 30.1878 114.295 29.9734C114.713 29.7591 115.067 29.4373 115.32 29.0412H115.38V30.0412H117.18V25.2312C117.18 23.0412 115.52 21.7712 113.39 21.7712L113.35 21.7512ZM113.12 28.6012C112.51 28.6012 111.66 28.2912 111.66 27.5412C111.66 26.5412 112.72 26.2012 113.66 26.2012C114.254 26.1865 114.841 26.3316 115.36 26.6212C115.297 27.1643 115.04 27.6662 114.635 28.0339C114.231 28.4016 113.707 28.6103 113.16 28.6212L113.12 28.6012ZM123.74 22.0412L121.6 27.4612H121.54L119.32 22.0412H117.32L120.65 29.6212L118.75 33.8312H120.7L125.82 22.0412H123.74ZM106.94 30.0412H108.8V17.5412H106.94V30.0412Z" fill="white"/>
<path d="M20.7199 19.4612L10.0699 30.7612C10.1863 31.1886 10.3993 31.5835 10.6926 31.9155C10.9858 32.2475 11.3515 32.5076 11.7613 32.6757C12.1711 32.8439 12.614 32.9156 13.056 32.8854C13.4979 32.8551 13.9269 32.7236 14.3099 32.5012L26.3099 25.5812L20.7199 19.4612Z" fill="#EA4335"/>
<path d="M31.49 17.5413L26.31 14.5413L20.49 19.7313L26.33 25.5813L31.48 22.5813C31.9378 22.3361 32.3205 21.9713 32.5873 21.5257C32.8541 21.0802 32.995 20.5706 32.995 20.0513C32.995 19.5319 32.8541 19.0223 32.5873 18.5768C32.3205 18.1312 31.9378 17.7664 31.48 17.5213L31.49 17.5413Z" fill="#FBBC04"/>
<path d="M10.07 9.32153C10.0172 9.55774 9.99366 9.79957 10 10.0415V30.0415C10.0018 30.2914 10.0354 30.5401 10.1 30.7815L21.1 19.7815L10.07 9.32153Z" fill="#4285F4"/>
<path d="M20.8 20.0409L26.31 14.5309L14.31 7.59091C13.8592 7.32291 13.3445 7.18128 12.82 7.18091C12.1874 7.18272 11.5728 7.39208 11.0706 7.77684C10.5685 8.16161 10.2064 8.70053 10.04 9.31091L20.8 20.0409Z" fill="#34A853"/>
</svg>
