<svg width="120" height="41" viewBox="0 0 120 41" fill="none" xmlns="http://www.w3.org/2000/svg">
<g id="App Store - Filled">
<g id="Group">
<g id="Group_2">
<path id="Vector" d="M110.471 0.0411456H9.87062C9.50392 0.0411456 9.14162 0.0411456 8.77589 0.0431456C8.46974 0.0451456 8.16603 0.0509556 7.85694 0.0558456C7.18545 0.0637474 6.51554 0.122822 5.85304 0.232556C5.19146 0.344678 4.55061 0.556061 3.95216 0.859556C3.35444 1.16562 2.80828 1.56331 2.33351 2.03822C1.85624 2.51178 1.4584 3.05916 1.15529 3.65931C0.851338 4.25825 0.640578 4.90008 0.530288 5.56263C0.418948 6.22433 0.359036 6.89367 0.351088 7.56463C0.341808 7.87123 0.340827 8.17885 0.335938 8.48549V31.5997C0.340827 31.9102 0.341808 32.211 0.351088 32.5216C0.359038 33.1926 0.418951 33.8619 0.530288 34.5235C0.640273 35.1865 0.851046 35.8287 1.15529 36.4278C1.45826 37.026 1.85616 37.5712 2.33351 38.0421C2.80648 38.5192 3.35299 38.9171 3.95216 39.2208C4.55061 39.5252 5.19139 39.7378 5.85304 39.8516C6.51566 39.9605 7.18549 40.0196 7.85694 40.0284C8.16603 40.0352 8.46974 40.0391 8.77589 40.0391C9.14161 40.0411 9.50394 40.0411 9.87062 40.0411H110.471C110.83 40.0411 111.195 40.0411 111.555 40.0391C111.859 40.0391 112.172 40.0352 112.477 40.0284C113.147 40.0201 113.815 39.961 114.477 39.8516C115.14 39.737 115.783 39.5244 116.385 39.2208C116.983 38.917 117.529 38.519 118.002 38.0421C118.478 37.5694 118.877 37.0246 119.184 36.4278C119.486 35.8282 119.694 35.1861 119.803 34.5235C119.914 33.8618 119.976 33.1926 119.988 32.5216C119.992 32.211 119.992 31.9102 119.992 31.5997C120 31.2364 120 30.8751 120 30.5059V9.57728C120 9.21107 120 8.84778 119.992 8.48549C119.992 8.17885 119.992 7.87123 119.988 7.56459C119.976 6.89357 119.914 6.22438 119.803 5.56259C119.694 4.90043 119.485 4.25865 119.184 3.65927C118.566 2.45634 117.588 1.47717 116.385 0.859466C115.783 0.556713 115.14 0.345386 114.477 0.232466C113.815 0.122248 113.147 0.0631534 112.477 0.0557056C112.172 0.0508256 111.859 0.0449656 111.555 0.0430156C111.195 0.0410156 110.83 0.0410156 110.471 0.0410156V0.0411456Z" fill="#A6A6A6"/>
<path id="Vector_2" d="M8.7808 39.1663C8.47612 39.1663 8.1788 39.1624 7.87651 39.1556C7.2503 39.1474 6.62554 39.0929 6.00737 38.9925C5.43096 38.8932 4.87258 38.7085 4.35063 38.4446C3.83348 38.1828 3.36179 37.8395 2.95363 37.428C2.53957 37.0212 2.19485 36.5495 1.93312 36.0315C1.66851 35.51 1.48539 34.9512 1.39012 34.3743C1.28725 33.7544 1.23159 33.1276 1.22362 32.4993C1.21728 32.2884 1.20898 31.5862 1.20898 31.5862V8.4856C1.20898 8.4856 1.21782 7.79419 1.22367 7.59106C1.2313 6.96374 1.28664 6.33791 1.3892 5.71899C1.48464 5.14051 1.66791 4.58001 1.93266 4.05689C2.19343 3.5392 2.53624 3.06712 2.9478 2.65894C3.35891 2.24688 3.83211 1.90186 4.35014 1.63647C4.87089 1.37335 5.42822 1.18999 6.00346 1.09253C6.62366 0.991096 7.25059 0.936256 7.87897 0.92847L8.78129 0.91626H111.55L112.463 0.92896C113.086 0.936359 113.707 0.99071 114.321 1.09155C114.902 1.19023 115.466 1.37488 115.992 1.6394C117.03 2.17425 117.875 3.02042 118.407 4.05933C118.668 4.57884 118.848 5.13477 118.942 5.70825C119.046 6.33225 119.104 6.963 119.116 7.59546C119.119 7.87866 119.119 8.18286 119.119 8.4856C119.127 8.8606 119.127 9.21753 119.127 9.57739V30.5061C119.127 30.8694 119.127 31.2239 119.119 31.5813C119.119 31.9065 119.119 32.2044 119.115 32.511C119.104 33.1321 119.046 33.7516 118.944 34.3645C118.851 34.9455 118.669 35.5088 118.404 36.0345C118.141 36.5469 117.798 37.0145 117.389 37.4202C116.98 37.8339 116.508 38.1792 115.989 38.4427C115.464 38.7087 114.902 38.894 114.321 38.9925C113.703 39.0934 113.078 39.1479 112.452 39.1556C112.159 39.1624 111.853 39.1663 111.555 39.1663L110.471 39.1683L8.7808 39.1663Z" fill="black"/>
</g>
<g id="&#60;Group&#62;">
<g id="&#60;Group&#62;_2">
<g id="&#60;Group&#62;_3">
<path id="&#60;Path&#62;" d="M25.1048 20.3423C25.1156 19.5077 25.3373 18.6893 25.7493 17.9633C26.1613 17.2374 26.7503 16.6274 27.4614 16.1903C27.0096 15.5451 26.4137 15.0142 25.7209 14.6396C25.028 14.2651 24.2574 14.0572 23.4702 14.0326C21.791 13.8563 20.163 15.0374 19.3073 15.0374C18.435 15.0374 17.1175 14.0501 15.6988 14.0793C14.7811 14.1089 13.8868 14.3758 13.1029 14.8538C12.319 15.3319 11.6724 16.0048 11.2259 16.8071C9.29189 20.1556 10.7345 25.0766 12.5871 27.7832C13.514 29.1086 14.5973 30.589 16.0147 30.5365C17.4018 30.479 17.9198 29.652 19.5941 29.652C21.2529 29.652 21.7389 30.5365 23.1851 30.5031C24.6735 30.479 25.6112 29.1719 26.5056 27.834C27.1716 26.8896 27.6841 25.8459 28.024 24.7415C27.1593 24.3758 26.4214 23.7636 25.9023 22.9813C25.3832 22.199 25.1058 21.2812 25.1048 20.3423Z" fill="white"/>
<path id="&#60;Path&#62;_2" d="M22.3731 12.2526C23.1847 11.2784 23.5845 10.0262 23.4877 8.76196C22.2478 8.89218 21.1026 9.48474 20.2801 10.4216C19.8779 10.8792 19.5699 11.4117 19.3737 11.9884C19.1775 12.5652 19.0968 13.175 19.1364 13.783C19.7565 13.7893 20.37 13.6549 20.9307 13.3898C21.4913 13.1248 21.9845 12.7359 22.3731 12.2526Z" fill="white"/>
</g>
</g>
<g id="Group_3">
<path id="Vector_3" d="M42.6382 27.1809H37.9048L36.7681 30.5374H34.7632L39.2466 18.1194H41.3296L45.813 30.5374H43.7739L42.6382 27.1809ZM38.395 25.6321H42.147L40.2974 20.1848H40.2456L38.395 25.6321Z" fill="white"/>
<path id="Vector_4" d="M55.4956 26.0107C55.4956 28.8242 53.9898 30.6318 51.7173 30.6318C51.1417 30.6619 50.5692 30.5293 50.0654 30.2492C49.5616 29.969 49.1469 29.5527 48.8687 29.0478H48.8257V33.5322H46.9673V21.4834H48.7661V22.9892H48.8003C49.0913 22.4868 49.513 22.0726 50.0206 21.7907C50.5283 21.5089 51.1028 21.3699 51.6831 21.3886C53.9809 21.3886 55.4956 23.205 55.4956 26.0107ZM53.5855 26.0107C53.5855 24.1777 52.6382 22.9726 51.1929 22.9726C49.773 22.9726 48.8179 24.2031 48.8179 26.0107C48.8179 27.8349 49.773 29.0566 51.1929 29.0566C52.6382 29.0566 53.5855 27.8603 53.5855 26.0107Z" fill="white"/>
<path id="Vector_5" d="M65.4605 26.0107C65.4605 28.8242 63.9546 30.6318 61.6822 30.6318C61.1065 30.6619 60.534 30.5293 60.0302 30.2492C59.5264 29.969 59.1117 29.5527 58.8335 29.0478H58.7905V33.5322H56.9321V21.4834H58.7309V22.9892H58.7651C59.0561 22.4867 59.4778 22.0726 59.9854 21.7907C60.4931 21.5089 61.0676 21.3699 61.6479 21.3886C63.9458 21.3886 65.4605 23.205 65.4605 26.0107ZM63.5503 26.0107C63.5503 24.1777 62.603 22.9726 61.1577 22.9726C59.7378 22.9726 58.7827 24.2031 58.7827 26.0107C58.7827 27.8349 59.7378 29.0566 61.1577 29.0566C62.6031 29.0566 63.5503 27.8603 63.5503 26.0107H63.5503Z" fill="white"/>
<path id="Vector_6" d="M72.0464 27.0774C72.1841 28.3089 73.3804 29.1174 75.0152 29.1174C76.5816 29.1174 77.7085 28.3089 77.7085 27.1985C77.7085 26.2346 77.0288 25.6575 75.4195 25.262L73.8101 24.8743C71.5298 24.3235 70.4712 23.2571 70.4712 21.5266C70.4712 19.384 72.3384 17.9124 74.9898 17.9124C77.6138 17.9124 79.4126 19.384 79.4732 21.5266H77.5972C77.4849 20.2874 76.4605 19.5393 74.9634 19.5393C73.4663 19.5393 72.4419 20.2962 72.4419 21.3977C72.4419 22.2756 73.0962 22.7922 74.6968 23.1877L76.0649 23.5237C78.6128 24.1262 79.6714 25.1497 79.6714 26.966C79.6714 29.2893 77.8208 30.7444 74.8774 30.7444C72.1235 30.7444 70.2642 29.3235 70.144 27.0774L72.0464 27.0774Z" fill="white"/>
<path id="Vector_7" d="M83.6821 19.3411V21.4836H85.4038V22.9553H83.6821V27.9465C83.6821 28.7219 84.0269 29.0833 84.7837 29.0833C84.9881 29.0797 85.1921 29.0653 85.395 29.0403V30.5031C85.0547 30.5667 84.7089 30.5955 84.3628 30.5891C82.5298 30.5891 81.8149 29.9006 81.8149 28.1447V22.9553H80.4985V21.4836H81.8149V19.3411H83.6821Z" fill="white"/>
<path id="Vector_8" d="M86.4009 26.011C86.4009 23.1624 88.0786 21.3723 90.6948 21.3723C93.3198 21.3723 94.9897 23.1623 94.9897 26.011C94.9897 28.8674 93.3286 30.6497 90.6948 30.6497C88.062 30.6497 86.4009 28.8674 86.4009 26.011ZM93.0962 26.011C93.0962 24.0569 92.2007 22.9036 90.6948 22.9036C89.189 22.9036 88.2944 24.0657 88.2944 26.011C88.2944 27.9729 89.189 29.1174 90.6948 29.1174C92.2007 29.1174 93.0961 27.9729 93.0961 26.011H93.0962Z" fill="white"/>
<path id="Vector_9" d="M96.522 21.4833H98.2944V23.0243H98.3374C98.4574 22.543 98.7393 22.1177 99.1359 21.8198C99.5325 21.5219 100.02 21.3696 100.515 21.3885C100.729 21.3878 100.943 21.411 101.152 21.4579V23.1962C100.882 23.1135 100.599 23.0756 100.317 23.0839C100.047 23.0729 99.7778 23.1205 99.5279 23.2234C99.2781 23.3263 99.0535 23.482 98.8695 23.6799C98.6855 23.8778 98.5465 24.1132 98.4621 24.3698C98.3777 24.6265 98.3498 24.8984 98.3804 25.1669V30.537H96.522L96.522 21.4833Z" fill="white"/>
<path id="Vector_10" d="M109.72 27.8782C109.47 29.5217 107.87 30.6497 105.822 30.6497C103.188 30.6497 101.553 28.885 101.553 26.054C101.553 23.2141 103.197 21.3723 105.744 21.3723C108.249 21.3723 109.824 23.093 109.824 25.8381V26.4749H103.429V26.5872C103.4 26.9204 103.441 27.256 103.552 27.5719C103.662 27.8877 103.838 28.1765 104.068 28.419C104.299 28.6616 104.578 28.8523 104.888 28.9786C105.197 29.105 105.53 29.1639 105.865 29.1516C106.304 29.1928 106.745 29.091 107.121 28.8616C107.498 28.6322 107.791 28.2872 107.956 27.8782L109.72 27.8782ZM103.438 25.176H107.964C107.981 24.8764 107.936 24.5766 107.831 24.2954C107.726 24.0142 107.565 23.7577 107.356 23.5419C107.148 23.3261 106.897 23.1558 106.619 23.0416C106.342 22.9274 106.044 22.8717 105.744 22.8782C105.441 22.8764 105.141 22.9345 104.861 23.0493C104.581 23.164 104.326 23.3331 104.112 23.5467C103.898 23.7603 103.728 24.0143 103.612 24.294C103.496 24.5736 103.437 24.8734 103.438 25.176V25.176Z" fill="white"/>
</g>
</g>
</g>
<g id="&#60;Group&#62;_4">
<g id="Group_4">
<path id="Vector_11" d="M38.1621 8.77166C38.5517 8.7437 38.9427 8.80256 39.3068 8.944C39.6709 9.08543 39.9991 9.30591 40.2677 9.58954C40.5363 9.87316 40.7386 10.2129 40.86 10.5841C40.9814 10.9554 41.0188 11.349 40.9697 11.7365C40.9697 13.6428 39.9395 14.7385 38.1621 14.7385H36.0068V8.77166H38.1621ZM36.9336 13.8947H38.0586C38.337 13.9113 38.6156 13.8657 38.8741 13.761C39.1327 13.6564 39.3646 13.4955 39.5531 13.2899C39.7416 13.0843 39.8819 12.8393 39.9638 12.5727C40.0456 12.3061 40.067 12.0246 40.0264 11.7487C40.0641 11.4738 40.0405 11.1941 39.9574 10.9294C39.8743 10.6647 39.7336 10.4217 39.5456 10.2178C39.3575 10.0139 39.1267 9.85406 38.8696 9.74982C38.6125 9.64559 38.3356 9.5995 38.0586 9.61487H36.9336V13.8947Z" fill="white"/>
<path id="Vector_12" d="M42.0166 12.4851C41.9883 12.1891 42.0222 11.8906 42.116 11.6085C42.2099 11.3264 42.3616 11.0671 42.5616 10.8471C42.7615 10.6271 43.0052 10.4514 43.2771 10.3311C43.5489 10.2108 43.8429 10.1487 44.1402 10.1487C44.4374 10.1487 44.7314 10.2108 45.0033 10.3311C45.2751 10.4514 45.5188 10.6271 45.7188 10.8471C45.9187 11.0671 46.0705 11.3264 46.1643 11.6085C46.2582 11.8906 46.292 12.1891 46.2637 12.4851C46.2926 12.7813 46.2591 13.0803 46.1655 13.3628C46.0719 13.6453 45.9203 13.9051 45.7203 14.1255C45.5203 14.346 45.2764 14.5221 45.0043 14.6426C44.7321 14.7632 44.4378 14.8254 44.1402 14.8254C43.8425 14.8254 43.5482 14.7632 43.2761 14.6426C43.004 14.5221 42.7601 14.346 42.5601 14.1255C42.3601 13.9051 42.2084 13.6453 42.1148 13.3628C42.0212 13.0803 41.9878 12.7813 42.0166 12.4851ZM45.3496 12.4851C45.3496 11.509 44.9112 10.9382 44.1416 10.9382C43.3692 10.9382 42.9346 11.509 42.9346 12.4851C42.9346 13.469 43.3692 14.0354 44.1416 14.0354C44.9112 14.0354 45.3496 13.465 45.3496 12.4851H45.3496Z" fill="white"/>
<path id="Vector_13" d="M51.9092 14.7385H50.9873L50.0566 11.4221H49.9863L49.0596 14.7385H48.1465L46.9053 10.2356H47.8066L48.6133 13.6716H48.6797L49.6055 10.2356H50.458L51.3838 13.6716H51.4541L52.2568 10.2356H53.1455L51.9092 14.7385Z" fill="white"/>
<path id="Vector_14" d="M54.1895 10.2352H55.0449V10.9505H55.1113C55.224 10.6936 55.414 10.4782 55.6549 10.3344C55.8957 10.1906 56.1755 10.1255 56.4551 10.1482C56.6742 10.1318 56.8942 10.1648 57.0988 10.2449C57.3034 10.325 57.4873 10.4501 57.637 10.6109C57.7867 10.7718 57.8983 10.9642 57.9635 11.1741C58.0287 11.3839 58.0458 11.6057 58.0137 11.823V14.738H57.125V12.0462C57.125 11.3226 56.8106 10.9627 56.1533 10.9627C56.0046 10.9558 55.8561 10.9811 55.718 11.0369C55.58 11.0927 55.4556 11.1778 55.3535 11.2861C55.2514 11.3945 55.1739 11.5237 55.1263 11.6648C55.0788 11.806 55.0624 11.9557 55.0781 12.1038V14.7381H54.1895L54.1895 10.2352Z" fill="white"/>
<path id="Vector_15" d="M59.4297 8.47778H60.3184V14.7385H59.4297V8.47778Z" fill="white"/>
<path id="Vector_16" d="M61.5537 12.4851C61.5254 12.1892 61.5593 11.8906 61.6532 11.6085C61.747 11.3265 61.8988 11.0671 62.0988 10.8471C62.2987 10.6271 62.5425 10.4514 62.8143 10.3311C63.0862 10.2108 63.3802 10.1487 63.6775 10.1487C63.9748 10.1487 64.2688 10.2108 64.5407 10.3311C64.8125 10.4514 65.0563 10.6271 65.2562 10.8471C65.4562 11.0671 65.608 11.3265 65.7018 11.6085C65.7957 11.8906 65.8296 12.1892 65.8013 12.4851C65.8301 12.7814 65.7966 13.0804 65.703 13.3629C65.6094 13.6454 65.4577 13.9052 65.2577 14.1256C65.0577 14.346 64.8137 14.5222 64.5416 14.6427C64.2695 14.7632 63.9751 14.8255 63.6775 14.8255C63.3799 14.8255 63.0855 14.7632 62.8134 14.6427C62.5413 14.5222 62.2974 14.346 62.0973 14.1256C61.8973 13.9052 61.7456 13.6454 61.652 13.3629C61.5584 13.0804 61.5249 12.7814 61.5537 12.4851ZM64.8867 12.4851C64.8867 11.5091 64.4482 10.9383 63.6787 10.9383C62.9063 10.9383 62.4717 11.5091 62.4717 12.4852C62.4717 13.469 62.9063 14.0354 63.6787 14.0354C64.4483 14.0354 64.8867 13.4651 64.8867 12.4851H64.8867Z" fill="white"/>
<path id="Vector_17" d="M66.7368 13.4651C66.7368 12.6545 67.3403 12.1873 68.4116 12.1208L69.6313 12.0505V11.6619C69.6313 11.1863 69.3169 10.9177 68.7095 10.9177C68.2134 10.9177 67.8696 11.0999 67.771 11.4182H66.9106C67.0015 10.6448 67.729 10.1487 68.7505 10.1487C69.8794 10.1487 70.5161 10.7107 70.5161 11.6619V14.7385H69.6606V14.1057H69.5903C69.4476 14.3327 69.2472 14.5178 69.0096 14.642C68.772 14.7662 68.5056 14.8251 68.2378 14.8127C68.0488 14.8324 67.8577 14.8122 67.6769 14.7535C67.4962 14.6948 67.3297 14.5989 67.1883 14.4719C67.0469 14.3449 66.9337 14.1898 66.8559 14.0163C66.7781 13.8429 66.7376 13.6551 66.7368 13.4651ZM69.6313 13.0803V12.7039L68.5317 12.7742C67.9116 12.8157 67.6304 13.0266 67.6304 13.4236C67.6304 13.8288 67.9819 14.0647 68.4654 14.0647C68.607 14.079 68.7501 14.0647 68.8861 14.0226C69.0221 13.9805 69.1482 13.9115 69.257 13.8197C69.3658 13.7278 69.455 13.6151 69.5193 13.488C69.5836 13.361 69.6217 13.2224 69.6313 13.0803Z" fill="white"/>
<path id="Vector_18" d="M71.6841 12.4851C71.6841 11.0623 72.4155 10.1609 73.5532 10.1609C73.8346 10.1479 74.1139 10.2153 74.3585 10.3552C74.603 10.4951 74.8026 10.7017 74.9341 10.9509H75.0005V8.47778H75.8892V14.7385H75.0376V14.0271H74.9673C74.8257 14.2746 74.6191 14.4786 74.3698 14.6171C74.1206 14.7556 73.8382 14.8232 73.5532 14.8127C72.4077 14.8128 71.6841 13.9114 71.6841 12.4851ZM72.6021 12.4851C72.6021 13.4402 73.0523 14.0149 73.8052 14.0149C74.5542 14.0149 75.0171 13.4319 75.0171 12.489C75.0171 11.5506 74.5494 10.9592 73.8052 10.9592C73.0571 10.9592 72.6021 11.5379 72.6021 12.4851H72.6021Z" fill="white"/>
<path id="Vector_19" d="M79.566 12.4851C79.5376 12.1891 79.5715 11.8906 79.6653 11.6085C79.7592 11.3264 79.9109 11.0671 80.1109 10.8471C80.3108 10.6271 80.5545 10.4514 80.8264 10.3311C81.0982 10.2108 81.3922 10.1487 81.6895 10.1487C81.9868 10.1487 82.2807 10.2108 82.5526 10.3311C82.8244 10.4514 83.0682 10.6271 83.2681 10.8471C83.468 11.0671 83.6198 11.3264 83.7136 11.6085C83.8075 11.8906 83.8413 12.1891 83.813 12.4851C83.8419 12.7813 83.8084 13.0803 83.7148 13.3628C83.6212 13.6453 83.4696 13.9051 83.2696 14.1255C83.0696 14.346 82.8257 14.5221 82.5536 14.6426C82.2814 14.7632 81.9871 14.8254 81.6895 14.8254C81.3919 14.8254 81.0975 14.7632 80.8254 14.6426C80.5533 14.5221 80.3094 14.346 80.1094 14.1255C79.9094 13.9051 79.7577 13.6453 79.6641 13.3628C79.5706 13.0803 79.5371 12.7813 79.566 12.4851ZM82.899 12.4851C82.899 11.509 82.4605 10.9382 81.691 10.9382C80.9185 10.9382 80.484 11.509 80.484 12.4851C80.484 13.469 80.9185 14.0354 81.691 14.0354C82.4605 14.0354 82.899 13.465 82.899 12.4851Z" fill="white"/>
<path id="Vector_20" d="M85.0054 10.2352H85.8608V10.9505H85.9273C86.0399 10.6936 86.2299 10.4782 86.4708 10.3344C86.7117 10.1906 86.9914 10.1255 87.271 10.1482C87.4901 10.1318 87.7101 10.1648 87.9147 10.2449C88.1193 10.325 88.3033 10.4501 88.4529 10.6109C88.6026 10.7718 88.7142 10.9642 88.7794 11.1741C88.8446 11.3839 88.8617 11.6057 88.8296 11.823V14.738H87.9409V12.0462C87.9409 11.3226 87.6265 10.9627 86.9692 10.9627C86.8205 10.9558 86.672 10.9811 86.5339 11.0369C86.3959 11.0927 86.2715 11.1778 86.1694 11.2861C86.0673 11.3945 85.9898 11.5237 85.9423 11.6648C85.8947 11.806 85.8783 11.9557 85.894 12.1038V14.7381H85.0054V10.2352Z" fill="white"/>
<path id="Vector_21" d="M93.8511 9.1145V10.2561H94.8267V11.0046H93.8511V13.3201C93.8511 13.7918 94.0454 13.9983 94.4878 13.9983C94.601 13.9979 94.7142 13.9911 94.8267 13.9778V14.718C94.6671 14.7466 94.5054 14.7618 94.3433 14.7634C93.355 14.7634 92.9614 14.4158 92.9614 13.5476V11.0046H92.2466V10.2561H92.9614V9.1145H93.8511Z" fill="white"/>
<path id="Vector_22" d="M96.0405 8.47778H96.9214V10.9592H96.9917C97.1098 10.6999 97.305 10.4833 97.5507 10.339C97.7964 10.1946 98.0807 10.1295 98.3647 10.1526C98.5827 10.1407 98.8005 10.1771 99.0028 10.2592C99.2051 10.3412 99.3868 10.4669 99.5349 10.6272C99.683 10.7876 99.7939 10.9786 99.8597 11.1867C99.9255 11.3949 99.9445 11.615 99.9155 11.8313V14.7385H99.0259V12.0505C99.0259 11.3313 98.6909 10.967 98.063 10.967C97.9103 10.9545 97.7567 10.9755 97.6129 11.0286C97.4691 11.0816 97.3387 11.1654 97.2307 11.2742C97.1227 11.3829 97.0397 11.5139 96.9877 11.6581C96.9356 11.8022 96.9157 11.956 96.9292 12.1086V14.7385H96.0406L96.0405 8.47778Z" fill="white"/>
<path id="Vector_23" d="M105.097 13.5228C104.976 13.9343 104.715 14.2903 104.358 14.5285C104.001 14.7666 103.572 14.8718 103.146 14.8255C102.849 14.8333 102.555 14.7765 102.282 14.659C102.01 14.5415 101.766 14.366 101.568 14.1449C101.37 13.9238 101.223 13.6622 101.136 13.3784C101.049 13.0946 101.025 12.7953 101.066 12.5013C101.026 12.2064 101.051 11.9065 101.137 11.6218C101.224 11.3371 101.37 11.0744 101.567 10.8513C101.764 10.6282 102.007 10.45 102.278 10.3288C102.55 10.2076 102.845 10.1462 103.142 10.1488C104.395 10.1488 105.151 11.0048 105.151 12.4188V12.7288H101.971V12.7786C101.957 12.9439 101.978 13.1102 102.032 13.267C102.086 13.4237 102.173 13.5674 102.286 13.6889C102.398 13.8103 102.535 13.9069 102.688 13.9723C102.84 14.0377 103.005 14.0705 103.17 14.0686C103.383 14.0942 103.598 14.0559 103.789 13.9587C103.98 13.8615 104.137 13.7097 104.242 13.5227L105.097 13.5228ZM101.971 12.0716H104.246C104.257 11.9205 104.236 11.7687 104.185 11.626C104.134 11.4832 104.054 11.3528 103.95 11.2429C103.845 11.133 103.719 11.0462 103.579 10.9881C103.439 10.9299 103.289 10.9016 103.137 10.9051C102.984 10.9032 102.831 10.932 102.689 10.99C102.546 11.0479 102.417 11.1338 102.308 11.2425C102.2 11.3512 102.114 11.4806 102.056 11.623C101.998 11.7654 101.969 11.9179 101.971 12.0716H101.971Z" fill="white"/>
</g>
</g>
</g>
</svg>
