<svg width="682" height="439" viewBox="0 0 682 439" fill="none" xmlns="http://www.w3.org/2000/svg">
<g filter="url(#filter0_d_2802_39934)">
<g clip-path="url(#clip0_2802_39934)">
<rect x="39.6841" y="20.4727" width="594.632" height="359.054" rx="16.2468" fill="white"/>
<path d="M63.2013 63.6543V54.34H59.5165V51.7958H69.6058V54.34H65.921V63.6543H63.2013ZM73.3661 63.859C70.6464 63.859 68.5993 62.0166 68.5993 59.3554V59.3408C68.5993 56.6649 70.6464 54.7641 73.3661 54.7641H73.3807C76.1443 54.7641 78.1914 56.6649 78.1914 59.3408V59.3554C78.1914 62.0166 76.1443 63.859 73.3807 63.859H73.3661ZM73.3807 61.3294H73.3953C74.6528 61.3294 75.4424 60.4813 75.4424 59.3554V59.3408C75.4424 58.1856 74.6528 57.3229 73.3953 57.3229H73.3807C72.1524 57.3229 71.3628 58.1856 71.3628 59.3408V59.3554C71.3628 60.4813 72.1524 61.3294 73.3807 61.3294ZM83.0899 63.6543C81.0428 63.6543 80.2532 62.777 80.2532 60.8761V57.6446H78.8495V55.1296H80.2532V52.1175H82.9875V55.1296H85.9704V57.6446H82.9875V60.0426C82.9875 60.803 83.3531 61.1247 84.2158 61.1247H85.9851V63.6543H83.0899ZM91.173 54.7641C94.3168 54.7641 95.1795 55.8753 95.1795 57.9078V63.3034C94.0828 63.5958 92.489 63.8005 91.1438 63.8005C88.5118 63.8005 86.9911 62.9232 86.9911 60.8907C86.9911 59.0483 88.3802 58.1564 90.749 58.1564C91.3193 58.1564 91.9041 58.2003 92.5183 58.2734V58.1856C92.5183 57.3668 91.9626 57.1475 90.5882 57.1475C89.6816 57.1475 88.4826 57.3376 87.459 57.63L88.1316 55.1296C88.892 54.9541 90.1787 54.7641 91.173 54.7641ZM92.4452 61.5048V60.0573C92.1673 60.0134 91.6263 59.9549 91.2169 59.9549C90.2518 59.9549 89.7693 60.2035 89.7693 60.7591V60.7737C89.7693 61.344 90.2518 61.6218 91.2169 61.6218C91.5532 61.6218 92.1966 61.578 92.4452 61.5048ZM96.9875 63.6543V51.7958H99.7364V63.6543H96.9875ZM110.999 58.8729L113.821 63.6543H110.838L108.264 59.1361H107.124V63.6543H104.389V51.7958H109.171C112.402 51.7958 113.44 53.4042 113.44 55.3636V55.3782C113.44 57.0012 112.651 58.3319 110.999 58.8729ZM107.124 56.7527H109.317C110.209 56.7527 110.706 56.3432 110.706 55.4952V55.4805C110.706 54.6471 110.209 54.3254 109.317 54.3254H107.124V56.7527ZM122.897 59.3408C122.897 59.5162 122.897 59.9403 122.882 60.1157H116.916C117.18 60.9638 117.882 61.461 118.905 61.461C119.841 61.461 120.777 61.1832 121.376 60.8176L122.546 62.9378C121.639 63.4203 120.397 63.8444 118.759 63.8444C115.937 63.8444 114.051 62.0312 114.051 59.3262V59.3115C114.051 56.5918 115.864 54.7641 118.569 54.7641C121.172 54.7641 122.897 56.6064 122.897 59.3408ZM118.54 57.0305C117.648 57.0305 117.107 57.4838 116.902 58.2587H120.192C120.016 57.4984 119.431 57.0305 118.54 57.0305ZM129.498 55.1296H132.378L129.79 63.6543H126.091L123.459 55.1296H126.354L127.933 61.2709L129.498 55.1296ZM141.774 59.3408C141.774 59.5162 141.774 59.9403 141.76 60.1157H135.794C136.057 60.9638 136.759 61.461 137.782 61.461C138.718 61.461 139.654 61.1832 140.254 60.8176L141.423 62.9378C140.517 63.4203 139.274 63.8444 137.636 63.8444C134.814 63.8444 132.928 62.0312 132.928 59.3262V59.3115C132.928 56.5918 134.741 54.7641 137.446 54.7641C140.049 54.7641 141.774 56.6064 141.774 59.3408ZM137.417 57.0305C136.525 57.0305 135.984 57.4838 135.779 58.2587H139.069C138.894 57.4984 138.309 57.0305 137.417 57.0305ZM143.225 63.6543V55.3197C144.643 55.0711 146.412 54.8664 147.246 54.8664C149.395 54.8664 151.325 55.5829 151.325 58.2003V63.6543H148.576V58.7559C148.576 57.8639 148.108 57.5276 147.143 57.5276C146.822 57.5276 146.397 57.5715 145.959 57.6446V63.6543H143.225ZM161.492 55.1296V63.3911C160.074 63.6543 158.304 63.859 157.456 63.859C155.175 63.859 153.391 63.0402 153.391 60.5105V55.1296H156.126C156.126 56.7673 156.14 58.3172 156.14 59.9549C156.14 60.8907 156.608 61.1832 157.559 61.1832C157.895 61.1832 158.319 61.1393 158.743 61.0662V55.1296H161.492ZM171.747 59.3408C171.747 59.5162 171.747 59.9403 171.732 60.1157H165.766C166.029 60.9638 166.731 61.461 167.755 61.461C168.691 61.461 169.627 61.1832 170.226 60.8176L171.396 62.9378C170.489 63.4203 169.246 63.8444 167.609 63.8444C164.787 63.8444 162.9 62.0312 162.9 59.3262V59.3115C162.9 56.5918 164.713 54.7641 167.419 54.7641C170.021 54.7641 171.747 56.6064 171.747 59.3408ZM167.389 57.0305C166.497 57.0305 165.956 57.4838 165.752 58.2587H169.042C168.866 57.4984 168.281 57.0305 167.389 57.0305Z" fill="#111927"/>
<g clip-path="url(#clip1_2802_39934)">
<rect x="453.99" y="46.8739" width="40.4344" height="25.5604" rx="9.3419" stroke="#EF6C00" stroke-opacity="0.5" stroke-width="0.812339"/>
<path d="M468.212 54.4525H469.11L465.889 59.701V63.2916H465.107V59.701L461.886 54.4525H462.784L465.498 58.8457L468.212 54.4525ZM471.784 62.658C472.228 62.658 472.608 62.6087 472.925 62.5101C473.248 62.4115 473.569 62.2672 473.886 62.0771L474.245 62.7636C473.879 62.9748 473.509 63.1332 473.136 63.2388C472.77 63.3444 472.319 63.3972 471.784 63.3972C471.355 63.3972 470.96 63.3197 470.601 63.1649C470.242 63.01 469.929 62.7988 469.661 62.5312C469.394 62.2567 469.183 61.9363 469.028 61.5702C468.88 61.1971 468.806 60.7923 468.806 60.3558C468.806 59.9052 468.883 59.4969 469.038 59.1308C469.193 58.7576 469.404 58.4373 469.672 58.1698C469.947 57.8952 470.263 57.684 470.622 57.5362C470.981 57.3813 471.369 57.3038 471.784 57.3038C472.206 57.3038 472.59 57.3778 472.935 57.5256C473.28 57.6664 473.576 57.8741 473.822 58.1487C474.076 58.4162 474.273 58.7436 474.414 59.1308C474.554 59.511 474.628 59.9827 474.635 60.5459H469.609C469.616 60.7782 469.672 61.0352 469.778 61.3168C469.883 61.5914 470.031 61.8272 470.221 62.0243C470.418 62.2215 470.647 62.3763 470.908 62.489C471.175 62.6016 471.467 62.658 471.784 62.658ZM471.784 58.0431C471.474 58.0431 471.193 58.0923 470.939 58.1909C470.693 58.2895 470.482 58.4268 470.306 58.6028C470.13 58.7717 469.985 58.9759 469.873 59.2153C469.76 59.4476 469.69 59.6482 469.661 59.8172H473.78C473.759 59.6201 473.692 59.4054 473.579 59.173C473.474 58.9337 473.333 58.7295 473.157 58.5605C472.988 58.3916 472.787 58.2648 472.555 58.1803C472.323 58.0888 472.066 58.0431 471.784 58.0431ZM478.356 63.3972C478.018 63.3972 477.691 63.3655 477.374 63.3021C477.064 63.2388 476.786 63.1367 476.54 62.9959C476.3 62.8551 476.103 62.665 475.948 62.4256C475.8 62.1863 475.727 61.8941 475.727 61.5491C475.727 60.8521 475.998 60.3523 476.54 60.0495C477.082 59.7468 477.8 59.5954 478.694 59.5954C478.863 59.5954 479.06 59.606 479.285 59.6271C479.518 59.6482 479.715 59.6694 479.877 59.6905V59.6271C479.877 59.0569 479.743 58.652 479.476 58.4127C479.208 58.1663 478.796 58.0431 478.24 58.0431C478.085 58.0431 477.923 58.0571 477.754 58.0853C477.592 58.1135 477.427 58.1487 477.258 58.1909C477.096 58.2331 476.941 58.286 476.793 58.3493C476.645 58.4127 476.438 58.5183 476.17 58.6661L476.202 57.8213C476.575 57.6312 476.941 57.4974 477.3 57.42C477.659 57.3426 477.99 57.3038 478.293 57.3038C479.074 57.3038 479.659 57.4834 480.046 57.8424C480.433 58.1944 480.627 58.7576 480.627 59.5321V62.9642C480.268 63.1121 479.898 63.2212 479.518 63.2916C479.138 63.362 478.75 63.3972 478.356 63.3972ZM479.877 60.4508C479.778 60.4297 479.595 60.4051 479.328 60.3769C479.067 60.3487 478.821 60.3347 478.588 60.3347C478.321 60.3347 478.06 60.3523 477.807 60.3875C477.561 60.4227 477.339 60.4825 477.142 60.567C476.952 60.6515 476.8 60.7712 476.688 60.9261C476.582 61.0739 476.529 61.2745 476.529 61.528C476.529 61.7533 476.575 61.9363 476.666 62.0771C476.758 62.2179 476.881 62.3341 477.036 62.4256C477.191 62.5101 477.378 62.57 477.596 62.6052C477.821 62.6404 478.057 62.658 478.303 62.658C478.592 62.658 478.881 62.6333 479.169 62.584C479.458 62.5348 479.694 62.4749 479.877 62.4045V60.4508ZM485.652 58.1487H484.68C484.462 58.1487 484.226 58.1698 483.973 58.212C483.719 58.2472 483.543 58.2824 483.445 58.3176V63.2916H482.695V57.7157C482.991 57.6382 483.297 57.5714 483.614 57.515C483.931 57.4517 484.251 57.42 484.575 57.42H485.652V58.1487Z" fill="#EF6C00"/>
</g>
<g clip-path="url(#clip2_2802_39934)">
<rect x="504.985" y="46.8739" width="53.4344" height="25.5604" rx="9.3419" stroke="black" stroke-opacity="0.26" stroke-width="0.812339"/>
<path d="M517.887 63.2916L514.719 55.7409V63.2916H513.937V54.4525H515.025L518.246 62.2144L521.467 54.4525H522.555V63.2916H521.773V55.7409L518.605 63.2916H517.887ZM528.406 63.1543C528.047 63.3162 527.656 63.3972 527.234 63.3972C526.812 63.3972 526.417 63.3162 526.051 63.1543C525.692 62.9994 525.379 62.7847 525.111 62.5101C524.844 62.2285 524.633 61.9046 524.478 61.5386C524.33 61.1725 524.256 60.7782 524.256 60.3558C524.256 59.9334 524.33 59.5391 524.478 59.173C524.633 58.8069 524.844 58.4866 525.111 58.212C525.379 57.9304 525.692 57.7086 526.051 57.5467C526.417 57.3848 526.812 57.3038 527.234 57.3038C527.656 57.3038 528.047 57.3848 528.406 57.5467C528.772 57.7086 529.089 57.9304 529.357 58.212C529.624 58.4866 529.832 58.8069 529.98 59.173C530.135 59.5391 530.212 59.9334 530.212 60.3558C530.212 60.7782 530.135 61.1725 529.98 61.5386C529.832 61.9046 529.624 62.2285 529.357 62.5101C529.089 62.7847 528.772 62.9994 528.406 63.1543ZM526.347 62.4784C526.615 62.5981 526.91 62.658 527.234 62.658C527.558 62.658 527.854 62.5981 528.121 62.4784C528.389 62.3517 528.617 62.1863 528.808 61.9821C528.998 61.7709 529.146 61.528 529.251 61.2534C529.357 60.9718 529.41 60.6726 529.41 60.3558C529.41 60.039 529.357 59.7398 529.251 59.4582C529.146 59.1765 528.998 58.9337 528.808 58.7295C528.617 58.5183 528.389 58.3528 528.121 58.2331C527.854 58.1064 527.558 58.0431 527.234 58.0431C526.91 58.0431 526.615 58.1064 526.347 58.2331C526.079 58.3528 525.851 58.5183 525.661 58.7295C525.47 58.9337 525.323 59.1765 525.217 59.4582C525.111 59.7398 525.059 60.039 525.059 60.3558C525.059 60.6726 525.111 60.9718 525.217 61.2534C525.323 61.528 525.47 61.7709 525.661 61.9821C525.851 62.1863 526.079 62.3517 526.347 62.4784ZM531.704 57.5784C532.182 57.4869 532.619 57.42 533.013 57.3778C533.407 57.3285 533.777 57.3038 534.122 57.3038C534.481 57.3038 534.812 57.339 535.115 57.4094C535.424 57.4798 535.688 57.6101 535.907 57.8002C536.132 57.9903 536.301 58.2472 536.414 58.5711C536.533 58.8879 536.593 59.2892 536.593 59.775V63.2916H535.843V60.0918C535.843 59.6623 535.801 59.3174 535.717 59.0569C535.639 58.7893 535.527 58.5852 535.379 58.4444C535.238 58.2965 535.058 58.1944 534.84 58.1381C534.622 58.0747 534.368 58.0431 534.08 58.0431C533.573 58.0431 533.031 58.0994 532.453 58.212V63.2916H531.704V57.5784ZM537.826 57.42H539.072V55.2974H539.822V57.42H542.251V58.1487H539.822V61.0105C539.822 61.3203 539.843 61.5738 539.886 61.7709C539.935 61.968 540.009 62.1229 540.107 62.2355C540.206 62.3482 540.34 62.4327 540.509 62.489C540.678 62.5383 540.889 62.5629 541.142 62.5629H542.325V63.2916H541.216C540.906 63.2916 540.621 63.2564 540.361 63.186C540.107 63.1226 539.882 63.0135 539.685 62.8586C539.488 62.7037 539.336 62.4996 539.231 62.2461C539.125 61.9927 539.072 61.6794 539.072 61.3062V58.1487H537.826V57.42ZM544.728 57.4517C544.939 57.4165 545.2 57.3848 545.509 57.3566C545.826 57.3214 546.122 57.3038 546.396 57.3038C546.755 57.3038 547.086 57.339 547.389 57.4094C547.699 57.4798 547.963 57.6101 548.181 57.8002C548.406 57.9903 548.575 58.2472 548.688 58.5711C548.808 58.8879 548.868 59.2892 548.868 59.775V63.2916H548.118V60.0918C548.118 59.6623 548.076 59.3174 547.991 59.0569C547.914 58.7893 547.801 58.5852 547.653 58.4444C547.512 58.2965 547.333 58.1944 547.115 58.1381C546.896 58.0747 546.643 58.0431 546.354 58.0431C545.847 58.0431 545.305 58.0994 544.728 58.212V63.2916H543.978V54.4525H544.728V57.4517Z" fill="#111927"/>
</g>
<g clip-path="url(#clip3_2802_39934)">
<rect x="568.979" y="46.8739" width="45.4344" height="25.5604" rx="9.3419" stroke="black" stroke-opacity="0.26" stroke-width="0.812339"/>
<path d="M584.585 61.6125L586.718 54.4525H587.563L584.891 63.2916H584.237L582.22 55.8465L580.203 63.2916H579.548L576.876 54.4525H577.721L579.854 61.6125L581.787 54.4525H582.653L584.585 61.6125ZM590.662 62.658C591.105 62.658 591.485 62.6087 591.802 62.5101C592.126 62.4115 592.446 62.2672 592.763 62.0771L593.122 62.7636C592.756 62.9748 592.386 63.1332 592.013 63.2388C591.647 63.3444 591.197 63.3972 590.662 63.3972C590.232 63.3972 589.838 63.3197 589.479 63.1649C589.12 63.01 588.807 62.7988 588.539 62.5312C588.271 62.2567 588.06 61.9363 587.905 61.5702C587.758 61.1971 587.684 60.7923 587.684 60.3558C587.684 59.9052 587.761 59.4969 587.916 59.1308C588.071 58.7576 588.282 58.4373 588.55 58.1698C588.824 57.8952 589.141 57.684 589.5 57.5362C589.859 57.3813 590.246 57.3038 590.662 57.3038C591.084 57.3038 591.468 57.3778 591.813 57.5256C592.158 57.6664 592.453 57.8741 592.7 58.1487C592.953 58.4162 593.15 58.7436 593.291 59.1308C593.432 59.511 593.506 59.9827 593.513 60.5459H588.486C588.493 60.7782 588.55 61.0352 588.655 61.3168C588.761 61.5914 588.909 61.8272 589.099 62.0243C589.296 62.2215 589.525 62.3763 589.785 62.489C590.053 62.6016 590.345 62.658 590.662 62.658ZM590.662 58.0431C590.352 58.0431 590.07 58.0923 589.817 58.1909C589.57 58.2895 589.359 58.4268 589.183 58.6028C589.007 58.7717 588.863 58.9759 588.75 59.2153C588.638 59.4476 588.567 59.6482 588.539 59.8172H592.658C592.636 59.6201 592.57 59.4054 592.457 59.173C592.351 58.9337 592.21 58.7295 592.034 58.5605C591.866 58.3916 591.665 58.2648 591.433 58.1803C591.2 58.0888 590.943 58.0431 590.662 58.0431ZM597.485 62.658C597.928 62.658 598.308 62.6087 598.625 62.5101C598.949 62.4115 599.269 62.2672 599.586 62.0771L599.945 62.7636C599.579 62.9748 599.21 63.1332 598.836 63.2388C598.47 63.3444 598.02 63.3972 597.485 63.3972C597.055 63.3972 596.661 63.3197 596.302 63.1649C595.943 63.01 595.63 62.7988 595.362 62.5312C595.094 62.2567 594.883 61.9363 594.728 61.5702C594.581 61.1971 594.507 60.7923 594.507 60.3558C594.507 59.9052 594.584 59.4969 594.739 59.1308C594.894 58.7576 595.105 58.4373 595.373 58.1698C595.647 57.8952 595.964 57.684 596.323 57.5362C596.682 57.3813 597.069 57.3038 597.485 57.3038C597.907 57.3038 598.291 57.3778 598.636 57.5256C598.981 57.6664 599.276 57.8741 599.523 58.1487C599.776 58.4162 599.973 58.7436 600.114 59.1308C600.255 59.511 600.329 59.9827 600.336 60.5459H595.309C595.316 60.7782 595.373 61.0352 595.478 61.3168C595.584 61.5914 595.732 61.8272 595.922 62.0243C596.119 62.2215 596.348 62.3763 596.608 62.489C596.876 62.6016 597.168 62.658 597.485 62.658ZM597.485 58.0431C597.175 58.0431 596.893 58.0923 596.64 58.1909C596.393 58.2895 596.182 58.4268 596.006 58.6028C595.83 58.7717 595.686 58.9759 595.573 59.2153C595.461 59.4476 595.39 59.6482 595.362 59.8172H599.481C599.459 59.6201 599.393 59.4054 599.28 59.173C599.174 58.9337 599.034 58.7295 598.858 58.5605C598.689 58.3916 598.488 58.2648 598.256 58.1803C598.023 58.0888 597.766 58.0431 597.485 58.0431ZM601.81 63.2916V54.4525H602.56V60.039L605.358 57.42H606.435L603.288 60.3241L606.699 63.2916H605.569L602.56 60.6726V63.2916H601.81Z" fill="#111927"/>
</g>
<circle cx="403.874" cy="120.333" r="3.24935" fill="#FF9800"/>
<path d="M421.183 115.562V123.833H420.213L415.706 117.339H415.626V123.833H414.624V115.562H415.593L420.117 122.072H420.197V115.562H421.183ZM425.659 123.962C425.061 123.962 424.545 123.83 424.112 123.566C423.681 123.3 423.348 122.928 423.114 122.452C422.883 121.973 422.767 121.415 422.767 120.78C422.767 120.144 422.883 119.584 423.114 119.1C423.348 118.612 423.674 118.233 424.092 117.961C424.512 117.686 425.002 117.549 425.562 117.549C425.885 117.549 426.204 117.603 426.519 117.71C426.834 117.818 427.12 117.993 427.379 118.235C427.637 118.475 427.843 118.793 427.997 119.189C428.15 119.584 428.227 120.072 428.227 120.651V121.054H423.445V120.231H427.258C427.258 119.881 427.188 119.568 427.048 119.294C426.91 119.019 426.714 118.802 426.458 118.643C426.205 118.485 425.906 118.405 425.562 118.405C425.182 118.405 424.853 118.499 424.576 118.688C424.302 118.874 424.09 119.116 423.942 119.415C423.794 119.714 423.72 120.034 423.72 120.376V120.925C423.72 121.394 423.801 121.791 423.962 122.117C424.127 122.44 424.354 122.686 424.645 122.856C424.936 123.023 425.274 123.106 425.659 123.106C425.909 123.106 426.135 123.071 426.337 123.001C426.542 122.928 426.718 122.821 426.866 122.678C427.014 122.533 427.129 122.352 427.209 122.137L428.13 122.395C428.033 122.708 427.87 122.982 427.641 123.219C427.413 123.453 427.13 123.636 426.793 123.768C426.457 123.898 426.079 123.962 425.659 123.962ZM431.082 123.833L429.192 117.63H430.194L431.535 122.379H431.599L432.924 117.63H433.942L435.25 122.363H435.315L436.656 117.63H437.657L435.767 123.833H434.83L433.473 119.067H433.376L432.019 123.833H431.082ZM448.901 118.147H447.899C447.84 117.859 447.736 117.605 447.588 117.387C447.443 117.169 447.265 116.986 447.055 116.838C446.848 116.687 446.618 116.574 446.365 116.499C446.111 116.423 445.848 116.386 445.573 116.386C445.072 116.386 444.618 116.512 444.212 116.765C443.808 117.019 443.486 117.391 443.247 117.884C443.01 118.377 442.891 118.981 442.891 119.697C442.891 120.414 443.01 121.018 443.247 121.511C443.486 122.004 443.808 122.376 444.212 122.63C444.618 122.883 445.072 123.009 445.573 123.009C445.848 123.009 446.111 122.971 446.365 122.896C446.618 122.821 446.848 122.709 447.055 122.561C447.265 122.41 447.443 122.226 447.588 122.008C447.736 121.787 447.84 121.534 447.899 121.248H448.901C448.825 121.671 448.688 122.049 448.489 122.383C448.29 122.717 448.042 123.001 447.746 123.235C447.45 123.467 447.117 123.643 446.748 123.764C446.382 123.886 445.99 123.946 445.573 123.946C444.868 123.946 444.24 123.774 443.691 123.429C443.142 123.085 442.71 122.594 442.395 121.959C442.08 121.324 441.922 120.57 441.922 119.697C441.922 118.825 442.08 118.071 442.395 117.436C442.71 116.8 443.142 116.31 443.691 115.966C444.24 115.621 444.868 115.449 445.573 115.449C445.99 115.449 446.382 115.509 446.748 115.631C447.117 115.752 447.45 115.929 447.746 116.164C448.042 116.395 448.29 116.678 448.489 117.012C448.688 117.343 448.825 117.721 448.901 118.147ZM454.299 121.297V117.63H455.252V123.833H454.299V122.783H454.235C454.089 123.098 453.863 123.366 453.556 123.587C453.249 123.805 452.862 123.914 452.393 123.914C452.005 123.914 451.661 123.829 451.359 123.659C451.058 123.487 450.821 123.229 450.648 122.884C450.476 122.537 450.39 122.099 450.39 121.571V117.63H451.343V121.507C451.343 121.959 451.47 122.32 451.723 122.589C451.979 122.858 452.304 122.993 452.7 122.993C452.937 122.993 453.178 122.932 453.423 122.811C453.671 122.69 453.878 122.504 454.045 122.254C454.215 122.004 454.299 121.684 454.299 121.297ZM461.392 119.019L460.536 119.261C460.482 119.119 460.403 118.98 460.298 118.845C460.195 118.708 460.055 118.595 459.878 118.506C459.7 118.417 459.472 118.373 459.195 118.373C458.816 118.373 458.499 118.46 458.246 118.635C457.996 118.808 457.871 119.027 457.871 119.294C457.871 119.531 457.957 119.718 458.129 119.855C458.301 119.992 458.571 120.107 458.937 120.198L459.858 120.424C460.412 120.559 460.825 120.765 461.097 121.042C461.369 121.317 461.505 121.671 461.505 122.104C461.505 122.46 461.403 122.778 461.198 123.058C460.996 123.338 460.714 123.558 460.35 123.72C459.987 123.881 459.564 123.962 459.082 123.962C458.449 123.962 457.926 123.825 457.511 123.55C457.096 123.276 456.834 122.875 456.724 122.347L457.628 122.121C457.714 122.454 457.877 122.705 458.117 122.872C458.359 123.039 458.676 123.122 459.066 123.122C459.51 123.122 459.863 123.028 460.124 122.84C460.388 122.648 460.52 122.419 460.52 122.153C460.52 121.938 460.444 121.757 460.294 121.612C460.143 121.464 459.911 121.353 459.599 121.281L458.565 121.038C457.997 120.904 457.58 120.695 457.313 120.412C457.049 120.127 456.917 119.77 456.917 119.342C456.917 118.992 457.016 118.682 457.212 118.413C457.411 118.144 457.682 117.933 458.024 117.779C458.369 117.626 458.759 117.549 459.195 117.549C459.809 117.549 460.291 117.684 460.641 117.953C460.994 118.222 461.244 118.577 461.392 119.019ZM465.638 117.63V118.437H462.423V117.63H465.638ZM463.36 116.143H464.313V122.056C464.313 122.325 464.352 122.527 464.43 122.662C464.511 122.794 464.613 122.883 464.737 122.928C464.864 122.971 464.997 122.993 465.137 122.993C465.242 122.993 465.328 122.988 465.395 122.977C465.463 122.963 465.517 122.953 465.557 122.945L465.751 123.801C465.686 123.825 465.596 123.849 465.48 123.873C465.365 123.9 465.218 123.914 465.04 123.914C464.771 123.914 464.507 123.856 464.248 123.74C463.993 123.624 463.78 123.448 463.61 123.211C463.443 122.974 463.36 122.675 463.36 122.314V116.143ZM469.525 123.962C468.965 123.962 468.474 123.829 468.051 123.562C467.631 123.296 467.302 122.923 467.065 122.444C466.831 121.964 466.714 121.404 466.714 120.764C466.714 120.117 466.831 119.553 467.065 119.071C467.302 118.59 467.631 118.215 468.051 117.949C468.474 117.682 468.965 117.549 469.525 117.549C470.085 117.549 470.575 117.682 470.995 117.949C471.418 118.215 471.746 118.59 471.98 119.071C472.217 119.553 472.336 120.117 472.336 120.764C472.336 121.404 472.217 121.964 471.98 122.444C471.746 122.923 471.418 123.296 470.995 123.562C470.575 123.829 470.085 123.962 469.525 123.962ZM469.525 123.106C469.95 123.106 470.3 122.997 470.575 122.779C470.85 122.561 471.053 122.274 471.185 121.919C471.317 121.563 471.383 121.178 471.383 120.764C471.383 120.349 471.317 119.963 471.185 119.605C471.053 119.246 470.85 118.957 470.575 118.736C470.3 118.515 469.95 118.405 469.525 118.405C469.1 118.405 468.75 118.515 468.475 118.736C468.2 118.957 467.997 119.246 467.865 119.605C467.733 119.963 467.667 120.349 467.667 120.764C467.667 121.178 467.733 121.563 467.865 121.919C467.997 122.274 468.2 122.561 468.475 122.779C468.75 122.997 469.1 123.106 469.525 123.106ZM473.791 123.833V117.63H474.712V118.599H474.792C474.922 118.268 475.13 118.011 475.418 117.828C475.706 117.642 476.052 117.549 476.456 117.549C476.865 117.549 477.206 117.642 477.478 117.828C477.753 118.011 477.967 118.268 478.12 118.599H478.185C478.344 118.279 478.582 118.024 478.9 117.836C479.217 117.645 479.598 117.549 480.043 117.549C480.597 117.549 481.051 117.723 481.404 118.07C481.756 118.415 481.933 118.952 481.933 119.681V123.833H480.979V119.681C480.979 119.224 480.854 118.896 480.604 118.7C480.353 118.503 480.059 118.405 479.719 118.405C479.283 118.405 478.945 118.537 478.706 118.801C478.466 119.062 478.346 119.393 478.346 119.794V123.833H477.377V119.584C477.377 119.232 477.263 118.948 477.034 118.732C476.805 118.514 476.51 118.405 476.149 118.405C475.902 118.405 475.67 118.471 475.455 118.603C475.242 118.735 475.07 118.918 474.938 119.152C474.808 119.384 474.744 119.652 474.744 119.956V123.833H473.791ZM486.276 123.962C485.678 123.962 485.163 123.83 484.729 123.566C484.299 123.3 483.966 122.928 483.732 122.452C483.5 121.973 483.384 121.415 483.384 120.78C483.384 120.144 483.5 119.584 483.732 119.1C483.966 118.612 484.292 118.233 484.709 117.961C485.129 117.686 485.619 117.549 486.179 117.549C486.502 117.549 486.821 117.603 487.136 117.71C487.451 117.818 487.738 117.993 487.997 118.235C488.255 118.475 488.461 118.793 488.614 119.189C488.768 119.584 488.845 120.072 488.845 120.651V121.054H484.063V120.231H487.875C487.875 119.881 487.805 119.568 487.665 119.294C487.528 119.019 487.332 118.802 487.076 118.643C486.823 118.485 486.524 118.405 486.179 118.405C485.8 118.405 485.471 118.499 485.194 118.688C484.919 118.874 484.708 119.116 484.56 119.415C484.412 119.714 484.338 120.034 484.338 120.376V120.925C484.338 121.394 484.418 121.791 484.58 122.117C484.744 122.44 484.972 122.686 485.262 122.856C485.553 123.023 485.891 123.106 486.276 123.106C486.527 123.106 486.753 123.071 486.955 123.001C487.159 122.928 487.336 122.821 487.484 122.678C487.632 122.533 487.746 122.352 487.827 122.137L488.748 122.395C488.651 122.708 488.488 122.982 488.259 123.219C488.03 123.453 487.748 123.636 487.411 123.768C487.074 123.898 486.696 123.962 486.276 123.962ZM490.295 123.833V117.63H491.215V118.567H491.28C491.393 118.26 491.598 118.011 491.894 117.82C492.19 117.628 492.524 117.533 492.895 117.533C492.965 117.533 493.053 117.534 493.158 117.537C493.263 117.539 493.342 117.544 493.396 117.549V118.518C493.364 118.51 493.29 118.498 493.174 118.482C493.061 118.463 492.941 118.454 492.815 118.454C492.513 118.454 492.244 118.517 492.007 118.643C491.773 118.767 491.587 118.94 491.45 119.16C491.315 119.378 491.248 119.627 491.248 119.907V123.833H490.295ZM498.92 119.019L498.064 119.261C498.01 119.119 497.931 118.98 497.826 118.845C497.723 118.708 497.583 118.595 497.406 118.506C497.228 118.417 497 118.373 496.723 118.373C496.343 118.373 496.027 118.46 495.774 118.635C495.524 118.808 495.398 119.027 495.398 119.294C495.398 119.531 495.484 119.718 495.657 119.855C495.829 119.992 496.098 120.107 496.465 120.198L497.385 120.424C497.94 120.559 498.353 120.765 498.625 121.042C498.897 121.317 499.033 121.671 499.033 122.104C499.033 122.46 498.931 122.778 498.726 123.058C498.524 123.338 498.242 123.558 497.878 123.72C497.515 123.881 497.092 123.962 496.61 123.962C495.977 123.962 495.454 123.825 495.039 123.55C494.624 123.276 494.362 122.875 494.251 122.347L495.156 122.121C495.242 122.454 495.405 122.705 495.645 122.872C495.887 123.039 496.203 123.122 496.594 123.122C497.038 123.122 497.391 123.028 497.652 122.84C497.916 122.648 498.048 122.419 498.048 122.153C498.048 121.938 497.972 121.757 497.822 121.612C497.671 121.464 497.439 121.353 497.127 121.281L496.093 121.038C495.525 120.904 495.108 120.695 494.841 120.412C494.577 120.127 494.445 119.77 494.445 119.342C494.445 118.992 494.543 118.682 494.74 118.413C494.939 118.144 495.21 117.933 495.552 117.779C495.896 117.626 496.287 117.549 496.723 117.549C497.337 117.549 497.819 117.684 498.169 117.953C498.522 118.222 498.772 118.577 498.92 119.019Z" fill="#667085"/>
<circle cx="513.432" cy="120.333" r="3.24935" fill="#EF6C00"/>
<path d="M529.61 115.562H530.611V121.038C530.611 121.604 530.478 122.109 530.212 122.553C529.948 122.994 529.575 123.343 529.093 123.599C528.611 123.852 528.045 123.978 527.397 123.978C526.748 123.978 526.182 123.852 525.7 123.599C525.218 123.343 524.844 122.994 524.578 122.553C524.314 122.109 524.182 121.604 524.182 121.038V115.562H525.183V120.958C525.183 121.361 525.272 121.721 525.45 122.036C525.628 122.348 525.881 122.594 526.209 122.775C526.54 122.953 526.936 123.041 527.397 123.041C527.857 123.041 528.253 122.953 528.584 122.775C528.915 122.594 529.168 122.348 529.343 122.036C529.521 121.721 529.61 121.361 529.61 120.958V115.562ZM532.482 126.159V117.63H533.403V118.615H533.516C533.586 118.507 533.683 118.37 533.807 118.203C533.933 118.034 534.114 117.883 534.348 117.751C534.585 117.616 534.905 117.549 535.309 117.549C535.832 117.549 536.292 117.68 536.69 117.941C537.089 118.202 537.4 118.572 537.623 119.051C537.847 119.531 537.959 120.096 537.959 120.748C537.959 121.404 537.847 121.974 537.623 122.456C537.4 122.935 537.09 123.307 536.695 123.57C536.299 123.832 535.842 123.962 535.325 123.962C534.927 123.962 534.608 123.896 534.368 123.764C534.129 123.63 533.944 123.478 533.815 123.308C533.686 123.136 533.586 122.993 533.516 122.88H533.435V126.159H532.482ZM533.419 120.731C533.419 121.2 533.488 121.613 533.625 121.971C533.762 122.327 533.963 122.605 534.227 122.807C534.491 123.006 534.814 123.106 535.196 123.106C535.595 123.106 535.927 123.001 536.194 122.791C536.463 122.578 536.665 122.293 536.8 121.935C536.937 121.574 537.005 121.173 537.005 120.731C537.005 120.295 536.938 119.902 536.804 119.552C536.672 119.199 536.471 118.921 536.202 118.716C535.935 118.509 535.6 118.405 535.196 118.405C534.808 118.405 534.483 118.503 534.219 118.7C533.955 118.894 533.756 119.166 533.621 119.516C533.487 119.863 533.419 120.268 533.419 120.731ZM542.336 115.174L539.671 125.077H538.799L541.464 115.174H542.336ZM550.251 118.147H549.25C549.19 117.859 549.087 117.605 548.939 117.387C548.793 117.169 548.615 116.986 548.405 116.838C548.198 116.687 547.968 116.574 547.715 116.499C547.462 116.423 547.198 116.386 546.923 116.386C546.423 116.386 545.969 116.512 545.562 116.765C545.158 117.019 544.837 117.391 544.597 117.884C544.36 118.377 544.242 118.981 544.242 119.697C544.242 120.414 544.36 121.018 544.597 121.511C544.837 122.004 545.158 122.376 545.562 122.63C545.969 122.883 546.423 123.009 546.923 123.009C547.198 123.009 547.462 122.971 547.715 122.896C547.968 122.821 548.198 122.709 548.405 122.561C548.615 122.41 548.793 122.226 548.939 122.008C549.087 121.787 549.19 121.534 549.25 121.248H550.251C550.176 121.671 550.038 122.049 549.839 122.383C549.64 122.717 549.392 123.001 549.096 123.235C548.8 123.467 548.467 123.643 548.099 123.764C547.732 123.886 547.341 123.946 546.923 123.946C546.218 123.946 545.591 123.774 545.041 123.429C544.492 123.085 544.06 122.594 543.745 121.959C543.43 121.324 543.272 120.57 543.272 119.697C543.272 118.825 543.43 118.071 543.745 117.436C544.06 116.8 544.492 116.31 545.041 115.966C545.591 115.621 546.218 115.449 546.923 115.449C547.341 115.449 547.732 115.509 548.099 115.631C548.467 115.752 548.8 115.929 549.096 116.164C549.392 116.395 549.64 116.678 549.839 117.012C550.038 117.343 550.176 117.721 550.251 118.147ZM551.74 123.833V117.63H552.661V118.567H552.726C552.839 118.26 553.044 118.011 553.34 117.82C553.636 117.628 553.97 117.533 554.341 117.533C554.411 117.533 554.499 117.534 554.604 117.537C554.709 117.539 554.788 117.544 554.842 117.549V118.518C554.81 118.51 554.736 118.498 554.62 118.482C554.507 118.463 554.387 118.454 554.26 118.454C553.959 118.454 553.69 118.517 553.453 118.643C553.219 118.767 553.033 118.94 552.895 119.16C552.761 119.378 552.693 119.627 552.693 119.907V123.833H551.74ZM558.303 123.962C557.743 123.962 557.252 123.829 556.829 123.562C556.409 123.296 556.081 122.923 555.844 122.444C555.609 121.964 555.492 121.404 555.492 120.764C555.492 120.117 555.609 119.553 555.844 119.071C556.081 118.59 556.409 118.215 556.829 117.949C557.252 117.682 557.743 117.549 558.303 117.549C558.863 117.549 559.353 117.682 559.773 117.949C560.196 118.215 560.524 118.59 560.759 119.071C560.996 119.553 561.114 120.117 561.114 120.764C561.114 121.404 560.996 121.964 560.759 122.444C560.524 122.923 560.196 123.296 559.773 123.562C559.353 123.829 558.863 123.962 558.303 123.962ZM558.303 123.106C558.729 123.106 559.079 122.997 559.353 122.779C559.628 122.561 559.831 122.274 559.963 121.919C560.095 121.563 560.161 121.178 560.161 120.764C560.161 120.349 560.095 119.963 559.963 119.605C559.831 119.246 559.628 118.957 559.353 118.736C559.079 118.515 558.729 118.405 558.303 118.405C557.878 118.405 557.528 118.515 557.253 118.736C556.978 118.957 556.775 119.246 556.643 119.605C556.511 119.963 556.445 120.349 556.445 120.764C556.445 121.178 556.511 121.563 556.643 121.919C556.775 122.274 556.978 122.561 557.253 122.779C557.528 122.997 557.878 123.106 558.303 123.106ZM566.963 119.019L566.107 119.261C566.053 119.119 565.973 118.98 565.868 118.845C565.766 118.708 565.626 118.595 565.448 118.506C565.271 118.417 565.043 118.373 564.766 118.373C564.386 118.373 564.07 118.46 563.817 118.635C563.566 118.808 563.441 119.027 563.441 119.294C563.441 119.531 563.527 119.718 563.7 119.855C563.872 119.992 564.141 120.107 564.507 120.198L565.428 120.424C565.983 120.559 566.396 120.765 566.668 121.042C566.94 121.317 567.076 121.671 567.076 122.104C567.076 122.46 566.974 122.778 566.769 123.058C566.567 123.338 566.284 123.558 565.921 123.72C565.557 123.881 565.135 123.962 564.653 123.962C564.02 123.962 563.496 123.825 563.082 123.55C562.667 123.276 562.405 122.875 562.294 122.347L563.199 122.121C563.285 122.454 563.448 122.705 563.688 122.872C563.93 123.039 564.246 123.122 564.637 123.122C565.081 123.122 565.434 123.028 565.695 122.84C565.959 122.648 566.091 122.419 566.091 122.153C566.091 121.938 566.015 121.757 565.864 121.612C565.714 121.464 565.482 121.353 565.17 121.281L564.136 121.038C563.568 120.904 563.15 120.695 562.884 120.412C562.62 120.127 562.488 119.77 562.488 119.342C562.488 118.992 562.586 118.682 562.783 118.413C562.982 118.144 563.253 117.933 563.595 117.779C563.939 117.626 564.33 117.549 564.766 117.549C565.38 117.549 565.862 117.684 566.212 117.953C566.564 118.222 566.815 118.577 566.963 119.019ZM572.905 119.019L572.049 119.261C571.995 119.119 571.915 118.98 571.81 118.845C571.708 118.708 571.568 118.595 571.39 118.506C571.213 118.417 570.985 118.373 570.708 118.373C570.328 118.373 570.012 118.46 569.759 118.635C569.508 118.808 569.383 119.027 569.383 119.294C569.383 119.531 569.469 119.718 569.642 119.855C569.814 119.992 570.083 120.107 570.449 120.198L571.37 120.424C571.925 120.559 572.338 120.765 572.61 121.042C572.882 121.317 573.018 121.671 573.018 122.104C573.018 122.46 572.916 122.778 572.711 123.058C572.509 123.338 572.226 123.558 571.863 123.72C571.499 123.881 571.077 123.962 570.595 123.962C569.962 123.962 569.438 123.825 569.024 123.55C568.609 123.276 568.346 122.875 568.236 122.347L569.141 122.121C569.227 122.454 569.39 122.705 569.629 122.872C569.872 123.039 570.188 123.122 570.578 123.122C571.023 123.122 571.375 123.028 571.637 122.84C571.9 122.648 572.032 122.419 572.032 122.153C572.032 121.938 571.957 121.757 571.806 121.612C571.655 121.464 571.424 121.353 571.112 121.281L570.078 121.038C569.51 120.904 569.092 120.695 568.826 120.412C568.562 120.127 568.43 119.77 568.43 119.342C568.43 118.992 568.528 118.682 568.725 118.413C568.924 118.144 569.195 117.933 569.537 117.779C569.881 117.626 570.272 117.549 570.708 117.549C571.322 117.549 571.804 117.684 572.154 117.953C572.506 118.222 572.757 118.577 572.905 119.019ZM578.007 119.843V120.731H574.388V119.843H578.007ZM584.336 117.63C584.288 117.22 584.091 116.903 583.746 116.677C583.402 116.45 582.979 116.337 582.478 116.337C582.112 116.337 581.792 116.397 581.517 116.515C581.245 116.634 581.032 116.796 580.879 117.004C580.728 117.211 580.653 117.447 580.653 117.71C580.653 117.931 580.705 118.121 580.81 118.28C580.918 118.436 581.055 118.567 581.222 118.672C581.389 118.774 581.564 118.859 581.747 118.926C581.93 118.991 582.099 119.043 582.252 119.084L583.092 119.31C583.308 119.366 583.547 119.444 583.811 119.544C584.078 119.644 584.332 119.78 584.574 119.952C584.819 120.122 585.021 120.34 585.18 120.606C585.339 120.873 585.418 121.2 585.418 121.588C585.418 122.034 585.301 122.438 585.067 122.799C584.835 123.16 584.496 123.447 584.049 123.659C583.605 123.872 583.065 123.978 582.43 123.978C581.837 123.978 581.325 123.883 580.891 123.692C580.46 123.5 580.121 123.234 579.873 122.892C579.628 122.55 579.49 122.153 579.457 121.701H580.491C580.518 122.013 580.623 122.271 580.806 122.476C580.992 122.678 581.226 122.829 581.509 122.928C581.794 123.025 582.101 123.074 582.43 123.074C582.812 123.074 583.155 123.012 583.46 122.888C583.764 122.761 584.005 122.586 584.183 122.363C584.36 122.137 584.449 121.873 584.449 121.571C584.449 121.297 584.372 121.073 584.219 120.901C584.065 120.729 583.864 120.589 583.613 120.481C583.363 120.373 583.092 120.279 582.801 120.198L581.784 119.907C581.137 119.722 580.626 119.456 580.249 119.112C579.872 118.767 579.684 118.316 579.684 117.759C579.684 117.296 579.809 116.892 580.059 116.547C580.312 116.2 580.651 115.931 581.077 115.74C581.505 115.546 581.983 115.449 582.511 115.449C583.044 115.449 583.518 115.544 583.932 115.736C584.347 115.924 584.675 116.183 584.918 116.511C585.163 116.839 585.292 117.212 585.305 117.63H584.336ZM589.537 123.962C588.939 123.962 588.423 123.83 587.99 123.566C587.559 123.3 587.227 122.928 586.992 122.452C586.761 121.973 586.645 121.415 586.645 120.78C586.645 120.144 586.761 119.584 586.992 119.1C587.227 118.612 587.552 118.233 587.97 117.961C588.39 117.686 588.88 117.549 589.44 117.549C589.763 117.549 590.082 117.603 590.397 117.71C590.712 117.818 590.999 117.993 591.257 118.235C591.516 118.475 591.722 118.793 591.875 119.189C592.029 119.584 592.105 120.072 592.105 120.651V121.054H587.324V120.231H591.136C591.136 119.881 591.066 119.568 590.926 119.294C590.789 119.019 590.592 118.802 590.336 118.643C590.083 118.485 589.784 118.405 589.44 118.405C589.06 118.405 588.732 118.499 588.454 118.688C588.18 118.874 587.968 119.116 587.82 119.415C587.672 119.714 587.598 120.034 587.598 120.376V120.925C587.598 121.394 587.679 121.791 587.841 122.117C588.005 122.44 588.232 122.686 588.523 122.856C588.814 123.023 589.152 123.106 589.537 123.106C589.787 123.106 590.013 123.071 590.215 123.001C590.42 122.928 590.596 122.821 590.744 122.678C590.892 122.533 591.007 122.352 591.088 122.137L592.008 122.395C591.911 122.708 591.749 122.982 591.52 123.219C591.291 123.453 591.008 123.636 590.672 123.768C590.335 123.898 589.957 123.962 589.537 123.962ZM594.508 115.562V123.833H593.555V115.562H594.508ZM597.207 115.562V123.833H596.254V115.562H597.207ZM598.953 123.833V117.63H599.906V123.833H598.953ZM599.437 116.596C599.252 116.596 599.091 116.533 598.957 116.406C598.825 116.279 598.759 116.127 598.759 115.95C598.759 115.772 598.825 115.62 598.957 115.493C599.091 115.367 599.252 115.303 599.437 115.303C599.623 115.303 599.782 115.367 599.914 115.493C600.049 115.62 600.116 115.772 600.116 115.95C600.116 116.127 600.049 116.279 599.914 116.406C599.782 116.533 599.623 116.596 599.437 116.596ZM602.605 120.101V123.833H601.652V117.63H602.572V118.599H602.653C602.799 118.284 603.019 118.031 603.316 117.84C603.612 117.646 603.994 117.549 604.462 117.549C604.882 117.549 605.25 117.635 605.565 117.807C605.88 117.977 606.125 118.235 606.3 118.583C606.475 118.927 606.563 119.364 606.563 119.891V123.833H605.609V119.956C605.609 119.469 605.483 119.089 605.23 118.817C604.977 118.542 604.629 118.405 604.188 118.405C603.884 118.405 603.612 118.471 603.372 118.603C603.135 118.735 602.948 118.927 602.811 119.181C602.673 119.434 602.605 119.741 602.605 120.101ZM610.808 126.288C610.348 126.288 609.952 126.229 609.621 126.111C609.29 125.995 609.014 125.842 608.793 125.65C608.575 125.462 608.401 125.26 608.272 125.045L609.031 124.511C609.117 124.625 609.226 124.754 609.358 124.899C609.49 125.047 609.671 125.175 609.899 125.283C610.131 125.393 610.434 125.448 610.808 125.448C611.309 125.448 611.722 125.327 612.048 125.085C612.374 124.843 612.537 124.463 612.537 123.946V122.686H612.456C612.386 122.799 612.286 122.939 612.157 123.106C612.031 123.27 611.847 123.417 611.608 123.546C611.371 123.673 611.05 123.736 610.647 123.736C610.146 123.736 609.696 123.618 609.298 123.381C608.902 123.144 608.588 122.799 608.357 122.347C608.128 121.894 608.013 121.345 608.013 120.699C608.013 120.064 608.125 119.51 608.349 119.039C608.572 118.565 608.883 118.199 609.282 117.941C609.68 117.68 610.14 117.549 610.663 117.549C611.067 117.549 611.387 117.616 611.624 117.751C611.864 117.883 612.047 118.034 612.173 118.203C612.302 118.37 612.402 118.507 612.472 118.615H612.569V117.63H613.49V124.011C613.49 124.544 613.369 124.977 613.126 125.311C612.887 125.648 612.564 125.894 612.157 126.05C611.753 126.209 611.304 126.288 610.808 126.288ZM610.776 122.88C611.158 122.88 611.481 122.792 611.745 122.617C612.009 122.442 612.21 122.191 612.347 121.862C612.484 121.534 612.553 121.141 612.553 120.683C612.553 120.236 612.486 119.842 612.351 119.5C612.216 119.158 612.017 118.89 611.753 118.696C611.489 118.502 611.164 118.405 610.776 118.405C610.372 118.405 610.035 118.507 609.766 118.712C609.5 118.917 609.299 119.191 609.164 119.536C609.033 119.881 608.967 120.263 608.967 120.683C608.967 121.114 609.034 121.495 609.168 121.826C609.306 122.154 609.508 122.413 609.774 122.601C610.044 122.787 610.377 122.88 610.776 122.88Z" fill="#667085"/>
<line x1="59.5864" y1="137.769" x2="614.578" y2="137.769" stroke="#E5E7EB" stroke-width="0.812339" stroke-linecap="round" stroke-dasharray="3.25 3.25"/>
<line x1="59.5864" y1="178.225" x2="614.578" y2="178.225" stroke="#E5E7EB" stroke-width="0.812339" stroke-linecap="round" stroke-dasharray="3.25 3.25"/>
<line x1="59.5864" y1="216.65" x2="614.578" y2="216.65" stroke="#E5E7EB" stroke-width="0.812339" stroke-linecap="round" stroke-dasharray="3.25 3.25"/>
<line x1="59.5864" y1="255.077" x2="614.578" y2="255.077" stroke="#E5E7EB" stroke-width="0.812339" stroke-linecap="round" stroke-dasharray="3.25 3.25"/>
<line x1="59.5864" y1="293.503" x2="614.578" y2="293.503" stroke="#E5E7EB" stroke-width="0.812339" stroke-linecap="round" stroke-dasharray="3.25 3.25"/>
<line x1="59.5864" y1="331.929" x2="614.578" y2="331.929" stroke="#E5E7EB" stroke-width="0.812339" stroke-linecap="round" stroke-dasharray="3.25 3.25"/>
<path d="M82.5049 342.744H83.3634V347.811C83.3634 348.264 83.2803 348.648 83.1141 348.964C82.948 349.28 82.7137 349.52 82.4114 349.684C82.1091 349.848 81.7525 349.93 81.3417 349.93C80.954 349.93 80.609 349.86 80.3067 349.719C80.0044 349.576 79.7667 349.373 79.5936 349.11C79.4205 348.846 79.334 348.534 79.334 348.171H80.1786C80.1786 348.372 80.2282 348.548 80.3275 348.698C80.429 348.845 80.5675 348.961 80.7429 349.044C80.9183 349.127 81.1179 349.168 81.3417 349.168C81.5887 349.168 81.7987 349.116 81.9718 349.013C82.1449 348.909 82.2764 348.756 82.3664 348.556C82.4587 348.353 82.5049 348.104 82.5049 347.811V342.744ZM86.5377 349.958C86.2008 349.958 85.895 349.894 85.6204 349.767C85.3457 349.638 85.1277 349.452 84.9661 349.21C84.8046 348.965 84.7238 348.67 84.7238 348.324C84.7238 348.019 84.7838 347.772 84.9038 347.583C85.0238 347.391 85.1842 347.241 85.385 347.133C85.5858 347.024 85.8073 346.944 86.0496 346.891C86.2942 346.835 86.54 346.791 86.787 346.759C87.11 346.718 87.372 346.686 87.5728 346.666C87.7758 346.643 87.9235 346.604 88.0158 346.551C88.1105 346.498 88.1578 346.406 88.1578 346.274V346.247C88.1578 345.905 88.0643 345.64 87.8774 345.451C87.6928 345.261 87.4124 345.167 87.0362 345.167C86.6462 345.167 86.3404 345.252 86.1189 345.423C85.8973 345.594 85.7415 345.776 85.6515 345.97L84.8761 345.693C85.0146 345.37 85.1992 345.118 85.43 344.938C85.6631 344.756 85.9169 344.629 86.1915 344.557C86.4685 344.484 86.7408 344.447 87.0085 344.447C87.1793 344.447 87.3754 344.467 87.597 344.509C87.8208 344.548 88.0366 344.63 88.2443 344.755C88.4543 344.879 88.6286 345.067 88.767 345.319C88.9055 345.571 88.9747 345.907 88.9747 346.33V349.833H88.1578V349.113H88.1162C88.0608 349.228 87.9685 349.352 87.8393 349.483C87.7101 349.615 87.5381 349.727 87.3235 349.819C87.1089 349.911 86.847 349.958 86.5377 349.958ZM86.6623 349.224C86.9854 349.224 87.2577 349.16 87.4793 349.033C87.7031 348.906 87.8716 348.743 87.9847 348.542C88.1001 348.341 88.1578 348.13 88.1578 347.908V347.161C88.1232 347.202 88.047 347.24 87.9293 347.275C87.8139 347.307 87.6801 347.336 87.5278 347.361C87.3777 347.384 87.2312 347.405 87.0881 347.424C86.9473 347.44 86.8331 347.454 86.7454 347.465C86.5331 347.493 86.3346 347.538 86.15 347.6C85.9677 347.66 85.82 347.751 85.7069 347.874C85.5961 347.994 85.5408 348.158 85.5408 348.365C85.5408 348.649 85.6458 348.864 85.8558 349.009C86.0681 349.152 86.3369 349.224 86.6623 349.224ZM91.2828 346.634V349.833H90.4658V344.516H91.2551V345.347H91.3243C91.449 345.077 91.6382 344.86 91.8921 344.696C92.1459 344.53 92.4736 344.447 92.8752 344.447C93.2352 344.447 93.5502 344.52 93.8202 344.668C94.0902 344.814 94.3002 345.035 94.4502 345.333C94.6002 345.628 94.6752 346.002 94.6752 346.454V349.833H93.8583V346.51C93.8583 346.092 93.7498 345.767 93.5329 345.534C93.316 345.298 93.0182 345.181 92.6398 345.181C92.379 345.181 92.1459 345.237 91.9405 345.35C91.7374 345.463 91.577 345.628 91.4593 345.845C91.3416 346.062 91.2828 346.325 91.2828 346.634Z" fill="#667085"/>
<path d="M124.642 349.833V342.744H128.893V343.505H125.501V345.901H128.575V346.662H125.501V349.833H124.642ZM132.092 349.944C131.58 349.944 131.138 349.831 130.766 349.605C130.397 349.376 130.112 349.058 129.911 348.649C129.713 348.238 129.613 347.761 129.613 347.216C129.613 346.671 129.713 346.191 129.911 345.776C130.112 345.358 130.391 345.033 130.749 344.8C131.109 344.564 131.529 344.447 132.009 344.447C132.286 344.447 132.559 344.493 132.829 344.585C133.099 344.677 133.345 344.827 133.567 345.035C133.788 345.241 133.965 345.513 134.096 345.852C134.228 346.191 134.293 346.609 134.293 347.105V347.451H130.195V346.745H133.463C133.463 346.445 133.403 346.177 133.283 345.942C133.165 345.707 132.997 345.521 132.777 345.385C132.56 345.249 132.304 345.181 132.009 345.181C131.683 345.181 131.402 345.261 131.164 345.423C130.929 345.582 130.748 345.79 130.621 346.046C130.494 346.302 130.43 346.577 130.43 346.87V347.341C130.43 347.742 130.5 348.083 130.638 348.362C130.779 348.639 130.974 348.85 131.223 348.995C131.472 349.138 131.762 349.21 132.092 349.21C132.306 349.21 132.5 349.18 132.673 349.12C132.849 349.058 133 348.965 133.127 348.843C133.254 348.718 133.352 348.564 133.421 348.379L134.21 348.601C134.127 348.868 133.988 349.104 133.792 349.307C133.595 349.508 133.353 349.665 133.065 349.778C132.776 349.888 132.452 349.944 132.092 349.944ZM135.647 349.833V342.744H136.464V345.361H136.533C136.593 345.268 136.676 345.151 136.782 345.007C136.891 344.862 137.046 344.733 137.246 344.62C137.449 344.504 137.724 344.447 138.07 344.447C138.518 344.447 138.913 344.559 139.254 344.782C139.596 345.006 139.862 345.324 140.054 345.734C140.245 346.145 140.341 346.63 140.341 347.188C140.341 347.751 140.245 348.239 140.054 348.653C139.862 349.063 139.597 349.382 139.258 349.608C138.918 349.832 138.527 349.944 138.084 349.944C137.742 349.944 137.469 349.887 137.264 349.774C137.058 349.659 136.9 349.528 136.789 349.383C136.679 349.235 136.593 349.113 136.533 349.016H136.436V349.833H135.647ZM136.45 347.174C136.45 347.576 136.509 347.93 136.627 348.237C136.744 348.542 136.916 348.781 137.142 348.954C137.369 349.125 137.646 349.21 137.973 349.21C138.315 349.21 138.6 349.12 138.828 348.94C139.059 348.758 139.232 348.513 139.348 348.206C139.465 347.897 139.524 347.553 139.524 347.174C139.524 346.801 139.466 346.464 139.351 346.164C139.238 345.861 139.066 345.622 138.835 345.447C138.607 345.269 138.319 345.181 137.973 345.181C137.641 345.181 137.362 345.265 137.136 345.433C136.909 345.599 136.739 345.832 136.623 346.132C136.508 346.43 136.45 346.778 136.45 347.174Z" fill="#667085"/>
<path d="M169.913 342.744H170.938L173.347 348.628H173.43L175.839 342.744H176.864V349.833H176.061V344.447H175.992L173.776 349.833H173.001L170.785 344.447H170.716V349.833H169.913V342.744ZM180.039 349.958C179.702 349.958 179.396 349.894 179.122 349.767C178.847 349.638 178.629 349.452 178.468 349.21C178.306 348.965 178.225 348.67 178.225 348.324C178.225 348.019 178.285 347.772 178.405 347.583C178.525 347.391 178.686 347.241 178.886 347.133C179.087 347.024 179.309 346.944 179.551 346.891C179.796 346.835 180.041 346.791 180.288 346.759C180.612 346.718 180.873 346.686 181.074 346.666C181.277 346.643 181.425 346.604 181.517 346.551C181.612 346.498 181.659 346.406 181.659 346.274V346.247C181.659 345.905 181.566 345.64 181.379 345.451C181.194 345.261 180.914 345.167 180.538 345.167C180.148 345.167 179.842 345.252 179.62 345.423C179.399 345.594 179.243 345.776 179.153 345.97L178.378 345.693C178.516 345.37 178.701 345.118 178.931 344.938C179.165 344.756 179.418 344.629 179.693 344.557C179.97 344.484 180.242 344.447 180.51 344.447C180.681 344.447 180.877 344.467 181.098 344.509C181.322 344.548 181.538 344.63 181.746 344.755C181.956 344.879 182.13 345.067 182.269 345.319C182.407 345.571 182.476 345.907 182.476 346.33V349.833H181.659V349.113H181.618C181.562 349.228 181.47 349.352 181.341 349.483C181.212 349.615 181.04 349.727 180.825 349.819C180.61 349.911 180.348 349.958 180.039 349.958ZM180.164 349.224C180.487 349.224 180.759 349.16 180.981 349.033C181.205 348.906 181.373 348.743 181.486 348.542C181.602 348.341 181.659 348.13 181.659 347.908V347.161C181.625 347.202 181.548 347.24 181.431 347.275C181.315 347.307 181.182 347.336 181.029 347.361C180.879 347.384 180.733 347.405 180.59 347.424C180.449 347.44 180.335 347.454 180.247 347.465C180.035 347.493 179.836 347.538 179.651 347.6C179.469 347.66 179.321 347.751 179.208 347.874C179.098 347.994 179.042 348.158 179.042 348.365C179.042 348.649 179.147 348.864 179.357 349.009C179.57 349.152 179.838 349.224 180.164 349.224ZM183.967 349.833V344.516H184.757V345.319H184.812C184.909 345.056 185.084 344.842 185.338 344.679C185.592 344.515 185.878 344.433 186.197 344.433C186.257 344.433 186.332 344.434 186.422 344.436C186.512 344.439 186.58 344.442 186.626 344.447V345.277C186.598 345.271 186.535 345.26 186.435 345.246C186.339 345.23 186.236 345.222 186.127 345.222C185.869 345.222 185.638 345.276 185.435 345.385C185.234 345.491 185.075 345.639 184.957 345.828C184.842 346.015 184.784 346.228 184.784 346.468V349.833H183.967Z" fill="#667085"/>
<path d="M216.159 349.833H215.259L217.863 342.744H218.749L221.352 349.833H220.452L218.333 343.865H218.278L216.159 349.833ZM216.492 347.064H220.12V347.825H216.492V347.064ZM222.345 351.827V344.516H223.135V345.361H223.232C223.292 345.268 223.375 345.151 223.481 345.007C223.589 344.862 223.744 344.733 223.945 344.62C224.148 344.504 224.422 344.447 224.769 344.447C225.216 344.447 225.611 344.559 225.952 344.782C226.294 345.006 226.561 345.324 226.752 345.734C226.944 346.145 227.039 346.63 227.039 347.188C227.039 347.751 226.944 348.239 226.752 348.653C226.561 349.063 226.295 349.382 225.956 349.608C225.617 349.832 225.226 349.944 224.782 349.944C224.441 349.944 224.167 349.887 223.962 349.774C223.757 349.659 223.599 349.528 223.488 349.383C223.377 349.235 223.292 349.113 223.232 349.016H223.162V351.827H222.345ZM223.149 347.174C223.149 347.576 223.207 347.93 223.325 348.237C223.443 348.542 223.615 348.781 223.841 348.954C224.067 349.125 224.344 349.21 224.672 349.21C225.013 349.21 225.298 349.12 225.527 348.94C225.757 348.758 225.931 348.513 226.046 348.206C226.164 347.897 226.222 347.553 226.222 347.174C226.222 346.801 226.165 346.464 226.049 346.164C225.936 345.861 225.764 345.622 225.534 345.447C225.305 345.269 225.018 345.181 224.672 345.181C224.339 345.181 224.06 345.265 223.834 345.433C223.608 345.599 223.437 345.832 223.322 346.132C223.206 346.43 223.149 346.778 223.149 347.174ZM228.286 349.833V344.516H229.075V345.319H229.13C229.227 345.056 229.403 344.842 229.656 344.679C229.91 344.515 230.196 344.433 230.515 344.433C230.575 344.433 230.65 344.434 230.74 344.436C230.83 344.439 230.898 344.442 230.944 344.447V345.277C230.917 345.271 230.853 345.26 230.754 345.246C230.657 345.23 230.554 345.222 230.446 345.222C230.187 345.222 229.956 345.276 229.753 345.385C229.553 345.491 229.393 345.639 229.276 345.828C229.16 346.015 229.103 346.228 229.103 346.468V349.833H228.286Z" fill="#667085"/>
<path d="M260.383 342.744H261.407L263.817 348.628H263.9L266.309 342.744H267.334V349.833H266.531V344.447H266.461L264.246 349.833H263.47L261.255 344.447H261.186V349.833H260.383V342.744ZM270.509 349.958C270.172 349.958 269.866 349.894 269.592 349.767C269.317 349.638 269.099 349.452 268.937 349.21C268.776 348.965 268.695 348.67 268.695 348.324C268.695 348.019 268.755 347.772 268.875 347.583C268.995 347.391 269.155 347.241 269.356 347.133C269.557 347.024 269.778 346.944 270.021 346.891C270.265 346.835 270.511 346.791 270.758 346.759C271.081 346.718 271.343 346.686 271.544 346.666C271.747 346.643 271.895 346.604 271.987 346.551C272.082 346.498 272.129 346.406 272.129 346.274V346.247C272.129 345.905 272.035 345.64 271.849 345.451C271.664 345.261 271.384 345.167 271.007 345.167C270.617 345.167 270.312 345.252 270.09 345.423C269.868 345.594 269.713 345.776 269.623 345.97L268.847 345.693C268.986 345.37 269.17 345.118 269.401 344.938C269.634 344.756 269.888 344.629 270.163 344.557C270.44 344.484 270.712 344.447 270.98 344.447C271.15 344.447 271.347 344.467 271.568 344.509C271.792 344.548 272.008 344.63 272.215 344.755C272.426 344.879 272.6 345.067 272.738 345.319C272.877 345.571 272.946 345.907 272.946 346.33V349.833H272.129V349.113H272.087C272.032 349.228 271.94 349.352 271.81 349.483C271.681 349.615 271.509 349.727 271.295 349.819C271.08 349.911 270.818 349.958 270.509 349.958ZM270.634 349.224C270.957 349.224 271.229 349.16 271.45 349.033C271.674 348.906 271.843 348.743 271.956 348.542C272.071 348.341 272.129 348.13 272.129 347.908V347.161C272.094 347.202 272.018 347.24 271.9 347.275C271.785 347.307 271.651 347.336 271.499 347.361C271.349 347.384 271.202 347.405 271.059 347.424C270.919 347.44 270.804 347.454 270.717 347.465C270.504 347.493 270.306 347.538 270.121 347.6C269.939 347.66 269.791 347.751 269.678 347.874C269.567 347.994 269.512 348.158 269.512 348.365C269.512 348.649 269.617 348.864 269.827 349.009C270.039 349.152 270.308 349.224 270.634 349.224ZM274.773 351.827C274.634 351.827 274.511 351.815 274.402 351.792C274.294 351.772 274.219 351.751 274.177 351.73L274.385 351.01C274.584 351.061 274.759 351.079 274.911 351.065C275.064 351.052 275.199 350.983 275.316 350.861C275.436 350.741 275.546 350.546 275.645 350.276L275.797 349.861L273.831 344.516H274.717L276.185 348.753H276.241L277.708 344.516H278.594L276.337 350.608C276.236 350.883 276.11 351.11 275.96 351.29C275.81 351.473 275.636 351.608 275.437 351.695C275.241 351.783 275.02 351.827 274.773 351.827Z" fill="#667085"/>
<path d="M310.604 342.744H311.463V347.811C311.463 348.264 311.38 348.648 311.214 348.964C311.048 349.28 310.813 349.52 310.511 349.684C310.209 349.848 309.852 349.93 309.441 349.93C309.054 349.93 308.709 349.86 308.406 349.719C308.104 349.576 307.866 349.373 307.693 349.11C307.52 348.846 307.434 348.534 307.434 348.171H308.278C308.278 348.372 308.328 348.548 308.427 348.698C308.529 348.845 308.667 348.961 308.843 349.044C309.018 349.127 309.218 349.168 309.441 349.168C309.688 349.168 309.898 349.116 310.071 349.013C310.244 348.909 310.376 348.756 310.466 348.556C310.558 348.353 310.604 348.104 310.604 347.811V342.744ZM316.424 347.659V344.516H317.241V349.833H316.424V348.933H316.368C316.244 349.203 316.05 349.433 315.787 349.622C315.524 349.809 315.191 349.902 314.79 349.902C314.457 349.902 314.162 349.83 313.903 349.684C313.645 349.536 313.442 349.315 313.294 349.02C313.147 348.722 313.073 348.347 313.073 347.894V344.516H313.89V347.839C313.89 348.227 313.998 348.536 314.215 348.767C314.434 348.998 314.713 349.113 315.053 349.113C315.256 349.113 315.462 349.061 315.672 348.957C315.885 348.853 316.062 348.694 316.205 348.479C316.351 348.265 316.424 347.991 316.424 347.659ZM319.554 346.634V349.833H318.737V344.516H319.526V345.347H319.595C319.72 345.077 319.909 344.86 320.163 344.696C320.417 344.53 320.745 344.447 321.146 344.447C321.506 344.447 321.821 344.52 322.091 344.668C322.361 344.814 322.571 345.035 322.721 345.333C322.871 345.628 322.946 346.002 322.946 346.454V349.833H322.129V346.51C322.129 346.092 322.021 345.767 321.804 345.534C321.587 345.298 321.289 345.181 320.911 345.181C320.65 345.181 320.417 345.237 320.211 345.35C320.008 345.463 319.848 345.628 319.73 345.845C319.613 346.062 319.554 346.325 319.554 346.634Z" fill="#667085"/>
<path d="M355.436 342.744H356.295V347.811C356.295 348.264 356.211 348.648 356.045 348.964C355.879 349.28 355.645 349.52 355.343 349.684C355.04 349.848 354.684 349.93 354.273 349.93C353.885 349.93 353.54 349.86 353.238 349.719C352.936 349.576 352.698 349.373 352.525 349.11C352.352 348.846 352.265 348.534 352.265 348.171H353.11C353.11 348.372 353.159 348.548 353.259 348.698C353.36 348.845 353.499 348.961 353.674 349.044C353.849 349.127 354.049 349.168 354.273 349.168C354.52 349.168 354.73 349.116 354.903 349.013C355.076 348.909 355.208 348.756 355.298 348.556C355.39 348.353 355.436 348.104 355.436 347.811V342.744ZM361.255 347.659V344.516H362.072V349.833H361.255V348.933H361.2C361.075 349.203 360.881 349.433 360.618 349.622C360.355 349.809 360.023 349.902 359.621 349.902C359.289 349.902 358.994 349.83 358.735 349.684C358.477 349.536 358.273 349.315 358.126 349.02C357.978 348.722 357.904 348.347 357.904 347.894V344.516H358.721V347.839C358.721 348.227 358.83 348.536 359.047 348.767C359.266 348.998 359.545 349.113 359.884 349.113C360.087 349.113 360.294 349.061 360.504 348.957C360.716 348.853 360.894 348.694 361.037 348.479C361.182 348.265 361.255 347.991 361.255 347.659ZM364.385 342.744V349.833H363.568V342.744H364.385Z" fill="#667085"/>
<path d="M394.689 349.833H393.789L396.392 342.744H397.278L399.882 349.833H398.982L396.863 343.865H396.808L394.689 349.833ZM395.021 347.064H398.649V347.825H395.021V347.064ZM404.226 347.659V344.516H405.043V349.833H404.226V348.933H404.171C404.046 349.203 403.852 349.433 403.589 349.622C403.326 349.809 402.994 349.902 402.592 349.902C402.26 349.902 401.964 349.83 401.706 349.684C401.448 349.536 401.244 349.315 401.097 349.02C400.949 348.722 400.875 348.347 400.875 347.894V344.516H401.692V347.839C401.692 348.227 401.801 348.536 402.018 348.767C402.237 348.998 402.516 349.113 402.855 349.113C403.058 349.113 403.265 349.061 403.475 348.957C403.687 348.853 403.865 348.694 404.008 348.479C404.153 348.265 404.226 347.991 404.226 347.659ZM408.686 351.938C408.291 351.938 407.952 351.887 407.668 351.785C407.384 351.686 407.147 351.555 406.958 351.391C406.771 351.229 406.622 351.056 406.512 350.872L407.162 350.415C407.236 350.511 407.33 350.622 407.443 350.747C407.556 350.874 407.711 350.983 407.907 351.076C408.105 351.17 408.365 351.218 408.686 351.218C409.115 351.218 409.469 351.114 409.748 350.906C410.028 350.698 410.167 350.373 410.167 349.93V348.85H410.098C410.038 348.947 409.953 349.067 409.842 349.21C409.733 349.351 409.576 349.476 409.371 349.587C409.168 349.696 408.893 349.75 408.547 349.75C408.118 349.75 407.732 349.648 407.391 349.445C407.052 349.242 406.783 348.947 406.584 348.559C406.388 348.171 406.29 347.701 406.29 347.147C406.29 346.602 406.386 346.128 406.577 345.724C406.769 345.318 407.036 345.004 407.377 344.782C407.719 344.559 408.113 344.447 408.561 344.447C408.907 344.447 409.182 344.504 409.385 344.62C409.59 344.733 409.747 344.862 409.856 345.007C409.966 345.151 410.052 345.268 410.112 345.361H410.195V344.516H410.984V349.985C410.984 350.442 410.88 350.814 410.673 351.1C410.467 351.388 410.19 351.6 409.842 351.733C409.496 351.87 409.11 351.938 408.686 351.938ZM408.658 349.016C408.986 349.016 409.263 348.941 409.489 348.791C409.715 348.641 409.887 348.425 410.004 348.144C410.122 347.862 410.181 347.525 410.181 347.133C410.181 346.75 410.123 346.412 410.008 346.119C409.893 345.826 409.722 345.596 409.496 345.43C409.269 345.264 408.99 345.181 408.658 345.181C408.312 345.181 408.023 345.268 407.792 345.444C407.564 345.619 407.392 345.854 407.277 346.15C407.164 346.445 407.107 346.773 407.107 347.133C407.107 347.502 407.165 347.829 407.28 348.113C407.398 348.394 407.571 348.616 407.799 348.777C408.03 348.936 408.316 349.016 408.658 349.016Z" fill="#667085"/>
<path d="M444.593 344.516C444.552 344.165 444.383 343.893 444.088 343.699C443.793 343.505 443.43 343.408 443.001 343.408C442.687 343.408 442.413 343.459 442.177 343.56C441.944 343.662 441.762 343.802 441.63 343.979C441.501 344.157 441.436 344.359 441.436 344.585C441.436 344.774 441.481 344.937 441.571 345.073C441.664 345.207 441.781 345.319 441.924 345.409C442.068 345.497 442.218 345.569 442.374 345.627C442.531 345.682 442.676 345.727 442.807 345.762L443.527 345.956C443.712 346.004 443.917 346.071 444.143 346.157C444.372 346.242 444.59 346.359 444.798 346.506C445.008 346.652 445.181 346.839 445.317 347.067C445.453 347.296 445.521 347.576 445.521 347.908C445.521 348.291 445.421 348.638 445.22 348.947C445.022 349.256 444.731 349.502 444.348 349.684C443.967 349.866 443.504 349.958 442.96 349.958C442.452 349.958 442.012 349.876 441.641 349.712C441.271 349.548 440.981 349.32 440.768 349.026C440.558 348.733 440.439 348.393 440.412 348.005H441.298C441.321 348.273 441.411 348.494 441.568 348.67C441.727 348.843 441.928 348.972 442.17 349.058C442.415 349.141 442.678 349.182 442.96 349.182C443.287 349.182 443.581 349.129 443.842 349.023C444.103 348.915 444.31 348.765 444.462 348.573C444.614 348.379 444.69 348.153 444.69 347.894C444.69 347.659 444.625 347.468 444.493 347.32C444.361 347.172 444.188 347.052 443.974 346.96C443.759 346.868 443.527 346.787 443.278 346.718L442.406 346.468C441.852 346.309 441.413 346.082 441.09 345.786C440.767 345.491 440.606 345.104 440.606 344.627C440.606 344.23 440.713 343.884 440.928 343.588C441.144 343.29 441.435 343.06 441.8 342.896C442.167 342.73 442.576 342.647 443.029 342.647C443.486 342.647 443.892 342.729 444.247 342.892C444.603 343.054 444.884 343.275 445.092 343.557C445.302 343.839 445.413 344.158 445.424 344.516H444.593ZM449.051 349.944C448.539 349.944 448.097 349.831 447.725 349.605C447.356 349.376 447.071 349.058 446.87 348.649C446.672 348.238 446.573 347.761 446.573 347.216C446.573 346.671 446.672 346.191 446.87 345.776C447.071 345.358 447.35 345.033 447.708 344.8C448.068 344.564 448.488 344.447 448.968 344.447C449.245 344.447 449.519 344.493 449.789 344.585C450.059 344.677 450.304 344.827 450.526 345.035C450.747 345.241 450.924 345.513 451.055 345.852C451.187 346.191 451.253 346.609 451.253 347.105V347.451H447.154V346.745H450.422C450.422 346.445 450.362 346.177 450.242 345.942C450.124 345.707 449.956 345.521 449.737 345.385C449.52 345.249 449.263 345.181 448.968 345.181C448.643 345.181 448.361 345.261 448.123 345.423C447.888 345.582 447.707 345.79 447.58 346.046C447.453 346.302 447.39 346.577 447.39 346.87V347.341C447.39 347.742 447.459 348.083 447.597 348.362C447.738 348.639 447.933 348.85 448.182 348.995C448.432 349.138 448.721 349.21 449.051 349.21C449.266 349.21 449.46 349.18 449.633 349.12C449.808 349.058 449.959 348.965 450.086 348.843C450.213 348.718 450.311 348.564 450.38 348.379L451.17 348.601C451.087 348.868 450.947 349.104 450.751 349.307C450.555 349.508 450.312 349.665 450.024 349.778C449.735 349.888 449.411 349.944 449.051 349.944ZM452.496 351.827V344.516H453.285V345.361H453.382C453.442 345.268 453.525 345.151 453.631 345.007C453.739 344.862 453.894 344.733 454.095 344.62C454.298 344.504 454.573 344.447 454.919 344.447C455.366 344.447 455.761 344.559 456.103 344.782C456.444 345.006 456.711 345.324 456.902 345.734C457.094 346.145 457.19 346.63 457.19 347.188C457.19 347.751 457.094 348.239 456.902 348.653C456.711 349.063 456.445 349.382 456.106 349.608C455.767 349.832 455.376 349.944 454.933 349.944C454.591 349.944 454.318 349.887 454.112 349.774C453.907 349.659 453.749 349.528 453.638 349.383C453.527 349.235 453.442 349.113 453.382 349.016H453.312V351.827H452.496ZM453.299 347.174C453.299 347.576 453.357 347.93 453.475 348.237C453.593 348.542 453.765 348.781 453.991 348.954C454.217 349.125 454.494 349.21 454.822 349.21C455.163 349.21 455.448 349.12 455.677 348.94C455.908 348.758 456.081 348.513 456.196 348.206C456.314 347.897 456.373 347.553 456.373 347.174C456.373 346.801 456.315 346.464 456.2 346.164C456.086 345.861 455.915 345.622 455.684 345.447C455.455 345.269 455.168 345.181 454.822 345.181C454.489 345.181 454.21 345.265 453.984 345.433C453.758 345.599 453.587 345.832 453.472 346.132C453.356 346.43 453.299 346.778 453.299 347.174Z" fill="#667085"/>
<path d="M492.544 346.288C492.544 347.036 492.409 347.682 492.139 348.227C491.869 348.771 491.499 349.191 491.028 349.487C490.557 349.782 490.02 349.93 489.415 349.93C488.81 349.93 488.273 349.782 487.802 349.487C487.331 349.191 486.961 348.771 486.691 348.227C486.421 347.682 486.286 347.036 486.286 346.288C486.286 345.541 486.421 344.894 486.691 344.35C486.961 343.805 487.331 343.385 487.802 343.09C488.273 342.794 488.81 342.647 489.415 342.647C490.02 342.647 490.557 342.794 491.028 343.09C491.499 343.385 491.869 343.805 492.139 344.35C492.409 344.894 492.544 345.541 492.544 346.288ZM491.714 346.288C491.714 345.674 491.611 345.156 491.406 344.734C491.202 344.312 490.927 343.992 490.578 343.775C490.232 343.558 489.844 343.45 489.415 343.45C488.986 343.45 488.597 343.558 488.248 343.775C487.902 343.992 487.627 344.312 487.421 344.734C487.218 345.156 487.117 345.674 487.117 346.288C487.117 346.902 487.218 347.42 487.421 347.843C487.627 348.265 487.902 348.584 488.248 348.801C488.597 349.018 488.986 349.127 489.415 349.127C489.844 349.127 490.232 349.018 490.578 348.801C490.927 348.584 491.202 348.265 491.406 347.843C491.611 347.42 491.714 346.902 491.714 346.288ZM496.037 349.944C495.539 349.944 495.11 349.826 494.749 349.591C494.389 349.355 494.113 349.031 493.919 348.618C493.725 348.205 493.628 347.733 493.628 347.202C493.628 346.662 493.727 346.186 493.926 345.772C494.126 345.357 494.406 345.033 494.763 344.8C495.123 344.564 495.543 344.447 496.023 344.447C496.397 344.447 496.734 344.516 497.034 344.654C497.334 344.793 497.58 344.987 497.772 345.236C497.963 345.485 498.082 345.776 498.128 346.108H497.311C497.249 345.866 497.11 345.651 496.896 345.464C496.683 345.275 496.397 345.181 496.037 345.181C495.719 345.181 495.44 345.264 495.2 345.43C494.962 345.594 494.776 345.826 494.642 346.126C494.511 346.423 494.445 346.773 494.445 347.174C494.445 347.585 494.509 347.943 494.639 348.248C494.77 348.552 494.955 348.789 495.193 348.957C495.433 349.126 495.714 349.21 496.037 349.21C496.25 349.21 496.442 349.173 496.615 349.099C496.788 349.025 496.935 348.919 497.055 348.781C497.175 348.642 497.26 348.476 497.311 348.282H498.128C498.082 348.596 497.968 348.879 497.785 349.13C497.605 349.38 497.367 349.578 497.069 349.726C496.773 349.871 496.43 349.944 496.037 349.944ZM501.635 344.516V345.208H498.879V344.516H501.635ZM499.682 343.242H500.499V348.31C500.499 348.541 500.533 348.714 500.6 348.829C500.669 348.942 500.757 349.018 500.863 349.058C500.971 349.095 501.086 349.113 501.206 349.113C501.296 349.113 501.369 349.108 501.427 349.099C501.485 349.088 501.531 349.078 501.566 349.071L501.732 349.805C501.676 349.826 501.599 349.847 501.5 349.868C501.401 349.891 501.275 349.902 501.122 349.902C500.892 349.902 500.665 349.853 500.444 349.753C500.225 349.654 500.042 349.503 499.897 349.3C499.754 349.097 499.682 348.841 499.682 348.531V343.242Z" fill="#667085"/>
<path d="M536.831 342.744V349.833H536.001L532.137 344.267H532.068V349.833H531.21V342.744H532.04L535.918 348.324H535.987V342.744H536.831ZM540.599 349.944C540.119 349.944 539.697 349.83 539.335 349.601C538.975 349.373 538.694 349.053 538.49 348.642C538.29 348.231 538.189 347.751 538.189 347.202C538.189 346.648 538.29 346.165 538.49 345.752C538.694 345.339 538.975 345.018 539.335 344.789C539.697 344.561 540.119 344.447 540.599 344.447C541.079 344.447 541.499 344.561 541.859 344.789C542.221 345.018 542.503 345.339 542.703 345.752C542.906 346.165 543.008 346.648 543.008 347.202C543.008 347.751 542.906 348.231 542.703 348.642C542.503 349.053 542.221 349.373 541.859 349.601C541.499 349.83 541.079 349.944 540.599 349.944ZM540.599 349.21C540.963 349.21 541.263 349.116 541.499 348.93C541.734 348.743 541.908 348.497 542.021 348.192C542.134 347.888 542.191 347.558 542.191 347.202C542.191 346.847 542.134 346.516 542.021 346.209C541.908 345.902 541.734 345.654 541.499 345.464C541.263 345.275 540.963 345.181 540.599 345.181C540.234 345.181 539.934 345.275 539.699 345.464C539.463 345.654 539.289 345.902 539.176 346.209C539.063 346.516 539.006 346.847 539.006 347.202C539.006 347.558 539.063 347.888 539.176 348.192C539.289 348.497 539.463 348.743 539.699 348.93C539.934 349.116 540.234 349.21 540.599 349.21ZM548.412 344.516L546.446 349.833H545.615L543.649 344.516H544.535L546.003 348.753H546.059L547.526 344.516H548.412Z" fill="#667085"/>
<path d="M580.168 349.833H577.98V342.744H580.265C580.952 342.744 581.541 342.885 582.03 343.169C582.519 343.451 582.894 343.856 583.155 344.384C583.416 344.911 583.546 345.541 583.546 346.274C583.546 347.013 583.415 347.649 583.152 348.182C582.889 348.713 582.506 349.121 582.003 349.407C581.499 349.691 580.888 349.833 580.168 349.833ZM578.839 349.071H580.112C580.699 349.071 581.184 348.958 581.57 348.732C581.955 348.506 582.243 348.184 582.432 347.766C582.621 347.349 582.716 346.851 582.716 346.274C582.716 345.702 582.622 345.209 582.435 344.796C582.248 344.381 581.969 344.062 581.597 343.841C581.226 343.617 580.763 343.505 580.209 343.505H578.839V349.071ZM587.105 349.944C586.593 349.944 586.151 349.831 585.779 349.605C585.41 349.376 585.125 349.058 584.924 348.649C584.726 348.238 584.626 347.761 584.626 347.216C584.626 346.671 584.726 346.191 584.924 345.776C585.125 345.358 585.404 345.033 585.762 344.8C586.122 344.564 586.542 344.447 587.022 344.447C587.299 344.447 587.572 344.493 587.842 344.585C588.112 344.677 588.358 344.827 588.58 345.035C588.801 345.241 588.978 345.513 589.109 345.852C589.241 346.191 589.307 346.609 589.307 347.105V347.451H585.208V346.745H588.476C588.476 346.445 588.416 346.177 588.296 345.942C588.178 345.707 588.01 345.521 587.79 345.385C587.573 345.249 587.317 345.181 587.022 345.181C586.697 345.181 586.415 345.261 586.177 345.423C585.942 345.582 585.761 345.79 585.634 346.046C585.507 346.302 585.443 346.577 585.443 346.87V347.341C585.443 347.742 585.513 348.083 585.651 348.362C585.792 348.639 585.987 348.85 586.236 348.995C586.485 349.138 586.775 349.21 587.105 349.21C587.32 349.21 587.513 349.18 587.687 349.12C587.862 349.058 588.013 348.965 588.14 348.843C588.267 348.718 588.365 348.564 588.434 348.379L589.224 348.601C589.14 348.868 589.001 349.104 588.805 349.307C588.609 349.508 588.366 349.665 588.078 349.778C587.789 349.888 587.465 349.944 587.105 349.944ZM592.709 349.944C592.211 349.944 591.782 349.826 591.422 349.591C591.062 349.355 590.785 349.031 590.591 348.618C590.397 348.205 590.3 347.733 590.3 347.202C590.3 346.662 590.399 346.186 590.598 345.772C590.799 345.357 591.078 345.033 591.436 344.8C591.796 344.564 592.216 344.447 592.696 344.447C593.069 344.447 593.406 344.516 593.706 344.654C594.006 344.793 594.252 344.987 594.444 345.236C594.635 345.485 594.754 345.776 594.8 346.108H593.983C593.921 345.866 593.783 345.651 593.568 345.464C593.356 345.275 593.069 345.181 592.709 345.181C592.391 345.181 592.112 345.264 591.872 345.43C591.634 345.594 591.448 345.826 591.314 346.126C591.183 346.423 591.117 346.773 591.117 347.174C591.117 347.585 591.182 347.943 591.311 348.248C591.442 348.552 591.627 348.789 591.865 348.957C592.105 349.126 592.386 349.21 592.709 349.21C592.922 349.21 593.114 349.173 593.288 349.099C593.461 349.025 593.607 348.919 593.727 348.781C593.847 348.642 593.933 348.476 593.983 348.282H594.8C594.754 348.596 594.64 348.879 594.458 349.13C594.278 349.38 594.039 349.578 593.741 349.726C593.446 349.871 593.102 349.944 592.709 349.944Z" fill="#667085"/>
<path opacity="0.1" d="M598.944 168.097C606.882 168.097 606.882 153.523 614.82 153.523V334.337H59.1802V246.69C67.7794 246.69 67.1179 252.051 75.0556 252.051C82.9933 252.051 82.9933 236.827 90.931 236.827C98.8687 236.827 97.5458 241.511 106.806 241.511C116.067 241.511 113.421 250.281 122.682 250.281C131.943 250.281 129.958 246.95 138.557 246.95C147.156 246.95 145.503 231.075 154.433 231.075C163.363 231.075 161.047 236.254 170.308 236.254C179.569 236.254 177.915 243.385 186.184 243.385C194.452 243.385 193.129 219.703 202.059 219.703C210.989 219.703 209.997 227.9 217.934 227.9C225.872 227.9 224.549 216.424 233.81 216.424C243.07 216.424 241.086 223.763 249.685 223.763C258.284 223.763 256.961 193.757 265.561 193.757C274.16 193.757 272.506 202.11 281.436 202.11C290.366 202.11 288.051 207.628 297.311 207.628C306.572 207.628 304.257 193.314 313.187 193.314C322.117 193.314 319.802 200.341 329.062 200.341C338.323 200.341 336.669 188.76 344.938 188.76C353.206 188.76 352.214 169.398 360.813 169.398C369.412 169.398 368.089 201.798 376.689 201.798C385.288 201.798 384.296 179.105 392.564 179.105C400.832 179.105 399.179 189.046 408.439 189.046C417.7 189.046 415.716 197.973 424.315 197.973C432.914 197.973 431.922 183.191 440.19 183.191C448.459 183.191 447.797 197.244 456.066 197.244C464.334 197.244 463.342 190.998 471.941 190.998C480.54 190.998 479.217 178.116 487.816 178.116C496.416 178.116 495.093 183.269 503.692 183.269C512.291 183.269 511.63 164.454 519.567 164.454C527.505 164.454 526.182 190.243 535.443 190.243C544.703 190.243 542.388 172.729 551.318 172.729C560.248 172.729 558.925 179.938 567.194 179.938C575.462 179.938 574.801 161.981 583.069 161.981C591.337 161.981 591.007 168.097 598.944 168.097Z" fill="url(#paint0_linear_2802_39934)"/>
<path d="M614.82 153.523C606.882 153.523 606.882 168.097 598.944 168.097C591.007 168.097 591.337 161.981 583.069 161.981C574.801 161.981 575.462 179.938 567.194 179.938C558.925 179.938 560.248 172.729 551.318 172.729C542.388 172.729 544.703 190.243 535.443 190.243C526.182 190.243 527.505 164.454 519.567 164.454C511.63 164.454 512.291 183.269 503.692 183.269C495.093 183.269 496.416 178.116 487.816 178.116C479.217 178.116 480.54 190.998 471.941 190.998C463.342 190.998 464.334 197.244 456.066 197.244C447.797 197.244 448.459 183.191 440.19 183.191C431.922 183.191 432.914 197.973 424.315 197.973C415.716 197.973 417.7 189.046 408.439 189.046C399.179 189.046 400.832 179.105 392.564 179.105C384.296 179.105 385.288 201.798 376.689 201.798C368.089 201.798 369.412 169.398 360.813 169.398C352.214 169.398 353.206 188.76 344.938 188.76C336.669 188.76 338.323 200.341 329.062 200.341C319.802 200.341 322.117 193.314 313.187 193.314C304.257 193.314 306.572 207.628 297.311 207.628C288.051 207.628 290.366 202.11 281.436 202.11C272.506 202.11 274.16 193.757 265.561 193.757C256.961 193.757 258.284 223.763 249.685 223.763C241.086 223.763 243.07 216.424 233.81 216.424C224.549 216.424 225.872 227.9 217.934 227.9C209.997 227.9 210.989 219.703 202.059 219.703C193.129 219.703 194.452 243.385 186.184 243.385C177.915 243.385 179.569 236.254 170.308 236.254C161.047 236.254 163.363 231.075 154.433 231.075C145.503 231.075 147.156 246.95 138.557 246.95C129.958 246.95 131.943 250.281 122.682 250.281C113.421 250.281 116.067 241.511 106.806 241.511C97.5458 241.511 98.8687 236.827 90.931 236.827C82.9933 236.827 82.9933 252.051 75.0556 252.051C67.1179 252.051 67.7794 246.69 59.1802 246.69" stroke="#FF9800" stroke-width="1.62468" stroke-linecap="round" stroke-linejoin="round"/>
<path d="M614.82 228.231C606.882 228.231 606.882 234.712 598.944 234.712C591.007 234.712 591.337 235.569 583.069 235.569C574.801 235.569 575.462 239.977 567.194 239.977C558.925 239.977 560.248 236.772 551.318 236.772C542.388 236.772 544.703 244.56 535.443 244.56C526.182 244.56 527.505 238.457 519.567 238.457C511.63 238.457 512.291 241.459 503.692 241.459C495.093 241.459 496.416 239.167 487.816 239.167C479.217 239.167 480.54 244.896 471.941 244.896C463.342 244.896 464.334 247.673 456.066 247.673C447.797 247.673 448.459 241.424 440.19 241.424C431.922 241.424 432.914 233.691 424.315 233.691C415.716 233.691 417.7 244.028 408.439 244.028C399.179 244.028 400.832 239.607 392.564 239.607C384.296 239.607 382.914 241.992 376.689 242.545C370.497 243.095 369.412 242.444 360.813 242.444C352.214 242.444 353.206 243.9 344.938 243.9C336.669 243.9 338.323 249.05 329.062 249.05C319.802 249.05 322.117 245.926 313.187 245.926C304.257 245.926 306.572 252.29 297.311 252.29C288.051 252.29 290.366 249.837 281.436 249.837C272.506 249.837 274.16 246.122 265.561 246.122C256.961 246.122 258.284 252.312 249.685 252.312C241.086 252.312 243.07 256.202 233.81 256.202C224.549 256.202 223.837 257.403 217.934 261.305C211.058 265.851 210.989 279.119 202.059 279.119C193.129 279.119 192.649 270.961 186.184 268.191C180.12 265.593 179.569 265.02 170.308 265.02C161.047 265.02 163.363 262.717 154.433 262.717C145.503 262.717 147.156 269.776 138.557 269.776C129.958 269.776 131.943 271.257 122.682 271.257C113.421 271.257 116.067 267.357 106.806 267.357C97.5458 267.357 98.8687 265.274 90.931 265.274C82.9933 265.274 82.9933 272.044 75.0556 272.044C67.1179 272.044 67.7794 269.66 59.1802 269.66" stroke="#EF6C00" stroke-width="1.62468" stroke-linecap="round" stroke-linejoin="round"/>
</g>
</g>
<defs>
<filter id="filter0_d_2802_39934" x="0.691826" y="0.976528" width="672.616" height="437.038" filterUnits="userSpaceOnUse" color-interpolation-filters="sRGB">
<feFlood flood-opacity="0" result="BackgroundImageFix"/>
<feColorMatrix in="SourceAlpha" type="matrix" values="0 0 0 0 0 0 0 0 0 0 0 0 0 0 0 0 0 0 127 0" result="hardAlpha"/>
<feOffset dy="19.4961"/>
<feGaussianBlur stdDeviation="19.4961"/>
<feComposite in2="hardAlpha" operator="out"/>
<feColorMatrix type="matrix" values="0 0 0 0 0.0666667 0 0 0 0 0.0941176 0 0 0 0 0.152941 0 0 0 0.25 0"/>
<feBlend mode="normal" in2="BackgroundImageFix" result="effect1_dropShadow_2802_39934"/>
<feBlend mode="normal" in="SourceGraphic" in2="effect1_dropShadow_2802_39934" result="shape"/>
</filter>
<linearGradient id="paint0_linear_2802_39934" x1="337" y1="153.523" x2="337" y2="326.287" gradientUnits="userSpaceOnUse">
<stop stop-color="#EF6C00"/>
<stop offset="0.9999" stop-color="#EF6C00" stop-opacity="0"/>
</linearGradient>
<clipPath id="clip0_2802_39934">
<rect x="39.6841" y="20.4727" width="594.632" height="359.054" rx="16.2468" fill="white"/>
</clipPath>
<clipPath id="clip1_2802_39934">
<rect x="453.583" y="46.4678" width="41.2468" height="26.3727" rx="9.74806" fill="white"/>
</clipPath>
<clipPath id="clip2_2802_39934">
<rect x="504.578" y="46.4678" width="54.2468" height="26.3727" rx="9.74806" fill="white"/>
</clipPath>
<clipPath id="clip3_2802_39934">
<rect x="568.573" y="46.4678" width="46.2468" height="26.3727" rx="9.74806" fill="white"/>
</clipPath>
</defs>
</svg>
