<svg width="25" height="25" viewBox="0 0 25 25" fill="none" xmlns="http://www.w3.org/2000/svg">
<g id="icon / jam-icons / outline &#38; logos / instagram">
<path id="Vector" d="M16.3529 2.04126H8.28294C6.70609 2.04311 5.19437 2.6704 4.07947 3.7855C2.96456 4.90059 2.33753 6.41241 2.33594 7.98926L2.33594 16.0593C2.33779 17.6361 2.96508 19.1478 4.08017 20.2627C5.19527 21.3776 6.70709 22.0047 8.28394 22.0063H16.3539C17.9308 22.0044 19.4425 21.3771 20.5574 20.262C21.6723 19.1469 22.2993 17.6351 22.3009 16.0583V7.98826C22.2991 6.41141 21.6718 4.8997 20.5567 3.78479C19.4416 2.66988 17.9298 2.04285 16.3529 2.04126V2.04126ZM20.2929 16.0583C20.2929 16.5757 20.191 17.088 19.993 17.566C19.795 18.0441 19.5048 18.4784 19.1389 18.8443C18.7731 19.2101 18.3387 19.5003 17.8607 19.6983C17.3827 19.8963 16.8703 19.9983 16.3529 19.9983H8.28294C7.23816 19.998 6.23626 19.5828 5.49758 18.8439C4.75891 18.105 4.34394 17.103 4.34394 16.0583V7.98826C4.3442 6.94348 4.75943 5.94158 5.49829 5.20291C6.23715 4.46423 7.23916 4.04926 8.28394 4.04926H16.3539C17.3987 4.04952 18.4006 4.46475 19.1393 5.20361C19.878 5.94248 20.2929 6.94448 20.2929 7.98926V16.0593V16.0583Z" fill="#6C737F"/>
<path id="Vector_2" d="M12.3179 6.86035C10.9493 6.86247 9.63742 7.40714 8.66978 8.37496C7.70215 9.34278 7.15774 10.6548 7.15588 12.0234C7.15747 13.3923 7.70191 14.7047 8.66978 15.6727C9.63766 16.6408 10.95 17.1855 12.3189 17.1874C13.688 17.1858 15.0005 16.6412 15.9686 15.6731C16.9367 14.705 17.4813 13.3924 17.4829 12.0234C17.4808 10.6544 16.9358 9.34224 15.9676 8.37455C14.9993 7.40686 13.6868 6.86267 12.3179 6.86135V6.86035ZM12.3179 15.1794C11.4811 15.1794 10.6786 14.847 10.087 14.2553C9.49528 13.6636 9.16288 12.8611 9.16288 12.0244C9.16288 11.1876 9.49528 10.3851 10.087 9.79343C10.6786 9.20175 11.4811 8.86935 12.3179 8.86935C13.1546 8.86935 13.9571 9.20175 14.5488 9.79343C15.1405 10.3851 15.4729 11.1876 15.4729 12.0244C15.4729 12.8611 15.1405 13.6636 14.5488 14.2553C13.9571 14.847 13.1546 15.1794 12.3179 15.1794Z" fill="#6C737F"/>
<path id="Vector_3" d="M17.4919 8.13635C18.1751 8.13635 18.7289 7.58253 18.7289 6.89935C18.7289 6.21618 18.1751 5.66235 17.4919 5.66235C16.8087 5.66235 16.2549 6.21618 16.2549 6.89935C16.2549 7.58253 16.8087 8.13635 17.4919 8.13635Z" fill="#6C737F"/>
</g>
</svg>
