<svg xmlns="http://www.w3.org/2000/svg" width="155" height="39" viewBox="0 0 155 39" fill="none">
    <path
        d="M28.7547 16.6477L27.9112 24.9064L24.8898 24.5956L14.0892 23.4886H14.0836L19.643 34.6644L12.2051 38.3588L4.31795 22.4897V22.4878H4.31984L9.71443 14.6973L24.8898 16.2516L28.7547 16.6477Z"
        fill="#005394" />
    <path
        d="M24.8898 0.641602V9.08036L8.42359 12.0942H8.4179L0 13.6371V5.19459L4.57194 4.36057H4.57573L24.8898 0.641602Z"
        fill="#005394" />
    <path d="M47.4671 24.04V31.6542H39.7372V6.78906H57.3578V13.2281H47.4671V17.8057H56.7986V24.0381H47.4671V24.04Z"
        fill="#005394" />
    <path d="M60.3167 31.6523V6.78906H68.0484V31.6523H60.3167Z" fill="#005394" />
    <path
        d="M89.2554 25.5947C88.8838 27.7764 87.9494 29.4255 86.4519 30.54C84.9545 31.6546 82.9168 32.2119 80.3408 32.2119C77.2284 32.2119 74.8496 31.3987 73.2024 29.7743C71.5533 28.1498 70.7307 25.7937 70.7307 22.706C70.7307 19.5727 71.5723 17.1237 73.2555 15.359C74.9387 13.5943 77.2663 12.7129 80.2366 12.7129C83.0912 12.7129 85.326 13.5488 86.941 15.2206C88.554 16.8925 89.3615 19.2144 89.3615 22.1847V24.065H77.7307C77.7781 25.1322 77.998 25.9056 78.3923 26.3813C78.7865 26.8571 79.4026 27.0959 80.2385 27.0959C81.4232 27.0959 82.1529 26.5974 82.4335 25.5985H89.2554V25.5947ZM82.6041 20.3707C82.5567 19.4419 82.3539 18.7747 81.9937 18.3691C81.6336 17.9634 81.082 17.7587 80.3389 17.7587C78.7372 17.7587 77.8786 18.6287 77.763 20.3707H82.6041Z"
        fill="#005394" />
    <path
        d="M102.175 31.6529L99.599 27.3691L97.0572 31.6529H89.3615L95.7341 22.5128L89.9889 13.2666H98.1016L100.052 17.0273L102.245 13.2666H109.628L103.915 21.9897L110.079 31.6529H102.175Z"
        fill="#005394" />
    <path d="M111.994 11.4918V6.79102H119.725V11.4918H111.994ZM111.994 31.6524V13.266H119.725V31.6524H111.994Z"
        fill="#005394" />
    <path
        d="M124.218 6.78906H127.421V17.3053H142.989V6.78906H146.192V31.6523H142.989V20.3002H127.421V31.6523H124.218V6.78906Z"
        fill="#005394" />
    <path d="M151.244 6.78906H154.379V11.4899H151.244V6.78906ZM151.348 13.2281H154.377V31.6523H151.348V13.2281Z"
        fill="#005394" />
</svg>