<svg xmlns="http://www.w3.org/2000/svg" width="24" height="25" viewBox="0 0 24 25" fill="none">
    <mask id="mask0_1360_167156" style="mask-type:alpha" maskUnits="userSpaceOnUse" x="0" y="0" width="24" height="25">
        <rect y="0.523682" width="24" height="24" fill="#D9D9D9" />
    </mask>
    <g mask="url(#mask0_1360_167156)">
        <path
            d="M9.55 15.4705L17.9174 7.10308C18.1453 6.87518 18.4157 6.76123 18.7285 6.76123C19.0414 6.76123 19.3118 6.87518 19.5397 7.10308C19.7676 7.33098 19.8815 7.60136 19.8815 7.91423C19.8815 8.22708 19.7676 8.49746 19.5397 8.72536L10.3516 17.9134C10.1237 18.1413 9.85651 18.2553 9.55 18.2553C9.24348 18.2553 8.97627 18.1413 8.74837 17.9134L4.46032 13.6254C4.23242 13.3975 4.12164 13.1271 4.12797 12.8142C4.13432 12.5014 4.25145 12.231 4.47935 12.0031C4.70725 11.7752 4.97763 11.6612 5.2905 11.6612C5.60335 11.6612 5.87372 11.7752 6.10162 12.0031L9.55 15.4705Z"
            fill="#4CAF50" />
    </g>
</svg>