<svg xmlns="http://www.w3.org/2000/svg" width="24" height="25" viewBox="0 0 24 25" fill="none">
    <mask id="mask0_1360_167165" style="mask-type:alpha" maskUnits="userSpaceOnUse" x="0" y="0" width="24" height="25">
        <rect y="0.523682" width="24" height="24" fill="#D9D9D9" />
    </mask>
    <g mask="url(#mask0_1360_167165)">
        <path
            d="M12 14.115L7.19566 18.9193C6.98442 19.1305 6.71921 19.2362 6.40001 19.2362C6.08081 19.2362 5.81559 19.1305 5.60436 18.9193C5.39312 18.7081 5.28751 18.4429 5.28751 18.1237C5.28751 17.8045 5.39312 17.5392 5.60436 17.328L10.4087 12.5237L5.60436 7.71931C5.39312 7.50807 5.28751 7.24286 5.28751 6.92366C5.28751 6.60446 5.39312 6.33924 5.60436 6.12801C5.81559 5.91677 6.08081 5.81116 6.40001 5.81116C6.71921 5.81116 6.98442 5.91677 7.19566 6.12801L12 10.9324L16.8044 6.12801C17.0156 5.91677 17.2808 5.81116 17.6 5.81116C17.9192 5.81116 18.1844 5.91677 18.3957 6.12801C18.6069 6.33924 18.7125 6.60446 18.7125 6.92366C18.7125 7.24286 18.6069 7.50807 18.3957 7.71931L13.5913 12.5237L18.3957 17.328C18.6069 17.5392 18.7125 17.8045 18.7125 18.1237C18.7125 18.4429 18.6069 18.7081 18.3957 18.9193C18.1844 19.1305 17.9192 19.2362 17.6 19.2362C17.2808 19.2362 17.0156 19.1305 16.8044 18.9193L12 14.115Z"
            fill="#111927" fill-opacity="0.38" />
    </g>
</svg>