<svg width="32" height="33" viewBox="0 0 32 33" fill="none" xmlns="http://www.w3.org/2000/svg">
<g id="support_agent">
<mask id="mask0_2802_40717" style="mask-type:alpha" maskUnits="userSpaceOnUse" x="0" y="0" width="32" height="33">
<rect id="Bounding box" y="0.523438" width="32" height="32" fill="#D9D9D9"/>
</mask>
<g mask="url(#mask0_2802_40717)">
<path id="support_agent_2" d="M16 28.7945C15.5744 28.7945 15.2152 28.6481 14.9225 28.3554C14.6297 28.0626 14.4833 27.7034 14.4833 27.2778C14.4833 26.8522 14.6297 26.493 14.9225 26.2003C15.2152 25.9075 15.5744 25.7611 16 25.7611H25.2297V16.2865C25.2297 13.745 24.3321 11.5926 22.537 9.82927C20.7418 8.06599 18.5655 7.18434 16.008 7.18434C13.4505 7.18434 11.2715 8.06599 9.471 9.82927C7.67053 11.5926 6.7703 13.7476 6.7703 16.2945V23.1822C6.7703 23.6078 6.62392 23.967 6.33116 24.2597C6.03841 24.5525 5.67923 24.6988 5.25363 24.6988H5.21376C4.43792 24.6988 3.77427 24.4258 3.22283 23.8796C2.67136 23.3335 2.39563 22.6725 2.39563 21.8967V19.0945C2.39563 18.6225 2.51496 18.1796 2.75363 17.7659C2.99227 17.3521 3.31739 17.015 3.72896 16.7546L3.80506 15.3387C3.94033 13.7638 4.35796 12.3027 5.05796 10.9554C5.75796 9.60802 6.65169 8.43531 7.73913 7.43724C8.82657 6.43917 10.0802 5.65886 11.5 5.09631C12.9198 4.53373 14.4198 4.25244 16 4.25244C17.5802 4.25244 19.076 4.53373 20.4873 5.09631C21.8987 5.65886 23.1523 6.43627 24.2482 7.42854C25.3441 8.42081 26.2378 9.59062 26.9294 10.938C27.6209 12.2853 28.0428 13.7464 28.1949 15.3213L28.271 16.7039C28.6933 16.9252 29.021 17.2398 29.2544 17.6477C29.4877 18.0557 29.6044 18.4899 29.6044 18.9503V22.0409C29.6044 22.5172 29.4904 22.9713 29.2623 23.4032C29.0343 23.8351 28.7039 24.167 28.271 24.3988V25.7691C28.271 26.5981 27.9794 27.3096 27.396 27.9035C26.8127 28.4975 26.1065 28.7945 25.2775 28.7945H16ZM12.0957 19.4054C11.7072 19.4054 11.3813 19.2736 11.1178 19.0101C10.8542 18.7465 10.7225 18.4206 10.7225 18.0322C10.7225 17.6438 10.8542 17.3178 11.1178 17.0543C11.3813 16.7907 11.7072 16.659 12.0957 16.659C12.4841 16.659 12.81 16.7907 13.0736 17.0543C13.3371 17.3178 13.4688 17.6438 13.4688 18.0322C13.4688 18.4206 13.3371 18.7465 13.0736 19.0101C12.81 19.2736 12.4841 19.4054 12.0957 19.4054ZM19.9043 19.4054C19.5159 19.4054 19.19 19.2736 18.9264 19.0101C18.6629 18.7465 18.5312 18.4206 18.5312 18.0322C18.5312 17.6438 18.6629 17.3178 18.9264 17.0543C19.19 16.7907 19.5159 16.659 19.9043 16.659C20.2928 16.659 20.6187 16.7907 20.8822 17.0543C21.1458 17.3178 21.2775 17.6438 21.2775 18.0322C21.2775 18.4206 21.1458 18.7465 20.8822 19.0101C20.6187 19.2736 20.2928 19.4054 19.9043 19.4054ZM8.129 16.9082C7.99469 14.6218 8.70845 12.6686 10.2703 11.0488C11.8321 9.42904 13.7616 8.61914 16.0587 8.61914C17.9993 8.61914 19.7076 9.23363 21.1837 10.4626C22.6598 11.6916 23.5534 13.2653 23.8645 15.1836C21.9113 15.1614 20.102 14.6595 18.4366 13.6778C16.7711 12.6962 15.4802 11.3368 14.5638 9.59957C14.187 11.2976 13.4263 12.7906 12.2819 14.0785C11.1375 15.3665 9.75315 16.3097 8.129 16.9082Z" fill="#EF6C00"/>
</g>
</g>
</svg>
