<svg width="32" height="33" viewBox="0 0 32 33" fill="none" xmlns="http://www.w3.org/2000/svg">
<g id="readiness_score">
<mask id="mask0_2802_40722" style="mask-type:alpha" maskUnits="userSpaceOnUse" x="0" y="0" width="32" height="33">
<rect id="Bounding box" y="0.523438" width="32" height="32" fill="#D9D9D9"/>
</mask>
<g mask="url(#mask0_2802_40722)">
<path id="readiness_score_2" d="M9.77753 28.8198C8.94564 28.803 8.15531 28.5961 7.40653 28.1992C6.65773 27.8023 5.95313 27.2155 5.29273 26.4387C4.3826 25.3561 3.67222 24.0613 3.1616 22.5543C2.65095 21.0473 2.39563 19.4947 2.39563 17.8967C2.39563 16.0097 2.75227 14.2365 3.46556 12.5771C4.17885 10.9177 5.14879 9.47335 6.37536 8.24411C7.60192 7.01489 9.04225 6.04231 10.6964 5.32637C12.3505 4.61042 14.1184 4.25244 16 4.25244C17.8816 4.25244 19.6508 4.61464 21.3076 5.33904C22.9644 6.06344 24.4047 7.05004 25.6286 8.29884C26.8525 9.54762 27.8211 11.0128 28.5344 12.6945C29.2477 14.3761 29.6044 16.18 29.6044 18.1061C29.6044 19.8597 29.3173 21.4996 28.7431 23.0256C28.169 24.5517 27.3575 25.8365 26.3087 26.88C25.6652 27.5129 24.9897 27.9944 24.2822 28.3246C23.5747 28.6548 22.8548 28.8198 22.1225 28.8198C21.7118 28.8198 21.2986 28.7685 20.8826 28.6659C20.4667 28.5632 20.0534 28.4092 19.6428 28.2039L17.7522 27.2626C17.4855 27.1293 17.2062 27.0293 16.9141 26.9626C16.6221 26.8959 16.3147 26.8626 15.992 26.8626C15.6693 26.8626 15.3606 26.8959 15.0659 26.9626C14.7712 27.0293 14.4906 27.1293 14.2239 27.2626L12.3413 28.2039C11.9138 28.4261 11.4891 28.5886 11.0674 28.6912C10.6456 28.7939 10.2157 28.8368 9.77753 28.8198ZM9.8442 25.8822C10.0389 25.8822 10.2365 25.86 10.437 25.8155C10.6374 25.7711 10.835 25.6959 11.0297 25.5901L12.9123 24.6488C13.3949 24.3991 13.8942 24.216 14.4101 24.0996C14.9261 23.9831 15.4476 23.9249 15.9746 23.9249C16.5017 23.9249 17.0261 23.9831 17.5478 24.0996C18.0696 24.216 18.5691 24.3964 19.0464 24.6409L20.9623 25.5901C21.157 25.6959 21.349 25.7711 21.5384 25.8155C21.7278 25.86 21.9198 25.8822 22.1145 25.8822C22.5155 25.8822 22.8995 25.7751 23.2667 25.5608C23.6338 25.3465 24.0036 25.0225 24.3761 24.5887C25.0925 23.7443 25.6521 22.7305 26.0547 21.5474C26.4574 20.3643 26.6587 19.1479 26.6587 17.8981C26.6587 14.9203 25.6254 12.3926 23.5587 10.3148C21.492 8.237 18.9725 7.19811 16 7.19811C13.0275 7.19811 10.508 8.24255 8.4413 10.3314C6.37463 12.4203 5.3413 14.9537 5.3413 17.9314C5.3413 19.2034 5.54685 20.4381 5.95796 21.6354C6.36907 22.8328 6.9413 23.8452 7.67463 24.6727C8.0471 25.1013 8.4058 25.41 8.75073 25.5988C9.09564 25.7877 9.46013 25.8822 9.8442 25.8822ZM16 20.7068C16.7865 20.7068 17.4581 20.4284 18.0149 19.8717C18.5716 19.3149 18.85 18.6433 18.85 17.8568C18.85 17.679 18.8333 17.5026 18.8 17.3275C18.7667 17.1523 18.7193 16.9759 18.658 16.7981L20.1732 14.788C20.3911 15.0832 20.5725 15.3839 20.7174 15.6901C20.8623 15.9964 20.9824 16.3167 21.0775 16.651C21.1833 17.0385 21.3646 17.3735 21.6214 17.6561C21.8781 17.9387 22.2002 18.08 22.5877 18.08C23.08 18.08 23.4658 17.8696 23.7453 17.4488C24.0248 17.0281 24.101 16.5631 23.9739 16.0539C23.5082 14.1901 22.5385 12.6581 21.0649 11.4579C19.5912 10.2577 17.9029 9.65754 16 9.65754C14.0802 9.65754 12.3864 10.2577 10.9185 11.4579C9.4506 12.6581 8.48381 14.1901 8.0181 16.0539C7.89105 16.5631 7.9686 17.0281 8.25073 17.4488C8.53284 17.8696 8.92004 18.08 9.41233 18.08C9.79975 18.08 10.1192 17.9387 10.3707 17.6561C10.6221 17.3735 10.8034 17.0385 10.9145 16.651C11.2097 15.4679 11.8255 14.4975 12.762 13.7398C13.6984 12.982 14.7778 12.6032 16 12.6032C16.329 12.6032 16.6498 12.6325 16.9623 12.6912C17.2749 12.7499 17.5761 12.838 17.8659 12.9554L16.3174 15.0322C16.273 15.0322 16.2201 15.0279 16.1587 15.0195C16.0973 15.011 16.0444 15.0068 16 15.0068C15.2135 15.0068 14.5419 15.2852 13.9851 15.8419C13.4284 16.3987 13.15 17.0703 13.15 17.8568C13.15 18.6433 13.4284 19.3149 13.9851 19.8717C14.5419 20.4284 15.2135 20.7068 16 20.7068Z" fill="#EF6C00"/>
</g>
</g>
</svg>
