<svg width="25" height="25" viewBox="0 0 25 25" fill="none" xmlns="http://www.w3.org/2000/svg">
<g id="icon / jam-icons / outline &#38; logos / twitter">
<path id="Vector" d="M22.3359 5.94818C21.5863 6.27556 20.7924 6.49022 19.9799 6.58518C20.8327 6.08441 21.474 5.29028 21.7839 4.35118C20.9759 4.82151 20.0947 5.15278 19.1769 5.33118C18.7905 4.92639 18.3256 4.60457 17.8107 4.38536C17.2958 4.16615 16.7416 4.05414 16.1819 4.05618C13.9159 4.05618 12.0789 5.86618 12.0789 8.09618C12.0789 8.41218 12.1149 8.72118 12.1849 9.01618C10.5595 8.93887 8.96805 8.52359 7.51211 7.79682C6.05616 7.07005 4.7677 6.04776 3.72894 4.79518C3.36476 5.40958 3.17335 6.11096 3.17494 6.82518C3.17563 7.49315 3.34277 8.15041 3.66123 8.73757C3.97969 9.32474 4.43944 9.82329 4.99894 10.1882C4.34842 10.1672 3.71196 9.99351 3.14094 9.68118V9.73118C3.14094 11.6892 4.55594 13.3222 6.43094 13.6942C6.07855 13.7877 5.71552 13.8351 5.35094 13.8352C5.08594 13.8352 4.82894 13.8102 4.57794 13.7602C4.84602 14.5681 5.35904 15.2725 6.04576 15.7755C6.73247 16.2785 7.55878 16.5552 8.40994 16.5672C6.95001 17.6917 5.15776 18.2992 3.31494 18.2942C2.98294 18.2942 2.65694 18.2742 2.33594 18.2382C4.21719 19.4289 6.39853 20.0595 8.62494 20.0562C16.1719 20.0562 20.2979 13.8992 20.2979 8.56018L20.2839 8.03718C21.0888 7.47085 21.7841 6.76303 22.3359 5.94818Z" fill="#6C737F"/>
</g>
</svg>
