<svg xmlns="http://www.w3.org/2000/svg" width="25" height="25" viewBox="0 0 25 25" fill="none">
    <path
        d="M15.4735 17.1423C11.4122 17.1423 8.10798 13.836 8.10687 9.77348C8.10798 8.74367 8.94627 7.90625 9.97355 7.90625C10.0792 7.90625 10.1837 7.91515 10.2837 7.93294C10.5039 7.96964 10.7129 8.04415 10.9052 8.15647C10.933 8.17316 10.9519 8.19986 10.9564 8.231L11.3855 10.9367C11.3911 10.969 11.3811 11.0001 11.3599 11.0235C11.1231 11.2859 10.8207 11.475 10.4839 11.5695L10.3215 11.6151L10.3827 11.7719C10.9363 13.1821 12.0637 14.3086 13.4745 14.8647L13.6313 14.927L13.6769 14.7646C13.7714 14.4277 13.9604 14.1251 14.2228 13.8883C14.2417 13.8705 14.2672 13.8616 14.2928 13.8616C14.2984 13.8616 14.3039 13.8616 14.3106 13.8627L17.0156 14.292C17.0478 14.2975 17.0745 14.3153 17.0912 14.3431C17.2023 14.5355 17.2768 14.7457 17.3146 14.9659C17.3324 15.0638 17.3402 15.1672 17.3402 15.2751C17.3402 16.3038 16.503 17.1412 15.4735 17.1423Z"
        fill="#111927" />
    <path
        d="M22.6755 11.6081C22.4565 9.13259 21.3225 6.8361 19.4825 5.14236C17.6314 3.43862 15.23 2.5 12.7184 2.5C7.20625 2.5 2.72135 6.98623 2.72135 12.5C2.72135 14.3506 3.23164 16.1533 4.19778 17.7236L2.04315 22.4946L8.94174 21.7594C10.1414 22.251 11.411 22.5001 12.7173 22.5001C13.0609 22.5001 13.4133 22.4823 13.7669 22.4456C14.0782 22.4122 14.3928 22.3633 14.7019 22.301C19.318 21.368 22.6878 17.2699 22.7145 12.5534V12.5C22.7145 12.1998 22.7011 11.8995 22.6744 11.6092L22.6755 11.6081ZM9.20746 19.6653L5.39073 20.0724L6.5303 17.5468L6.30238 17.241C6.2857 17.2187 6.26903 17.1965 6.25013 17.1709C5.26065 15.8041 4.7381 14.1893 4.7381 12.5012C4.7381 8.09944 8.31803 4.51846 12.7184 4.51846C16.8409 4.51846 20.3352 7.73579 20.6721 11.8428C20.6899 12.063 20.6999 12.2843 20.6999 12.5023C20.6999 12.5646 20.6988 12.6257 20.6977 12.6913C20.6132 16.3735 18.0416 19.5008 14.4439 20.297C14.1693 20.3582 13.888 20.4049 13.6079 20.4349C13.3166 20.4683 13.0175 20.485 12.7207 20.485C11.6634 20.485 10.6361 20.2803 9.66551 19.8755C9.55767 19.8322 9.45204 19.7855 9.35309 19.7376L9.20857 19.6676L9.20746 19.6653Z"
        fill="#111927" />
</svg>