<svg width="25" height="25" viewBox="0 0 25 25" fill="none" xmlns="http://www.w3.org/2000/svg">
<g id="icon / jam-icons / outline &#38; logos / youtube">
<path id="Vector" d="M18.1479 5.05837H6.48094C4.19094 5.05837 2.33594 6.89337 2.33594 9.15737V14.9254C2.33594 17.1894 4.19194 19.0254 6.48094 19.0254H18.1479C20.4379 19.0254 22.2929 17.1894 22.2929 14.9254V9.15737C22.2929 6.89337 20.4369 5.05737 18.1479 5.05737V5.05837ZM15.3449 12.3214L9.88794 14.8964C9.85465 14.9124 9.81786 14.9197 9.78097 14.9177C9.74408 14.9157 9.70831 14.9044 9.67697 14.8848C9.64563 14.8653 9.61975 14.8381 9.60174 14.8058C9.58372 14.7736 9.57416 14.7373 9.57394 14.7004V9.39137C9.5746 9.35425 9.58466 9.31789 9.60316 9.2857C9.62166 9.2535 9.64801 9.22652 9.67976 9.20725C9.7115 9.18798 9.74761 9.17707 9.78471 9.17551C9.82181 9.17396 9.8587 9.18183 9.89194 9.19837L15.3499 11.9334C15.3863 11.9515 15.4168 11.9795 15.4379 12.0142C15.4591 12.0489 15.47 12.0888 15.4695 12.1294C15.469 12.1701 15.457 12.2097 15.435 12.2438C15.413 12.278 15.3817 12.3052 15.3449 12.3224V12.3214Z" fill="#6C737F"/>
</g>
</svg>
